<?xml version="1.0" encoding="utf-8" standalone="no"?>
<!DOCTYPE svg PUBLIC "-//W3C//DTD SVG 1.1//EN"
  "http://www.w3.org/Graphics/SVG/1.1/DTD/svg11.dtd">
<svg xmlns:xlink="http://www.w3.org/1999/xlink" width="515.573281pt" height="294.960781pt" viewBox="0 0 515.573281 294.960781" xmlns="http://www.w3.org/2000/svg" version="1.1">
 <metadata>
  <rdf:RDF xmlns:dc="http://purl.org/dc/elements/1.1/" xmlns:cc="http://creativecommons.org/ns#" xmlns:rdf="http://www.w3.org/1999/02/22-rdf-syntax-ns#">
   <cc:Work>
    <dc:type rdf:resource="http://purl.org/dc/dcmitype/StillImage"/>
    <dc:date>2026-07-02T17:19:56.103874</dc:date>
    <dc:format>image/svg+xml</dc:format>
    <dc:creator>
     <cc:Agent>
      <dc:title>Matplotlib v3.11.0, https://matplotlib.org/</dc:title>
     </cc:Agent>
    </dc:creator>
   </cc:Work>
  </rdf:RDF>
 </metadata>
 <defs>
  <style type="text/css">*{stroke-linejoin: round; stroke-linecap: butt}</style>
 </defs>
 <g id="figure_1">
  <g id="patch_1">
   <path d="M -0 294.960781 
L 515.573281 294.960781 
L 515.573281 0 
L -0 0 
L -0 294.960781 
z
" style="fill: none"/>
  </g>
  <g id="axes_1">
   <g id="patch_2">
    <path d="M 39.653281 257.76 
L 252.707827 257.76 
L 252.707827 36 
L 39.653281 36 
L 39.653281 257.76 
z
" style="fill: none"/>
   </g>
   <g id="matplotlib.axis_1">
    <g id="xtick_1">
     <g id="line2d_1">
      <path d="M 72.124161 257.76 
L 72.124161 36 
" clip-path="url(#p866dbe2600)" style="fill: none; stroke: #262b35; stroke-width: 0.6; stroke-linecap: square"/>
     </g>
     <g id="line2d_2">
      <defs>
       <path id="m30dbfa8cf2" d="M 0 0 
L 0 3.5 
" style="stroke: #7d8593; stroke-width: 0.8"/>
      </defs>
      <g>
       <use xlink:href="#m30dbfa8cf2" x="72.124161" y="257.76" style="fill: #7d8593; stroke: #7d8593; stroke-width: 0.8"/>
      </g>
     </g>
     <g id="text_1">
      <!-- 40 -->
      <g style="fill: #7d8593" transform="translate(66.397911 271.597891) scale(0.09 -0.09)">
       <defs>
        <path id="DejaVuSans-17" d="M 2419 4116 
L 825 1625 
L 2419 1625 
L 2419 4116 
z
M 2253 4666 
L 3047 4666 
L 3047 1625 
L 3713 1625 
L 3713 1100 
L 3047 1100 
L 3047 0 
L 2419 0 
L 2419 1100 
L 313 1100 
L 313 1709 
L 2253 4666 
z
" transform="scale(0.015625)"/>
        <path id="DejaVuSans-13" d="M 2034 4250 
Q 1547 4250 1301 3770 
Q 1056 3291 1056 2328 
Q 1056 1369 1301 889 
Q 1547 409 2034 409 
Q 2525 409 2770 889 
Q 3016 1369 3016 2328 
Q 3016 3291 2770 3770 
Q 2525 4250 2034 4250 
z
M 2034 4750 
Q 2819 4750 3233 4129 
Q 3647 3509 3647 2328 
Q 3647 1150 3233 529 
Q 2819 -91 2034 -91 
Q 1250 -91 836 529 
Q 422 1150 422 2328 
Q 422 3509 836 4129 
Q 1250 4750 2034 4750 
z
" transform="scale(0.015625)"/>
       </defs>
       <use xlink:href="#DejaVuSans-17"/>
       <use xlink:href="#DejaVuSans-13" transform="translate(63.625 0)"/>
      </g>
     </g>
    </g>
    <g id="xtick_2">
     <g id="line2d_3">
      <path d="M 129.090617 257.76 
L 129.090617 36 
" clip-path="url(#p866dbe2600)" style="fill: none; stroke: #262b35; stroke-width: 0.6; stroke-linecap: square"/>
     </g>
     <g id="line2d_4">
      <g>
       <use xlink:href="#m30dbfa8cf2" x="129.090617" y="257.76" style="fill: #7d8593; stroke: #7d8593; stroke-width: 0.8"/>
      </g>
     </g>
     <g id="text_2">
      <!-- 60 -->
      <g style="fill: #7d8593" transform="translate(123.364367 271.597891) scale(0.09 -0.09)">
       <defs>
        <path id="DejaVuSans-19" d="M 2113 2584 
Q 1688 2584 1439 2293 
Q 1191 2003 1191 1497 
Q 1191 994 1439 701 
Q 1688 409 2113 409 
Q 2538 409 2786 701 
Q 3034 994 3034 1497 
Q 3034 2003 2786 2293 
Q 2538 2584 2113 2584 
z
M 3366 4563 
L 3366 3988 
Q 3128 4100 2886 4159 
Q 2644 4219 2406 4219 
Q 1781 4219 1451 3797 
Q 1122 3375 1075 2522 
Q 1259 2794 1537 2939 
Q 1816 3084 2150 3084 
Q 2853 3084 3261 2657 
Q 3669 2231 3669 1497 
Q 3669 778 3244 343 
Q 2819 -91 2113 -91 
Q 1303 -91 875 529 
Q 447 1150 447 2328 
Q 447 3434 972 4092 
Q 1497 4750 2381 4750 
Q 2619 4750 2861 4703 
Q 3103 4656 3366 4563 
z
" transform="scale(0.015625)"/>
       </defs>
       <use xlink:href="#DejaVuSans-19"/>
       <use xlink:href="#DejaVuSans-13" transform="translate(63.625 0)"/>
      </g>
     </g>
    </g>
    <g id="xtick_3">
     <g id="line2d_5">
      <path d="M 186.057073 257.76 
L 186.057073 36 
" clip-path="url(#p866dbe2600)" style="fill: none; stroke: #262b35; stroke-width: 0.6; stroke-linecap: square"/>
     </g>
     <g id="line2d_6">
      <g>
       <use xlink:href="#m30dbfa8cf2" x="186.057073" y="257.76" style="fill: #7d8593; stroke: #7d8593; stroke-width: 0.8"/>
      </g>
     </g>
     <g id="text_3">
      <!-- 80 -->
      <g style="fill: #7d8593" transform="translate(180.330823 271.597891) scale(0.09 -0.09)">
       <defs>
        <path id="DejaVuSans-1b" d="M 2034 2216 
Q 1584 2216 1326 1975 
Q 1069 1734 1069 1313 
Q 1069 891 1326 650 
Q 1584 409 2034 409 
Q 2484 409 2743 651 
Q 3003 894 3003 1313 
Q 3003 1734 2745 1975 
Q 2488 2216 2034 2216 
z
M 1403 2484 
Q 997 2584 770 2862 
Q 544 3141 544 3541 
Q 544 4100 942 4425 
Q 1341 4750 2034 4750 
Q 2731 4750 3128 4425 
Q 3525 4100 3525 3541 
Q 3525 3141 3298 2862 
Q 3072 2584 2669 2484 
Q 3125 2378 3379 2068 
Q 3634 1759 3634 1313 
Q 3634 634 3220 271 
Q 2806 -91 2034 -91 
Q 1263 -91 848 271 
Q 434 634 434 1313 
Q 434 1759 690 2068 
Q 947 2378 1403 2484 
z
M 1172 3481 
Q 1172 3119 1398 2916 
Q 1625 2713 2034 2713 
Q 2441 2713 2670 2916 
Q 2900 3119 2900 3481 
Q 2900 3844 2670 4047 
Q 2441 4250 2034 4250 
Q 1625 4250 1398 4047 
Q 1172 3844 1172 3481 
z
" transform="scale(0.015625)"/>
       </defs>
       <use xlink:href="#DejaVuSans-1b"/>
       <use xlink:href="#DejaVuSans-13" transform="translate(63.625 0)"/>
      </g>
     </g>
    </g>
    <g id="xtick_4">
     <g id="line2d_7">
      <path d="M 243.023529 257.76 
L 243.023529 36 
" clip-path="url(#p866dbe2600)" style="fill: none; stroke: #262b35; stroke-width: 0.6; stroke-linecap: square"/>
     </g>
     <g id="line2d_8">
      <g>
       <use xlink:href="#m30dbfa8cf2" x="243.023529" y="257.76" style="fill: #7d8593; stroke: #7d8593; stroke-width: 0.8"/>
      </g>
     </g>
     <g id="text_4">
      <!-- 100 -->
      <g style="fill: #7d8593" transform="translate(234.434154 271.597891) scale(0.09 -0.09)">
       <defs>
        <path id="DejaVuSans-14" d="M 794 531 
L 1825 531 
L 1825 4091 
L 703 3866 
L 703 4441 
L 1819 4666 
L 2450 4666 
L 2450 531 
L 3481 531 
L 3481 0 
L 794 0 
L 794 531 
z
" transform="scale(0.015625)"/>
       </defs>
       <use xlink:href="#DejaVuSans-14"/>
       <use xlink:href="#DejaVuSans-13" transform="translate(63.625 0)"/>
       <use xlink:href="#DejaVuSans-13" transform="translate(127.25 0)"/>
      </g>
     </g>
    </g>
    <g id="text_5">
     <!-- qubits (GHZ) -->
     <g style="fill: #969ba6" transform="translate(114.15946 285.358437) scale(0.1 -0.1)">
      <defs>
       <path id="DejaVuSans-54" d="M 947 1747 
Q 947 1113 1208 752 
Q 1469 391 1925 391 
Q 2381 391 2643 752 
Q 2906 1113 2906 1747 
Q 2906 2381 2643 2742 
Q 2381 3103 1925 3103 
Q 1469 3103 1208 2742 
Q 947 2381 947 1747 
z
M 2906 525 
Q 2725 213 2448 61 
Q 2172 -91 1784 -91 
Q 1150 -91 751 415 
Q 353 922 353 1747 
Q 353 2572 751 3078 
Q 1150 3584 1784 3584 
Q 2172 3584 2448 3432 
Q 2725 3281 2906 2969 
L 2906 3500 
L 3481 3500 
L 3481 -1331 
L 2906 -1331 
L 2906 525 
z
" transform="scale(0.015625)"/>
       <path id="DejaVuSans-58" d="M 544 1381 
L 544 3500 
L 1119 3500 
L 1119 1403 
Q 1119 906 1312 657 
Q 1506 409 1894 409 
Q 2359 409 2629 706 
Q 2900 1003 2900 1516 
L 2900 3500 
L 3475 3500 
L 3475 0 
L 2900 0 
L 2900 538 
Q 2691 219 2414 64 
Q 2138 -91 1772 -91 
Q 1169 -91 856 284 
Q 544 659 544 1381 
z
M 1991 3584 
L 1991 3584 
z
" transform="scale(0.015625)"/>
       <path id="DejaVuSans-45" d="M 3116 1747 
Q 3116 2381 2855 2742 
Q 2594 3103 2138 3103 
Q 1681 3103 1420 2742 
Q 1159 2381 1159 1747 
Q 1159 1113 1420 752 
Q 1681 391 2138 391 
Q 2594 391 2855 752 
Q 3116 1113 3116 1747 
z
M 1159 2969 
Q 1341 3281 1617 3432 
Q 1894 3584 2278 3584 
Q 2916 3584 3314 3078 
Q 3713 2572 3713 1747 
Q 3713 922 3314 415 
Q 2916 -91 2278 -91 
Q 1894 -91 1617 61 
Q 1341 213 1159 525 
L 1159 0 
L 581 0 
L 581 4863 
L 1159 4863 
L 1159 2969 
z
" transform="scale(0.015625)"/>
       <path id="DejaVuSans-4c" d="M 603 3500 
L 1178 3500 
L 1178 0 
L 603 0 
L 603 3500 
z
M 603 4863 
L 1178 4863 
L 1178 4134 
L 603 4134 
L 603 4863 
z
" transform="scale(0.015625)"/>
       <path id="DejaVuSans-57" d="M 1172 4494 
L 1172 3500 
L 2356 3500 
L 2356 3053 
L 1172 3053 
L 1172 1153 
Q 1172 725 1289 603 
Q 1406 481 1766 481 
L 2356 481 
L 2356 0 
L 1766 0 
Q 1100 0 847 248 
Q 594 497 594 1153 
L 594 3053 
L 172 3053 
L 172 3500 
L 594 3500 
L 594 4494 
L 1172 4494 
z
" transform="scale(0.015625)"/>
       <path id="DejaVuSans-56" d="M 2834 3397 
L 2834 2853 
Q 2591 2978 2328 3040 
Q 2066 3103 1784 3103 
Q 1356 3103 1142 2972 
Q 928 2841 928 2578 
Q 928 2378 1081 2264 
Q 1234 2150 1697 2047 
L 1894 2003 
Q 2506 1872 2764 1633 
Q 3022 1394 3022 966 
Q 3022 478 2636 193 
Q 2250 -91 1575 -91 
Q 1294 -91 989 -36 
Q 684 19 347 128 
L 347 722 
Q 666 556 975 473 
Q 1284 391 1588 391 
Q 1994 391 2212 530 
Q 2431 669 2431 922 
Q 2431 1156 2273 1281 
Q 2116 1406 1581 1522 
L 1381 1569 
Q 847 1681 609 1914 
Q 372 2147 372 2553 
Q 372 3047 722 3315 
Q 1072 3584 1716 3584 
Q 2034 3584 2315 3537 
Q 2597 3491 2834 3397 
z
" transform="scale(0.015625)"/>
       <path id="DejaVuSans-3" transform="scale(0.015625)"/>
       <path id="DejaVuSans-b" d="M 1984 4856 
Q 1566 4138 1362 3434 
Q 1159 2731 1159 2009 
Q 1159 1288 1364 580 
Q 1569 -128 1984 -844 
L 1484 -844 
Q 1016 -109 783 600 
Q 550 1309 550 2009 
Q 550 2706 781 3412 
Q 1013 4119 1484 4856 
L 1984 4856 
z
" transform="scale(0.015625)"/>
       <path id="DejaVuSans-2a" d="M 3809 666 
L 3809 1919 
L 2778 1919 
L 2778 2438 
L 4434 2438 
L 4434 434 
Q 4069 175 3628 42 
Q 3188 -91 2688 -91 
Q 1594 -91 976 548 
Q 359 1188 359 2328 
Q 359 3472 976 4111 
Q 1594 4750 2688 4750 
Q 3144 4750 3555 4637 
Q 3966 4525 4313 4306 
L 4313 3634 
Q 3963 3931 3569 4081 
Q 3175 4231 2741 4231 
Q 1884 4231 1454 3753 
Q 1025 3275 1025 2328 
Q 1025 1384 1454 906 
Q 1884 428 2741 428 
Q 3075 428 3337 486 
Q 3600 544 3809 666 
z
" transform="scale(0.015625)"/>
       <path id="DejaVuSans-2b" d="M 628 4666 
L 1259 4666 
L 1259 2753 
L 3553 2753 
L 3553 4666 
L 4184 4666 
L 4184 0 
L 3553 0 
L 3553 2222 
L 1259 2222 
L 1259 0 
L 628 0 
L 628 4666 
z
" transform="scale(0.015625)"/>
       <path id="DejaVuSans-3d" d="M 359 4666 
L 4025 4666 
L 4025 4184 
L 1075 531 
L 4097 531 
L 4097 0 
L 288 0 
L 288 481 
L 3238 4134 
L 359 4134 
L 359 4666 
z
" transform="scale(0.015625)"/>
       <path id="DejaVuSans-c" d="M 513 4856 
L 1013 4856 
Q 1481 4119 1714 3412 
Q 1947 2706 1947 2009 
Q 1947 1309 1714 600 
Q 1481 -109 1013 -844 
L 513 -844 
Q 928 -128 1133 580 
Q 1338 1288 1338 2009 
Q 1338 2731 1133 3434 
Q 928 4138 513 4856 
z
" transform="scale(0.015625)"/>
      </defs>
      <use xlink:href="#DejaVuSans-54"/>
      <use xlink:href="#DejaVuSans-58" transform="translate(63.484375 0)"/>
      <use xlink:href="#DejaVuSans-45" transform="translate(126.859375 0)"/>
      <use xlink:href="#DejaVuSans-4c" transform="translate(190.34375 0)"/>
      <use xlink:href="#DejaVuSans-57" transform="translate(218.125 0)"/>
      <use xlink:href="#DejaVuSans-56" transform="translate(257.328125 0)"/>
      <use xlink:href="#DejaVuSans-3" transform="translate(309.421875 0)"/>
      <use xlink:href="#DejaVuSans-b" transform="translate(341.203125 0)"/>
      <use xlink:href="#DejaVuSans-2a" transform="translate(380.21875 0)"/>
      <use xlink:href="#DejaVuSans-2b" transform="translate(457.703125 0)"/>
      <use xlink:href="#DejaVuSans-3d" transform="translate(532.90625 0)"/>
      <use xlink:href="#DejaVuSans-c" transform="translate(601.40625 0)"/>
     </g>
    </g>
   </g>
   <g id="matplotlib.axis_2">
    <g id="ytick_1">
     <g id="line2d_9">
      <path d="M 39.653281 240.393253 
L 252.707827 240.393253 
" clip-path="url(#p866dbe2600)" style="fill: none; stroke: #262b35; stroke-width: 0.6; stroke-linecap: square"/>
     </g>
     <g id="line2d_10">
      <defs>
       <path id="m4f8739c2e7" d="M 0 0 
L -3.5 0 
" style="stroke: #7d8593; stroke-width: 0.8"/>
      </defs>
      <g>
       <use xlink:href="#m4f8739c2e7" x="39.653281" y="240.393253" style="fill: #7d8593; stroke: #7d8593; stroke-width: 0.8"/>
      </g>
     </g>
     <g id="text_6">
      <!-- 2 -->
      <g style="fill: #7d8593" transform="translate(26.927031 243.812198) scale(0.09 -0.09)">
       <defs>
        <path id="DejaVuSans-15" d="M 1228 531 
L 3431 531 
L 3431 0 
L 469 0 
L 469 531 
Q 828 903 1448 1529 
Q 2069 2156 2228 2338 
Q 2531 2678 2651 2914 
Q 2772 3150 2772 3378 
Q 2772 3750 2511 3984 
Q 2250 4219 1831 4219 
Q 1534 4219 1204 4116 
Q 875 4013 500 3803 
L 500 4441 
Q 881 4594 1212 4672 
Q 1544 4750 1819 4750 
Q 2544 4750 2975 4387 
Q 3406 4025 3406 3419 
Q 3406 3131 3298 2873 
Q 3191 2616 2906 2266 
Q 2828 2175 2409 1742 
Q 1991 1309 1228 531 
z
" transform="scale(0.015625)"/>
       </defs>
       <use xlink:href="#DejaVuSans-15"/>
      </g>
     </g>
    </g>
    <g id="ytick_2">
     <g id="line2d_11">
      <path d="M 39.653281 191.81494 
L 252.707827 191.81494 
" clip-path="url(#p866dbe2600)" style="fill: none; stroke: #262b35; stroke-width: 0.6; stroke-linecap: square"/>
     </g>
     <g id="line2d_12">
      <g>
       <use xlink:href="#m4f8739c2e7" x="39.653281" y="191.81494" style="fill: #7d8593; stroke: #7d8593; stroke-width: 0.8"/>
      </g>
     </g>
     <g id="text_7">
      <!-- 4 -->
      <g style="fill: #7d8593" transform="translate(26.927031 195.233885) scale(0.09 -0.09)">
       <use xlink:href="#DejaVuSans-17"/>
      </g>
     </g>
    </g>
    <g id="ytick_3">
     <g id="line2d_13">
      <path d="M 39.653281 143.236627 
L 252.707827 143.236627 
" clip-path="url(#p866dbe2600)" style="fill: none; stroke: #262b35; stroke-width: 0.6; stroke-linecap: square"/>
     </g>
     <g id="line2d_14">
      <g>
       <use xlink:href="#m4f8739c2e7" x="39.653281" y="143.236627" style="fill: #7d8593; stroke: #7d8593; stroke-width: 0.8"/>
      </g>
     </g>
     <g id="text_8">
      <!-- 6 -->
      <g style="fill: #7d8593" transform="translate(26.927031 146.655572) scale(0.09 -0.09)">
       <use xlink:href="#DejaVuSans-19"/>
      </g>
     </g>
    </g>
    <g id="ytick_4">
     <g id="line2d_15">
      <path d="M 39.653281 94.658313 
L 252.707827 94.658313 
" clip-path="url(#p866dbe2600)" style="fill: none; stroke: #262b35; stroke-width: 0.6; stroke-linecap: square"/>
     </g>
     <g id="line2d_16">
      <g>
       <use xlink:href="#m4f8739c2e7" x="39.653281" y="94.658313" style="fill: #7d8593; stroke: #7d8593; stroke-width: 0.8"/>
      </g>
     </g>
     <g id="text_9">
      <!-- 8 -->
      <g style="fill: #7d8593" transform="translate(26.927031 98.077259) scale(0.09 -0.09)">
       <use xlink:href="#DejaVuSans-1b"/>
      </g>
     </g>
    </g>
    <g id="ytick_5">
     <g id="line2d_17">
      <path d="M 39.653281 46.08 
L 252.707827 46.08 
" clip-path="url(#p866dbe2600)" style="fill: none; stroke: #262b35; stroke-width: 0.6; stroke-linecap: square"/>
     </g>
     <g id="line2d_18">
      <g>
       <use xlink:href="#m4f8739c2e7" x="39.653281" y="46.08" style="fill: #7d8593; stroke: #7d8593; stroke-width: 0.8"/>
      </g>
     </g>
     <g id="text_10">
      <!-- 10 -->
      <g style="fill: #7d8593" transform="translate(21.200781 49.498945) scale(0.09 -0.09)">
       <use xlink:href="#DejaVuSans-14"/>
       <use xlink:href="#DejaVuSans-13" transform="translate(63.625 0)"/>
      </g>
     </g>
    </g>
    <g id="text_11">
     <!-- contraction (ms) -->
     <g style="fill: #969ba6" transform="translate(14.798437 188.229219) rotate(-90) scale(0.1 -0.1)">
      <defs>
       <path id="DejaVuSans-46" d="M 3122 3366 
L 3122 2828 
Q 2878 2963 2633 3030 
Q 2388 3097 2138 3097 
Q 1578 3097 1268 2742 
Q 959 2388 959 1747 
Q 959 1106 1268 751 
Q 1578 397 2138 397 
Q 2388 397 2633 464 
Q 2878 531 3122 666 
L 3122 134 
Q 2881 22 2623 -34 
Q 2366 -91 2075 -91 
Q 1284 -91 818 406 
Q 353 903 353 1747 
Q 353 2603 823 3093 
Q 1294 3584 2113 3584 
Q 2378 3584 2631 3529 
Q 2884 3475 3122 3366 
z
" transform="scale(0.015625)"/>
       <path id="DejaVuSans-52" d="M 1959 3097 
Q 1497 3097 1228 2736 
Q 959 2375 959 1747 
Q 959 1119 1226 758 
Q 1494 397 1959 397 
Q 2419 397 2687 759 
Q 2956 1122 2956 1747 
Q 2956 2369 2687 2733 
Q 2419 3097 1959 3097 
z
M 1959 3584 
Q 2709 3584 3137 3096 
Q 3566 2609 3566 1747 
Q 3566 888 3137 398 
Q 2709 -91 1959 -91 
Q 1206 -91 779 398 
Q 353 888 353 1747 
Q 353 2609 779 3096 
Q 1206 3584 1959 3584 
z
" transform="scale(0.015625)"/>
       <path id="DejaVuSans-51" d="M 3513 2113 
L 3513 0 
L 2938 0 
L 2938 2094 
Q 2938 2591 2744 2837 
Q 2550 3084 2163 3084 
Q 1697 3084 1428 2787 
Q 1159 2491 1159 1978 
L 1159 0 
L 581 0 
L 581 3500 
L 1159 3500 
L 1159 2956 
Q 1366 3272 1645 3428 
Q 1925 3584 2291 3584 
Q 2894 3584 3203 3211 
Q 3513 2838 3513 2113 
z
" transform="scale(0.015625)"/>
       <path id="DejaVuSans-55" d="M 2631 2963 
Q 2534 3019 2420 3045 
Q 2306 3072 2169 3072 
Q 1681 3072 1420 2755 
Q 1159 2438 1159 1844 
L 1159 0 
L 581 0 
L 581 3500 
L 1159 3500 
L 1159 2956 
Q 1341 3275 1631 3429 
Q 1922 3584 2338 3584 
Q 2397 3584 2469 3576 
Q 2541 3569 2628 3553 
L 2631 2963 
z
" transform="scale(0.015625)"/>
       <path id="DejaVuSans-44" d="M 2194 1759 
Q 1497 1759 1228 1600 
Q 959 1441 959 1056 
Q 959 750 1161 570 
Q 1363 391 1709 391 
Q 2188 391 2477 730 
Q 2766 1069 2766 1631 
L 2766 1759 
L 2194 1759 
z
M 3341 1997 
L 3341 0 
L 2766 0 
L 2766 531 
Q 2569 213 2275 61 
Q 1981 -91 1556 -91 
Q 1019 -91 701 211 
Q 384 513 384 1019 
Q 384 1609 779 1909 
Q 1175 2209 1959 2209 
L 2766 2209 
L 2766 2266 
Q 2766 2663 2505 2880 
Q 2244 3097 1772 3097 
Q 1472 3097 1187 3025 
Q 903 2953 641 2809 
L 641 3341 
Q 956 3463 1253 3523 
Q 1550 3584 1831 3584 
Q 2591 3584 2966 3190 
Q 3341 2797 3341 1997 
z
" transform="scale(0.015625)"/>
       <path id="DejaVuSans-50" d="M 3328 2828 
Q 3544 3216 3844 3400 
Q 4144 3584 4550 3584 
Q 5097 3584 5394 3201 
Q 5691 2819 5691 2113 
L 5691 0 
L 5113 0 
L 5113 2094 
Q 5113 2597 4934 2840 
Q 4756 3084 4391 3084 
Q 3944 3084 3684 2787 
Q 3425 2491 3425 1978 
L 3425 0 
L 2847 0 
L 2847 2094 
Q 2847 2600 2669 2842 
Q 2491 3084 2119 3084 
Q 1678 3084 1418 2786 
Q 1159 2488 1159 1978 
L 1159 0 
L 581 0 
L 581 3500 
L 1159 3500 
L 1159 2956 
Q 1356 3278 1631 3431 
Q 1906 3584 2284 3584 
Q 2666 3584 2933 3390 
Q 3200 3197 3328 2828 
z
" transform="scale(0.015625)"/>
      </defs>
      <use xlink:href="#DejaVuSans-46"/>
      <use xlink:href="#DejaVuSans-52" transform="translate(54.984375 0)"/>
      <use xlink:href="#DejaVuSans-51" transform="translate(116.171875 0)"/>
      <use xlink:href="#DejaVuSans-57" transform="translate(179.546875 0)"/>
      <use xlink:href="#DejaVuSans-55" transform="translate(218.75 0)"/>
      <use xlink:href="#DejaVuSans-44" transform="translate(259.859375 0)"/>
      <use xlink:href="#DejaVuSans-46" transform="translate(321.140625 0)"/>
      <use xlink:href="#DejaVuSans-57" transform="translate(376.125 0)"/>
      <use xlink:href="#DejaVuSans-4c" transform="translate(415.328125 0)"/>
      <use xlink:href="#DejaVuSans-52" transform="translate(443.109375 0)"/>
      <use xlink:href="#DejaVuSans-51" transform="translate(504.296875 0)"/>
      <use xlink:href="#DejaVuSans-3" transform="translate(567.671875 0)"/>
      <use xlink:href="#DejaVuSans-b" transform="translate(599.453125 0)"/>
      <use xlink:href="#DejaVuSans-50" transform="translate(638.46875 0)"/>
      <use xlink:href="#DejaVuSans-56" transform="translate(735.875 0)"/>
      <use xlink:href="#DejaVuSans-c" transform="translate(787.96875 0)"/>
     </g>
    </g>
   </g>
   <g id="line2d_19">
    <path d="M 49.337579 46.08 
L 72.124161 247.68 
L 140.483908 220.961928 
L 243.023529 189.386024 
" clip-path="url(#p866dbe2600)" style="fill: none; stroke: #5ec6cb; stroke-width: 1.8; stroke-linecap: square"/>
    <defs>
     <path id="mba7540c6aa" d="M 0 2.75 
C 0.729309 2.75 1.428845 2.460243 1.944544 1.944544 
C 2.460243 1.428845 2.75 0.729309 2.75 0 
C 2.75 -0.729309 2.460243 -1.428845 1.944544 -1.944544 
C 1.428845 -2.460243 0.729309 -2.75 0 -2.75 
C -0.729309 -2.75 -1.428845 -2.460243 -1.944544 -1.944544 
C -2.460243 -1.428845 -2.75 -0.729309 -2.75 0 
C -2.75 0.729309 -2.460243 1.428845 -1.944544 1.944544 
C -1.428845 2.460243 -0.729309 2.75 0 2.75 
z
" style="stroke: #5ec6cb"/>
    </defs>
    <g clip-path="url(#p866dbe2600)">
     <use xlink:href="#mba7540c6aa" x="49.337579" y="46.08" style="fill: #5ec6cb; stroke: #5ec6cb"/>
     <use xlink:href="#mba7540c6aa" x="72.124161" y="247.68" style="fill: #5ec6cb; stroke: #5ec6cb"/>
     <use xlink:href="#mba7540c6aa" x="140.483908" y="220.961928" style="fill: #5ec6cb; stroke: #5ec6cb"/>
     <use xlink:href="#mba7540c6aa" x="243.023529" y="189.386024" style="fill: #5ec6cb; stroke: #5ec6cb"/>
    </g>
   </g>
   <g id="patch_3">
    <path d="M 39.653281 257.76 
L 39.653281 36 
" style="fill: none; stroke: #39414f; stroke-width: 0.8; stroke-linejoin: miter; stroke-linecap: square"/>
   </g>
   <g id="patch_4">
    <path d="M 252.707827 257.76 
L 252.707827 36 
" style="fill: none; stroke: #39414f; stroke-width: 0.8; stroke-linejoin: miter; stroke-linecap: square"/>
   </g>
   <g id="patch_5">
    <path d="M 39.653281 257.76 
L 252.707827 257.76 
" style="fill: none; stroke: #39414f; stroke-width: 0.8; stroke-linejoin: miter; stroke-linecap: square"/>
   </g>
   <g id="patch_6">
    <path d="M 39.653281 36 
L 252.707827 36 
" style="fill: none; stroke: #39414f; stroke-width: 0.8; stroke-linejoin: miter; stroke-linecap: square"/>
   </g>
   <g id="text_12">
    <!-- Width is free… -->
    <g style="fill: #d6dbe1" transform="translate(105.968679 30) scale(0.11 -0.11)">
     <defs>
      <path id="DejaVuSans-3a" d="M 213 4666 
L 850 4666 
L 1831 722 
L 2809 4666 
L 3519 4666 
L 4500 722 
L 5478 4666 
L 6119 4666 
L 4947 0 
L 4153 0 
L 3169 4050 
L 2175 0 
L 1381 0 
L 213 4666 
z
" transform="scale(0.015625)"/>
      <path id="DejaVuSans-47" d="M 2906 2969 
L 2906 4863 
L 3481 4863 
L 3481 0 
L 2906 0 
L 2906 525 
Q 2725 213 2448 61 
Q 2172 -91 1784 -91 
Q 1150 -91 751 415 
Q 353 922 353 1747 
Q 353 2572 751 3078 
Q 1150 3584 1784 3584 
Q 2172 3584 2448 3432 
Q 2725 3281 2906 2969 
z
M 947 1747 
Q 947 1113 1208 752 
Q 1469 391 1925 391 
Q 2381 391 2643 752 
Q 2906 1113 2906 1747 
Q 2906 2381 2643 2742 
Q 2381 3103 1925 3103 
Q 1469 3103 1208 2742 
Q 947 2381 947 1747 
z
" transform="scale(0.015625)"/>
      <path id="DejaVuSans-4b" d="M 3513 2113 
L 3513 0 
L 2938 0 
L 2938 2094 
Q 2938 2591 2744 2837 
Q 2550 3084 2163 3084 
Q 1697 3084 1428 2787 
Q 1159 2491 1159 1978 
L 1159 0 
L 581 0 
L 581 4863 
L 1159 4863 
L 1159 2956 
Q 1366 3272 1645 3428 
Q 1925 3584 2291 3584 
Q 2894 3584 3203 3211 
Q 3513 2838 3513 2113 
z
" transform="scale(0.015625)"/>
      <path id="DejaVuSans-49" d="M 2375 4863 
L 2375 4384 
L 1825 4384 
Q 1516 4384 1395 4259 
Q 1275 4134 1275 3809 
L 1275 3500 
L 2222 3500 
L 2222 3053 
L 1275 3053 
L 1275 0 
L 697 0 
L 697 3053 
L 147 3053 
L 147 3500 
L 697 3500 
L 697 3744 
Q 697 4328 969 4595 
Q 1241 4863 1831 4863 
L 2375 4863 
z
" transform="scale(0.015625)"/>
      <path id="DejaVuSans-48" d="M 3597 1894 
L 3597 1613 
L 953 1613 
Q 991 1019 1311 708 
Q 1631 397 2203 397 
Q 2534 397 2845 478 
Q 3156 559 3463 722 
L 3463 178 
Q 3153 47 2828 -22 
Q 2503 -91 2169 -91 
Q 1331 -91 842 396 
Q 353 884 353 1716 
Q 353 2575 817 3079 
Q 1281 3584 2069 3584 
Q 2775 3584 3186 3129 
Q 3597 2675 3597 1894 
z
M 3022 2063 
Q 3016 2534 2758 2815 
Q 2500 3097 2075 3097 
Q 1594 3097 1305 2825 
Q 1016 2553 972 2059 
L 3022 2063 
z
" transform="scale(0.015625)"/>
      <path id="DejaVuSans-b08" d="M 2869 794 
L 3531 794 
L 3531 0 
L 2869 0 
L 2869 794 
z
M 4997 794 
L 5663 794 
L 5663 0 
L 4997 0 
L 4997 794 
z
M 738 794 
L 1403 794 
L 1403 0 
L 738 0 
L 738 794 
z
" transform="scale(0.015625)"/>
     </defs>
     <use xlink:href="#DejaVuSans-3a"/>
     <use xlink:href="#DejaVuSans-4c" transform="translate(96.671875 0)"/>
     <use xlink:href="#DejaVuSans-47" transform="translate(124.453125 0)"/>
     <use xlink:href="#DejaVuSans-57" transform="translate(187.9375 0)"/>
     <use xlink:href="#DejaVuSans-4b" transform="translate(227.140625 0)"/>
     <use xlink:href="#DejaVuSans-3" transform="translate(290.515625 0)"/>
     <use xlink:href="#DejaVuSans-4c" transform="translate(322.296875 0)"/>
     <use xlink:href="#DejaVuSans-56" transform="translate(350.078125 0)"/>
     <use xlink:href="#DejaVuSans-3" transform="translate(402.171875 0)"/>
     <use xlink:href="#DejaVuSans-49" transform="translate(433.953125 0)"/>
     <use xlink:href="#DejaVuSans-55" transform="translate(469.15625 0)"/>
     <use xlink:href="#DejaVuSans-48" transform="translate(508.0625 0)"/>
     <use xlink:href="#DejaVuSans-48" transform="translate(569.59375 0)"/>
     <use xlink:href="#DejaVuSans-b08" transform="translate(631.125 0)"/>
    </g>
   </g>
  </g>
  <g id="axes_2">
   <g id="patch_7">
    <path d="M 295.318736 257.76 
L 508.373281 257.76 
L 508.373281 36 
L 295.318736 36 
L 295.318736 257.76 
z
" style="fill: none"/>
   </g>
   <g id="matplotlib.axis_3">
    <g id="xtick_5">
     <g id="line2d_20">
      <path d="M 337.284025 257.76 
L 337.284025 36 
" clip-path="url(#pf1cff889c6)" style="fill: none; stroke: #262b35; stroke-width: 0.6; stroke-linecap: square"/>
     </g>
     <g id="line2d_21">
      <g>
       <use xlink:href="#m30dbfa8cf2" x="337.284025" y="257.76" style="fill: #7d8593; stroke: #7d8593; stroke-width: 0.8"/>
      </g>
     </g>
     <g id="text_13">
      <!-- 10 -->
      <g style="fill: #7d8593" transform="translate(331.557775 271.597891) scale(0.09 -0.09)">
       <use xlink:href="#DejaVuSans-14"/>
       <use xlink:href="#DejaVuSans-13" transform="translate(63.625 0)"/>
      </g>
     </g>
    </g>
    <g id="xtick_6">
     <g id="line2d_22">
      <path d="M 391.085678 257.76 
L 391.085678 36 
" clip-path="url(#pf1cff889c6)" style="fill: none; stroke: #262b35; stroke-width: 0.6; stroke-linecap: square"/>
     </g>
     <g id="line2d_23">
      <g>
       <use xlink:href="#m30dbfa8cf2" x="391.085678" y="257.76" style="fill: #7d8593; stroke: #7d8593; stroke-width: 0.8"/>
      </g>
     </g>
     <g id="text_14">
      <!-- 20 -->
      <g style="fill: #7d8593" transform="translate(385.359428 271.597891) scale(0.09 -0.09)">
       <use xlink:href="#DejaVuSans-15"/>
       <use xlink:href="#DejaVuSans-13" transform="translate(63.625 0)"/>
      </g>
     </g>
    </g>
    <g id="xtick_7">
     <g id="line2d_24">
      <path d="M 444.887331 257.76 
L 444.887331 36 
" clip-path="url(#pf1cff889c6)" style="fill: none; stroke: #262b35; stroke-width: 0.6; stroke-linecap: square"/>
     </g>
     <g id="line2d_25">
      <g>
       <use xlink:href="#m30dbfa8cf2" x="444.887331" y="257.76" style="fill: #7d8593; stroke: #7d8593; stroke-width: 0.8"/>
      </g>
     </g>
     <g id="text_15">
      <!-- 30 -->
      <g style="fill: #7d8593" transform="translate(439.161081 271.597891) scale(0.09 -0.09)">
       <defs>
        <path id="DejaVuSans-16" d="M 2597 2516 
Q 3050 2419 3304 2112 
Q 3559 1806 3559 1356 
Q 3559 666 3084 287 
Q 2609 -91 1734 -91 
Q 1441 -91 1130 -33 
Q 819 25 488 141 
L 488 750 
Q 750 597 1062 519 
Q 1375 441 1716 441 
Q 2309 441 2620 675 
Q 2931 909 2931 1356 
Q 2931 1769 2642 2001 
Q 2353 2234 1838 2234 
L 1294 2234 
L 1294 2753 
L 1863 2753 
Q 2328 2753 2575 2939 
Q 2822 3125 2822 3475 
Q 2822 3834 2567 4026 
Q 2313 4219 1838 4219 
Q 1578 4219 1281 4162 
Q 984 4106 628 3988 
L 628 4550 
Q 988 4650 1302 4700 
Q 1616 4750 1894 4750 
Q 2613 4750 3031 4423 
Q 3450 4097 3450 3541 
Q 3450 3153 3228 2886 
Q 3006 2619 2597 2516 
z
" transform="scale(0.015625)"/>
       </defs>
       <use xlink:href="#DejaVuSans-16"/>
       <use xlink:href="#DejaVuSans-13" transform="translate(63.625 0)"/>
      </g>
     </g>
    </g>
    <g id="xtick_8">
     <g id="line2d_26">
      <path d="M 498.688984 257.76 
L 498.688984 36 
" clip-path="url(#pf1cff889c6)" style="fill: none; stroke: #262b35; stroke-width: 0.6; stroke-linecap: square"/>
     </g>
     <g id="line2d_27">
      <g>
       <use xlink:href="#m30dbfa8cf2" x="498.688984" y="257.76" style="fill: #7d8593; stroke: #7d8593; stroke-width: 0.8"/>
      </g>
     </g>
     <g id="text_16">
      <!-- 40 -->
      <g style="fill: #7d8593" transform="translate(492.962734 271.597891) scale(0.09 -0.09)">
       <use xlink:href="#DejaVuSans-17"/>
       <use xlink:href="#DejaVuSans-13" transform="translate(63.625 0)"/>
      </g>
     </g>
    </g>
    <g id="text_17">
     <!-- brickwork depth (32 qubits) -->
     <g style="fill: #969ba6" transform="translate(332.427259 285.358437) scale(0.1 -0.1)">
      <defs>
       <path id="DejaVuSans-4e" d="M 581 4863 
L 1159 4863 
L 1159 1991 
L 2875 3500 
L 3609 3500 
L 1753 1863 
L 3688 0 
L 2938 0 
L 1159 1709 
L 1159 0 
L 581 0 
L 581 4863 
z
" transform="scale(0.015625)"/>
       <path id="DejaVuSans-5a" d="M 269 3500 
L 844 3500 
L 1563 769 
L 2278 3500 
L 2956 3500 
L 3675 769 
L 4391 3500 
L 4966 3500 
L 4050 0 
L 3372 0 
L 2619 2869 
L 1863 0 
L 1184 0 
L 269 3500 
z
" transform="scale(0.015625)"/>
       <path id="DejaVuSans-53" d="M 1159 525 
L 1159 -1331 
L 581 -1331 
L 581 3500 
L 1159 3500 
L 1159 2969 
Q 1341 3281 1617 3432 
Q 1894 3584 2278 3584 
Q 2916 3584 3314 3078 
Q 3713 2572 3713 1747 
Q 3713 922 3314 415 
Q 2916 -91 2278 -91 
Q 1894 -91 1617 61 
Q 1341 213 1159 525 
z
M 3116 1747 
Q 3116 2381 2855 2742 
Q 2594 3103 2138 3103 
Q 1681 3103 1420 2742 
Q 1159 2381 1159 1747 
Q 1159 1113 1420 752 
Q 1681 391 2138 391 
Q 2594 391 2855 752 
Q 3116 1113 3116 1747 
z
" transform="scale(0.015625)"/>
      </defs>
      <use xlink:href="#DejaVuSans-45"/>
      <use xlink:href="#DejaVuSans-55" transform="translate(63.484375 0)"/>
      <use xlink:href="#DejaVuSans-4c" transform="translate(104.59375 0)"/>
      <use xlink:href="#DejaVuSans-46" transform="translate(132.375 0)"/>
      <use xlink:href="#DejaVuSans-4e" transform="translate(187.359375 0)"/>
      <use xlink:href="#DejaVuSans-5a" transform="translate(245.265625 0)"/>
      <use xlink:href="#DejaVuSans-52" transform="translate(327.046875 0)"/>
      <use xlink:href="#DejaVuSans-55" transform="translate(388.234375 0)"/>
      <use xlink:href="#DejaVuSans-4e" transform="translate(429.34375 0)"/>
      <use xlink:href="#DejaVuSans-3" transform="translate(487.25 0)"/>
      <use xlink:href="#DejaVuSans-47" transform="translate(519.03125 0)"/>
      <use xlink:href="#DejaVuSans-48" transform="translate(582.515625 0)"/>
      <use xlink:href="#DejaVuSans-53" transform="translate(644.046875 0)"/>
      <use xlink:href="#DejaVuSans-57" transform="translate(707.53125 0)"/>
      <use xlink:href="#DejaVuSans-4b" transform="translate(746.734375 0)"/>
      <use xlink:href="#DejaVuSans-3" transform="translate(810.109375 0)"/>
      <use xlink:href="#DejaVuSans-b" transform="translate(841.890625 0)"/>
      <use xlink:href="#DejaVuSans-16" transform="translate(880.90625 0)"/>
      <use xlink:href="#DejaVuSans-15" transform="translate(944.53125 0)"/>
      <use xlink:href="#DejaVuSans-3" transform="translate(1008.15625 0)"/>
      <use xlink:href="#DejaVuSans-54" transform="translate(1039.9375 0)"/>
      <use xlink:href="#DejaVuSans-58" transform="translate(1103.421875 0)"/>
      <use xlink:href="#DejaVuSans-45" transform="translate(1166.796875 0)"/>
      <use xlink:href="#DejaVuSans-4c" transform="translate(1230.28125 0)"/>
      <use xlink:href="#DejaVuSans-57" transform="translate(1258.0625 0)"/>
      <use xlink:href="#DejaVuSans-56" transform="translate(1297.265625 0)"/>
      <use xlink:href="#DejaVuSans-c" transform="translate(1349.359375 0)"/>
     </g>
    </g>
   </g>
   <g id="matplotlib.axis_4">
    <g id="ytick_6">
     <g id="line2d_28">
      <path d="M 295.318736 249.633923 
L 508.373281 249.633923 
" clip-path="url(#pf1cff889c6)" style="fill: none; stroke: #262b35; stroke-width: 0.6; stroke-linecap: square"/>
     </g>
     <g id="line2d_29">
      <g>
       <use xlink:href="#m4f8739c2e7" x="295.318736" y="249.633923" style="fill: #7d8593; stroke: #7d8593; stroke-width: 0.8"/>
      </g>
     </g>
     <g id="text_18">
      <!-- $\mathdefault{10^{4}}$ -->
      <g style="fill: #7d8593" transform="translate(272.478736 253.818923) scale(0.09 -0.09)">
       <use xlink:href="#DejaVuSans-14" transform="translate(0 0.665625)"/>
       <use xlink:href="#DejaVuSans-13" transform="translate(63.623047 0.665625)"/>
       <use xlink:href="#DejaVuSans-17" transform="translate(128.203125 41.965625) scale(0.7)"/>
      </g>
     </g>
    </g>
    <g id="ytick_7">
     <g id="line2d_30">
      <path d="M 295.318736 207.803737 
L 508.373281 207.803737 
" clip-path="url(#pf1cff889c6)" style="fill: none; stroke: #262b35; stroke-width: 0.6; stroke-linecap: square"/>
     </g>
     <g id="line2d_31">
      <g>
       <use xlink:href="#m4f8739c2e7" x="295.318736" y="207.803737" style="fill: #7d8593; stroke: #7d8593; stroke-width: 0.8"/>
      </g>
     </g>
     <g id="text_19">
      <!-- $\mathdefault{10^{6}}$ -->
      <g style="fill: #7d8593" transform="translate(272.478736 212.033737) scale(0.09 -0.09)">
       <use xlink:href="#DejaVuSans-14" transform="translate(0 0.746875)"/>
       <use xlink:href="#DejaVuSans-13" transform="translate(63.623047 0.746875)"/>
       <use xlink:href="#DejaVuSans-19" transform="translate(128.203125 42.046875) scale(0.7)"/>
      </g>
     </g>
    </g>
    <g id="ytick_8">
     <g id="line2d_32">
      <path d="M 295.318736 165.97355 
L 508.373281 165.97355 
" clip-path="url(#pf1cff889c6)" style="fill: none; stroke: #262b35; stroke-width: 0.6; stroke-linecap: square"/>
     </g>
     <g id="line2d_33">
      <g>
       <use xlink:href="#m4f8739c2e7" x="295.318736" y="165.97355" style="fill: #7d8593; stroke: #7d8593; stroke-width: 0.8"/>
      </g>
     </g>
     <g id="text_20">
      <!-- $\mathdefault{10^{8}}$ -->
      <g style="fill: #7d8593" transform="translate(272.478736 170.20355) scale(0.09 -0.09)">
       <use xlink:href="#DejaVuSans-14" transform="translate(0 0.746875)"/>
       <use xlink:href="#DejaVuSans-13" transform="translate(63.623047 0.746875)"/>
       <use xlink:href="#DejaVuSans-1b" transform="translate(128.203125 42.046875) scale(0.7)"/>
      </g>
     </g>
    </g>
    <g id="ytick_9">
     <g id="line2d_34">
      <path d="M 295.318736 124.143364 
L 508.373281 124.143364 
" clip-path="url(#pf1cff889c6)" style="fill: none; stroke: #262b35; stroke-width: 0.6; stroke-linecap: square"/>
     </g>
     <g id="line2d_35">
      <g>
       <use xlink:href="#m4f8739c2e7" x="295.318736" y="124.143364" style="fill: #7d8593; stroke: #7d8593; stroke-width: 0.8"/>
      </g>
     </g>
     <g id="text_21">
      <!-- $\mathdefault{10^{10}}$ -->
      <g style="fill: #7d8593" transform="translate(268.428736 128.373364) scale(0.09 -0.09)">
       <use xlink:href="#DejaVuSans-14" transform="translate(0 0.746875)"/>
       <use xlink:href="#DejaVuSans-13" transform="translate(63.623047 0.746875)"/>
       <use xlink:href="#DejaVuSans-14" transform="translate(128.203125 42.046875) scale(0.7)"/>
       <use xlink:href="#DejaVuSans-13" transform="translate(172.739258 42.046875) scale(0.7)"/>
      </g>
     </g>
    </g>
    <g id="ytick_10">
     <g id="line2d_36">
      <path d="M 295.318736 82.313177 
L 508.373281 82.313177 
" clip-path="url(#pf1cff889c6)" style="fill: none; stroke: #262b35; stroke-width: 0.6; stroke-linecap: square"/>
     </g>
     <g id="line2d_37">
      <g>
       <use xlink:href="#m4f8739c2e7" x="295.318736" y="82.313177" style="fill: #7d8593; stroke: #7d8593; stroke-width: 0.8"/>
      </g>
     </g>
     <g id="text_22">
      <!-- $\mathdefault{10^{12}}$ -->
      <g style="fill: #7d8593" transform="translate(268.428736 86.543177) scale(0.09 -0.09)">
       <use xlink:href="#DejaVuSans-14" transform="translate(0 0.746875)"/>
       <use xlink:href="#DejaVuSans-13" transform="translate(63.623047 0.746875)"/>
       <use xlink:href="#DejaVuSans-14" transform="translate(128.203125 42.046875) scale(0.7)"/>
       <use xlink:href="#DejaVuSans-15" transform="translate(172.739258 42.046875) scale(0.7)"/>
      </g>
     </g>
    </g>
    <g id="ytick_11">
     <g id="line2d_38">
      <path d="M 295.318736 40.482991 
L 508.373281 40.482991 
" clip-path="url(#pf1cff889c6)" style="fill: none; stroke: #262b35; stroke-width: 0.6; stroke-linecap: square"/>
     </g>
     <g id="line2d_39">
      <g>
       <use xlink:href="#m4f8739c2e7" x="295.318736" y="40.482991" style="fill: #7d8593; stroke: #7d8593; stroke-width: 0.8"/>
      </g>
     </g>
     <g id="text_23">
      <!-- $\mathdefault{10^{14}}$ -->
      <g style="fill: #7d8593" transform="translate(268.428736 44.667991) scale(0.09 -0.09)">
       <use xlink:href="#DejaVuSans-14" transform="translate(0 0.665625)"/>
       <use xlink:href="#DejaVuSans-13" transform="translate(63.623047 0.665625)"/>
       <use xlink:href="#DejaVuSans-14" transform="translate(128.203125 41.965625) scale(0.7)"/>
       <use xlink:href="#DejaVuSans-17" transform="translate(172.739258 41.965625) scale(0.7)"/>
      </g>
     </g>
    </g>
    <g id="text_24">
     <!-- estimated FLOPs -->
     <g style="fill: #969ba6" transform="translate(262.026392 188.596406) rotate(-90) scale(0.1 -0.1)">
      <defs>
       <path id="DejaVuSans-29" d="M 628 4666 
L 3309 4666 
L 3309 4134 
L 1259 4134 
L 1259 2759 
L 3109 2759 
L 3109 2228 
L 1259 2228 
L 1259 0 
L 628 0 
L 628 4666 
z
" transform="scale(0.015625)"/>
       <path id="DejaVuSans-2f" d="M 628 4666 
L 1259 4666 
L 1259 531 
L 3531 531 
L 3531 0 
L 628 0 
L 628 4666 
z
" transform="scale(0.015625)"/>
       <path id="DejaVuSans-32" d="M 2522 4238 
Q 1834 4238 1429 3725 
Q 1025 3213 1025 2328 
Q 1025 1447 1429 934 
Q 1834 422 2522 422 
Q 3209 422 3611 934 
Q 4013 1447 4013 2328 
Q 4013 3213 3611 3725 
Q 3209 4238 2522 4238 
z
M 2522 4750 
Q 3503 4750 4090 4092 
Q 4678 3434 4678 2328 
Q 4678 1225 4090 567 
Q 3503 -91 2522 -91 
Q 1538 -91 948 565 
Q 359 1222 359 2328 
Q 359 3434 948 4092 
Q 1538 4750 2522 4750 
z
" transform="scale(0.015625)"/>
       <path id="DejaVuSans-33" d="M 1259 4147 
L 1259 2394 
L 2053 2394 
Q 2494 2394 2734 2622 
Q 2975 2850 2975 3272 
Q 2975 3691 2734 3919 
Q 2494 4147 2053 4147 
L 1259 4147 
z
M 628 4666 
L 2053 4666 
Q 2838 4666 3239 4311 
Q 3641 3956 3641 3272 
Q 3641 2581 3239 2228 
Q 2838 1875 2053 1875 
L 1259 1875 
L 1259 0 
L 628 0 
L 628 4666 
z
" transform="scale(0.015625)"/>
      </defs>
      <use xlink:href="#DejaVuSans-48"/>
      <use xlink:href="#DejaVuSans-56" transform="translate(61.53125 0)"/>
      <use xlink:href="#DejaVuSans-57" transform="translate(113.625 0)"/>
      <use xlink:href="#DejaVuSans-4c" transform="translate(152.828125 0)"/>
      <use xlink:href="#DejaVuSans-50" transform="translate(180.609375 0)"/>
      <use xlink:href="#DejaVuSans-44" transform="translate(278.015625 0)"/>
      <use xlink:href="#DejaVuSans-57" transform="translate(339.296875 0)"/>
      <use xlink:href="#DejaVuSans-48" transform="translate(378.5 0)"/>
      <use xlink:href="#DejaVuSans-47" transform="translate(440.03125 0)"/>
      <use xlink:href="#DejaVuSans-3" transform="translate(503.515625 0)"/>
      <use xlink:href="#DejaVuSans-29" transform="translate(535.296875 0)"/>
      <use xlink:href="#DejaVuSans-2f" transform="translate(592.8125 0)"/>
      <use xlink:href="#DejaVuSans-32" transform="translate(644.96875 0)"/>
      <use xlink:href="#DejaVuSans-33" transform="translate(723.6875 0)"/>
      <use xlink:href="#DejaVuSans-56" transform="translate(782.234375 0)"/>
     </g>
    </g>
   </g>
   <g id="line2d_40">
    <path d="M 305.003033 247.68 
L 326.523694 227.68943 
L 348.044356 198.815428 
L 369.565017 172.90929 
L 391.085678 141.873332 
L 412.606339 98.041886 
L 434.127 97.990713 
" clip-path="url(#pf1cff889c6)" style="fill: none; stroke: #d2823e; stroke-width: 1.8; stroke-linecap: square"/>
    <defs>
     <path id="mbf34e5280c" d="M 0 2.75 
C 0.729309 2.75 1.428845 2.460243 1.944544 1.944544 
C 2.460243 1.428845 2.75 0.729309 2.75 0 
C 2.75 -0.729309 2.460243 -1.428845 1.944544 -1.944544 
C 1.428845 -2.460243 0.729309 -2.75 0 -2.75 
C -0.729309 -2.75 -1.428845 -2.460243 -1.944544 -1.944544 
C -2.460243 -1.428845 -2.75 -0.729309 -2.75 0 
C -2.75 0.729309 -2.460243 1.428845 -1.944544 1.944544 
C -1.428845 2.460243 -0.729309 2.75 0 2.75 
z
" style="stroke: #d2823e"/>
    </defs>
    <g clip-path="url(#pf1cff889c6)">
     <use xlink:href="#mbf34e5280c" x="305.003033" y="247.68" style="fill: #d2823e; stroke: #d2823e"/>
     <use xlink:href="#mbf34e5280c" x="326.523694" y="227.68943" style="fill: #d2823e; stroke: #d2823e"/>
     <use xlink:href="#mbf34e5280c" x="348.044356" y="198.815428" style="fill: #d2823e; stroke: #d2823e"/>
     <use xlink:href="#mbf34e5280c" x="369.565017" y="172.90929" style="fill: #d2823e; stroke: #d2823e"/>
     <use xlink:href="#mbf34e5280c" x="391.085678" y="141.873332" style="fill: #d2823e; stroke: #d2823e"/>
     <use xlink:href="#mbf34e5280c" x="412.606339" y="98.041886" style="fill: #d2823e; stroke: #d2823e"/>
     <use xlink:href="#mbf34e5280c" x="434.127" y="97.990713" style="fill: #d2823e; stroke: #d2823e"/>
    </g>
   </g>
   <g id="line2d_41">
    <defs>
     <path id="mc8ecbd2b4d" d="M -4.5 4.5 
L 4.5 -4.5 
M -4.5 -4.5 
L 4.5 4.5 
" style="stroke: #d6dbe1; stroke-width: 2"/>
    </defs>
    <g clip-path="url(#pf1cff889c6)">
     <use xlink:href="#mc8ecbd2b4d" x="455.647661" y="52.477561" style="fill: #d6dbe1; stroke: #d6dbe1; stroke-width: 2"/>
     <use xlink:href="#mc8ecbd2b4d" x="498.688984" y="46.08" style="fill: #d6dbe1; stroke: #d6dbe1; stroke-width: 2"/>
    </g>
   </g>
   <g id="line2d_42">
    <path d="M 295.318736 67.694154 
L 508.373281 67.694154 
" clip-path="url(#pf1cff889c6)" style="fill: none; stroke-dasharray: 3.7,1.6; stroke-dashoffset: 0; stroke: #969ba6"/>
   </g>
   <g id="patch_8">
    <path d="M 295.318736 257.76 
L 295.318736 36 
" style="fill: none; stroke: #39414f; stroke-width: 0.8; stroke-linejoin: miter; stroke-linecap: square"/>
   </g>
   <g id="patch_9">
    <path d="M 508.373281 257.76 
L 508.373281 36 
" style="fill: none; stroke: #39414f; stroke-width: 0.8; stroke-linejoin: miter; stroke-linecap: square"/>
   </g>
   <g id="patch_10">
    <path d="M 295.318736 257.76 
L 508.373281 257.76 
" style="fill: none; stroke: #39414f; stroke-width: 0.8; stroke-linejoin: miter; stroke-linecap: square"/>
   </g>
   <g id="patch_11">
    <path d="M 295.318736 36 
L 508.373281 36 
" style="fill: none; stroke: #39414f; stroke-width: 0.8; stroke-linejoin: miter; stroke-linecap: square"/>
   </g>
   <g id="text_25">
    <!-- FLOP budget -->
    <g style="fill: #969ba6" transform="translate(307.693116 60.532352) scale(0.09 -0.09)">
     <defs>
      <path id="DejaVuSans-4a" d="M 2906 1791 
Q 2906 2416 2648 2759 
Q 2391 3103 1925 3103 
Q 1463 3103 1205 2759 
Q 947 2416 947 1791 
Q 947 1169 1205 825 
Q 1463 481 1925 481 
Q 2391 481 2648 825 
Q 2906 1169 2906 1791 
z
M 3481 434 
Q 3481 -459 3084 -895 
Q 2688 -1331 1869 -1331 
Q 1566 -1331 1297 -1286 
Q 1028 -1241 775 -1147 
L 775 -588 
Q 1028 -725 1275 -790 
Q 1522 -856 1778 -856 
Q 2344 -856 2625 -561 
Q 2906 -266 2906 331 
L 2906 616 
Q 2728 306 2450 153 
Q 2172 0 1784 0 
Q 1141 0 747 490 
Q 353 981 353 1791 
Q 353 2603 747 3093 
Q 1141 3584 1784 3584 
Q 2172 3584 2450 3431 
Q 2728 3278 2906 2969 
L 2906 3500 
L 3481 3500 
L 3481 434 
z
" transform="scale(0.015625)"/>
     </defs>
     <use xlink:href="#DejaVuSans-29"/>
     <use xlink:href="#DejaVuSans-2f" transform="translate(57.515625 0)"/>
     <use xlink:href="#DejaVuSans-32" transform="translate(109.671875 0)"/>
     <use xlink:href="#DejaVuSans-33" transform="translate(188.390625 0)"/>
     <use xlink:href="#DejaVuSans-3" transform="translate(248.6875 0)"/>
     <use xlink:href="#DejaVuSans-45" transform="translate(280.46875 0)"/>
     <use xlink:href="#DejaVuSans-58" transform="translate(343.953125 0)"/>
     <use xlink:href="#DejaVuSans-47" transform="translate(407.328125 0)"/>
     <use xlink:href="#DejaVuSans-4a" transform="translate(470.8125 0)"/>
     <use xlink:href="#DejaVuSans-48" transform="translate(534.296875 0)"/>
     <use xlink:href="#DejaVuSans-57" transform="translate(595.828125 0)"/>
    </g>
   </g>
   <g id="text_26">
    <!-- …depth is not -->
    <g style="fill: #d6dbe1" transform="translate(363.44054 30) scale(0.11 -0.11)">
     <use xlink:href="#DejaVuSans-b08"/>
     <use xlink:href="#DejaVuSans-47" transform="translate(100 0)"/>
     <use xlink:href="#DejaVuSans-48" transform="translate(163.484375 0)"/>
     <use xlink:href="#DejaVuSans-53" transform="translate(225.015625 0)"/>
     <use xlink:href="#DejaVuSans-57" transform="translate(288.5 0)"/>
     <use xlink:href="#DejaVuSans-4b" transform="translate(327.703125 0)"/>
     <use xlink:href="#DejaVuSans-3" transform="translate(391.078125 0)"/>
     <use xlink:href="#DejaVuSans-4c" transform="translate(422.859375 0)"/>
     <use xlink:href="#DejaVuSans-56" transform="translate(450.640625 0)"/>
     <use xlink:href="#DejaVuSans-3" transform="translate(502.734375 0)"/>
     <use xlink:href="#DejaVuSans-51" transform="translate(534.515625 0)"/>
     <use xlink:href="#DejaVuSans-52" transform="translate(597.890625 0)"/>
     <use xlink:href="#DejaVuSans-57" transform="translate(659.078125 0)"/>
    </g>
   </g>
   <g id="legend_1">
    <g id="line2d_43">
     <path d="M 420.230937 230.847187 
L 429.230937 230.847187 
L 438.230937 230.847187 
" style="fill: none; stroke: #d2823e; stroke-width: 1.8; stroke-linecap: square"/>
     <g>
      <use xlink:href="#mbf34e5280c" x="429.230937" y="230.847187" style="fill: #d2823e; stroke: #d2823e"/>
     </g>
    </g>
    <g id="text_27">
     <!-- contracted -->
     <g style="fill: #d6dbe1" transform="translate(445.430937 233.997187) scale(0.09 -0.09)">
      <use xlink:href="#DejaVuSans-46"/>
      <use xlink:href="#DejaVuSans-52" transform="translate(54.984375 0)"/>
      <use xlink:href="#DejaVuSans-51" transform="translate(116.171875 0)"/>
      <use xlink:href="#DejaVuSans-57" transform="translate(179.546875 0)"/>
      <use xlink:href="#DejaVuSans-55" transform="translate(218.75 0)"/>
      <use xlink:href="#DejaVuSans-44" transform="translate(259.859375 0)"/>
      <use xlink:href="#DejaVuSans-46" transform="translate(321.140625 0)"/>
      <use xlink:href="#DejaVuSans-57" transform="translate(376.125 0)"/>
      <use xlink:href="#DejaVuSans-48" transform="translate(415.328125 0)"/>
      <use xlink:href="#DejaVuSans-47" transform="translate(476.859375 0)"/>
     </g>
    </g>
    <g id="line2d_44">
     <g>
      <use xlink:href="#mc8ecbd2b4d" x="429.230937" y="244.347891" style="fill: #d6dbe1; stroke: #d6dbe1; stroke-width: 2"/>
     </g>
    </g>
    <g id="text_28">
     <!-- over budget -->
     <g style="fill: #d6dbe1" transform="translate(445.430937 247.497891) scale(0.09 -0.09)">
      <defs>
       <path id="DejaVuSans-59" d="M 191 3500 
L 800 3500 
L 1894 563 
L 2988 3500 
L 3597 3500 
L 2284 0 
L 1503 0 
L 191 3500 
z
" transform="scale(0.015625)"/>
      </defs>
      <use xlink:href="#DejaVuSans-52"/>
      <use xlink:href="#DejaVuSans-59" transform="translate(61.1875 0)"/>
      <use xlink:href="#DejaVuSans-48" transform="translate(120.375 0)"/>
      <use xlink:href="#DejaVuSans-55" transform="translate(181.90625 0)"/>
      <use xlink:href="#DejaVuSans-3" transform="translate(223.015625 0)"/>
      <use xlink:href="#DejaVuSans-45" transform="translate(254.796875 0)"/>
      <use xlink:href="#DejaVuSans-58" transform="translate(318.28125 0)"/>
      <use xlink:href="#DejaVuSans-47" transform="translate(381.65625 0)"/>
      <use xlink:href="#DejaVuSans-4a" transform="translate(445.140625 0)"/>
      <use xlink:href="#DejaVuSans-48" transform="translate(508.625 0)"/>
      <use xlink:href="#DejaVuSans-57" transform="translate(570.15625 0)"/>
     </g>
    </g>
   </g>
  </g>
  <g id="text_29">
   <!-- cuTensorNet moves the wall from qubit count to entanglement -->
   <g style="fill: #d6dbe1" transform="translate(77.974531 16.318125) scale(0.12 -0.12)">
    <defs>
     <path id="DejaVuSans-37" d="M -19 4666 
L 3928 4666 
L 3928 4134 
L 2272 4134 
L 2272 0 
L 1638 0 
L 1638 4134 
L -19 4134 
L -19 4666 
z
" transform="scale(0.015625)"/>
     <path id="DejaVuSans-31" d="M 628 4666 
L 1478 4666 
L 3547 763 
L 3547 4666 
L 4159 4666 
L 4159 0 
L 3309 0 
L 1241 3903 
L 1241 0 
L 628 0 
L 628 4666 
z
" transform="scale(0.015625)"/>
     <path id="DejaVuSans-4f" d="M 603 4863 
L 1178 4863 
L 1178 0 
L 603 0 
L 603 4863 
z
" transform="scale(0.015625)"/>
    </defs>
    <use xlink:href="#DejaVuSans-46"/>
    <use xlink:href="#DejaVuSans-58" transform="translate(54.984375 0)"/>
    <use xlink:href="#DejaVuSans-37" transform="translate(118.359375 0)"/>
    <use xlink:href="#DejaVuSans-48" transform="translate(162.453125 0)"/>
    <use xlink:href="#DejaVuSans-51" transform="translate(223.984375 0)"/>
    <use xlink:href="#DejaVuSans-56" transform="translate(287.359375 0)"/>
    <use xlink:href="#DejaVuSans-52" transform="translate(339.453125 0)"/>
    <use xlink:href="#DejaVuSans-55" transform="translate(400.640625 0)"/>
    <use xlink:href="#DejaVuSans-31" transform="translate(441.75 0)"/>
    <use xlink:href="#DejaVuSans-48" transform="translate(516.5625 0)"/>
    <use xlink:href="#DejaVuSans-57" transform="translate(578.09375 0)"/>
    <use xlink:href="#DejaVuSans-3" transform="translate(617.296875 0)"/>
    <use xlink:href="#DejaVuSans-50" transform="translate(649.078125 0)"/>
    <use xlink:href="#DejaVuSans-52" transform="translate(746.484375 0)"/>
    <use xlink:href="#DejaVuSans-59" transform="translate(807.671875 0)"/>
    <use xlink:href="#DejaVuSans-48" transform="translate(866.859375 0)"/>
    <use xlink:href="#DejaVuSans-56" transform="translate(928.390625 0)"/>
    <use xlink:href="#DejaVuSans-3" transform="translate(980.484375 0)"/>
    <use xlink:href="#DejaVuSans-57" transform="translate(1012.265625 0)"/>
    <use xlink:href="#DejaVuSans-4b" transform="translate(1051.46875 0)"/>
    <use xlink:href="#DejaVuSans-48" transform="translate(1114.84375 0)"/>
    <use xlink:href="#DejaVuSans-3" transform="translate(1176.375 0)"/>
    <use xlink:href="#DejaVuSans-5a" transform="translate(1208.15625 0)"/>
    <use xlink:href="#DejaVuSans-44" transform="translate(1289.9375 0)"/>
    <use xlink:href="#DejaVuSans-4f" transform="translate(1351.21875 0)"/>
    <use xlink:href="#DejaVuSans-4f" transform="translate(1379 0)"/>
    <use xlink:href="#DejaVuSans-3" transform="translate(1406.78125 0)"/>
    <use xlink:href="#DejaVuSans-49" transform="translate(1438.5625 0)"/>
    <use xlink:href="#DejaVuSans-55" transform="translate(1473.765625 0)"/>
    <use xlink:href="#DejaVuSans-52" transform="translate(1512.671875 0)"/>
    <use xlink:href="#DejaVuSans-50" transform="translate(1573.859375 0)"/>
    <use xlink:href="#DejaVuSans-3" transform="translate(1671.265625 0)"/>
    <use xlink:href="#DejaVuSans-54" transform="translate(1703.046875 0)"/>
    <use xlink:href="#DejaVuSans-58" transform="translate(1766.53125 0)"/>
    <use xlink:href="#DejaVuSans-45" transform="translate(1829.90625 0)"/>
    <use xlink:href="#DejaVuSans-4c" transform="translate(1893.390625 0)"/>
    <use xlink:href="#DejaVuSans-57" transform="translate(1921.171875 0)"/>
    <use xlink:href="#DejaVuSans-3" transform="translate(1960.375 0)"/>
    <use xlink:href="#DejaVuSans-46" transform="translate(1992.15625 0)"/>
    <use xlink:href="#DejaVuSans-52" transform="translate(2047.140625 0)"/>
    <use xlink:href="#DejaVuSans-58" transform="translate(2108.328125 0)"/>
    <use xlink:href="#DejaVuSans-51" transform="translate(2171.703125 0)"/>
    <use xlink:href="#DejaVuSans-57" transform="translate(2235.078125 0)"/>
    <use xlink:href="#DejaVuSans-3" transform="translate(2274.28125 0)"/>
    <use xlink:href="#DejaVuSans-57" transform="translate(2306.0625 0)"/>
    <use xlink:href="#DejaVuSans-52" transform="translate(2345.265625 0)"/>
    <use xlink:href="#DejaVuSans-3" transform="translate(2406.453125 0)"/>
    <use xlink:href="#DejaVuSans-48" transform="translate(2438.234375 0)"/>
    <use xlink:href="#DejaVuSans-51" transform="translate(2499.765625 0)"/>
    <use xlink:href="#DejaVuSans-57" transform="translate(2563.140625 0)"/>
    <use xlink:href="#DejaVuSans-44" transform="translate(2602.34375 0)"/>
    <use xlink:href="#DejaVuSans-51" transform="translate(2663.625 0)"/>
    <use xlink:href="#DejaVuSans-4a" transform="translate(2727 0)"/>
    <use xlink:href="#DejaVuSans-4f" transform="translate(2790.484375 0)"/>
    <use xlink:href="#DejaVuSans-48" transform="translate(2818.265625 0)"/>
    <use xlink:href="#DejaVuSans-50" transform="translate(2879.796875 0)"/>
    <use xlink:href="#DejaVuSans-48" transform="translate(2977.203125 0)"/>
    <use xlink:href="#DejaVuSans-51" transform="translate(3038.734375 0)"/>
    <use xlink:href="#DejaVuSans-57" transform="translate(3102.109375 0)"/>
   </g>
  </g>
 </g>
 <defs>
  <clipPath id="p866dbe2600">
   <rect x="39.653281" y="36" width="213.054545" height="221.76"/>
  </clipPath>
  <clipPath id="pf1cff889c6">
   <rect x="295.318736" y="36" width="213.054545" height="221.76"/>
  </clipPath>
 </defs>
</svg>
