<?xml version="1.0" encoding="utf-8" standalone="no"?>
<!DOCTYPE svg PUBLIC "-//W3C//DTD SVG 1.1//EN"
  "http://www.w3.org/Graphics/SVG/1.1/DTD/svg11.dtd">
<svg xmlns:xlink="http://www.w3.org/1999/xlink" width="500.038281pt" height="248.877172pt" viewBox="0 0 500.038281 248.877172" xmlns="http://www.w3.org/2000/svg" version="1.1">
 <metadata>
  <rdf:RDF xmlns:dc="http://purl.org/dc/elements/1.1/" xmlns:cc="http://creativecommons.org/ns#" xmlns:rdf="http://www.w3.org/1999/02/22-rdf-syntax-ns#">
   <cc:Work>
    <dc:type rdf:resource="http://purl.org/dc/dcmitype/StillImage"/>
    <dc:date>2026-07-07T22:23:59.116066</dc:date>
    <dc:format>image/svg+xml</dc:format>
    <dc:creator>
     <cc:Agent>
      <dc:title>Matplotlib v3.11.0, https://matplotlib.org/</dc:title>
     </cc:Agent>
    </dc:creator>
   </cc:Work>
  </rdf:RDF>
 </metadata>
 <defs>
  <style type="text/css">*{stroke-linejoin: round; stroke-linecap: butt}</style>
 </defs>
 <g id="figure_1">
  <g id="patch_1">
   <path d="M 0 248.877172 
L 500.038281 248.877172 
L 500.038281 0 
L 0 0 
L 0 248.877172 
z
" style="fill: none"/>
  </g>
  <g id="axes_1">
   <g id="patch_2">
    <path d="M 91.078281 210.054281 
L 492.838281 210.054281 
L 492.838281 21.558281 
L 91.078281 21.558281 
L 91.078281 210.054281 
z
" style="fill: none"/>
   </g>
   <g id="matplotlib.axis_1">
    <g id="xtick_1">
     <g id="line2d_1">
      <path d="M 119.008455 210.054281 
L 119.008455 21.558281 
" clip-path="url(#p860bfd585b)" style="fill: none; stroke: #262b35; stroke-width: 0.6; stroke-linecap: square"/>
     </g>
     <g id="line2d_2">
      <defs>
       <path id="md451f467f3" d="M 0 0 
L 0 3.5 
" style="stroke: #7d8593; stroke-width: 0.8"/>
      </defs>
      <g>
       <use xlink:href="#md451f467f3" x="119.008455" y="210.054281" style="fill: #7d8593; stroke: #7d8593; stroke-width: 0.8"/>
      </g>
     </g>
     <g id="text_1">
      <!-- $\mathdefault{10^{0}}$ -->
      <g style="fill: #7d8593" transform="translate(111.088455 225.514281) scale(0.09 -0.09)">
       <defs>
        <path id="DejaVuSans-14" d="M 794 531 
L 1825 531 
L 1825 4091 
L 703 3866 
L 703 4441 
L 1819 4666 
L 2450 4666 
L 2450 531 
L 3481 531 
L 3481 0 
L 794 0 
L 794 531 
z
" transform="scale(0.015625)"/>
        <path id="DejaVuSans-13" d="M 2034 4250 
Q 1547 4250 1301 3770 
Q 1056 3291 1056 2328 
Q 1056 1369 1301 889 
Q 1547 409 2034 409 
Q 2525 409 2770 889 
Q 3016 1369 3016 2328 
Q 3016 3291 2770 3770 
Q 2525 4250 2034 4250 
z
M 2034 4750 
Q 2819 4750 3233 4129 
Q 3647 3509 3647 2328 
Q 3647 1150 3233 529 
Q 2819 -91 2034 -91 
Q 1250 -91 836 529 
Q 422 1150 422 2328 
Q 422 3509 836 4129 
Q 1250 4750 2034 4750 
z
" transform="scale(0.015625)"/>
       </defs>
       <use xlink:href="#DejaVuSans-14" transform="translate(0 0.746875)"/>
       <use xlink:href="#DejaVuSans-13" transform="translate(63.623047 0.746875)"/>
       <use xlink:href="#DejaVuSans-13" transform="translate(128.203125 42.046875) scale(0.7)"/>
      </g>
     </g>
    </g>
    <g id="xtick_2">
     <g id="line2d_3">
      <path d="M 235.712003 210.054281 
L 235.712003 21.558281 
" clip-path="url(#p860bfd585b)" style="fill: none; stroke: #262b35; stroke-width: 0.6; stroke-linecap: square"/>
     </g>
     <g id="line2d_4">
      <g>
       <use xlink:href="#md451f467f3" x="235.712003" y="210.054281" style="fill: #7d8593; stroke: #7d8593; stroke-width: 0.8"/>
      </g>
     </g>
     <g id="text_2">
      <!-- $\mathdefault{10^{1}}$ -->
      <g style="fill: #7d8593" transform="translate(227.792003 225.424281) scale(0.09 -0.09)">
       <use xlink:href="#DejaVuSans-14" transform="translate(0 0.665625)"/>
       <use xlink:href="#DejaVuSans-13" transform="translate(63.623047 0.665625)"/>
       <use xlink:href="#DejaVuSans-14" transform="translate(128.203125 41.965625) scale(0.7)"/>
      </g>
     </g>
    </g>
    <g id="xtick_3">
     <g id="line2d_5">
      <path d="M 352.415552 210.054281 
L 352.415552 21.558281 
" clip-path="url(#p860bfd585b)" style="fill: none; stroke: #262b35; stroke-width: 0.6; stroke-linecap: square"/>
     </g>
     <g id="line2d_6">
      <g>
       <use xlink:href="#md451f467f3" x="352.415552" y="210.054281" style="fill: #7d8593; stroke: #7d8593; stroke-width: 0.8"/>
      </g>
     </g>
     <g id="text_3">
      <!-- $\mathdefault{10^{2}}$ -->
      <g style="fill: #7d8593" transform="translate(344.495552 225.514281) scale(0.09 -0.09)">
       <defs>
        <path id="DejaVuSans-15" d="M 1228 531 
L 3431 531 
L 3431 0 
L 469 0 
L 469 531 
Q 828 903 1448 1529 
Q 2069 2156 2228 2338 
Q 2531 2678 2651 2914 
Q 2772 3150 2772 3378 
Q 2772 3750 2511 3984 
Q 2250 4219 1831 4219 
Q 1534 4219 1204 4116 
Q 875 4013 500 3803 
L 500 4441 
Q 881 4594 1212 4672 
Q 1544 4750 1819 4750 
Q 2544 4750 2975 4387 
Q 3406 4025 3406 3419 
Q 3406 3131 3298 2873 
Q 3191 2616 2906 2266 
Q 2828 2175 2409 1742 
Q 1991 1309 1228 531 
z
" transform="scale(0.015625)"/>
       </defs>
       <use xlink:href="#DejaVuSans-14" transform="translate(0 0.746875)"/>
       <use xlink:href="#DejaVuSans-13" transform="translate(63.623047 0.746875)"/>
       <use xlink:href="#DejaVuSans-15" transform="translate(128.203125 42.046875) scale(0.7)"/>
      </g>
     </g>
    </g>
    <g id="xtick_4">
     <g id="line2d_7">
      <path d="M 469.1191 210.054281 
L 469.1191 21.558281 
" clip-path="url(#p860bfd585b)" style="fill: none; stroke: #262b35; stroke-width: 0.6; stroke-linecap: square"/>
     </g>
     <g id="line2d_8">
      <g>
       <use xlink:href="#md451f467f3" x="469.1191" y="210.054281" style="fill: #7d8593; stroke: #7d8593; stroke-width: 0.8"/>
      </g>
     </g>
     <g id="text_4">
      <!-- $\mathdefault{10^{3}}$ -->
      <g style="fill: #7d8593" transform="translate(461.1991 225.514281) scale(0.09 -0.09)">
       <defs>
        <path id="DejaVuSans-16" d="M 2597 2516 
Q 3050 2419 3304 2112 
Q 3559 1806 3559 1356 
Q 3559 666 3084 287 
Q 2609 -91 1734 -91 
Q 1441 -91 1130 -33 
Q 819 25 488 141 
L 488 750 
Q 750 597 1062 519 
Q 1375 441 1716 441 
Q 2309 441 2620 675 
Q 2931 909 2931 1356 
Q 2931 1769 2642 2001 
Q 2353 2234 1838 2234 
L 1294 2234 
L 1294 2753 
L 1863 2753 
Q 2328 2753 2575 2939 
Q 2822 3125 2822 3475 
Q 2822 3834 2567 4026 
Q 2313 4219 1838 4219 
Q 1578 4219 1281 4162 
Q 984 4106 628 3988 
L 628 4550 
Q 988 4650 1302 4700 
Q 1616 4750 1894 4750 
Q 2613 4750 3031 4423 
Q 3450 4097 3450 3541 
Q 3450 3153 3228 2886 
Q 3006 2619 2597 2516 
z
" transform="scale(0.015625)"/>
       </defs>
       <use xlink:href="#DejaVuSans-14" transform="translate(0 0.746875)"/>
       <use xlink:href="#DejaVuSans-13" transform="translate(63.623047 0.746875)"/>
       <use xlink:href="#DejaVuSans-16" transform="translate(128.203125 42.046875) scale(0.7)"/>
      </g>
     </g>
    </g>
    <g id="xtick_5">
     <g id="line2d_9">
      <defs>
       <path id="m17d7607595" d="M 0 0 
L 0 2 
" style="stroke: #7d8593; stroke-width: 0.6"/>
      </defs>
      <g>
       <use xlink:href="#m17d7607595" x="93.117919" y="210.054281" style="fill: #7d8593; stroke: #7d8593; stroke-width: 0.6"/>
      </g>
     </g>
    </g>
    <g id="xtick_6">
     <g id="line2d_10">
      <g>
       <use xlink:href="#m17d7607595" x="100.930847" y="210.054281" style="fill: #7d8593; stroke: #7d8593; stroke-width: 0.6"/>
      </g>
     </g>
    </g>
    <g id="xtick_7">
     <g id="line2d_11">
      <g>
       <use xlink:href="#m17d7607595" x="107.698713" y="210.054281" style="fill: #7d8593; stroke: #7d8593; stroke-width: 0.6"/>
      </g>
     </g>
    </g>
    <g id="xtick_8">
     <g id="line2d_12">
      <g>
       <use xlink:href="#m17d7607595" x="113.668393" y="210.054281" style="fill: #7d8593; stroke: #7d8593; stroke-width: 0.6"/>
      </g>
     </g>
    </g>
    <g id="xtick_9">
     <g id="line2d_13">
      <g>
       <use xlink:href="#m17d7607595" x="154.139724" y="210.054281" style="fill: #7d8593; stroke: #7d8593; stroke-width: 0.6"/>
      </g>
     </g>
    </g>
    <g id="xtick_10">
     <g id="line2d_14">
      <g>
       <use xlink:href="#m17d7607595" x="174.690198" y="210.054281" style="fill: #7d8593; stroke: #7d8593; stroke-width: 0.6"/>
      </g>
     </g>
    </g>
    <g id="xtick_11">
     <g id="line2d_15">
      <g>
       <use xlink:href="#m17d7607595" x="189.270992" y="210.054281" style="fill: #7d8593; stroke: #7d8593; stroke-width: 0.6"/>
      </g>
     </g>
    </g>
    <g id="xtick_12">
     <g id="line2d_16">
      <g>
       <use xlink:href="#m17d7607595" x="200.580735" y="210.054281" style="fill: #7d8593; stroke: #7d8593; stroke-width: 0.6"/>
      </g>
     </g>
    </g>
    <g id="xtick_13">
     <g id="line2d_17">
      <g>
       <use xlink:href="#m17d7607595" x="209.821467" y="210.054281" style="fill: #7d8593; stroke: #7d8593; stroke-width: 0.6"/>
      </g>
     </g>
    </g>
    <g id="xtick_14">
     <g id="line2d_18">
      <g>
       <use xlink:href="#m17d7607595" x="217.634395" y="210.054281" style="fill: #7d8593; stroke: #7d8593; stroke-width: 0.6"/>
      </g>
     </g>
    </g>
    <g id="xtick_15">
     <g id="line2d_19">
      <g>
       <use xlink:href="#m17d7607595" x="224.402261" y="210.054281" style="fill: #7d8593; stroke: #7d8593; stroke-width: 0.6"/>
      </g>
     </g>
    </g>
    <g id="xtick_16">
     <g id="line2d_20">
      <g>
       <use xlink:href="#m17d7607595" x="230.371942" y="210.054281" style="fill: #7d8593; stroke: #7d8593; stroke-width: 0.6"/>
      </g>
     </g>
    </g>
    <g id="xtick_17">
     <g id="line2d_21">
      <g>
       <use xlink:href="#m17d7607595" x="270.843272" y="210.054281" style="fill: #7d8593; stroke: #7d8593; stroke-width: 0.6"/>
      </g>
     </g>
    </g>
    <g id="xtick_18">
     <g id="line2d_22">
      <g>
       <use xlink:href="#m17d7607595" x="291.393747" y="210.054281" style="fill: #7d8593; stroke: #7d8593; stroke-width: 0.6"/>
      </g>
     </g>
    </g>
    <g id="xtick_19">
     <g id="line2d_23">
      <g>
       <use xlink:href="#m17d7607595" x="305.974541" y="210.054281" style="fill: #7d8593; stroke: #7d8593; stroke-width: 0.6"/>
      </g>
     </g>
    </g>
    <g id="xtick_20">
     <g id="line2d_24">
      <g>
       <use xlink:href="#m17d7607595" x="317.284283" y="210.054281" style="fill: #7d8593; stroke: #7d8593; stroke-width: 0.6"/>
      </g>
     </g>
    </g>
    <g id="xtick_21">
     <g id="line2d_25">
      <g>
       <use xlink:href="#m17d7607595" x="326.525016" y="210.054281" style="fill: #7d8593; stroke: #7d8593; stroke-width: 0.6"/>
      </g>
     </g>
    </g>
    <g id="xtick_22">
     <g id="line2d_26">
      <g>
       <use xlink:href="#m17d7607595" x="334.337943" y="210.054281" style="fill: #7d8593; stroke: #7d8593; stroke-width: 0.6"/>
      </g>
     </g>
    </g>
    <g id="xtick_23">
     <g id="line2d_27">
      <g>
       <use xlink:href="#m17d7607595" x="341.105809" y="210.054281" style="fill: #7d8593; stroke: #7d8593; stroke-width: 0.6"/>
      </g>
     </g>
    </g>
    <g id="xtick_24">
     <g id="line2d_28">
      <g>
       <use xlink:href="#m17d7607595" x="347.07549" y="210.054281" style="fill: #7d8593; stroke: #7d8593; stroke-width: 0.6"/>
      </g>
     </g>
    </g>
    <g id="xtick_25">
     <g id="line2d_29">
      <g>
       <use xlink:href="#m17d7607595" x="387.546821" y="210.054281" style="fill: #7d8593; stroke: #7d8593; stroke-width: 0.6"/>
      </g>
     </g>
    </g>
    <g id="xtick_26">
     <g id="line2d_30">
      <g>
       <use xlink:href="#m17d7607595" x="408.097295" y="210.054281" style="fill: #7d8593; stroke: #7d8593; stroke-width: 0.6"/>
      </g>
     </g>
    </g>
    <g id="xtick_27">
     <g id="line2d_31">
      <g>
       <use xlink:href="#m17d7607595" x="422.678089" y="210.054281" style="fill: #7d8593; stroke: #7d8593; stroke-width: 0.6"/>
      </g>
     </g>
    </g>
    <g id="xtick_28">
     <g id="line2d_32">
      <g>
       <use xlink:href="#m17d7607595" x="433.987832" y="210.054281" style="fill: #7d8593; stroke: #7d8593; stroke-width: 0.6"/>
      </g>
     </g>
    </g>
    <g id="xtick_29">
     <g id="line2d_33">
      <g>
       <use xlink:href="#m17d7607595" x="443.228564" y="210.054281" style="fill: #7d8593; stroke: #7d8593; stroke-width: 0.6"/>
      </g>
     </g>
    </g>
    <g id="xtick_30">
     <g id="line2d_34">
      <g>
       <use xlink:href="#m17d7607595" x="451.041492" y="210.054281" style="fill: #7d8593; stroke: #7d8593; stroke-width: 0.6"/>
      </g>
     </g>
    </g>
    <g id="xtick_31">
     <g id="line2d_35">
      <g>
       <use xlink:href="#m17d7607595" x="457.809358" y="210.054281" style="fill: #7d8593; stroke: #7d8593; stroke-width: 0.6"/>
      </g>
     </g>
    </g>
    <g id="xtick_32">
     <g id="line2d_36">
      <g>
       <use xlink:href="#m17d7607595" x="463.779039" y="210.054281" style="fill: #7d8593; stroke: #7d8593; stroke-width: 0.6"/>
      </g>
     </g>
    </g>
    <g id="text_5">
     <!-- optimization wall time (ms, log) — one dot per benchmark, bar = median -->
     <g style="fill: #969ba6" transform="translate(108.123125 239.274828) scale(0.1 -0.1)">
      <defs>
       <path id="DejaVuSans-52" d="M 1959 3097 
Q 1497 3097 1228 2736 
Q 959 2375 959 1747 
Q 959 1119 1226 758 
Q 1494 397 1959 397 
Q 2419 397 2687 759 
Q 2956 1122 2956 1747 
Q 2956 2369 2687 2733 
Q 2419 3097 1959 3097 
z
M 1959 3584 
Q 2709 3584 3137 3096 
Q 3566 2609 3566 1747 
Q 3566 888 3137 398 
Q 2709 -91 1959 -91 
Q 1206 -91 779 398 
Q 353 888 353 1747 
Q 353 2609 779 3096 
Q 1206 3584 1959 3584 
z
" transform="scale(0.015625)"/>
       <path id="DejaVuSans-53" d="M 1159 525 
L 1159 -1331 
L 581 -1331 
L 581 3500 
L 1159 3500 
L 1159 2969 
Q 1341 3281 1617 3432 
Q 1894 3584 2278 3584 
Q 2916 3584 3314 3078 
Q 3713 2572 3713 1747 
Q 3713 922 3314 415 
Q 2916 -91 2278 -91 
Q 1894 -91 1617 61 
Q 1341 213 1159 525 
z
M 3116 1747 
Q 3116 2381 2855 2742 
Q 2594 3103 2138 3103 
Q 1681 3103 1420 2742 
Q 1159 2381 1159 1747 
Q 1159 1113 1420 752 
Q 1681 391 2138 391 
Q 2594 391 2855 752 
Q 3116 1113 3116 1747 
z
" transform="scale(0.015625)"/>
       <path id="DejaVuSans-57" d="M 1172 4494 
L 1172 3500 
L 2356 3500 
L 2356 3053 
L 1172 3053 
L 1172 1153 
Q 1172 725 1289 603 
Q 1406 481 1766 481 
L 2356 481 
L 2356 0 
L 1766 0 
Q 1100 0 847 248 
Q 594 497 594 1153 
L 594 3053 
L 172 3053 
L 172 3500 
L 594 3500 
L 594 4494 
L 1172 4494 
z
" transform="scale(0.015625)"/>
       <path id="DejaVuSans-4c" d="M 603 3500 
L 1178 3500 
L 1178 0 
L 603 0 
L 603 3500 
z
M 603 4863 
L 1178 4863 
L 1178 4134 
L 603 4134 
L 603 4863 
z
" transform="scale(0.015625)"/>
       <path id="DejaVuSans-50" d="M 3328 2828 
Q 3544 3216 3844 3400 
Q 4144 3584 4550 3584 
Q 5097 3584 5394 3201 
Q 5691 2819 5691 2113 
L 5691 0 
L 5113 0 
L 5113 2094 
Q 5113 2597 4934 2840 
Q 4756 3084 4391 3084 
Q 3944 3084 3684 2787 
Q 3425 2491 3425 1978 
L 3425 0 
L 2847 0 
L 2847 2094 
Q 2847 2600 2669 2842 
Q 2491 3084 2119 3084 
Q 1678 3084 1418 2786 
Q 1159 2488 1159 1978 
L 1159 0 
L 581 0 
L 581 3500 
L 1159 3500 
L 1159 2956 
Q 1356 3278 1631 3431 
Q 1906 3584 2284 3584 
Q 2666 3584 2933 3390 
Q 3200 3197 3328 2828 
z
" transform="scale(0.015625)"/>
       <path id="DejaVuSans-5d" d="M 353 3500 
L 3084 3500 
L 3084 2975 
L 922 459 
L 3084 459 
L 3084 0 
L 275 0 
L 275 525 
L 2438 3041 
L 353 3041 
L 353 3500 
z
" transform="scale(0.015625)"/>
       <path id="DejaVuSans-44" d="M 2194 1759 
Q 1497 1759 1228 1600 
Q 959 1441 959 1056 
Q 959 750 1161 570 
Q 1363 391 1709 391 
Q 2188 391 2477 730 
Q 2766 1069 2766 1631 
L 2766 1759 
L 2194 1759 
z
M 3341 1997 
L 3341 0 
L 2766 0 
L 2766 531 
Q 2569 213 2275 61 
Q 1981 -91 1556 -91 
Q 1019 -91 701 211 
Q 384 513 384 1019 
Q 384 1609 779 1909 
Q 1175 2209 1959 2209 
L 2766 2209 
L 2766 2266 
Q 2766 2663 2505 2880 
Q 2244 3097 1772 3097 
Q 1472 3097 1187 3025 
Q 903 2953 641 2809 
L 641 3341 
Q 956 3463 1253 3523 
Q 1550 3584 1831 3584 
Q 2591 3584 2966 3190 
Q 3341 2797 3341 1997 
z
" transform="scale(0.015625)"/>
       <path id="DejaVuSans-51" d="M 3513 2113 
L 3513 0 
L 2938 0 
L 2938 2094 
Q 2938 2591 2744 2837 
Q 2550 3084 2163 3084 
Q 1697 3084 1428 2787 
Q 1159 2491 1159 1978 
L 1159 0 
L 581 0 
L 581 3500 
L 1159 3500 
L 1159 2956 
Q 1366 3272 1645 3428 
Q 1925 3584 2291 3584 
Q 2894 3584 3203 3211 
Q 3513 2838 3513 2113 
z
" transform="scale(0.015625)"/>
       <path id="DejaVuSans-3" transform="scale(0.015625)"/>
       <path id="DejaVuSans-5a" d="M 269 3500 
L 844 3500 
L 1563 769 
L 2278 3500 
L 2956 3500 
L 3675 769 
L 4391 3500 
L 4966 3500 
L 4050 0 
L 3372 0 
L 2619 2869 
L 1863 0 
L 1184 0 
L 269 3500 
z
" transform="scale(0.015625)"/>
       <path id="DejaVuSans-4f" d="M 603 4863 
L 1178 4863 
L 1178 0 
L 603 0 
L 603 4863 
z
" transform="scale(0.015625)"/>
       <path id="DejaVuSans-48" d="M 3597 1894 
L 3597 1613 
L 953 1613 
Q 991 1019 1311 708 
Q 1631 397 2203 397 
Q 2534 397 2845 478 
Q 3156 559 3463 722 
L 3463 178 
Q 3153 47 2828 -22 
Q 2503 -91 2169 -91 
Q 1331 -91 842 396 
Q 353 884 353 1716 
Q 353 2575 817 3079 
Q 1281 3584 2069 3584 
Q 2775 3584 3186 3129 
Q 3597 2675 3597 1894 
z
M 3022 2063 
Q 3016 2534 2758 2815 
Q 2500 3097 2075 3097 
Q 1594 3097 1305 2825 
Q 1016 2553 972 2059 
L 3022 2063 
z
" transform="scale(0.015625)"/>
       <path id="DejaVuSans-b" d="M 1984 4856 
Q 1566 4138 1362 3434 
Q 1159 2731 1159 2009 
Q 1159 1288 1364 580 
Q 1569 -128 1984 -844 
L 1484 -844 
Q 1016 -109 783 600 
Q 550 1309 550 2009 
Q 550 2706 781 3412 
Q 1013 4119 1484 4856 
L 1984 4856 
z
" transform="scale(0.015625)"/>
       <path id="DejaVuSans-56" d="M 2834 3397 
L 2834 2853 
Q 2591 2978 2328 3040 
Q 2066 3103 1784 3103 
Q 1356 3103 1142 2972 
Q 928 2841 928 2578 
Q 928 2378 1081 2264 
Q 1234 2150 1697 2047 
L 1894 2003 
Q 2506 1872 2764 1633 
Q 3022 1394 3022 966 
Q 3022 478 2636 193 
Q 2250 -91 1575 -91 
Q 1294 -91 989 -36 
Q 684 19 347 128 
L 347 722 
Q 666 556 975 473 
Q 1284 391 1588 391 
Q 1994 391 2212 530 
Q 2431 669 2431 922 
Q 2431 1156 2273 1281 
Q 2116 1406 1581 1522 
L 1381 1569 
Q 847 1681 609 1914 
Q 372 2147 372 2553 
Q 372 3047 722 3315 
Q 1072 3584 1716 3584 
Q 2034 3584 2315 3537 
Q 2597 3491 2834 3397 
z
" transform="scale(0.015625)"/>
       <path id="DejaVuSans-f" d="M 750 794 
L 1409 794 
L 1409 256 
L 897 -744 
L 494 -744 
L 750 256 
L 750 794 
z
" transform="scale(0.015625)"/>
       <path id="DejaVuSans-4a" d="M 2906 1791 
Q 2906 2416 2648 2759 
Q 2391 3103 1925 3103 
Q 1463 3103 1205 2759 
Q 947 2416 947 1791 
Q 947 1169 1205 825 
Q 1463 481 1925 481 
Q 2391 481 2648 825 
Q 2906 1169 2906 1791 
z
M 3481 434 
Q 3481 -459 3084 -895 
Q 2688 -1331 1869 -1331 
Q 1566 -1331 1297 -1286 
Q 1028 -1241 775 -1147 
L 775 -588 
Q 1028 -725 1275 -790 
Q 1522 -856 1778 -856 
Q 2344 -856 2625 -561 
Q 2906 -266 2906 331 
L 2906 616 
Q 2728 306 2450 153 
Q 2172 0 1784 0 
Q 1141 0 747 490 
Q 353 981 353 1791 
Q 353 2603 747 3093 
Q 1141 3584 1784 3584 
Q 2172 3584 2450 3431 
Q 2728 3278 2906 2969 
L 2906 3500 
L 3481 3500 
L 3481 434 
z
" transform="scale(0.015625)"/>
       <path id="DejaVuSans-c" d="M 513 4856 
L 1013 4856 
Q 1481 4119 1714 3412 
Q 1947 2706 1947 2009 
Q 1947 1309 1714 600 
Q 1481 -109 1013 -844 
L 513 -844 
Q 928 -128 1133 580 
Q 1338 1288 1338 2009 
Q 1338 2731 1133 3434 
Q 928 4138 513 4856 
z
" transform="scale(0.015625)"/>
       <path id="DejaVuSans-af6" d="M 313 1978 
L 6088 1978 
L 6088 1528 
L 313 1528 
L 313 1978 
z
" transform="scale(0.015625)"/>
       <path id="DejaVuSans-47" d="M 2906 2969 
L 2906 4863 
L 3481 4863 
L 3481 0 
L 2906 0 
L 2906 525 
Q 2725 213 2448 61 
Q 2172 -91 1784 -91 
Q 1150 -91 751 415 
Q 353 922 353 1747 
Q 353 2572 751 3078 
Q 1150 3584 1784 3584 
Q 2172 3584 2448 3432 
Q 2725 3281 2906 2969 
z
M 947 1747 
Q 947 1113 1208 752 
Q 1469 391 1925 391 
Q 2381 391 2643 752 
Q 2906 1113 2906 1747 
Q 2906 2381 2643 2742 
Q 2381 3103 1925 3103 
Q 1469 3103 1208 2742 
Q 947 2381 947 1747 
z
" transform="scale(0.015625)"/>
       <path id="DejaVuSans-55" d="M 2631 2963 
Q 2534 3019 2420 3045 
Q 2306 3072 2169 3072 
Q 1681 3072 1420 2755 
Q 1159 2438 1159 1844 
L 1159 0 
L 581 0 
L 581 3500 
L 1159 3500 
L 1159 2956 
Q 1341 3275 1631 3429 
Q 1922 3584 2338 3584 
Q 2397 3584 2469 3576 
Q 2541 3569 2628 3553 
L 2631 2963 
z
" transform="scale(0.015625)"/>
       <path id="DejaVuSans-45" d="M 3116 1747 
Q 3116 2381 2855 2742 
Q 2594 3103 2138 3103 
Q 1681 3103 1420 2742 
Q 1159 2381 1159 1747 
Q 1159 1113 1420 752 
Q 1681 391 2138 391 
Q 2594 391 2855 752 
Q 3116 1113 3116 1747 
z
M 1159 2969 
Q 1341 3281 1617 3432 
Q 1894 3584 2278 3584 
Q 2916 3584 3314 3078 
Q 3713 2572 3713 1747 
Q 3713 922 3314 415 
Q 2916 -91 2278 -91 
Q 1894 -91 1617 61 
Q 1341 213 1159 525 
L 1159 0 
L 581 0 
L 581 4863 
L 1159 4863 
L 1159 2969 
z
" transform="scale(0.015625)"/>
       <path id="DejaVuSans-46" d="M 3122 3366 
L 3122 2828 
Q 2878 2963 2633 3030 
Q 2388 3097 2138 3097 
Q 1578 3097 1268 2742 
Q 959 2388 959 1747 
Q 959 1106 1268 751 
Q 1578 397 2138 397 
Q 2388 397 2633 464 
Q 2878 531 3122 666 
L 3122 134 
Q 2881 22 2623 -34 
Q 2366 -91 2075 -91 
Q 1284 -91 818 406 
Q 353 903 353 1747 
Q 353 2603 823 3093 
Q 1294 3584 2113 3584 
Q 2378 3584 2631 3529 
Q 2884 3475 3122 3366 
z
" transform="scale(0.015625)"/>
       <path id="DejaVuSans-4b" d="M 3513 2113 
L 3513 0 
L 2938 0 
L 2938 2094 
Q 2938 2591 2744 2837 
Q 2550 3084 2163 3084 
Q 1697 3084 1428 2787 
Q 1159 2491 1159 1978 
L 1159 0 
L 581 0 
L 581 4863 
L 1159 4863 
L 1159 2956 
Q 1366 3272 1645 3428 
Q 1925 3584 2291 3584 
Q 2894 3584 3203 3211 
Q 3513 2838 3513 2113 
z
" transform="scale(0.015625)"/>
       <path id="DejaVuSans-4e" d="M 581 4863 
L 1159 4863 
L 1159 1991 
L 2875 3500 
L 3609 3500 
L 1753 1863 
L 3688 0 
L 2938 0 
L 1159 1709 
L 1159 0 
L 581 0 
L 581 4863 
z
" transform="scale(0.015625)"/>
       <path id="DejaVuSans-20" d="M 678 2906 
L 4684 2906 
L 4684 2381 
L 678 2381 
L 678 2906 
z
M 678 1631 
L 4684 1631 
L 4684 1100 
L 678 1100 
L 678 1631 
z
" transform="scale(0.015625)"/>
      </defs>
      <use xlink:href="#DejaVuSans-52"/>
      <use xlink:href="#DejaVuSans-53" transform="translate(61.1875 0)"/>
      <use xlink:href="#DejaVuSans-57" transform="translate(124.671875 0)"/>
      <use xlink:href="#DejaVuSans-4c" transform="translate(163.875 0)"/>
      <use xlink:href="#DejaVuSans-50" transform="translate(191.65625 0)"/>
      <use xlink:href="#DejaVuSans-4c" transform="translate(289.0625 0)"/>
      <use xlink:href="#DejaVuSans-5d" transform="translate(316.84375 0)"/>
      <use xlink:href="#DejaVuSans-44" transform="translate(369.328125 0)"/>
      <use xlink:href="#DejaVuSans-57" transform="translate(430.609375 0)"/>
      <use xlink:href="#DejaVuSans-4c" transform="translate(469.8125 0)"/>
      <use xlink:href="#DejaVuSans-52" transform="translate(497.59375 0)"/>
      <use xlink:href="#DejaVuSans-51" transform="translate(558.78125 0)"/>
      <use xlink:href="#DejaVuSans-3" transform="translate(622.15625 0)"/>
      <use xlink:href="#DejaVuSans-5a" transform="translate(653.9375 0)"/>
      <use xlink:href="#DejaVuSans-44" transform="translate(735.71875 0)"/>
      <use xlink:href="#DejaVuSans-4f" transform="translate(797 0)"/>
      <use xlink:href="#DejaVuSans-4f" transform="translate(824.78125 0)"/>
      <use xlink:href="#DejaVuSans-3" transform="translate(852.5625 0)"/>
      <use xlink:href="#DejaVuSans-57" transform="translate(884.34375 0)"/>
      <use xlink:href="#DejaVuSans-4c" transform="translate(923.546875 0)"/>
      <use xlink:href="#DejaVuSans-50" transform="translate(951.328125 0)"/>
      <use xlink:href="#DejaVuSans-48" transform="translate(1048.734375 0)"/>
      <use xlink:href="#DejaVuSans-3" transform="translate(1110.265625 0)"/>
      <use xlink:href="#DejaVuSans-b" transform="translate(1142.046875 0)"/>
      <use xlink:href="#DejaVuSans-50" transform="translate(1181.0625 0)"/>
      <use xlink:href="#DejaVuSans-56" transform="translate(1278.46875 0)"/>
      <use xlink:href="#DejaVuSans-f" transform="translate(1330.5625 0)"/>
      <use xlink:href="#DejaVuSans-3" transform="translate(1362.34375 0)"/>
      <use xlink:href="#DejaVuSans-4f" transform="translate(1394.125 0)"/>
      <use xlink:href="#DejaVuSans-52" transform="translate(1421.90625 0)"/>
      <use xlink:href="#DejaVuSans-4a" transform="translate(1483.09375 0)"/>
      <use xlink:href="#DejaVuSans-c" transform="translate(1546.578125 0)"/>
      <use xlink:href="#DejaVuSans-3" transform="translate(1585.59375 0)"/>
      <use xlink:href="#DejaVuSans-af6" transform="translate(1617.375 0)"/>
      <use xlink:href="#DejaVuSans-3" transform="translate(1717.375 0)"/>
      <use xlink:href="#DejaVuSans-52" transform="translate(1749.15625 0)"/>
      <use xlink:href="#DejaVuSans-51" transform="translate(1810.34375 0)"/>
      <use xlink:href="#DejaVuSans-48" transform="translate(1873.71875 0)"/>
      <use xlink:href="#DejaVuSans-3" transform="translate(1935.25 0)"/>
      <use xlink:href="#DejaVuSans-47" transform="translate(1967.03125 0)"/>
      <use xlink:href="#DejaVuSans-52" transform="translate(2030.515625 0)"/>
      <use xlink:href="#DejaVuSans-57" transform="translate(2091.703125 0)"/>
      <use xlink:href="#DejaVuSans-3" transform="translate(2130.90625 0)"/>
      <use xlink:href="#DejaVuSans-53" transform="translate(2162.6875 0)"/>
      <use xlink:href="#DejaVuSans-48" transform="translate(2226.171875 0)"/>
      <use xlink:href="#DejaVuSans-55" transform="translate(2287.703125 0)"/>
      <use xlink:href="#DejaVuSans-3" transform="translate(2328.8125 0)"/>
      <use xlink:href="#DejaVuSans-45" transform="translate(2360.59375 0)"/>
      <use xlink:href="#DejaVuSans-48" transform="translate(2424.078125 0)"/>
      <use xlink:href="#DejaVuSans-51" transform="translate(2485.609375 0)"/>
      <use xlink:href="#DejaVuSans-46" transform="translate(2548.984375 0)"/>
      <use xlink:href="#DejaVuSans-4b" transform="translate(2603.96875 0)"/>
      <use xlink:href="#DejaVuSans-50" transform="translate(2667.34375 0)"/>
      <use xlink:href="#DejaVuSans-44" transform="translate(2764.75 0)"/>
      <use xlink:href="#DejaVuSans-55" transform="translate(2826.03125 0)"/>
      <use xlink:href="#DejaVuSans-4e" transform="translate(2867.140625 0)"/>
      <use xlink:href="#DejaVuSans-f" transform="translate(2925.046875 0)"/>
      <use xlink:href="#DejaVuSans-3" transform="translate(2956.828125 0)"/>
      <use xlink:href="#DejaVuSans-45" transform="translate(2988.609375 0)"/>
      <use xlink:href="#DejaVuSans-44" transform="translate(3052.09375 0)"/>
      <use xlink:href="#DejaVuSans-55" transform="translate(3113.375 0)"/>
      <use xlink:href="#DejaVuSans-3" transform="translate(3154.484375 0)"/>
      <use xlink:href="#DejaVuSans-20" transform="translate(3186.265625 0)"/>
      <use xlink:href="#DejaVuSans-3" transform="translate(3270.0625 0)"/>
      <use xlink:href="#DejaVuSans-50" transform="translate(3301.84375 0)"/>
      <use xlink:href="#DejaVuSans-48" transform="translate(3399.25 0)"/>
      <use xlink:href="#DejaVuSans-47" transform="translate(3460.78125 0)"/>
      <use xlink:href="#DejaVuSans-4c" transform="translate(3524.265625 0)"/>
      <use xlink:href="#DejaVuSans-44" transform="translate(3552.046875 0)"/>
      <use xlink:href="#DejaVuSans-51" transform="translate(3613.328125 0)"/>
     </g>
    </g>
   </g>
   <g id="matplotlib.axis_2">
    <g id="ytick_1">
     <g id="line2d_37">
      <path d="M 91.078281 30.126281 
L 492.838281 30.126281 
" clip-path="url(#p860bfd585b)" style="fill: none; stroke: #262b35; stroke-width: 0.6; stroke-linecap: square"/>
     </g>
     <g id="line2d_38">
      <defs>
       <path id="m058189eb99" d="M 0 0 
L -3.5 0 
" style="stroke: #7d8593; stroke-width: 0.8"/>
      </defs>
      <g>
       <use xlink:href="#m058189eb99" x="91.078281" y="30.126281" style="fill: #7d8593; stroke: #7d8593; stroke-width: 0.8"/>
      </g>
     </g>
     <g id="text_6">
      <!-- qcc -O1 -->
      <g style="fill: #7d8593" transform="translate(49.298906 33.545227) scale(0.09 -0.09)">
       <defs>
        <path id="DejaVuSans-54" d="M 947 1747 
Q 947 1113 1208 752 
Q 1469 391 1925 391 
Q 2381 391 2643 752 
Q 2906 1113 2906 1747 
Q 2906 2381 2643 2742 
Q 2381 3103 1925 3103 
Q 1469 3103 1208 2742 
Q 947 2381 947 1747 
z
M 2906 525 
Q 2725 213 2448 61 
Q 2172 -91 1784 -91 
Q 1150 -91 751 415 
Q 353 922 353 1747 
Q 353 2572 751 3078 
Q 1150 3584 1784 3584 
Q 2172 3584 2448 3432 
Q 2725 3281 2906 2969 
L 2906 3500 
L 3481 3500 
L 3481 -1331 
L 2906 -1331 
L 2906 525 
z
" transform="scale(0.015625)"/>
        <path id="DejaVuSans-10" d="M 313 2009 
L 1997 2009 
L 1997 1497 
L 313 1497 
L 313 2009 
z
" transform="scale(0.015625)"/>
        <path id="DejaVuSans-32" d="M 2522 4238 
Q 1834 4238 1429 3725 
Q 1025 3213 1025 2328 
Q 1025 1447 1429 934 
Q 1834 422 2522 422 
Q 3209 422 3611 934 
Q 4013 1447 4013 2328 
Q 4013 3213 3611 3725 
Q 3209 4238 2522 4238 
z
M 2522 4750 
Q 3503 4750 4090 4092 
Q 4678 3434 4678 2328 
Q 4678 1225 4090 567 
Q 3503 -91 2522 -91 
Q 1538 -91 948 565 
Q 359 1222 359 2328 
Q 359 3434 948 4092 
Q 1538 4750 2522 4750 
z
" transform="scale(0.015625)"/>
       </defs>
       <use xlink:href="#DejaVuSans-54"/>
       <use xlink:href="#DejaVuSans-46" transform="translate(63.484375 0)"/>
       <use xlink:href="#DejaVuSans-46" transform="translate(118.46875 0)"/>
       <use xlink:href="#DejaVuSans-3" transform="translate(173.453125 0)"/>
       <use xlink:href="#DejaVuSans-10" transform="translate(205.234375 0)"/>
       <use xlink:href="#DejaVuSans-32" transform="translate(244.09375 0)"/>
       <use xlink:href="#DejaVuSans-14" transform="translate(322.8125 0)"/>
      </g>
     </g>
    </g>
    <g id="ytick_2">
     <g id="line2d_39">
      <path d="M 91.078281 87.246281 
L 492.838281 87.246281 
" clip-path="url(#p860bfd585b)" style="fill: none; stroke: #262b35; stroke-width: 0.6; stroke-linecap: square"/>
     </g>
     <g id="line2d_40">
      <g>
       <use xlink:href="#m058189eb99" x="91.078281" y="87.246281" style="fill: #7d8593; stroke: #7d8593; stroke-width: 0.8"/>
      </g>
     </g>
     <g id="text_7">
      <!-- qiskit O1 -->
      <g style="fill: #7d8593" transform="translate(44.264531 90.665578) scale(0.09 -0.09)">
       <use xlink:href="#DejaVuSans-54"/>
       <use xlink:href="#DejaVuSans-4c" transform="translate(63.484375 0)"/>
       <use xlink:href="#DejaVuSans-56" transform="translate(91.265625 0)"/>
       <use xlink:href="#DejaVuSans-4e" transform="translate(143.359375 0)"/>
       <use xlink:href="#DejaVuSans-4c" transform="translate(201.265625 0)"/>
       <use xlink:href="#DejaVuSans-57" transform="translate(229.046875 0)"/>
       <use xlink:href="#DejaVuSans-3" transform="translate(268.25 0)"/>
       <use xlink:href="#DejaVuSans-32" transform="translate(300.03125 0)"/>
       <use xlink:href="#DejaVuSans-14" transform="translate(378.75 0)"/>
      </g>
     </g>
    </g>
    <g id="ytick_3">
     <g id="line2d_41">
      <path d="M 91.078281 144.366281 
L 492.838281 144.366281 
" clip-path="url(#p860bfd585b)" style="fill: none; stroke: #262b35; stroke-width: 0.6; stroke-linecap: square"/>
     </g>
     <g id="line2d_42">
      <g>
       <use xlink:href="#m058189eb99" x="91.078281" y="144.366281" style="fill: #7d8593; stroke: #7d8593; stroke-width: 0.8"/>
      </g>
     </g>
     <g id="text_8">
      <!-- qiskit O2/O3 -->
      <g style="fill: #7d8593" transform="translate(28.421719 147.785578) scale(0.09 -0.09)">
       <defs>
        <path id="DejaVuSans-12" d="M 1625 4666 
L 2156 4666 
L 531 -594 
L 0 -594 
L 1625 4666 
z
" transform="scale(0.015625)"/>
       </defs>
       <use xlink:href="#DejaVuSans-54"/>
       <use xlink:href="#DejaVuSans-4c" transform="translate(63.484375 0)"/>
       <use xlink:href="#DejaVuSans-56" transform="translate(91.265625 0)"/>
       <use xlink:href="#DejaVuSans-4e" transform="translate(143.359375 0)"/>
       <use xlink:href="#DejaVuSans-4c" transform="translate(201.265625 0)"/>
       <use xlink:href="#DejaVuSans-57" transform="translate(229.046875 0)"/>
       <use xlink:href="#DejaVuSans-3" transform="translate(268.25 0)"/>
       <use xlink:href="#DejaVuSans-32" transform="translate(300.03125 0)"/>
       <use xlink:href="#DejaVuSans-15" transform="translate(378.75 0)"/>
       <use xlink:href="#DejaVuSans-12" transform="translate(442.375 0)"/>
       <use xlink:href="#DejaVuSans-32" transform="translate(476.0625 0)"/>
       <use xlink:href="#DejaVuSans-16" transform="translate(554.78125 0)"/>
      </g>
     </g>
    </g>
    <g id="ytick_4">
     <g id="line2d_43">
      <path d="M 91.078281 201.486281 
L 492.838281 201.486281 
" clip-path="url(#p860bfd585b)" style="fill: none; stroke: #262b35; stroke-width: 0.6; stroke-linecap: square"/>
     </g>
     <g id="line2d_44">
      <g>
       <use xlink:href="#m058189eb99" x="91.078281" y="201.486281" style="fill: #7d8593; stroke: #7d8593; stroke-width: 0.8"/>
      </g>
     </g>
     <g id="text_9">
      <!-- tket FullPeephole -->
      <g style="fill: #7d8593" transform="translate(7.2 204.905578) scale(0.09 -0.09)">
       <defs>
        <path id="DejaVuSans-29" d="M 628 4666 
L 3309 4666 
L 3309 4134 
L 1259 4134 
L 1259 2759 
L 3109 2759 
L 3109 2228 
L 1259 2228 
L 1259 0 
L 628 0 
L 628 4666 
z
" transform="scale(0.015625)"/>
        <path id="DejaVuSans-58" d="M 544 1381 
L 544 3500 
L 1119 3500 
L 1119 1403 
Q 1119 906 1312 657 
Q 1506 409 1894 409 
Q 2359 409 2629 706 
Q 2900 1003 2900 1516 
L 2900 3500 
L 3475 3500 
L 3475 0 
L 2900 0 
L 2900 538 
Q 2691 219 2414 64 
Q 2138 -91 1772 -91 
Q 1169 -91 856 284 
Q 544 659 544 1381 
z
M 1991 3584 
L 1991 3584 
z
" transform="scale(0.015625)"/>
        <path id="DejaVuSans-33" d="M 1259 4147 
L 1259 2394 
L 2053 2394 
Q 2494 2394 2734 2622 
Q 2975 2850 2975 3272 
Q 2975 3691 2734 3919 
Q 2494 4147 2053 4147 
L 1259 4147 
z
M 628 4666 
L 2053 4666 
Q 2838 4666 3239 4311 
Q 3641 3956 3641 3272 
Q 3641 2581 3239 2228 
Q 2838 1875 2053 1875 
L 1259 1875 
L 1259 0 
L 628 0 
L 628 4666 
z
" transform="scale(0.015625)"/>
       </defs>
       <use xlink:href="#DejaVuSans-57"/>
       <use xlink:href="#DejaVuSans-4e" transform="translate(39.203125 0)"/>
       <use xlink:href="#DejaVuSans-48" transform="translate(93.546875 0)"/>
       <use xlink:href="#DejaVuSans-57" transform="translate(155.078125 0)"/>
       <use xlink:href="#DejaVuSans-3" transform="translate(194.28125 0)"/>
       <use xlink:href="#DejaVuSans-29" transform="translate(226.0625 0)"/>
       <use xlink:href="#DejaVuSans-58" transform="translate(278.109375 0)"/>
       <use xlink:href="#DejaVuSans-4f" transform="translate(341.484375 0)"/>
       <use xlink:href="#DejaVuSans-4f" transform="translate(369.265625 0)"/>
       <use xlink:href="#DejaVuSans-33" transform="translate(397.046875 0)"/>
       <use xlink:href="#DejaVuSans-48" transform="translate(453.78125 0)"/>
       <use xlink:href="#DejaVuSans-48" transform="translate(515.3125 0)"/>
       <use xlink:href="#DejaVuSans-53" transform="translate(576.84375 0)"/>
       <use xlink:href="#DejaVuSans-4b" transform="translate(640.328125 0)"/>
       <use xlink:href="#DejaVuSans-52" transform="translate(703.703125 0)"/>
       <use xlink:href="#DejaVuSans-4f" transform="translate(764.890625 0)"/>
       <use xlink:href="#DejaVuSans-48" transform="translate(792.671875 0)"/>
      </g>
     </g>
    </g>
   </g>
   <g id="patch_3">
    <path d="M 91.078281 210.054281 
L 91.078281 21.558281 
" style="fill: none; stroke: #39414f; stroke-width: 0.8; stroke-linejoin: miter; stroke-linecap: square"/>
   </g>
   <g id="patch_4">
    <path d="M 492.838281 210.054281 
L 492.838281 21.558281 
" style="fill: none; stroke: #39414f; stroke-width: 0.8; stroke-linejoin: miter; stroke-linecap: square"/>
   </g>
   <g id="patch_5">
    <path d="M 91.078281 210.054281 
L 492.838281 210.054281 
" style="fill: none; stroke: #39414f; stroke-width: 0.8; stroke-linejoin: miter; stroke-linecap: square"/>
   </g>
   <g id="patch_6">
    <path d="M 91.078281 21.558281 
L 492.838281 21.558281 
" style="fill: none; stroke: #39414f; stroke-width: 0.8; stroke-linejoin: miter; stroke-linecap: square"/>
   </g>
   <g id="line2d_45">
    <defs>
     <path id="m46efc56065" d="M 0 3 
C 0.795609 3 1.55874 2.683901 2.12132 2.12132 
C 2.683901 1.55874 3 0.795609 3 0 
C 3 -0.795609 2.683901 -1.55874 2.12132 -2.12132 
C 1.55874 -2.683901 0.795609 -3 0 -3 
C -0.795609 -3 -1.55874 -2.683901 -2.12132 -2.12132 
C -2.683901 -1.55874 -3 -0.795609 -3 0 
C -3 0.795609 -2.683901 1.55874 -2.12132 2.12132 
C -1.55874 2.683901 -0.795609 3 0 3 
z
" style="stroke: #d2823e; stroke-opacity: 0.75"/>
    </defs>
    <g clip-path="url(#p860bfd585b)">
     <use xlink:href="#m46efc56065" x="109.340099" y="30.126281" style="fill: #d2823e; fill-opacity: 0.75; stroke: #d2823e; stroke-opacity: 0.75"/>
     <use xlink:href="#m46efc56065" x="233.523418" y="30.126281" style="fill: #d2823e; fill-opacity: 0.75; stroke: #d2823e; stroke-opacity: 0.75"/>
     <use xlink:href="#m46efc56065" x="300.446448" y="30.126281" style="fill: #d2823e; fill-opacity: 0.75; stroke: #d2823e; stroke-opacity: 0.75"/>
     <use xlink:href="#m46efc56065" x="226.132746" y="30.126281" style="fill: #d2823e; fill-opacity: 0.75; stroke: #d2823e; stroke-opacity: 0.75"/>
     <use xlink:href="#m46efc56065" x="227.521847" y="30.126281" style="fill: #d2823e; fill-opacity: 0.75; stroke: #d2823e; stroke-opacity: 0.75"/>
     <use xlink:href="#m46efc56065" x="302.999887" y="30.126281" style="fill: #d2823e; fill-opacity: 0.75; stroke: #d2823e; stroke-opacity: 0.75"/>
     <use xlink:href="#m46efc56065" x="309.34832" y="30.126281" style="fill: #d2823e; fill-opacity: 0.75; stroke: #d2823e; stroke-opacity: 0.75"/>
     <use xlink:href="#m46efc56065" x="308.19548" y="30.126281" style="fill: #d2823e; fill-opacity: 0.75; stroke: #d2823e; stroke-opacity: 0.75"/>
     <use xlink:href="#m46efc56065" x="243.950207" y="30.126281" style="fill: #d2823e; fill-opacity: 0.75; stroke: #d2823e; stroke-opacity: 0.75"/>
     <use xlink:href="#m46efc56065" x="228.200952" y="30.126281" style="fill: #d2823e; fill-opacity: 0.75; stroke: #d2823e; stroke-opacity: 0.75"/>
    </g>
   </g>
   <g id="line2d_46">
    <defs>
     <path id="me5487c923f" d="M -3 3 
L 3 3 
L 3 -3 
L -3 -3 
z
" style="stroke: #7d8593; stroke-opacity: 0.75; stroke-linejoin: miter"/>
    </defs>
    <g clip-path="url(#p860bfd585b)">
     <use xlink:href="#me5487c923f" x="161.701508" y="87.246281" style="fill: #7d8593; fill-opacity: 0.75; stroke: #7d8593; stroke-opacity: 0.75; stroke-linejoin: miter"/>
     <use xlink:href="#me5487c923f" x="219.749908" y="87.246281" style="fill: #7d8593; fill-opacity: 0.75; stroke: #7d8593; stroke-opacity: 0.75; stroke-linejoin: miter"/>
     <use xlink:href="#me5487c923f" x="227.241828" y="87.246281" style="fill: #7d8593; fill-opacity: 0.75; stroke: #7d8593; stroke-opacity: 0.75; stroke-linejoin: miter"/>
     <use xlink:href="#me5487c923f" x="200.517655" y="87.246281" style="fill: #7d8593; fill-opacity: 0.75; stroke: #7d8593; stroke-opacity: 0.75; stroke-linejoin: miter"/>
     <use xlink:href="#me5487c923f" x="202.590005" y="87.246281" style="fill: #7d8593; fill-opacity: 0.75; stroke: #7d8593; stroke-opacity: 0.75; stroke-linejoin: miter"/>
     <use xlink:href="#me5487c923f" x="229.130467" y="87.246281" style="fill: #7d8593; fill-opacity: 0.75; stroke: #7d8593; stroke-opacity: 0.75; stroke-linejoin: miter"/>
     <use xlink:href="#me5487c923f" x="227.600101" y="87.246281" style="fill: #7d8593; fill-opacity: 0.75; stroke: #7d8593; stroke-opacity: 0.75; stroke-linejoin: miter"/>
     <use xlink:href="#me5487c923f" x="229.249853" y="87.246281" style="fill: #7d8593; fill-opacity: 0.75; stroke: #7d8593; stroke-opacity: 0.75; stroke-linejoin: miter"/>
     <use xlink:href="#me5487c923f" x="218.695836" y="87.246281" style="fill: #7d8593; fill-opacity: 0.75; stroke: #7d8593; stroke-opacity: 0.75; stroke-linejoin: miter"/>
     <use xlink:href="#me5487c923f" x="219.926021" y="87.246281" style="fill: #7d8593; fill-opacity: 0.75; stroke: #7d8593; stroke-opacity: 0.75; stroke-linejoin: miter"/>
    </g>
   </g>
   <g id="line2d_47">
    <defs>
     <path id="m80f849cb4e" d="M -0 4.242641 
L 4.242641 0 
L 0 -4.242641 
L -4.242641 -0 
z
" style="stroke: #9b8ee2; stroke-opacity: 0.75; stroke-linejoin: miter"/>
    </defs>
    <g clip-path="url(#p860bfd585b)">
     <use xlink:href="#m80f849cb4e" x="227.282671" y="144.366281" style="fill: #9b8ee2; fill-opacity: 0.75; stroke: #9b8ee2; stroke-opacity: 0.75; stroke-linejoin: miter"/>
     <use xlink:href="#m80f849cb4e" x="245.023981" y="144.366281" style="fill: #9b8ee2; fill-opacity: 0.75; stroke: #9b8ee2; stroke-opacity: 0.75; stroke-linejoin: miter"/>
     <use xlink:href="#m80f849cb4e" x="269.22494" y="144.366281" style="fill: #9b8ee2; fill-opacity: 0.75; stroke: #9b8ee2; stroke-opacity: 0.75; stroke-linejoin: miter"/>
     <use xlink:href="#m80f849cb4e" x="268.772866" y="144.366281" style="fill: #9b8ee2; fill-opacity: 0.75; stroke: #9b8ee2; stroke-opacity: 0.75; stroke-linejoin: miter"/>
     <use xlink:href="#m80f849cb4e" x="264.926637" y="144.366281" style="fill: #9b8ee2; fill-opacity: 0.75; stroke: #9b8ee2; stroke-opacity: 0.75; stroke-linejoin: miter"/>
     <use xlink:href="#m80f849cb4e" x="275.753944" y="144.366281" style="fill: #9b8ee2; fill-opacity: 0.75; stroke: #9b8ee2; stroke-opacity: 0.75; stroke-linejoin: miter"/>
     <use xlink:href="#m80f849cb4e" x="277.684648" y="144.366281" style="fill: #9b8ee2; fill-opacity: 0.75; stroke: #9b8ee2; stroke-opacity: 0.75; stroke-linejoin: miter"/>
     <use xlink:href="#m80f849cb4e" x="280.337527" y="144.366281" style="fill: #9b8ee2; fill-opacity: 0.75; stroke: #9b8ee2; stroke-opacity: 0.75; stroke-linejoin: miter"/>
     <use xlink:href="#m80f849cb4e" x="255.3875" y="144.366281" style="fill: #9b8ee2; fill-opacity: 0.75; stroke: #9b8ee2; stroke-opacity: 0.75; stroke-linejoin: miter"/>
     <use xlink:href="#m80f849cb4e" x="274.165595" y="144.366281" style="fill: #9b8ee2; fill-opacity: 0.75; stroke: #9b8ee2; stroke-opacity: 0.75; stroke-linejoin: miter"/>
    </g>
   </g>
   <g id="line2d_48">
    <defs>
     <path id="m37bdf556ca" d="M 0 -3 
L -3 3 
L 3 3 
z
" style="stroke: #5ec6cb; stroke-opacity: 0.75; stroke-linejoin: miter"/>
    </defs>
    <g clip-path="url(#p860bfd585b)">
     <use xlink:href="#m37bdf556ca" x="344.213642" y="201.486281" style="fill: #5ec6cb; fill-opacity: 0.75; stroke: #5ec6cb; stroke-opacity: 0.75; stroke-linejoin: miter"/>
     <use xlink:href="#m37bdf556ca" x="379.163446" y="201.486281" style="fill: #5ec6cb; fill-opacity: 0.75; stroke: #5ec6cb; stroke-opacity: 0.75; stroke-linejoin: miter"/>
     <use xlink:href="#m37bdf556ca" x="436.738352" y="201.486281" style="fill: #5ec6cb; fill-opacity: 0.75; stroke: #5ec6cb; stroke-opacity: 0.75; stroke-linejoin: miter"/>
     <use xlink:href="#m37bdf556ca" x="425.862282" y="201.486281" style="fill: #5ec6cb; fill-opacity: 0.75; stroke: #5ec6cb; stroke-opacity: 0.75; stroke-linejoin: miter"/>
     <use xlink:href="#m37bdf556ca" x="426.251354" y="201.486281" style="fill: #5ec6cb; fill-opacity: 0.75; stroke: #5ec6cb; stroke-opacity: 0.75; stroke-linejoin: miter"/>
     <use xlink:href="#m37bdf556ca" x="474.576463" y="201.486281" style="fill: #5ec6cb; fill-opacity: 0.75; stroke: #5ec6cb; stroke-opacity: 0.75; stroke-linejoin: miter"/>
     <use xlink:href="#m37bdf556ca" x="464.896492" y="201.486281" style="fill: #5ec6cb; fill-opacity: 0.75; stroke: #5ec6cb; stroke-opacity: 0.75; stroke-linejoin: miter"/>
     <use xlink:href="#m37bdf556ca" x="473.129552" y="201.486281" style="fill: #5ec6cb; fill-opacity: 0.75; stroke: #5ec6cb; stroke-opacity: 0.75; stroke-linejoin: miter"/>
     <use xlink:href="#m37bdf556ca" x="420.619274" y="201.486281" style="fill: #5ec6cb; fill-opacity: 0.75; stroke: #5ec6cb; stroke-opacity: 0.75; stroke-linejoin: miter"/>
     <use xlink:href="#m37bdf556ca" x="402.223777" y="201.486281" style="fill: #5ec6cb; fill-opacity: 0.75; stroke: #5ec6cb; stroke-opacity: 0.75; stroke-linejoin: miter"/>
    </g>
   </g>
   <g id="text_10">
    <!-- Compile time: the price of deeper optimization -->
    <g style="fill: #d6dbe1" transform="translate(163.064922 15.558281) scale(0.11 -0.11)">
     <defs>
      <path id="DejaVuSans-26" d="M 4122 4306 
L 4122 3641 
Q 3803 3938 3442 4084 
Q 3081 4231 2675 4231 
Q 1875 4231 1450 3742 
Q 1025 3253 1025 2328 
Q 1025 1406 1450 917 
Q 1875 428 2675 428 
Q 3081 428 3442 575 
Q 3803 722 4122 1019 
L 4122 359 
Q 3791 134 3420 21 
Q 3050 -91 2638 -91 
Q 1578 -91 968 557 
Q 359 1206 359 2328 
Q 359 3453 968 4101 
Q 1578 4750 2638 4750 
Q 3056 4750 3426 4639 
Q 3797 4528 4122 4306 
z
" transform="scale(0.015625)"/>
      <path id="DejaVuSans-1d" d="M 750 794 
L 1409 794 
L 1409 0 
L 750 0 
L 750 794 
z
M 750 3309 
L 1409 3309 
L 1409 2516 
L 750 2516 
L 750 3309 
z
" transform="scale(0.015625)"/>
      <path id="DejaVuSans-49" d="M 2375 4863 
L 2375 4384 
L 1825 4384 
Q 1516 4384 1395 4259 
Q 1275 4134 1275 3809 
L 1275 3500 
L 2222 3500 
L 2222 3053 
L 1275 3053 
L 1275 0 
L 697 0 
L 697 3053 
L 147 3053 
L 147 3500 
L 697 3500 
L 697 3744 
Q 697 4328 969 4595 
Q 1241 4863 1831 4863 
L 2375 4863 
z
" transform="scale(0.015625)"/>
     </defs>
     <use xlink:href="#DejaVuSans-26"/>
     <use xlink:href="#DejaVuSans-52" transform="translate(69.828125 0)"/>
     <use xlink:href="#DejaVuSans-50" transform="translate(131.015625 0)"/>
     <use xlink:href="#DejaVuSans-53" transform="translate(228.421875 0)"/>
     <use xlink:href="#DejaVuSans-4c" transform="translate(291.90625 0)"/>
     <use xlink:href="#DejaVuSans-4f" transform="translate(319.6875 0)"/>
     <use xlink:href="#DejaVuSans-48" transform="translate(347.46875 0)"/>
     <use xlink:href="#DejaVuSans-3" transform="translate(409 0)"/>
     <use xlink:href="#DejaVuSans-57" transform="translate(440.78125 0)"/>
     <use xlink:href="#DejaVuSans-4c" transform="translate(479.984375 0)"/>
     <use xlink:href="#DejaVuSans-50" transform="translate(507.765625 0)"/>
     <use xlink:href="#DejaVuSans-48" transform="translate(605.171875 0)"/>
     <use xlink:href="#DejaVuSans-1d" transform="translate(666.703125 0)"/>
     <use xlink:href="#DejaVuSans-3" transform="translate(700.390625 0)"/>
     <use xlink:href="#DejaVuSans-57" transform="translate(732.171875 0)"/>
     <use xlink:href="#DejaVuSans-4b" transform="translate(771.375 0)"/>
     <use xlink:href="#DejaVuSans-48" transform="translate(834.75 0)"/>
     <use xlink:href="#DejaVuSans-3" transform="translate(896.28125 0)"/>
     <use xlink:href="#DejaVuSans-53" transform="translate(928.0625 0)"/>
     <use xlink:href="#DejaVuSans-55" transform="translate(991.546875 0)"/>
     <use xlink:href="#DejaVuSans-4c" transform="translate(1032.65625 0)"/>
     <use xlink:href="#DejaVuSans-46" transform="translate(1060.4375 0)"/>
     <use xlink:href="#DejaVuSans-48" transform="translate(1115.421875 0)"/>
     <use xlink:href="#DejaVuSans-3" transform="translate(1176.953125 0)"/>
     <use xlink:href="#DejaVuSans-52" transform="translate(1208.734375 0)"/>
     <use xlink:href="#DejaVuSans-49" transform="translate(1269.921875 0)"/>
     <use xlink:href="#DejaVuSans-3" transform="translate(1305.125 0)"/>
     <use xlink:href="#DejaVuSans-47" transform="translate(1336.90625 0)"/>
     <use xlink:href="#DejaVuSans-48" transform="translate(1400.390625 0)"/>
     <use xlink:href="#DejaVuSans-48" transform="translate(1461.921875 0)"/>
     <use xlink:href="#DejaVuSans-53" transform="translate(1523.453125 0)"/>
     <use xlink:href="#DejaVuSans-48" transform="translate(1586.9375 0)"/>
     <use xlink:href="#DejaVuSans-55" transform="translate(1648.46875 0)"/>
     <use xlink:href="#DejaVuSans-3" transform="translate(1689.578125 0)"/>
     <use xlink:href="#DejaVuSans-52" transform="translate(1721.359375 0)"/>
     <use xlink:href="#DejaVuSans-53" transform="translate(1782.546875 0)"/>
     <use xlink:href="#DejaVuSans-57" transform="translate(1846.03125 0)"/>
     <use xlink:href="#DejaVuSans-4c" transform="translate(1885.234375 0)"/>
     <use xlink:href="#DejaVuSans-50" transform="translate(1913.015625 0)"/>
     <use xlink:href="#DejaVuSans-4c" transform="translate(2010.421875 0)"/>
     <use xlink:href="#DejaVuSans-5d" transform="translate(2038.203125 0)"/>
     <use xlink:href="#DejaVuSans-44" transform="translate(2090.6875 0)"/>
     <use xlink:href="#DejaVuSans-57" transform="translate(2151.96875 0)"/>
     <use xlink:href="#DejaVuSans-4c" transform="translate(2191.171875 0)"/>
     <use xlink:href="#DejaVuSans-52" transform="translate(2218.953125 0)"/>
     <use xlink:href="#DejaVuSans-51" transform="translate(2280.140625 0)"/>
    </g>
   </g>
   <g id="line2d_49">
    <defs>
     <path id="m349369f18d" d="M 0 8 
L 0 -8 
" style="stroke: #d6dbe1; stroke-width: 2.4"/>
    </defs>
    <g clip-path="url(#p860bfd585b)">
     <use xlink:href="#m349369f18d" x="243.950207" y="30.126281" style="fill: #d6dbe1; stroke: #d6dbe1; stroke-width: 2.4"/>
    </g>
   </g>
   <g id="line2d_50">
    <g clip-path="url(#p860bfd585b)">
     <use xlink:href="#m349369f18d" x="219.926021" y="87.246281" style="fill: #d6dbe1; stroke: #d6dbe1; stroke-width: 2.4"/>
    </g>
   </g>
   <g id="line2d_51">
    <g clip-path="url(#p860bfd585b)">
     <use xlink:href="#m349369f18d" x="269.22494" y="144.366281" style="fill: #d6dbe1; stroke: #d6dbe1; stroke-width: 2.4"/>
    </g>
   </g>
   <g id="line2d_52">
    <g clip-path="url(#p860bfd585b)">
     <use xlink:href="#m349369f18d" x="426.251354" y="201.486281" style="fill: #d6dbe1; stroke: #d6dbe1; stroke-width: 2.4"/>
    </g>
   </g>
  </g>
 </g>
 <defs>
  <clipPath id="p860bfd585b">
   <rect x="91.078281" y="21.558281" width="401.76" height="188.496"/>
  </clipPath>
 </defs>
</svg>
