<?xml version="1.0" encoding="utf-8" standalone="no"?>
<!DOCTYPE svg PUBLIC "-//W3C//DTD SVG 1.1//EN"
  "http://www.w3.org/Graphics/SVG/1.1/DTD/svg11.dtd">
<svg xmlns:xlink="http://www.w3.org/1999/xlink" width="505.369375pt" height="347.047062pt" viewBox="0 0 505.369375 347.047062" xmlns="http://www.w3.org/2000/svg" version="1.1">
 <metadata>
  <rdf:RDF xmlns:dc="http://purl.org/dc/elements/1.1/" xmlns:cc="http://creativecommons.org/ns#" xmlns:rdf="http://www.w3.org/1999/02/22-rdf-syntax-ns#">
   <cc:Work>
    <dc:type rdf:resource="http://purl.org/dc/dcmitype/StillImage"/>
    <dc:date>2026-07-07T22:23:58.964009</dc:date>
    <dc:format>image/svg+xml</dc:format>
    <dc:creator>
     <cc:Agent>
      <dc:title>Matplotlib v3.11.0, https://matplotlib.org/</dc:title>
     </cc:Agent>
    </dc:creator>
   </cc:Work>
  </rdf:RDF>
 </metadata>
 <defs>
  <style type="text/css">*{stroke-linejoin: round; stroke-linecap: butt}</style>
 </defs>
 <g id="figure_1">
  <g id="patch_1">
   <path d="M 0 347.047062 
L 505.369375 347.047062 
L 505.369375 0 
L 0 0 
L 0 347.047062 
z
" style="fill: none"/>
  </g>
  <g id="axes_1">
   <g id="patch_2">
    <path d="M 96.409375 309.846281 
L 498.169375 309.846281 
L 498.169375 21.558281 
L 96.409375 21.558281 
L 96.409375 309.846281 
z
" style="fill: none"/>
   </g>
   <g id="matplotlib.axis_1">
    <g id="xtick_1">
     <g id="line2d_1">
      <path d="M 133.470124 309.846281 
L 133.470124 21.558281 
" clip-path="url(#p55c8836a9b)" style="fill: none; stroke: #262b35; stroke-width: 0.6; stroke-linecap: square"/>
     </g>
     <g id="line2d_2">
      <defs>
       <path id="mbe1ba067aa" d="M 0 0 
L 0 3.5 
" style="stroke: #7d8593; stroke-width: 0.8"/>
      </defs>
      <g>
       <use xlink:href="#mbe1ba067aa" x="133.470124" y="309.846281" style="fill: #7d8593; stroke: #7d8593; stroke-width: 0.8"/>
      </g>
     </g>
     <g id="text_1">
      <!-- 75 -->
      <g style="fill: #7d8593" transform="translate(127.743874 323.684172) scale(0.09 -0.09)">
       <defs>
        <path id="DejaVuSans-1a" d="M 525 4666 
L 3525 4666 
L 3525 4397 
L 1831 0 
L 1172 0 
L 2766 4134 
L 525 4134 
L 525 4666 
z
" transform="scale(0.015625)"/>
        <path id="DejaVuSans-18" d="M 691 4666 
L 3169 4666 
L 3169 4134 
L 1269 4134 
L 1269 2991 
Q 1406 3038 1543 3061 
Q 1681 3084 1819 3084 
Q 2600 3084 3056 2656 
Q 3513 2228 3513 1497 
Q 3513 744 3044 326 
Q 2575 -91 1722 -91 
Q 1428 -91 1123 -41 
Q 819 9 494 109 
L 494 744 
Q 775 591 1075 516 
Q 1375 441 1709 441 
Q 2250 441 2565 725 
Q 2881 1009 2881 1497 
Q 2881 1984 2565 2268 
Q 2250 2553 1709 2553 
Q 1456 2553 1204 2497 
Q 953 2441 691 2322 
L 691 4666 
z
" transform="scale(0.015625)"/>
       </defs>
       <use xlink:href="#DejaVuSans-1a"/>
       <use xlink:href="#DejaVuSans-18" transform="translate(63.625 0)"/>
      </g>
     </g>
    </g>
    <g id="xtick_2">
     <g id="line2d_3">
      <path d="M 202.75761 309.846281 
L 202.75761 21.558281 
" clip-path="url(#p55c8836a9b)" style="fill: none; stroke: #262b35; stroke-width: 0.6; stroke-linecap: square"/>
     </g>
     <g id="line2d_4">
      <g>
       <use xlink:href="#mbe1ba067aa" x="202.75761" y="309.846281" style="fill: #7d8593; stroke: #7d8593; stroke-width: 0.8"/>
      </g>
     </g>
     <g id="text_2">
      <!-- 80 -->
      <g style="fill: #7d8593" transform="translate(197.03136 323.684172) scale(0.09 -0.09)">
       <defs>
        <path id="DejaVuSans-1b" d="M 2034 2216 
Q 1584 2216 1326 1975 
Q 1069 1734 1069 1313 
Q 1069 891 1326 650 
Q 1584 409 2034 409 
Q 2484 409 2743 651 
Q 3003 894 3003 1313 
Q 3003 1734 2745 1975 
Q 2488 2216 2034 2216 
z
M 1403 2484 
Q 997 2584 770 2862 
Q 544 3141 544 3541 
Q 544 4100 942 4425 
Q 1341 4750 2034 4750 
Q 2731 4750 3128 4425 
Q 3525 4100 3525 3541 
Q 3525 3141 3298 2862 
Q 3072 2584 2669 2484 
Q 3125 2378 3379 2068 
Q 3634 1759 3634 1313 
Q 3634 634 3220 271 
Q 2806 -91 2034 -91 
Q 1263 -91 848 271 
Q 434 634 434 1313 
Q 434 1759 690 2068 
Q 947 2378 1403 2484 
z
M 1172 3481 
Q 1172 3119 1398 2916 
Q 1625 2713 2034 2713 
Q 2441 2713 2670 2916 
Q 2900 3119 2900 3481 
Q 2900 3844 2670 4047 
Q 2441 4250 2034 4250 
Q 1625 4250 1398 4047 
Q 1172 3844 1172 3481 
z
" transform="scale(0.015625)"/>
        <path id="DejaVuSans-13" d="M 2034 4250 
Q 1547 4250 1301 3770 
Q 1056 3291 1056 2328 
Q 1056 1369 1301 889 
Q 1547 409 2034 409 
Q 2525 409 2770 889 
Q 3016 1369 3016 2328 
Q 3016 3291 2770 3770 
Q 2525 4250 2034 4250 
z
M 2034 4750 
Q 2819 4750 3233 4129 
Q 3647 3509 3647 2328 
Q 3647 1150 3233 529 
Q 2819 -91 2034 -91 
Q 1250 -91 836 529 
Q 422 1150 422 2328 
Q 422 3509 836 4129 
Q 1250 4750 2034 4750 
z
" transform="scale(0.015625)"/>
       </defs>
       <use xlink:href="#DejaVuSans-1b"/>
       <use xlink:href="#DejaVuSans-13" transform="translate(63.625 0)"/>
      </g>
     </g>
    </g>
    <g id="xtick_3">
     <g id="line2d_5">
      <path d="M 272.045097 309.846281 
L 272.045097 21.558281 
" clip-path="url(#p55c8836a9b)" style="fill: none; stroke: #262b35; stroke-width: 0.6; stroke-linecap: square"/>
     </g>
     <g id="line2d_6">
      <g>
       <use xlink:href="#mbe1ba067aa" x="272.045097" y="309.846281" style="fill: #7d8593; stroke: #7d8593; stroke-width: 0.8"/>
      </g>
     </g>
     <g id="text_3">
      <!-- 85 -->
      <g style="fill: #7d8593" transform="translate(266.318847 323.684172) scale(0.09 -0.09)">
       <use xlink:href="#DejaVuSans-1b"/>
       <use xlink:href="#DejaVuSans-18" transform="translate(63.625 0)"/>
      </g>
     </g>
    </g>
    <g id="xtick_4">
     <g id="line2d_7">
      <path d="M 341.332584 309.846281 
L 341.332584 21.558281 
" clip-path="url(#p55c8836a9b)" style="fill: none; stroke: #262b35; stroke-width: 0.6; stroke-linecap: square"/>
     </g>
     <g id="line2d_8">
      <g>
       <use xlink:href="#mbe1ba067aa" x="341.332584" y="309.846281" style="fill: #7d8593; stroke: #7d8593; stroke-width: 0.8"/>
      </g>
     </g>
     <g id="text_4">
      <!-- 90 -->
      <g style="fill: #7d8593" transform="translate(335.606334 323.684172) scale(0.09 -0.09)">
       <defs>
        <path id="DejaVuSans-1c" d="M 703 97 
L 703 672 
Q 941 559 1184 500 
Q 1428 441 1663 441 
Q 2288 441 2617 861 
Q 2947 1281 2994 2138 
Q 2813 1869 2534 1725 
Q 2256 1581 1919 1581 
Q 1219 1581 811 2004 
Q 403 2428 403 3163 
Q 403 3881 828 4315 
Q 1253 4750 1959 4750 
Q 2769 4750 3195 4129 
Q 3622 3509 3622 2328 
Q 3622 1225 3098 567 
Q 2575 -91 1691 -91 
Q 1453 -91 1209 -44 
Q 966 3 703 97 
z
M 1959 2075 
Q 2384 2075 2632 2365 
Q 2881 2656 2881 3163 
Q 2881 3666 2632 3958 
Q 2384 4250 1959 4250 
Q 1534 4250 1286 3958 
Q 1038 3666 1038 3163 
Q 1038 2656 1286 2365 
Q 1534 2075 1959 2075 
z
" transform="scale(0.015625)"/>
       </defs>
       <use xlink:href="#DejaVuSans-1c"/>
       <use xlink:href="#DejaVuSans-13" transform="translate(63.625 0)"/>
      </g>
     </g>
    </g>
    <g id="xtick_5">
     <g id="line2d_9">
      <path d="M 410.62007 309.846281 
L 410.62007 21.558281 
" clip-path="url(#p55c8836a9b)" style="fill: none; stroke: #262b35; stroke-width: 0.6; stroke-linecap: square"/>
     </g>
     <g id="line2d_10">
      <g>
       <use xlink:href="#mbe1ba067aa" x="410.62007" y="309.846281" style="fill: #7d8593; stroke: #7d8593; stroke-width: 0.8"/>
      </g>
     </g>
     <g id="text_5">
      <!-- 95 -->
      <g style="fill: #7d8593" transform="translate(404.89382 323.684172) scale(0.09 -0.09)">
       <use xlink:href="#DejaVuSans-1c"/>
       <use xlink:href="#DejaVuSans-18" transform="translate(63.625 0)"/>
      </g>
     </g>
    </g>
    <g id="xtick_6">
     <g id="line2d_11">
      <path d="M 479.907557 309.846281 
L 479.907557 21.558281 
" clip-path="url(#p55c8836a9b)" style="fill: none; stroke: #262b35; stroke-width: 0.6; stroke-linecap: square"/>
     </g>
     <g id="line2d_12">
      <g>
       <use xlink:href="#mbe1ba067aa" x="479.907557" y="309.846281" style="fill: #7d8593; stroke: #7d8593; stroke-width: 0.8"/>
      </g>
     </g>
     <g id="text_6">
      <!-- 100 -->
      <g style="fill: #7d8593" transform="translate(471.318182 323.684172) scale(0.09 -0.09)">
       <defs>
        <path id="DejaVuSans-14" d="M 794 531 
L 1825 531 
L 1825 4091 
L 703 3866 
L 703 4441 
L 1819 4666 
L 2450 4666 
L 2450 531 
L 3481 531 
L 3481 0 
L 794 0 
L 794 531 
z
" transform="scale(0.015625)"/>
       </defs>
       <use xlink:href="#DejaVuSans-14"/>
       <use xlink:href="#DejaVuSans-13" transform="translate(63.625 0)"/>
       <use xlink:href="#DejaVuSans-13" transform="translate(127.25 0)"/>
      </g>
     </g>
    </g>
    <g id="text_7">
     <!-- 2q gates remaining (% of input) — dashed line marks the unoptimized input -->
     <g style="fill: #969ba6" transform="translate(106.509687 337.444719) scale(0.1 -0.1)">
      <defs>
       <path id="DejaVuSans-15" d="M 1228 531 
L 3431 531 
L 3431 0 
L 469 0 
L 469 531 
Q 828 903 1448 1529 
Q 2069 2156 2228 2338 
Q 2531 2678 2651 2914 
Q 2772 3150 2772 3378 
Q 2772 3750 2511 3984 
Q 2250 4219 1831 4219 
Q 1534 4219 1204 4116 
Q 875 4013 500 3803 
L 500 4441 
Q 881 4594 1212 4672 
Q 1544 4750 1819 4750 
Q 2544 4750 2975 4387 
Q 3406 4025 3406 3419 
Q 3406 3131 3298 2873 
Q 3191 2616 2906 2266 
Q 2828 2175 2409 1742 
Q 1991 1309 1228 531 
z
" transform="scale(0.015625)"/>
       <path id="DejaVuSans-54" d="M 947 1747 
Q 947 1113 1208 752 
Q 1469 391 1925 391 
Q 2381 391 2643 752 
Q 2906 1113 2906 1747 
Q 2906 2381 2643 2742 
Q 2381 3103 1925 3103 
Q 1469 3103 1208 2742 
Q 947 2381 947 1747 
z
M 2906 525 
Q 2725 213 2448 61 
Q 2172 -91 1784 -91 
Q 1150 -91 751 415 
Q 353 922 353 1747 
Q 353 2572 751 3078 
Q 1150 3584 1784 3584 
Q 2172 3584 2448 3432 
Q 2725 3281 2906 2969 
L 2906 3500 
L 3481 3500 
L 3481 -1331 
L 2906 -1331 
L 2906 525 
z
" transform="scale(0.015625)"/>
       <path id="DejaVuSans-3" transform="scale(0.015625)"/>
       <path id="DejaVuSans-4a" d="M 2906 1791 
Q 2906 2416 2648 2759 
Q 2391 3103 1925 3103 
Q 1463 3103 1205 2759 
Q 947 2416 947 1791 
Q 947 1169 1205 825 
Q 1463 481 1925 481 
Q 2391 481 2648 825 
Q 2906 1169 2906 1791 
z
M 3481 434 
Q 3481 -459 3084 -895 
Q 2688 -1331 1869 -1331 
Q 1566 -1331 1297 -1286 
Q 1028 -1241 775 -1147 
L 775 -588 
Q 1028 -725 1275 -790 
Q 1522 -856 1778 -856 
Q 2344 -856 2625 -561 
Q 2906 -266 2906 331 
L 2906 616 
Q 2728 306 2450 153 
Q 2172 0 1784 0 
Q 1141 0 747 490 
Q 353 981 353 1791 
Q 353 2603 747 3093 
Q 1141 3584 1784 3584 
Q 2172 3584 2450 3431 
Q 2728 3278 2906 2969 
L 2906 3500 
L 3481 3500 
L 3481 434 
z
" transform="scale(0.015625)"/>
       <path id="DejaVuSans-44" d="M 2194 1759 
Q 1497 1759 1228 1600 
Q 959 1441 959 1056 
Q 959 750 1161 570 
Q 1363 391 1709 391 
Q 2188 391 2477 730 
Q 2766 1069 2766 1631 
L 2766 1759 
L 2194 1759 
z
M 3341 1997 
L 3341 0 
L 2766 0 
L 2766 531 
Q 2569 213 2275 61 
Q 1981 -91 1556 -91 
Q 1019 -91 701 211 
Q 384 513 384 1019 
Q 384 1609 779 1909 
Q 1175 2209 1959 2209 
L 2766 2209 
L 2766 2266 
Q 2766 2663 2505 2880 
Q 2244 3097 1772 3097 
Q 1472 3097 1187 3025 
Q 903 2953 641 2809 
L 641 3341 
Q 956 3463 1253 3523 
Q 1550 3584 1831 3584 
Q 2591 3584 2966 3190 
Q 3341 2797 3341 1997 
z
" transform="scale(0.015625)"/>
       <path id="DejaVuSans-57" d="M 1172 4494 
L 1172 3500 
L 2356 3500 
L 2356 3053 
L 1172 3053 
L 1172 1153 
Q 1172 725 1289 603 
Q 1406 481 1766 481 
L 2356 481 
L 2356 0 
L 1766 0 
Q 1100 0 847 248 
Q 594 497 594 1153 
L 594 3053 
L 172 3053 
L 172 3500 
L 594 3500 
L 594 4494 
L 1172 4494 
z
" transform="scale(0.015625)"/>
       <path id="DejaVuSans-48" d="M 3597 1894 
L 3597 1613 
L 953 1613 
Q 991 1019 1311 708 
Q 1631 397 2203 397 
Q 2534 397 2845 478 
Q 3156 559 3463 722 
L 3463 178 
Q 3153 47 2828 -22 
Q 2503 -91 2169 -91 
Q 1331 -91 842 396 
Q 353 884 353 1716 
Q 353 2575 817 3079 
Q 1281 3584 2069 3584 
Q 2775 3584 3186 3129 
Q 3597 2675 3597 1894 
z
M 3022 2063 
Q 3016 2534 2758 2815 
Q 2500 3097 2075 3097 
Q 1594 3097 1305 2825 
Q 1016 2553 972 2059 
L 3022 2063 
z
" transform="scale(0.015625)"/>
       <path id="DejaVuSans-56" d="M 2834 3397 
L 2834 2853 
Q 2591 2978 2328 3040 
Q 2066 3103 1784 3103 
Q 1356 3103 1142 2972 
Q 928 2841 928 2578 
Q 928 2378 1081 2264 
Q 1234 2150 1697 2047 
L 1894 2003 
Q 2506 1872 2764 1633 
Q 3022 1394 3022 966 
Q 3022 478 2636 193 
Q 2250 -91 1575 -91 
Q 1294 -91 989 -36 
Q 684 19 347 128 
L 347 722 
Q 666 556 975 473 
Q 1284 391 1588 391 
Q 1994 391 2212 530 
Q 2431 669 2431 922 
Q 2431 1156 2273 1281 
Q 2116 1406 1581 1522 
L 1381 1569 
Q 847 1681 609 1914 
Q 372 2147 372 2553 
Q 372 3047 722 3315 
Q 1072 3584 1716 3584 
Q 2034 3584 2315 3537 
Q 2597 3491 2834 3397 
z
" transform="scale(0.015625)"/>
       <path id="DejaVuSans-55" d="M 2631 2963 
Q 2534 3019 2420 3045 
Q 2306 3072 2169 3072 
Q 1681 3072 1420 2755 
Q 1159 2438 1159 1844 
L 1159 0 
L 581 0 
L 581 3500 
L 1159 3500 
L 1159 2956 
Q 1341 3275 1631 3429 
Q 1922 3584 2338 3584 
Q 2397 3584 2469 3576 
Q 2541 3569 2628 3553 
L 2631 2963 
z
" transform="scale(0.015625)"/>
       <path id="DejaVuSans-50" d="M 3328 2828 
Q 3544 3216 3844 3400 
Q 4144 3584 4550 3584 
Q 5097 3584 5394 3201 
Q 5691 2819 5691 2113 
L 5691 0 
L 5113 0 
L 5113 2094 
Q 5113 2597 4934 2840 
Q 4756 3084 4391 3084 
Q 3944 3084 3684 2787 
Q 3425 2491 3425 1978 
L 3425 0 
L 2847 0 
L 2847 2094 
Q 2847 2600 2669 2842 
Q 2491 3084 2119 3084 
Q 1678 3084 1418 2786 
Q 1159 2488 1159 1978 
L 1159 0 
L 581 0 
L 581 3500 
L 1159 3500 
L 1159 2956 
Q 1356 3278 1631 3431 
Q 1906 3584 2284 3584 
Q 2666 3584 2933 3390 
Q 3200 3197 3328 2828 
z
" transform="scale(0.015625)"/>
       <path id="DejaVuSans-4c" d="M 603 3500 
L 1178 3500 
L 1178 0 
L 603 0 
L 603 3500 
z
M 603 4863 
L 1178 4863 
L 1178 4134 
L 603 4134 
L 603 4863 
z
" transform="scale(0.015625)"/>
       <path id="DejaVuSans-51" d="M 3513 2113 
L 3513 0 
L 2938 0 
L 2938 2094 
Q 2938 2591 2744 2837 
Q 2550 3084 2163 3084 
Q 1697 3084 1428 2787 
Q 1159 2491 1159 1978 
L 1159 0 
L 581 0 
L 581 3500 
L 1159 3500 
L 1159 2956 
Q 1366 3272 1645 3428 
Q 1925 3584 2291 3584 
Q 2894 3584 3203 3211 
Q 3513 2838 3513 2113 
z
" transform="scale(0.015625)"/>
       <path id="DejaVuSans-b" d="M 1984 4856 
Q 1566 4138 1362 3434 
Q 1159 2731 1159 2009 
Q 1159 1288 1364 580 
Q 1569 -128 1984 -844 
L 1484 -844 
Q 1016 -109 783 600 
Q 550 1309 550 2009 
Q 550 2706 781 3412 
Q 1013 4119 1484 4856 
L 1984 4856 
z
" transform="scale(0.015625)"/>
       <path id="DejaVuSans-8" d="M 4653 2053 
Q 4381 2053 4226 1822 
Q 4072 1591 4072 1178 
Q 4072 772 4226 539 
Q 4381 306 4653 306 
Q 4919 306 5073 539 
Q 5228 772 5228 1178 
Q 5228 1588 5073 1820 
Q 4919 2053 4653 2053 
z
M 4653 2450 
Q 5147 2450 5437 2106 
Q 5728 1763 5728 1178 
Q 5728 594 5436 251 
Q 5144 -91 4653 -91 
Q 4153 -91 3862 251 
Q 3572 594 3572 1178 
Q 3572 1766 3864 2108 
Q 4156 2450 4653 2450 
z
M 1428 4353 
Q 1159 4353 1004 4120 
Q 850 3888 850 3481 
Q 850 3069 1003 2837 
Q 1156 2606 1428 2606 
Q 1700 2606 1854 2837 
Q 2009 3069 2009 3481 
Q 2009 3884 1853 4118 
Q 1697 4353 1428 4353 
z
M 4250 4750 
L 4750 4750 
L 1831 -91 
L 1331 -91 
L 4250 4750 
z
M 1428 4750 
Q 1922 4750 2215 4408 
Q 2509 4066 2509 3481 
Q 2509 2891 2217 2550 
Q 1925 2209 1428 2209 
Q 931 2209 642 2551 
Q 353 2894 353 3481 
Q 353 4063 643 4406 
Q 934 4750 1428 4750 
z
" transform="scale(0.015625)"/>
       <path id="DejaVuSans-52" d="M 1959 3097 
Q 1497 3097 1228 2736 
Q 959 2375 959 1747 
Q 959 1119 1226 758 
Q 1494 397 1959 397 
Q 2419 397 2687 759 
Q 2956 1122 2956 1747 
Q 2956 2369 2687 2733 
Q 2419 3097 1959 3097 
z
M 1959 3584 
Q 2709 3584 3137 3096 
Q 3566 2609 3566 1747 
Q 3566 888 3137 398 
Q 2709 -91 1959 -91 
Q 1206 -91 779 398 
Q 353 888 353 1747 
Q 353 2609 779 3096 
Q 1206 3584 1959 3584 
z
" transform="scale(0.015625)"/>
       <path id="DejaVuSans-49" d="M 2375 4863 
L 2375 4384 
L 1825 4384 
Q 1516 4384 1395 4259 
Q 1275 4134 1275 3809 
L 1275 3500 
L 2222 3500 
L 2222 3053 
L 1275 3053 
L 1275 0 
L 697 0 
L 697 3053 
L 147 3053 
L 147 3500 
L 697 3500 
L 697 3744 
Q 697 4328 969 4595 
Q 1241 4863 1831 4863 
L 2375 4863 
z
" transform="scale(0.015625)"/>
       <path id="DejaVuSans-53" d="M 1159 525 
L 1159 -1331 
L 581 -1331 
L 581 3500 
L 1159 3500 
L 1159 2969 
Q 1341 3281 1617 3432 
Q 1894 3584 2278 3584 
Q 2916 3584 3314 3078 
Q 3713 2572 3713 1747 
Q 3713 922 3314 415 
Q 2916 -91 2278 -91 
Q 1894 -91 1617 61 
Q 1341 213 1159 525 
z
M 3116 1747 
Q 3116 2381 2855 2742 
Q 2594 3103 2138 3103 
Q 1681 3103 1420 2742 
Q 1159 2381 1159 1747 
Q 1159 1113 1420 752 
Q 1681 391 2138 391 
Q 2594 391 2855 752 
Q 3116 1113 3116 1747 
z
" transform="scale(0.015625)"/>
       <path id="DejaVuSans-58" d="M 544 1381 
L 544 3500 
L 1119 3500 
L 1119 1403 
Q 1119 906 1312 657 
Q 1506 409 1894 409 
Q 2359 409 2629 706 
Q 2900 1003 2900 1516 
L 2900 3500 
L 3475 3500 
L 3475 0 
L 2900 0 
L 2900 538 
Q 2691 219 2414 64 
Q 2138 -91 1772 -91 
Q 1169 -91 856 284 
Q 544 659 544 1381 
z
M 1991 3584 
L 1991 3584 
z
" transform="scale(0.015625)"/>
       <path id="DejaVuSans-c" d="M 513 4856 
L 1013 4856 
Q 1481 4119 1714 3412 
Q 1947 2706 1947 2009 
Q 1947 1309 1714 600 
Q 1481 -109 1013 -844 
L 513 -844 
Q 928 -128 1133 580 
Q 1338 1288 1338 2009 
Q 1338 2731 1133 3434 
Q 928 4138 513 4856 
z
" transform="scale(0.015625)"/>
       <path id="DejaVuSans-af6" d="M 313 1978 
L 6088 1978 
L 6088 1528 
L 313 1528 
L 313 1978 
z
" transform="scale(0.015625)"/>
       <path id="DejaVuSans-47" d="M 2906 2969 
L 2906 4863 
L 3481 4863 
L 3481 0 
L 2906 0 
L 2906 525 
Q 2725 213 2448 61 
Q 2172 -91 1784 -91 
Q 1150 -91 751 415 
Q 353 922 353 1747 
Q 353 2572 751 3078 
Q 1150 3584 1784 3584 
Q 2172 3584 2448 3432 
Q 2725 3281 2906 2969 
z
M 947 1747 
Q 947 1113 1208 752 
Q 1469 391 1925 391 
Q 2381 391 2643 752 
Q 2906 1113 2906 1747 
Q 2906 2381 2643 2742 
Q 2381 3103 1925 3103 
Q 1469 3103 1208 2742 
Q 947 2381 947 1747 
z
" transform="scale(0.015625)"/>
       <path id="DejaVuSans-4b" d="M 3513 2113 
L 3513 0 
L 2938 0 
L 2938 2094 
Q 2938 2591 2744 2837 
Q 2550 3084 2163 3084 
Q 1697 3084 1428 2787 
Q 1159 2491 1159 1978 
L 1159 0 
L 581 0 
L 581 4863 
L 1159 4863 
L 1159 2956 
Q 1366 3272 1645 3428 
Q 1925 3584 2291 3584 
Q 2894 3584 3203 3211 
Q 3513 2838 3513 2113 
z
" transform="scale(0.015625)"/>
       <path id="DejaVuSans-4f" d="M 603 4863 
L 1178 4863 
L 1178 0 
L 603 0 
L 603 4863 
z
" transform="scale(0.015625)"/>
       <path id="DejaVuSans-4e" d="M 581 4863 
L 1159 4863 
L 1159 1991 
L 2875 3500 
L 3609 3500 
L 1753 1863 
L 3688 0 
L 2938 0 
L 1159 1709 
L 1159 0 
L 581 0 
L 581 4863 
z
" transform="scale(0.015625)"/>
       <path id="DejaVuSans-5d" d="M 353 3500 
L 3084 3500 
L 3084 2975 
L 922 459 
L 3084 459 
L 3084 0 
L 275 0 
L 275 525 
L 2438 3041 
L 353 3041 
L 353 3500 
z
" transform="scale(0.015625)"/>
      </defs>
      <use xlink:href="#DejaVuSans-15"/>
      <use xlink:href="#DejaVuSans-54" transform="translate(63.625 0)"/>
      <use xlink:href="#DejaVuSans-3" transform="translate(127.109375 0)"/>
      <use xlink:href="#DejaVuSans-4a" transform="translate(158.890625 0)"/>
      <use xlink:href="#DejaVuSans-44" transform="translate(222.375 0)"/>
      <use xlink:href="#DejaVuSans-57" transform="translate(283.65625 0)"/>
      <use xlink:href="#DejaVuSans-48" transform="translate(322.859375 0)"/>
      <use xlink:href="#DejaVuSans-56" transform="translate(384.390625 0)"/>
      <use xlink:href="#DejaVuSans-3" transform="translate(436.484375 0)"/>
      <use xlink:href="#DejaVuSans-55" transform="translate(468.265625 0)"/>
      <use xlink:href="#DejaVuSans-48" transform="translate(507.171875 0)"/>
      <use xlink:href="#DejaVuSans-50" transform="translate(568.703125 0)"/>
      <use xlink:href="#DejaVuSans-44" transform="translate(666.109375 0)"/>
      <use xlink:href="#DejaVuSans-4c" transform="translate(727.390625 0)"/>
      <use xlink:href="#DejaVuSans-51" transform="translate(755.171875 0)"/>
      <use xlink:href="#DejaVuSans-4c" transform="translate(818.546875 0)"/>
      <use xlink:href="#DejaVuSans-51" transform="translate(846.328125 0)"/>
      <use xlink:href="#DejaVuSans-4a" transform="translate(909.703125 0)"/>
      <use xlink:href="#DejaVuSans-3" transform="translate(973.1875 0)"/>
      <use xlink:href="#DejaVuSans-b" transform="translate(1004.96875 0)"/>
      <use xlink:href="#DejaVuSans-8" transform="translate(1043.984375 0)"/>
      <use xlink:href="#DejaVuSans-3" transform="translate(1139 0)"/>
      <use xlink:href="#DejaVuSans-52" transform="translate(1170.78125 0)"/>
      <use xlink:href="#DejaVuSans-49" transform="translate(1231.96875 0)"/>
      <use xlink:href="#DejaVuSans-3" transform="translate(1267.171875 0)"/>
      <use xlink:href="#DejaVuSans-4c" transform="translate(1298.953125 0)"/>
      <use xlink:href="#DejaVuSans-51" transform="translate(1326.734375 0)"/>
      <use xlink:href="#DejaVuSans-53" transform="translate(1390.109375 0)"/>
      <use xlink:href="#DejaVuSans-58" transform="translate(1453.59375 0)"/>
      <use xlink:href="#DejaVuSans-57" transform="translate(1516.96875 0)"/>
      <use xlink:href="#DejaVuSans-c" transform="translate(1556.171875 0)"/>
      <use xlink:href="#DejaVuSans-3" transform="translate(1595.1875 0)"/>
      <use xlink:href="#DejaVuSans-af6" transform="translate(1626.96875 0)"/>
      <use xlink:href="#DejaVuSans-3" transform="translate(1726.96875 0)"/>
      <use xlink:href="#DejaVuSans-47" transform="translate(1758.75 0)"/>
      <use xlink:href="#DejaVuSans-44" transform="translate(1822.234375 0)"/>
      <use xlink:href="#DejaVuSans-56" transform="translate(1883.515625 0)"/>
      <use xlink:href="#DejaVuSans-4b" transform="translate(1935.609375 0)"/>
      <use xlink:href="#DejaVuSans-48" transform="translate(1998.984375 0)"/>
      <use xlink:href="#DejaVuSans-47" transform="translate(2060.515625 0)"/>
      <use xlink:href="#DejaVuSans-3" transform="translate(2124 0)"/>
      <use xlink:href="#DejaVuSans-4f" transform="translate(2155.78125 0)"/>
      <use xlink:href="#DejaVuSans-4c" transform="translate(2183.5625 0)"/>
      <use xlink:href="#DejaVuSans-51" transform="translate(2211.34375 0)"/>
      <use xlink:href="#DejaVuSans-48" transform="translate(2274.71875 0)"/>
      <use xlink:href="#DejaVuSans-3" transform="translate(2336.25 0)"/>
      <use xlink:href="#DejaVuSans-50" transform="translate(2368.03125 0)"/>
      <use xlink:href="#DejaVuSans-44" transform="translate(2465.4375 0)"/>
      <use xlink:href="#DejaVuSans-55" transform="translate(2526.71875 0)"/>
      <use xlink:href="#DejaVuSans-4e" transform="translate(2567.828125 0)"/>
      <use xlink:href="#DejaVuSans-56" transform="translate(2625.734375 0)"/>
      <use xlink:href="#DejaVuSans-3" transform="translate(2677.828125 0)"/>
      <use xlink:href="#DejaVuSans-57" transform="translate(2709.609375 0)"/>
      <use xlink:href="#DejaVuSans-4b" transform="translate(2748.8125 0)"/>
      <use xlink:href="#DejaVuSans-48" transform="translate(2812.1875 0)"/>
      <use xlink:href="#DejaVuSans-3" transform="translate(2873.71875 0)"/>
      <use xlink:href="#DejaVuSans-58" transform="translate(2905.5 0)"/>
      <use xlink:href="#DejaVuSans-51" transform="translate(2968.875 0)"/>
      <use xlink:href="#DejaVuSans-52" transform="translate(3032.25 0)"/>
      <use xlink:href="#DejaVuSans-53" transform="translate(3093.4375 0)"/>
      <use xlink:href="#DejaVuSans-57" transform="translate(3156.921875 0)"/>
      <use xlink:href="#DejaVuSans-4c" transform="translate(3196.125 0)"/>
      <use xlink:href="#DejaVuSans-50" transform="translate(3223.90625 0)"/>
      <use xlink:href="#DejaVuSans-4c" transform="translate(3321.3125 0)"/>
      <use xlink:href="#DejaVuSans-5d" transform="translate(3349.09375 0)"/>
      <use xlink:href="#DejaVuSans-48" transform="translate(3401.578125 0)"/>
      <use xlink:href="#DejaVuSans-47" transform="translate(3463.109375 0)"/>
      <use xlink:href="#DejaVuSans-3" transform="translate(3526.59375 0)"/>
      <use xlink:href="#DejaVuSans-4c" transform="translate(3558.375 0)"/>
      <use xlink:href="#DejaVuSans-51" transform="translate(3586.15625 0)"/>
      <use xlink:href="#DejaVuSans-53" transform="translate(3649.53125 0)"/>
      <use xlink:href="#DejaVuSans-58" transform="translate(3713.015625 0)"/>
      <use xlink:href="#DejaVuSans-57" transform="translate(3776.390625 0)"/>
     </g>
    </g>
   </g>
   <g id="matplotlib.axis_2">
    <g id="ytick_1">
     <g id="line2d_13">
      <path d="M 96.409375 34.662281 
L 498.169375 34.662281 
" clip-path="url(#p55c8836a9b)" style="fill: none; stroke: #262b35; stroke-width: 0.6; stroke-linecap: square"/>
     </g>
     <g id="line2d_14">
      <defs>
       <path id="m1dac5c3ec7" d="M 0 0 
L -3.5 0 
" style="stroke: #7d8593; stroke-width: 0.8"/>
      </defs>
      <g>
       <use xlink:href="#m1dac5c3ec7" x="96.409375" y="34.662281" style="fill: #7d8593; stroke: #7d8593; stroke-width: 0.8"/>
      </g>
     </g>
     <g id="text_8">
      <!-- ghz/n12 -->
      <g style="fill: #7d8593" transform="translate(53.080312 38.081578) scale(0.09 -0.09)">
       <defs>
        <path id="DejaVuSans-12" d="M 1625 4666 
L 2156 4666 
L 531 -594 
L 0 -594 
L 1625 4666 
z
" transform="scale(0.015625)"/>
       </defs>
       <use xlink:href="#DejaVuSans-4a"/>
       <use xlink:href="#DejaVuSans-4b" transform="translate(63.484375 0)"/>
       <use xlink:href="#DejaVuSans-5d" transform="translate(126.859375 0)"/>
       <use xlink:href="#DejaVuSans-12" transform="translate(179.34375 0)"/>
       <use xlink:href="#DejaVuSans-51" transform="translate(213.03125 0)"/>
       <use xlink:href="#DejaVuSans-14" transform="translate(276.40625 0)"/>
       <use xlink:href="#DejaVuSans-15" transform="translate(340.03125 0)"/>
      </g>
     </g>
    </g>
    <g id="ytick_2">
     <g id="line2d_15">
      <path d="M 96.409375 63.782281 
L 498.169375 63.782281 
" clip-path="url(#p55c8836a9b)" style="fill: none; stroke: #262b35; stroke-width: 0.6; stroke-linecap: square"/>
     </g>
     <g id="line2d_16">
      <g>
       <use xlink:href="#m1dac5c3ec7" x="96.409375" y="63.782281" style="fill: #7d8593; stroke: #7d8593; stroke-width: 0.8"/>
      </g>
     </g>
     <g id="text_9">
      <!-- qft/n6 -->
      <g style="fill: #7d8593" transform="translate(62.694844 67.201578) scale(0.09 -0.09)">
       <defs>
        <path id="DejaVuSans-19" d="M 2113 2584 
Q 1688 2584 1439 2293 
Q 1191 2003 1191 1497 
Q 1191 994 1439 701 
Q 1688 409 2113 409 
Q 2538 409 2786 701 
Q 3034 994 3034 1497 
Q 3034 2003 2786 2293 
Q 2538 2584 2113 2584 
z
M 3366 4563 
L 3366 3988 
Q 3128 4100 2886 4159 
Q 2644 4219 2406 4219 
Q 1781 4219 1451 3797 
Q 1122 3375 1075 2522 
Q 1259 2794 1537 2939 
Q 1816 3084 2150 3084 
Q 2853 3084 3261 2657 
Q 3669 2231 3669 1497 
Q 3669 778 3244 343 
Q 2819 -91 2113 -91 
Q 1303 -91 875 529 
Q 447 1150 447 2328 
Q 447 3434 972 4092 
Q 1497 4750 2381 4750 
Q 2619 4750 2861 4703 
Q 3103 4656 3366 4563 
z
" transform="scale(0.015625)"/>
       </defs>
       <use xlink:href="#DejaVuSans-54"/>
       <use xlink:href="#DejaVuSans-49" transform="translate(63.484375 0)"/>
       <use xlink:href="#DejaVuSans-57" transform="translate(96.9375 0)"/>
       <use xlink:href="#DejaVuSans-12" transform="translate(136.140625 0)"/>
       <use xlink:href="#DejaVuSans-51" transform="translate(169.828125 0)"/>
       <use xlink:href="#DejaVuSans-19" transform="translate(233.203125 0)"/>
      </g>
     </g>
    </g>
    <g id="ytick_3">
     <g id="line2d_17">
      <path d="M 96.409375 92.902281 
L 498.169375 92.902281 
" clip-path="url(#p55c8836a9b)" style="fill: none; stroke: #262b35; stroke-width: 0.6; stroke-linecap: square"/>
     </g>
     <g id="line2d_18">
      <g>
       <use xlink:href="#m1dac5c3ec7" x="96.409375" y="92.902281" style="fill: #7d8593; stroke: #7d8593; stroke-width: 0.8"/>
      </g>
     </g>
     <g id="text_10">
      <!-- qft/n10 -->
      <g style="fill: #7d8593" transform="translate(56.968594 96.321578) scale(0.09 -0.09)">
       <use xlink:href="#DejaVuSans-54"/>
       <use xlink:href="#DejaVuSans-49" transform="translate(63.484375 0)"/>
       <use xlink:href="#DejaVuSans-57" transform="translate(96.9375 0)"/>
       <use xlink:href="#DejaVuSans-12" transform="translate(136.140625 0)"/>
       <use xlink:href="#DejaVuSans-51" transform="translate(169.828125 0)"/>
       <use xlink:href="#DejaVuSans-14" transform="translate(233.203125 0)"/>
       <use xlink:href="#DejaVuSans-13" transform="translate(296.828125 0)"/>
      </g>
     </g>
    </g>
    <g id="ytick_4">
     <g id="line2d_19">
      <path d="M 96.409375 122.022281 
L 498.169375 122.022281 
" clip-path="url(#p55c8836a9b)" style="fill: none; stroke: #262b35; stroke-width: 0.6; stroke-linecap: square"/>
     </g>
     <g id="line2d_20">
      <g>
       <use xlink:href="#m1dac5c3ec7" x="96.409375" y="122.022281" style="fill: #7d8593; stroke: #7d8593; stroke-width: 0.8"/>
      </g>
     </g>
     <g id="text_11">
      <!-- qaoa/n12p2s11 -->
      <g style="fill: #7d8593" transform="translate(19.389375 125.441227) scale(0.09 -0.09)">
       <use xlink:href="#DejaVuSans-54"/>
       <use xlink:href="#DejaVuSans-44" transform="translate(63.484375 0)"/>
       <use xlink:href="#DejaVuSans-52" transform="translate(124.765625 0)"/>
       <use xlink:href="#DejaVuSans-44" transform="translate(185.953125 0)"/>
       <use xlink:href="#DejaVuSans-12" transform="translate(247.234375 0)"/>
       <use xlink:href="#DejaVuSans-51" transform="translate(280.921875 0)"/>
       <use xlink:href="#DejaVuSans-14" transform="translate(344.296875 0)"/>
       <use xlink:href="#DejaVuSans-15" transform="translate(407.921875 0)"/>
       <use xlink:href="#DejaVuSans-53" transform="translate(471.546875 0)"/>
       <use xlink:href="#DejaVuSans-15" transform="translate(535.03125 0)"/>
       <use xlink:href="#DejaVuSans-56" transform="translate(598.65625 0)"/>
       <use xlink:href="#DejaVuSans-14" transform="translate(650.75 0)"/>
       <use xlink:href="#DejaVuSans-14" transform="translate(714.375 0)"/>
      </g>
     </g>
    </g>
    <g id="ytick_5">
     <g id="line2d_21">
      <path d="M 96.409375 151.142281 
L 498.169375 151.142281 
" clip-path="url(#p55c8836a9b)" style="fill: none; stroke: #262b35; stroke-width: 0.6; stroke-linecap: square"/>
     </g>
     <g id="line2d_22">
      <g>
       <use xlink:href="#m1dac5c3ec7" x="96.409375" y="151.142281" style="fill: #7d8593; stroke: #7d8593; stroke-width: 0.8"/>
      </g>
     </g>
     <g id="text_12">
      <!-- qaoa/n12p2s12 -->
      <g style="fill: #7d8593" transform="translate(19.389375 154.561227) scale(0.09 -0.09)">
       <use xlink:href="#DejaVuSans-54"/>
       <use xlink:href="#DejaVuSans-44" transform="translate(63.484375 0)"/>
       <use xlink:href="#DejaVuSans-52" transform="translate(124.765625 0)"/>
       <use xlink:href="#DejaVuSans-44" transform="translate(185.953125 0)"/>
       <use xlink:href="#DejaVuSans-12" transform="translate(247.234375 0)"/>
       <use xlink:href="#DejaVuSans-51" transform="translate(280.921875 0)"/>
       <use xlink:href="#DejaVuSans-14" transform="translate(344.296875 0)"/>
       <use xlink:href="#DejaVuSans-15" transform="translate(407.921875 0)"/>
       <use xlink:href="#DejaVuSans-53" transform="translate(471.546875 0)"/>
       <use xlink:href="#DejaVuSans-15" transform="translate(535.03125 0)"/>
       <use xlink:href="#DejaVuSans-56" transform="translate(598.65625 0)"/>
       <use xlink:href="#DejaVuSans-14" transform="translate(650.75 0)"/>
       <use xlink:href="#DejaVuSans-15" transform="translate(714.375 0)"/>
      </g>
     </g>
    </g>
    <g id="ytick_6">
     <g id="line2d_23">
      <path d="M 96.409375 180.262281 
L 498.169375 180.262281 
" clip-path="url(#p55c8836a9b)" style="fill: none; stroke: #262b35; stroke-width: 0.6; stroke-linecap: square"/>
     </g>
     <g id="line2d_24">
      <g>
       <use xlink:href="#m1dac5c3ec7" x="96.409375" y="180.262281" style="fill: #7d8593; stroke: #7d8593; stroke-width: 0.8"/>
      </g>
     </g>
     <g id="text_13">
      <!-- cliffordt/n8g400s1 -->
      <g style="fill: #7d8593" transform="translate(7.2 183.681578) scale(0.09 -0.09)">
       <defs>
        <path id="DejaVuSans-46" d="M 3122 3366 
L 3122 2828 
Q 2878 2963 2633 3030 
Q 2388 3097 2138 3097 
Q 1578 3097 1268 2742 
Q 959 2388 959 1747 
Q 959 1106 1268 751 
Q 1578 397 2138 397 
Q 2388 397 2633 464 
Q 2878 531 3122 666 
L 3122 134 
Q 2881 22 2623 -34 
Q 2366 -91 2075 -91 
Q 1284 -91 818 406 
Q 353 903 353 1747 
Q 353 2603 823 3093 
Q 1294 3584 2113 3584 
Q 2378 3584 2631 3529 
Q 2884 3475 3122 3366 
z
" transform="scale(0.015625)"/>
        <path id="DejaVuSans-13ae" d="M 4531 4863 
L 4531 4384 
L 3981 4384 
Q 3672 4384 3551 4259 
Q 3431 4134 3431 3809 
L 3431 3500 
L 4378 3500 
L 4378 3053 
L 3431 3053 
L 3431 0 
L 2853 0 
L 2853 3053 
L 1275 3053 
L 1275 0 
L 697 0 
L 697 3053 
L 147 3053 
L 147 3500 
L 697 3500 
L 697 3744 
Q 697 4328 969 4595 
Q 1241 4863 1831 4863 
L 2375 4863 
L 2375 4384 
L 1825 4384 
Q 1516 4384 1394 4259 
Q 1275 4134 1275 3809 
L 1275 3500 
L 2853 3500 
L 2853 3744 
Q 2853 4328 3125 4595 
Q 3397 4863 3988 4863 
L 4531 4863 
z
" transform="scale(0.015625)"/>
        <path id="DejaVuSans-17" d="M 2419 4116 
L 825 1625 
L 2419 1625 
L 2419 4116 
z
M 2253 4666 
L 3047 4666 
L 3047 1625 
L 3713 1625 
L 3713 1100 
L 3047 1100 
L 3047 0 
L 2419 0 
L 2419 1100 
L 313 1100 
L 313 1709 
L 2253 4666 
z
" transform="scale(0.015625)"/>
       </defs>
       <use xlink:href="#DejaVuSans-46"/>
       <use xlink:href="#DejaVuSans-4f" transform="translate(54.984375 0)"/>
       <use xlink:href="#DejaVuSans-4c" transform="translate(82.765625 0)"/>
       <use xlink:href="#DejaVuSans-13ae" transform="translate(110.546875 0)"/>
       <use xlink:href="#DejaVuSans-52" transform="translate(179.4375 0)"/>
       <use xlink:href="#DejaVuSans-55" transform="translate(240.625 0)"/>
       <use xlink:href="#DejaVuSans-47" transform="translate(279.984375 0)"/>
       <use xlink:href="#DejaVuSans-57" transform="translate(343.46875 0)"/>
       <use xlink:href="#DejaVuSans-12" transform="translate(382.671875 0)"/>
       <use xlink:href="#DejaVuSans-51" transform="translate(416.359375 0)"/>
       <use xlink:href="#DejaVuSans-1b" transform="translate(479.734375 0)"/>
       <use xlink:href="#DejaVuSans-4a" transform="translate(543.359375 0)"/>
       <use xlink:href="#DejaVuSans-17" transform="translate(606.84375 0)"/>
       <use xlink:href="#DejaVuSans-13" transform="translate(670.46875 0)"/>
       <use xlink:href="#DejaVuSans-13" transform="translate(734.09375 0)"/>
       <use xlink:href="#DejaVuSans-56" transform="translate(797.71875 0)"/>
       <use xlink:href="#DejaVuSans-14" transform="translate(849.8125 0)"/>
      </g>
     </g>
    </g>
    <g id="ytick_7">
     <g id="line2d_25">
      <path d="M 96.409375 209.382281 
L 498.169375 209.382281 
" clip-path="url(#p55c8836a9b)" style="fill: none; stroke: #262b35; stroke-width: 0.6; stroke-linecap: square"/>
     </g>
     <g id="line2d_26">
      <g>
       <use xlink:href="#m1dac5c3ec7" x="96.409375" y="209.382281" style="fill: #7d8593; stroke: #7d8593; stroke-width: 0.8"/>
      </g>
     </g>
     <g id="text_14">
      <!-- cliffordt/n8g400s2 -->
      <g style="fill: #7d8593" transform="translate(7.2 212.801578) scale(0.09 -0.09)">
       <use xlink:href="#DejaVuSans-46"/>
       <use xlink:href="#DejaVuSans-4f" transform="translate(54.984375 0)"/>
       <use xlink:href="#DejaVuSans-4c" transform="translate(82.765625 0)"/>
       <use xlink:href="#DejaVuSans-13ae" transform="translate(110.546875 0)"/>
       <use xlink:href="#DejaVuSans-52" transform="translate(179.4375 0)"/>
       <use xlink:href="#DejaVuSans-55" transform="translate(240.625 0)"/>
       <use xlink:href="#DejaVuSans-47" transform="translate(279.984375 0)"/>
       <use xlink:href="#DejaVuSans-57" transform="translate(343.46875 0)"/>
       <use xlink:href="#DejaVuSans-12" transform="translate(382.671875 0)"/>
       <use xlink:href="#DejaVuSans-51" transform="translate(416.359375 0)"/>
       <use xlink:href="#DejaVuSans-1b" transform="translate(479.734375 0)"/>
       <use xlink:href="#DejaVuSans-4a" transform="translate(543.359375 0)"/>
       <use xlink:href="#DejaVuSans-17" transform="translate(606.84375 0)"/>
       <use xlink:href="#DejaVuSans-13" transform="translate(670.46875 0)"/>
       <use xlink:href="#DejaVuSans-13" transform="translate(734.09375 0)"/>
       <use xlink:href="#DejaVuSans-56" transform="translate(797.71875 0)"/>
       <use xlink:href="#DejaVuSans-15" transform="translate(849.8125 0)"/>
      </g>
     </g>
    </g>
    <g id="ytick_8">
     <g id="line2d_27">
      <path d="M 96.409375 238.502281 
L 498.169375 238.502281 
" clip-path="url(#p55c8836a9b)" style="fill: none; stroke: #262b35; stroke-width: 0.6; stroke-linecap: square"/>
     </g>
     <g id="line2d_28">
      <g>
       <use xlink:href="#m1dac5c3ec7" x="96.409375" y="238.502281" style="fill: #7d8593; stroke: #7d8593; stroke-width: 0.8"/>
      </g>
     </g>
     <g id="text_15">
      <!-- cliffordt/n8g400s3 -->
      <g style="fill: #7d8593" transform="translate(7.2 241.921578) scale(0.09 -0.09)">
       <defs>
        <path id="DejaVuSans-16" d="M 2597 2516 
Q 3050 2419 3304 2112 
Q 3559 1806 3559 1356 
Q 3559 666 3084 287 
Q 2609 -91 1734 -91 
Q 1441 -91 1130 -33 
Q 819 25 488 141 
L 488 750 
Q 750 597 1062 519 
Q 1375 441 1716 441 
Q 2309 441 2620 675 
Q 2931 909 2931 1356 
Q 2931 1769 2642 2001 
Q 2353 2234 1838 2234 
L 1294 2234 
L 1294 2753 
L 1863 2753 
Q 2328 2753 2575 2939 
Q 2822 3125 2822 3475 
Q 2822 3834 2567 4026 
Q 2313 4219 1838 4219 
Q 1578 4219 1281 4162 
Q 984 4106 628 3988 
L 628 4550 
Q 988 4650 1302 4700 
Q 1616 4750 1894 4750 
Q 2613 4750 3031 4423 
Q 3450 4097 3450 3541 
Q 3450 3153 3228 2886 
Q 3006 2619 2597 2516 
z
" transform="scale(0.015625)"/>
       </defs>
       <use xlink:href="#DejaVuSans-46"/>
       <use xlink:href="#DejaVuSans-4f" transform="translate(54.984375 0)"/>
       <use xlink:href="#DejaVuSans-4c" transform="translate(82.765625 0)"/>
       <use xlink:href="#DejaVuSans-13ae" transform="translate(110.546875 0)"/>
       <use xlink:href="#DejaVuSans-52" transform="translate(179.4375 0)"/>
       <use xlink:href="#DejaVuSans-55" transform="translate(240.625 0)"/>
       <use xlink:href="#DejaVuSans-47" transform="translate(279.984375 0)"/>
       <use xlink:href="#DejaVuSans-57" transform="translate(343.46875 0)"/>
       <use xlink:href="#DejaVuSans-12" transform="translate(382.671875 0)"/>
       <use xlink:href="#DejaVuSans-51" transform="translate(416.359375 0)"/>
       <use xlink:href="#DejaVuSans-1b" transform="translate(479.734375 0)"/>
       <use xlink:href="#DejaVuSans-4a" transform="translate(543.359375 0)"/>
       <use xlink:href="#DejaVuSans-17" transform="translate(606.84375 0)"/>
       <use xlink:href="#DejaVuSans-13" transform="translate(670.46875 0)"/>
       <use xlink:href="#DejaVuSans-13" transform="translate(734.09375 0)"/>
       <use xlink:href="#DejaVuSans-56" transform="translate(797.71875 0)"/>
       <use xlink:href="#DejaVuSans-16" transform="translate(849.8125 0)"/>
      </g>
     </g>
    </g>
    <g id="ytick_9">
     <g id="line2d_29">
      <path d="M 96.409375 267.622281 
L 498.169375 267.622281 
" clip-path="url(#p55c8836a9b)" style="fill: none; stroke: #262b35; stroke-width: 0.6; stroke-linecap: square"/>
     </g>
     <g id="line2d_30">
      <g>
       <use xlink:href="#m1dac5c3ec7" x="96.409375" y="267.622281" style="fill: #7d8593; stroke: #7d8593; stroke-width: 0.8"/>
      </g>
     </g>
     <g id="text_16">
      <!-- vqe/n10r3 -->
      <g style="fill: #7d8593" transform="translate(43.216875 271.041227) scale(0.09 -0.09)">
       <defs>
        <path id="DejaVuSans-59" d="M 191 3500 
L 800 3500 
L 1894 563 
L 2988 3500 
L 3597 3500 
L 2284 0 
L 1503 0 
L 191 3500 
z
" transform="scale(0.015625)"/>
       </defs>
       <use xlink:href="#DejaVuSans-59"/>
       <use xlink:href="#DejaVuSans-54" transform="translate(59.1875 0)"/>
       <use xlink:href="#DejaVuSans-48" transform="translate(122.671875 0)"/>
       <use xlink:href="#DejaVuSans-12" transform="translate(184.203125 0)"/>
       <use xlink:href="#DejaVuSans-51" transform="translate(217.890625 0)"/>
       <use xlink:href="#DejaVuSans-14" transform="translate(281.265625 0)"/>
       <use xlink:href="#DejaVuSans-13" transform="translate(344.890625 0)"/>
       <use xlink:href="#DejaVuSans-55" transform="translate(408.515625 0)"/>
       <use xlink:href="#DejaVuSans-16" transform="translate(449.625 0)"/>
      </g>
     </g>
    </g>
    <g id="ytick_10">
     <g id="line2d_31">
      <path d="M 96.409375 296.742281 
L 498.169375 296.742281 
" clip-path="url(#p55c8836a9b)" style="fill: none; stroke: #262b35; stroke-width: 0.6; stroke-linecap: square"/>
     </g>
     <g id="line2d_32">
      <g>
       <use xlink:href="#m1dac5c3ec7" x="96.409375" y="296.742281" style="fill: #7d8593; stroke: #7d8593; stroke-width: 0.8"/>
      </g>
     </g>
     <g id="text_17">
      <!-- adder/b4 -->
      <g style="fill: #7d8593" transform="translate(48.7575 300.161578) scale(0.09 -0.09)">
       <defs>
        <path id="DejaVuSans-45" d="M 3116 1747 
Q 3116 2381 2855 2742 
Q 2594 3103 2138 3103 
Q 1681 3103 1420 2742 
Q 1159 2381 1159 1747 
Q 1159 1113 1420 752 
Q 1681 391 2138 391 
Q 2594 391 2855 752 
Q 3116 1113 3116 1747 
z
M 1159 2969 
Q 1341 3281 1617 3432 
Q 1894 3584 2278 3584 
Q 2916 3584 3314 3078 
Q 3713 2572 3713 1747 
Q 3713 922 3314 415 
Q 2916 -91 2278 -91 
Q 1894 -91 1617 61 
Q 1341 213 1159 525 
L 1159 0 
L 581 0 
L 581 4863 
L 1159 4863 
L 1159 2969 
z
" transform="scale(0.015625)"/>
       </defs>
       <use xlink:href="#DejaVuSans-44"/>
       <use xlink:href="#DejaVuSans-47" transform="translate(61.28125 0)"/>
       <use xlink:href="#DejaVuSans-47" transform="translate(124.765625 0)"/>
       <use xlink:href="#DejaVuSans-48" transform="translate(188.25 0)"/>
       <use xlink:href="#DejaVuSans-55" transform="translate(249.78125 0)"/>
       <use xlink:href="#DejaVuSans-12" transform="translate(290.890625 0)"/>
       <use xlink:href="#DejaVuSans-45" transform="translate(324.578125 0)"/>
       <use xlink:href="#DejaVuSans-17" transform="translate(388.0625 0)"/>
      </g>
     </g>
    </g>
   </g>
   <g id="line2d_33">
    <path d="M 479.907557 309.846281 
L 479.907557 21.558281 
" clip-path="url(#p55c8836a9b)" style="fill: none; stroke-dasharray: 3.7,1.6; stroke-dashoffset: 0; stroke: #969ba6"/>
   </g>
   <g id="patch_3">
    <path d="M 96.409375 309.846281 
L 96.409375 21.558281 
" style="fill: none; stroke: #39414f; stroke-width: 0.8; stroke-linejoin: miter; stroke-linecap: square"/>
   </g>
   <g id="patch_4">
    <path d="M 498.169375 309.846281 
L 498.169375 21.558281 
" style="fill: none; stroke: #39414f; stroke-width: 0.8; stroke-linejoin: miter; stroke-linecap: square"/>
   </g>
   <g id="patch_5">
    <path d="M 96.409375 309.846281 
L 498.169375 309.846281 
" style="fill: none; stroke: #39414f; stroke-width: 0.8; stroke-linejoin: miter; stroke-linecap: square"/>
   </g>
   <g id="patch_6">
    <path d="M 96.409375 21.558281 
L 498.169375 21.558281 
" style="fill: none; stroke: #39414f; stroke-width: 0.8; stroke-linejoin: miter; stroke-linecap: square"/>
   </g>
   <g id="line2d_34">
    <defs>
     <path id="m70f5f54505" d="M 0 3.25 
C 0.86191 3.25 1.688635 2.907559 2.298097 2.298097 
C 2.907559 1.688635 3.25 0.86191 3.25 0 
C 3.25 -0.86191 2.907559 -1.688635 2.298097 -2.298097 
C 1.688635 -2.907559 0.86191 -3.25 0 -3.25 
C -0.86191 -3.25 -1.688635 -2.907559 -2.298097 -2.298097 
C -2.907559 -1.688635 -3.25 -0.86191 -3.25 0 
C -3.25 0.86191 -2.907559 1.688635 -2.298097 2.298097 
C -1.688635 2.907559 -0.86191 3.25 0 3.25 
z
" style="stroke: #d2823e; stroke-opacity: 0.9"/>
    </defs>
    <g clip-path="url(#p55c8836a9b)">
     <use xlink:href="#m70f5f54505" x="479.907557" y="34.662281" style="fill: #d2823e; fill-opacity: 0.9; stroke: #d2823e; stroke-opacity: 0.9"/>
     <use xlink:href="#m70f5f54505" x="479.907557" y="63.782281" style="fill: #d2823e; fill-opacity: 0.9; stroke: #d2823e; stroke-opacity: 0.9"/>
     <use xlink:href="#m70f5f54505" x="479.907557" y="92.902281" style="fill: #d2823e; fill-opacity: 0.9; stroke: #d2823e; stroke-opacity: 0.9"/>
     <use xlink:href="#m70f5f54505" x="479.907557" y="122.022281" style="fill: #d2823e; fill-opacity: 0.9; stroke: #d2823e; stroke-opacity: 0.9"/>
     <use xlink:href="#m70f5f54505" x="479.907557" y="151.142281" style="fill: #d2823e; fill-opacity: 0.9; stroke: #d2823e; stroke-opacity: 0.9"/>
     <use xlink:href="#m70f5f54505" x="393.969589" y="180.262281" style="fill: #d2823e; fill-opacity: 0.9; stroke: #d2823e; stroke-opacity: 0.9"/>
     <use xlink:href="#m70f5f54505" x="403.627755" y="209.382281" style="fill: #d2823e; fill-opacity: 0.9; stroke: #d2823e; stroke-opacity: 0.9"/>
     <use xlink:href="#m70f5f54505" x="457.002603" y="238.502281" style="fill: #d2823e; fill-opacity: 0.9; stroke: #d2823e; stroke-opacity: 0.9"/>
     <use xlink:href="#m70f5f54505" x="479.907557" y="267.622281" style="fill: #d2823e; fill-opacity: 0.9; stroke: #d2823e; stroke-opacity: 0.9"/>
     <use xlink:href="#m70f5f54505" x="479.907557" y="296.742281" style="fill: #d2823e; fill-opacity: 0.9; stroke: #d2823e; stroke-opacity: 0.9"/>
    </g>
   </g>
   <g id="line2d_35">
    <defs>
     <path id="m97ace99aa1" d="M -3.25 3.25 
L 3.25 3.25 
L 3.25 -3.25 
L -3.25 -3.25 
z
" style="stroke: #7d8593; stroke-opacity: 0.9; stroke-linejoin: miter"/>
    </defs>
    <g clip-path="url(#p55c8836a9b)">
     <use xlink:href="#m97ace99aa1" x="479.907557" y="34.662281" style="fill: #7d8593; fill-opacity: 0.9; stroke: #7d8593; stroke-opacity: 0.9; stroke-linejoin: miter"/>
     <use xlink:href="#m97ace99aa1" x="479.907557" y="63.782281" style="fill: #7d8593; fill-opacity: 0.9; stroke: #7d8593; stroke-opacity: 0.9; stroke-linejoin: miter"/>
     <use xlink:href="#m97ace99aa1" x="479.907557" y="92.902281" style="fill: #7d8593; fill-opacity: 0.9; stroke: #7d8593; stroke-opacity: 0.9; stroke-linejoin: miter"/>
     <use xlink:href="#m97ace99aa1" x="479.907557" y="122.022281" style="fill: #7d8593; fill-opacity: 0.9; stroke: #7d8593; stroke-opacity: 0.9; stroke-linejoin: miter"/>
     <use xlink:href="#m97ace99aa1" x="479.907557" y="151.142281" style="fill: #7d8593; fill-opacity: 0.9; stroke: #7d8593; stroke-opacity: 0.9; stroke-linejoin: miter"/>
     <use xlink:href="#m97ace99aa1" x="436.938573" y="180.262281" style="fill: #7d8593; fill-opacity: 0.9; stroke: #7d8593; stroke-opacity: 0.9; stroke-linejoin: miter"/>
     <use xlink:href="#m97ace99aa1" x="429.054356" y="209.382281" style="fill: #7d8593; fill-opacity: 0.9; stroke: #7d8593; stroke-opacity: 0.9; stroke-linejoin: miter"/>
     <use xlink:href="#m97ace99aa1" x="479.907557" y="238.502281" style="fill: #7d8593; fill-opacity: 0.9; stroke: #7d8593; stroke-opacity: 0.9; stroke-linejoin: miter"/>
     <use xlink:href="#m97ace99aa1" x="479.907557" y="267.622281" style="fill: #7d8593; fill-opacity: 0.9; stroke: #7d8593; stroke-opacity: 0.9; stroke-linejoin: miter"/>
     <use xlink:href="#m97ace99aa1" x="479.907557" y="296.742281" style="fill: #7d8593; fill-opacity: 0.9; stroke: #7d8593; stroke-opacity: 0.9; stroke-linejoin: miter"/>
    </g>
   </g>
   <g id="line2d_36">
    <defs>
     <path id="m0ecd22ab8f" d="M -0 4.596194 
L 4.596194 0 
L 0 -4.596194 
L -4.596194 -0 
z
" style="stroke: #9b8ee2; stroke-opacity: 0.9; stroke-linejoin: miter"/>
    </defs>
    <g clip-path="url(#p55c8836a9b)">
     <use xlink:href="#m0ecd22ab8f" x="479.907557" y="34.662281" style="fill: #9b8ee2; fill-opacity: 0.9; stroke: #9b8ee2; stroke-opacity: 0.9; stroke-linejoin: miter"/>
     <use xlink:href="#m0ecd22ab8f" x="353.930308" y="63.782281" style="fill: #9b8ee2; fill-opacity: 0.9; stroke: #9b8ee2; stroke-opacity: 0.9; stroke-linejoin: miter"/>
     <use xlink:href="#m0ecd22ab8f" x="406.97336" y="92.902281" style="fill: #9b8ee2; fill-opacity: 0.9; stroke: #9b8ee2; stroke-opacity: 0.9; stroke-linejoin: miter"/>
     <use xlink:href="#m0ecd22ab8f" x="479.907557" y="122.022281" style="fill: #9b8ee2; fill-opacity: 0.9; stroke: #9b8ee2; stroke-opacity: 0.9; stroke-linejoin: miter"/>
     <use xlink:href="#m0ecd22ab8f" x="479.907557" y="151.142281" style="fill: #9b8ee2; fill-opacity: 0.9; stroke: #9b8ee2; stroke-opacity: 0.9; stroke-linejoin: miter"/>
     <use xlink:href="#m0ecd22ab8f" x="372.485097" y="180.262281" style="fill: #9b8ee2; fill-opacity: 0.9; stroke: #9b8ee2; stroke-opacity: 0.9; stroke-linejoin: miter"/>
     <use xlink:href="#m0ecd22ab8f" x="378.201154" y="209.382281" style="fill: #9b8ee2; fill-opacity: 0.9; stroke: #9b8ee2; stroke-opacity: 0.9; stroke-linejoin: miter"/>
     <use xlink:href="#m0ecd22ab8f" x="422.645171" y="238.502281" style="fill: #9b8ee2; fill-opacity: 0.9; stroke: #9b8ee2; stroke-opacity: 0.9; stroke-linejoin: miter"/>
     <use xlink:href="#m0ecd22ab8f" x="479.907557" y="267.622281" style="fill: #9b8ee2; fill-opacity: 0.9; stroke: #9b8ee2; stroke-opacity: 0.9; stroke-linejoin: miter"/>
     <use xlink:href="#m0ecd22ab8f" x="479.907557" y="296.742281" style="fill: #9b8ee2; fill-opacity: 0.9; stroke: #9b8ee2; stroke-opacity: 0.9; stroke-linejoin: miter"/>
    </g>
   </g>
   <g id="line2d_37">
    <defs>
     <path id="m29515b2dff" d="M 0 -3.25 
L -3.25 3.25 
L 3.25 3.25 
z
" style="stroke: #5ec6cb; stroke-opacity: 0.9; stroke-linejoin: miter"/>
    </defs>
    <g clip-path="url(#p55c8836a9b)">
     <use xlink:href="#m29515b2dff" x="479.907557" y="34.662281" style="fill: #5ec6cb; fill-opacity: 0.9; stroke: #5ec6cb; stroke-opacity: 0.9; stroke-linejoin: miter"/>
     <use xlink:href="#m29515b2dff" x="353.930308" y="63.782281" style="fill: #5ec6cb; fill-opacity: 0.9; stroke: #5ec6cb; stroke-opacity: 0.9; stroke-linejoin: miter"/>
     <use xlink:href="#m29515b2dff" x="406.97336" y="92.902281" style="fill: #5ec6cb; fill-opacity: 0.9; stroke: #5ec6cb; stroke-opacity: 0.9; stroke-linejoin: miter"/>
     <use xlink:href="#m29515b2dff" x="479.907557" y="122.022281" style="fill: #5ec6cb; fill-opacity: 0.9; stroke: #5ec6cb; stroke-opacity: 0.9; stroke-linejoin: miter"/>
     <use xlink:href="#m29515b2dff" x="479.907557" y="151.142281" style="fill: #5ec6cb; fill-opacity: 0.9; stroke: #5ec6cb; stroke-opacity: 0.9; stroke-linejoin: miter"/>
     <use xlink:href="#m29515b2dff" x="114.671193" y="180.262281" style="fill: #5ec6cb; fill-opacity: 0.9; stroke: #5ec6cb; stroke-opacity: 0.9; stroke-linejoin: miter"/>
     <use xlink:href="#m29515b2dff" x="123.935148" y="209.382281" style="fill: #5ec6cb; fill-opacity: 0.9; stroke: #5ec6cb; stroke-opacity: 0.9; stroke-linejoin: miter"/>
     <use xlink:href="#m29515b2dff" x="182.143151" y="238.502281" style="fill: #5ec6cb; fill-opacity: 0.9; stroke: #5ec6cb; stroke-opacity: 0.9; stroke-linejoin: miter"/>
     <use xlink:href="#m29515b2dff" x="479.907557" y="267.622281" style="fill: #5ec6cb; fill-opacity: 0.9; stroke: #5ec6cb; stroke-opacity: 0.9; stroke-linejoin: miter"/>
     <use xlink:href="#m29515b2dff" x="394.63065" y="296.742281" style="fill: #5ec6cb; fill-opacity: 0.9; stroke: #5ec6cb; stroke-opacity: 0.9; stroke-linejoin: miter"/>
    </g>
   </g>
   <g id="text_18">
    <!-- 2q gates: peephole passes keep them, tket resynthesizes them away -->
    <g style="fill: #d6dbe1" transform="translate(106.460859 15.558281) scale(0.11 -0.11)">
     <defs>
      <path id="DejaVuSans-1d" d="M 750 794 
L 1409 794 
L 1409 0 
L 750 0 
L 750 794 
z
M 750 3309 
L 1409 3309 
L 1409 2516 
L 750 2516 
L 750 3309 
z
" transform="scale(0.015625)"/>
      <path id="DejaVuSans-f" d="M 750 794 
L 1409 794 
L 1409 256 
L 897 -744 
L 494 -744 
L 750 256 
L 750 794 
z
" transform="scale(0.015625)"/>
      <path id="DejaVuSans-5c" d="M 2059 -325 
Q 1816 -950 1584 -1140 
Q 1353 -1331 966 -1331 
L 506 -1331 
L 506 -850 
L 844 -850 
Q 1081 -850 1212 -737 
Q 1344 -625 1503 -206 
L 1606 56 
L 191 3500 
L 800 3500 
L 1894 763 
L 2988 3500 
L 3597 3500 
L 2059 -325 
z
" transform="scale(0.015625)"/>
      <path id="DejaVuSans-5a" d="M 269 3500 
L 844 3500 
L 1563 769 
L 2278 3500 
L 2956 3500 
L 3675 769 
L 4391 3500 
L 4966 3500 
L 4050 0 
L 3372 0 
L 2619 2869 
L 1863 0 
L 1184 0 
L 269 3500 
z
" transform="scale(0.015625)"/>
     </defs>
     <use xlink:href="#DejaVuSans-15"/>
     <use xlink:href="#DejaVuSans-54" transform="translate(63.625 0)"/>
     <use xlink:href="#DejaVuSans-3" transform="translate(127.109375 0)"/>
     <use xlink:href="#DejaVuSans-4a" transform="translate(158.890625 0)"/>
     <use xlink:href="#DejaVuSans-44" transform="translate(222.375 0)"/>
     <use xlink:href="#DejaVuSans-57" transform="translate(283.65625 0)"/>
     <use xlink:href="#DejaVuSans-48" transform="translate(322.859375 0)"/>
     <use xlink:href="#DejaVuSans-56" transform="translate(384.390625 0)"/>
     <use xlink:href="#DejaVuSans-1d" transform="translate(436.484375 0)"/>
     <use xlink:href="#DejaVuSans-3" transform="translate(470.171875 0)"/>
     <use xlink:href="#DejaVuSans-53" transform="translate(501.953125 0)"/>
     <use xlink:href="#DejaVuSans-48" transform="translate(565.4375 0)"/>
     <use xlink:href="#DejaVuSans-48" transform="translate(626.96875 0)"/>
     <use xlink:href="#DejaVuSans-53" transform="translate(688.5 0)"/>
     <use xlink:href="#DejaVuSans-4b" transform="translate(751.984375 0)"/>
     <use xlink:href="#DejaVuSans-52" transform="translate(815.359375 0)"/>
     <use xlink:href="#DejaVuSans-4f" transform="translate(876.546875 0)"/>
     <use xlink:href="#DejaVuSans-48" transform="translate(904.328125 0)"/>
     <use xlink:href="#DejaVuSans-3" transform="translate(965.859375 0)"/>
     <use xlink:href="#DejaVuSans-53" transform="translate(997.640625 0)"/>
     <use xlink:href="#DejaVuSans-44" transform="translate(1061.125 0)"/>
     <use xlink:href="#DejaVuSans-56" transform="translate(1122.40625 0)"/>
     <use xlink:href="#DejaVuSans-56" transform="translate(1174.5 0)"/>
     <use xlink:href="#DejaVuSans-48" transform="translate(1226.59375 0)"/>
     <use xlink:href="#DejaVuSans-56" transform="translate(1288.125 0)"/>
     <use xlink:href="#DejaVuSans-3" transform="translate(1340.21875 0)"/>
     <use xlink:href="#DejaVuSans-4e" transform="translate(1372 0)"/>
     <use xlink:href="#DejaVuSans-48" transform="translate(1426.34375 0)"/>
     <use xlink:href="#DejaVuSans-48" transform="translate(1487.875 0)"/>
     <use xlink:href="#DejaVuSans-53" transform="translate(1549.40625 0)"/>
     <use xlink:href="#DejaVuSans-3" transform="translate(1612.890625 0)"/>
     <use xlink:href="#DejaVuSans-57" transform="translate(1644.671875 0)"/>
     <use xlink:href="#DejaVuSans-4b" transform="translate(1683.875 0)"/>
     <use xlink:href="#DejaVuSans-48" transform="translate(1747.25 0)"/>
     <use xlink:href="#DejaVuSans-50" transform="translate(1808.78125 0)"/>
     <use xlink:href="#DejaVuSans-f" transform="translate(1906.1875 0)"/>
     <use xlink:href="#DejaVuSans-3" transform="translate(1937.96875 0)"/>
     <use xlink:href="#DejaVuSans-57" transform="translate(1969.75 0)"/>
     <use xlink:href="#DejaVuSans-4e" transform="translate(2008.953125 0)"/>
     <use xlink:href="#DejaVuSans-48" transform="translate(2063.296875 0)"/>
     <use xlink:href="#DejaVuSans-57" transform="translate(2124.828125 0)"/>
     <use xlink:href="#DejaVuSans-3" transform="translate(2164.03125 0)"/>
     <use xlink:href="#DejaVuSans-55" transform="translate(2195.8125 0)"/>
     <use xlink:href="#DejaVuSans-48" transform="translate(2234.71875 0)"/>
     <use xlink:href="#DejaVuSans-56" transform="translate(2296.25 0)"/>
     <use xlink:href="#DejaVuSans-5c" transform="translate(2348.34375 0)"/>
     <use xlink:href="#DejaVuSans-51" transform="translate(2407.53125 0)"/>
     <use xlink:href="#DejaVuSans-57" transform="translate(2470.90625 0)"/>
     <use xlink:href="#DejaVuSans-4b" transform="translate(2510.109375 0)"/>
     <use xlink:href="#DejaVuSans-48" transform="translate(2573.484375 0)"/>
     <use xlink:href="#DejaVuSans-56" transform="translate(2635.015625 0)"/>
     <use xlink:href="#DejaVuSans-4c" transform="translate(2687.109375 0)"/>
     <use xlink:href="#DejaVuSans-5d" transform="translate(2714.890625 0)"/>
     <use xlink:href="#DejaVuSans-48" transform="translate(2767.375 0)"/>
     <use xlink:href="#DejaVuSans-56" transform="translate(2828.90625 0)"/>
     <use xlink:href="#DejaVuSans-3" transform="translate(2881 0)"/>
     <use xlink:href="#DejaVuSans-57" transform="translate(2912.78125 0)"/>
     <use xlink:href="#DejaVuSans-4b" transform="translate(2951.984375 0)"/>
     <use xlink:href="#DejaVuSans-48" transform="translate(3015.359375 0)"/>
     <use xlink:href="#DejaVuSans-50" transform="translate(3076.890625 0)"/>
     <use xlink:href="#DejaVuSans-3" transform="translate(3174.296875 0)"/>
     <use xlink:href="#DejaVuSans-44" transform="translate(3206.078125 0)"/>
     <use xlink:href="#DejaVuSans-5a" transform="translate(3267.359375 0)"/>
     <use xlink:href="#DejaVuSans-44" transform="translate(3349.140625 0)"/>
     <use xlink:href="#DejaVuSans-5c" transform="translate(3410.421875 0)"/>
    </g>
   </g>
   <g id="legend_1">
    <g id="line2d_38">
     <g>
      <use xlink:href="#m70f5f54505" x="113.509375" y="33.346875" style="fill: #d2823e; fill-opacity: 0.9; stroke: #d2823e; stroke-opacity: 0.9"/>
     </g>
    </g>
    <g id="text_19">
     <!-- qcc -O1 -->
     <g style="fill: #d6dbe1" transform="translate(129.709375 36.496875) scale(0.09 -0.09)">
      <defs>
       <path id="DejaVuSans-10" d="M 313 2009 
L 1997 2009 
L 1997 1497 
L 313 1497 
L 313 2009 
z
" transform="scale(0.015625)"/>
       <path id="DejaVuSans-32" d="M 2522 4238 
Q 1834 4238 1429 3725 
Q 1025 3213 1025 2328 
Q 1025 1447 1429 934 
Q 1834 422 2522 422 
Q 3209 422 3611 934 
Q 4013 1447 4013 2328 
Q 4013 3213 3611 3725 
Q 3209 4238 2522 4238 
z
M 2522 4750 
Q 3503 4750 4090 4092 
Q 4678 3434 4678 2328 
Q 4678 1225 4090 567 
Q 3503 -91 2522 -91 
Q 1538 -91 948 565 
Q 359 1222 359 2328 
Q 359 3434 948 4092 
Q 1538 4750 2522 4750 
z
" transform="scale(0.015625)"/>
      </defs>
      <use xlink:href="#DejaVuSans-54"/>
      <use xlink:href="#DejaVuSans-46" transform="translate(63.484375 0)"/>
      <use xlink:href="#DejaVuSans-46" transform="translate(118.46875 0)"/>
      <use xlink:href="#DejaVuSans-3" transform="translate(173.453125 0)"/>
      <use xlink:href="#DejaVuSans-10" transform="translate(205.234375 0)"/>
      <use xlink:href="#DejaVuSans-32" transform="translate(244.09375 0)"/>
      <use xlink:href="#DejaVuSans-14" transform="translate(322.8125 0)"/>
     </g>
    </g>
    <g id="line2d_39">
     <g>
      <use xlink:href="#m97ace99aa1" x="113.509375" y="46.847578" style="fill: #7d8593; fill-opacity: 0.9; stroke: #7d8593; stroke-opacity: 0.9; stroke-linejoin: miter"/>
     </g>
    </g>
    <g id="text_20">
     <!-- qiskit O1 -->
     <g style="fill: #d6dbe1" transform="translate(129.709375 49.997578) scale(0.09 -0.09)">
      <use xlink:href="#DejaVuSans-54"/>
      <use xlink:href="#DejaVuSans-4c" transform="translate(63.484375 0)"/>
      <use xlink:href="#DejaVuSans-56" transform="translate(91.265625 0)"/>
      <use xlink:href="#DejaVuSans-4e" transform="translate(143.359375 0)"/>
      <use xlink:href="#DejaVuSans-4c" transform="translate(201.265625 0)"/>
      <use xlink:href="#DejaVuSans-57" transform="translate(229.046875 0)"/>
      <use xlink:href="#DejaVuSans-3" transform="translate(268.25 0)"/>
      <use xlink:href="#DejaVuSans-32" transform="translate(300.03125 0)"/>
      <use xlink:href="#DejaVuSans-14" transform="translate(378.75 0)"/>
     </g>
    </g>
    <g id="line2d_40">
     <g>
      <use xlink:href="#m0ecd22ab8f" x="113.509375" y="60.348281" style="fill: #9b8ee2; fill-opacity: 0.9; stroke: #9b8ee2; stroke-opacity: 0.9; stroke-linejoin: miter"/>
     </g>
    </g>
    <g id="text_21">
     <!-- qiskit O2/O3 -->
     <g style="fill: #d6dbe1" transform="translate(129.709375 63.498281) scale(0.09 -0.09)">
      <use xlink:href="#DejaVuSans-54"/>
      <use xlink:href="#DejaVuSans-4c" transform="translate(63.484375 0)"/>
      <use xlink:href="#DejaVuSans-56" transform="translate(91.265625 0)"/>
      <use xlink:href="#DejaVuSans-4e" transform="translate(143.359375 0)"/>
      <use xlink:href="#DejaVuSans-4c" transform="translate(201.265625 0)"/>
      <use xlink:href="#DejaVuSans-57" transform="translate(229.046875 0)"/>
      <use xlink:href="#DejaVuSans-3" transform="translate(268.25 0)"/>
      <use xlink:href="#DejaVuSans-32" transform="translate(300.03125 0)"/>
      <use xlink:href="#DejaVuSans-15" transform="translate(378.75 0)"/>
      <use xlink:href="#DejaVuSans-12" transform="translate(442.375 0)"/>
      <use xlink:href="#DejaVuSans-32" transform="translate(476.0625 0)"/>
      <use xlink:href="#DejaVuSans-16" transform="translate(554.78125 0)"/>
     </g>
    </g>
    <g id="line2d_41">
     <g>
      <use xlink:href="#m29515b2dff" x="113.509375" y="73.848984" style="fill: #5ec6cb; fill-opacity: 0.9; stroke: #5ec6cb; stroke-opacity: 0.9; stroke-linejoin: miter"/>
     </g>
    </g>
    <g id="text_22">
     <!-- tket FullPeephole -->
     <g style="fill: #d6dbe1" transform="translate(129.709375 76.998984) scale(0.09 -0.09)">
      <defs>
       <path id="DejaVuSans-29" d="M 628 4666 
L 3309 4666 
L 3309 4134 
L 1259 4134 
L 1259 2759 
L 3109 2759 
L 3109 2228 
L 1259 2228 
L 1259 0 
L 628 0 
L 628 4666 
z
" transform="scale(0.015625)"/>
       <path id="DejaVuSans-33" d="M 1259 4147 
L 1259 2394 
L 2053 2394 
Q 2494 2394 2734 2622 
Q 2975 2850 2975 3272 
Q 2975 3691 2734 3919 
Q 2494 4147 2053 4147 
L 1259 4147 
z
M 628 4666 
L 2053 4666 
Q 2838 4666 3239 4311 
Q 3641 3956 3641 3272 
Q 3641 2581 3239 2228 
Q 2838 1875 2053 1875 
L 1259 1875 
L 1259 0 
L 628 0 
L 628 4666 
z
" transform="scale(0.015625)"/>
      </defs>
      <use xlink:href="#DejaVuSans-57"/>
      <use xlink:href="#DejaVuSans-4e" transform="translate(39.203125 0)"/>
      <use xlink:href="#DejaVuSans-48" transform="translate(93.546875 0)"/>
      <use xlink:href="#DejaVuSans-57" transform="translate(155.078125 0)"/>
      <use xlink:href="#DejaVuSans-3" transform="translate(194.28125 0)"/>
      <use xlink:href="#DejaVuSans-29" transform="translate(226.0625 0)"/>
      <use xlink:href="#DejaVuSans-58" transform="translate(278.109375 0)"/>
      <use xlink:href="#DejaVuSans-4f" transform="translate(341.484375 0)"/>
      <use xlink:href="#DejaVuSans-4f" transform="translate(369.265625 0)"/>
      <use xlink:href="#DejaVuSans-33" transform="translate(397.046875 0)"/>
      <use xlink:href="#DejaVuSans-48" transform="translate(453.78125 0)"/>
      <use xlink:href="#DejaVuSans-48" transform="translate(515.3125 0)"/>
      <use xlink:href="#DejaVuSans-53" transform="translate(576.84375 0)"/>
      <use xlink:href="#DejaVuSans-4b" transform="translate(640.328125 0)"/>
      <use xlink:href="#DejaVuSans-52" transform="translate(703.703125 0)"/>
      <use xlink:href="#DejaVuSans-4f" transform="translate(764.890625 0)"/>
      <use xlink:href="#DejaVuSans-48" transform="translate(792.671875 0)"/>
     </g>
    </g>
   </g>
  </g>
 </g>
 <defs>
  <clipPath id="p55c8836a9b">
   <rect x="96.409375" y="21.558281" width="401.76" height="288.288"/>
  </clipPath>
 </defs>
</svg>
