<?xml version="1.0" encoding="utf-8" standalone="no"?>
<!DOCTYPE svg PUBLIC "-//W3C//DTD SVG 1.1//EN"
  "http://www.w3.org/Graphics/SVG/1.1/DTD/svg11.dtd">
<svg xmlns:xlink="http://www.w3.org/1999/xlink" width="468.140781pt" height="246.495219pt" viewBox="0 0 468.140781 246.495219" xmlns="http://www.w3.org/2000/svg" version="1.1">
 <metadata>
  <rdf:RDF xmlns:dc="http://purl.org/dc/elements/1.1/" xmlns:cc="http://creativecommons.org/ns#" xmlns:rdf="http://www.w3.org/1999/02/22-rdf-syntax-ns#">
   <cc:Work>
    <dc:type rdf:resource="http://purl.org/dc/dcmitype/StillImage"/>
    <dc:date>2026-07-03T07:34:09.547573</dc:date>
    <dc:format>image/svg+xml</dc:format>
    <dc:creator>
     <cc:Agent>
      <dc:title>Matplotlib v3.11.0, https://matplotlib.org/</dc:title>
     </cc:Agent>
    </dc:creator>
   </cc:Work>
  </rdf:RDF>
 </metadata>
 <defs>
  <style type="text/css">*{stroke-linejoin: round; stroke-linecap: butt}</style>
 </defs>
 <g id="figure_1">
  <g id="patch_1">
   <path d="M 0 246.495219 
L 468.140781 246.495219 
L 468.140781 -0 
L 0 -0 
L 0 246.495219 
z
" style="fill: none"/>
  </g>
  <g id="axes_1">
   <g id="patch_2">
    <path d="M 59.180781 209.294437 
L 460.940781 209.294437 
L 460.940781 20.798437 
L 59.180781 20.798437 
L 59.180781 209.294437 
z
" style="fill: none"/>
   </g>
   <g id="matplotlib.axis_1">
    <g id="xtick_1">
     <g id="line2d_1">
      <path d="M 77.442599 209.294437 
L 77.442599 20.798437 
" clip-path="url(#pae44634839)" style="fill: none; stroke: #262b35; stroke-width: 0.6; stroke-linecap: square"/>
     </g>
     <g id="line2d_2">
      <defs>
       <path id="m355a0797cb" d="M 0 0 
L 0 3.5 
" style="stroke: #7d8593; stroke-width: 0.8"/>
      </defs>
      <g>
       <use xlink:href="#m355a0797cb" x="77.442599" y="209.294437" style="fill: #7d8593; stroke: #7d8593; stroke-width: 0.8"/>
      </g>
     </g>
     <g id="text_1">
      <!-- 0 -->
      <g style="fill: #7d8593" transform="translate(74.579474 223.132328) scale(0.09 -0.09)">
       <defs>
        <path id="DejaVuSans-13" d="M 2034 4250 
Q 1547 4250 1301 3770 
Q 1056 3291 1056 2328 
Q 1056 1369 1301 889 
Q 1547 409 2034 409 
Q 2525 409 2770 889 
Q 3016 1369 3016 2328 
Q 3016 3291 2770 3770 
Q 2525 4250 2034 4250 
z
M 2034 4750 
Q 2819 4750 3233 4129 
Q 3647 3509 3647 2328 
Q 3647 1150 3233 529 
Q 2819 -91 2034 -91 
Q 1250 -91 836 529 
Q 422 1150 422 2328 
Q 422 3509 836 4129 
Q 1250 4750 2034 4750 
z
" transform="scale(0.015625)"/>
       </defs>
       <use xlink:href="#DejaVuSans-13"/>
      </g>
     </g>
    </g>
    <g id="xtick_2">
     <g id="line2d_3">
      <path d="M 166.633409 209.294437 
L 166.633409 20.798437 
" clip-path="url(#pae44634839)" style="fill: none; stroke: #262b35; stroke-width: 0.6; stroke-linecap: square"/>
     </g>
     <g id="line2d_4">
      <g>
       <use xlink:href="#m355a0797cb" x="166.633409" y="209.294437" style="fill: #7d8593; stroke: #7d8593; stroke-width: 0.8"/>
      </g>
     </g>
     <g id="text_2">
      <!-- 1000 -->
      <g style="fill: #7d8593" transform="translate(155.180909 223.132328) scale(0.09 -0.09)">
       <defs>
        <path id="DejaVuSans-14" d="M 794 531 
L 1825 531 
L 1825 4091 
L 703 3866 
L 703 4441 
L 1819 4666 
L 2450 4666 
L 2450 531 
L 3481 531 
L 3481 0 
L 794 0 
L 794 531 
z
" transform="scale(0.015625)"/>
       </defs>
       <use xlink:href="#DejaVuSans-14"/>
       <use xlink:href="#DejaVuSans-13" transform="translate(63.625 0)"/>
       <use xlink:href="#DejaVuSans-13" transform="translate(127.25 0)"/>
       <use xlink:href="#DejaVuSans-13" transform="translate(190.875 0)"/>
      </g>
     </g>
    </g>
    <g id="xtick_3">
     <g id="line2d_5">
      <path d="M 255.824218 209.294437 
L 255.824218 20.798437 
" clip-path="url(#pae44634839)" style="fill: none; stroke: #262b35; stroke-width: 0.6; stroke-linecap: square"/>
     </g>
     <g id="line2d_6">
      <g>
       <use xlink:href="#m355a0797cb" x="255.824218" y="209.294437" style="fill: #7d8593; stroke: #7d8593; stroke-width: 0.8"/>
      </g>
     </g>
     <g id="text_3">
      <!-- 2000 -->
      <g style="fill: #7d8593" transform="translate(244.371718 223.132328) scale(0.09 -0.09)">
       <defs>
        <path id="DejaVuSans-15" d="M 1228 531 
L 3431 531 
L 3431 0 
L 469 0 
L 469 531 
Q 828 903 1448 1529 
Q 2069 2156 2228 2338 
Q 2531 2678 2651 2914 
Q 2772 3150 2772 3378 
Q 2772 3750 2511 3984 
Q 2250 4219 1831 4219 
Q 1534 4219 1204 4116 
Q 875 4013 500 3803 
L 500 4441 
Q 881 4594 1212 4672 
Q 1544 4750 1819 4750 
Q 2544 4750 2975 4387 
Q 3406 4025 3406 3419 
Q 3406 3131 3298 2873 
Q 3191 2616 2906 2266 
Q 2828 2175 2409 1742 
Q 1991 1309 1228 531 
z
" transform="scale(0.015625)"/>
       </defs>
       <use xlink:href="#DejaVuSans-15"/>
       <use xlink:href="#DejaVuSans-13" transform="translate(63.625 0)"/>
       <use xlink:href="#DejaVuSans-13" transform="translate(127.25 0)"/>
       <use xlink:href="#DejaVuSans-13" transform="translate(190.875 0)"/>
      </g>
     </g>
    </g>
    <g id="xtick_4">
     <g id="line2d_7">
      <path d="M 345.015027 209.294437 
L 345.015027 20.798437 
" clip-path="url(#pae44634839)" style="fill: none; stroke: #262b35; stroke-width: 0.6; stroke-linecap: square"/>
     </g>
     <g id="line2d_8">
      <g>
       <use xlink:href="#m355a0797cb" x="345.015027" y="209.294437" style="fill: #7d8593; stroke: #7d8593; stroke-width: 0.8"/>
      </g>
     </g>
     <g id="text_4">
      <!-- 3000 -->
      <g style="fill: #7d8593" transform="translate(333.562527 223.132328) scale(0.09 -0.09)">
       <defs>
        <path id="DejaVuSans-16" d="M 2597 2516 
Q 3050 2419 3304 2112 
Q 3559 1806 3559 1356 
Q 3559 666 3084 287 
Q 2609 -91 1734 -91 
Q 1441 -91 1130 -33 
Q 819 25 488 141 
L 488 750 
Q 750 597 1062 519 
Q 1375 441 1716 441 
Q 2309 441 2620 675 
Q 2931 909 2931 1356 
Q 2931 1769 2642 2001 
Q 2353 2234 1838 2234 
L 1294 2234 
L 1294 2753 
L 1863 2753 
Q 2328 2753 2575 2939 
Q 2822 3125 2822 3475 
Q 2822 3834 2567 4026 
Q 2313 4219 1838 4219 
Q 1578 4219 1281 4162 
Q 984 4106 628 3988 
L 628 4550 
Q 988 4650 1302 4700 
Q 1616 4750 1894 4750 
Q 2613 4750 3031 4423 
Q 3450 4097 3450 3541 
Q 3450 3153 3228 2886 
Q 3006 2619 2597 2516 
z
" transform="scale(0.015625)"/>
       </defs>
       <use xlink:href="#DejaVuSans-16"/>
       <use xlink:href="#DejaVuSans-13" transform="translate(63.625 0)"/>
       <use xlink:href="#DejaVuSans-13" transform="translate(127.25 0)"/>
       <use xlink:href="#DejaVuSans-13" transform="translate(190.875 0)"/>
      </g>
     </g>
    </g>
    <g id="xtick_5">
     <g id="line2d_9">
      <path d="M 434.205836 209.294437 
L 434.205836 20.798437 
" clip-path="url(#pae44634839)" style="fill: none; stroke: #262b35; stroke-width: 0.6; stroke-linecap: square"/>
     </g>
     <g id="line2d_10">
      <g>
       <use xlink:href="#m355a0797cb" x="434.205836" y="209.294437" style="fill: #7d8593; stroke: #7d8593; stroke-width: 0.8"/>
      </g>
     </g>
     <g id="text_5">
      <!-- 4000 -->
      <g style="fill: #7d8593" transform="translate(422.753336 223.132328) scale(0.09 -0.09)">
       <defs>
        <path id="DejaVuSans-17" d="M 2419 4116 
L 825 1625 
L 2419 1625 
L 2419 4116 
z
M 2253 4666 
L 3047 4666 
L 3047 1625 
L 3713 1625 
L 3713 1100 
L 3047 1100 
L 3047 0 
L 2419 0 
L 2419 1100 
L 313 1100 
L 313 1709 
L 2253 4666 
z
" transform="scale(0.015625)"/>
       </defs>
       <use xlink:href="#DejaVuSans-17"/>
       <use xlink:href="#DejaVuSans-13" transform="translate(63.625 0)"/>
       <use xlink:href="#DejaVuSans-13" transform="translate(127.25 0)"/>
       <use xlink:href="#DejaVuSans-13" transform="translate(190.875 0)"/>
      </g>
     </g>
    </g>
    <g id="text_6">
     <!-- candidate rank (of 4096) -->
     <g style="fill: #969ba6" transform="translate(197.843594 236.892875) scale(0.1 -0.1)">
      <defs>
       <path id="DejaVuSans-46" d="M 3122 3366 
L 3122 2828 
Q 2878 2963 2633 3030 
Q 2388 3097 2138 3097 
Q 1578 3097 1268 2742 
Q 959 2388 959 1747 
Q 959 1106 1268 751 
Q 1578 397 2138 397 
Q 2388 397 2633 464 
Q 2878 531 3122 666 
L 3122 134 
Q 2881 22 2623 -34 
Q 2366 -91 2075 -91 
Q 1284 -91 818 406 
Q 353 903 353 1747 
Q 353 2603 823 3093 
Q 1294 3584 2113 3584 
Q 2378 3584 2631 3529 
Q 2884 3475 3122 3366 
z
" transform="scale(0.015625)"/>
       <path id="DejaVuSans-44" d="M 2194 1759 
Q 1497 1759 1228 1600 
Q 959 1441 959 1056 
Q 959 750 1161 570 
Q 1363 391 1709 391 
Q 2188 391 2477 730 
Q 2766 1069 2766 1631 
L 2766 1759 
L 2194 1759 
z
M 3341 1997 
L 3341 0 
L 2766 0 
L 2766 531 
Q 2569 213 2275 61 
Q 1981 -91 1556 -91 
Q 1019 -91 701 211 
Q 384 513 384 1019 
Q 384 1609 779 1909 
Q 1175 2209 1959 2209 
L 2766 2209 
L 2766 2266 
Q 2766 2663 2505 2880 
Q 2244 3097 1772 3097 
Q 1472 3097 1187 3025 
Q 903 2953 641 2809 
L 641 3341 
Q 956 3463 1253 3523 
Q 1550 3584 1831 3584 
Q 2591 3584 2966 3190 
Q 3341 2797 3341 1997 
z
" transform="scale(0.015625)"/>
       <path id="DejaVuSans-51" d="M 3513 2113 
L 3513 0 
L 2938 0 
L 2938 2094 
Q 2938 2591 2744 2837 
Q 2550 3084 2163 3084 
Q 1697 3084 1428 2787 
Q 1159 2491 1159 1978 
L 1159 0 
L 581 0 
L 581 3500 
L 1159 3500 
L 1159 2956 
Q 1366 3272 1645 3428 
Q 1925 3584 2291 3584 
Q 2894 3584 3203 3211 
Q 3513 2838 3513 2113 
z
" transform="scale(0.015625)"/>
       <path id="DejaVuSans-47" d="M 2906 2969 
L 2906 4863 
L 3481 4863 
L 3481 0 
L 2906 0 
L 2906 525 
Q 2725 213 2448 61 
Q 2172 -91 1784 -91 
Q 1150 -91 751 415 
Q 353 922 353 1747 
Q 353 2572 751 3078 
Q 1150 3584 1784 3584 
Q 2172 3584 2448 3432 
Q 2725 3281 2906 2969 
z
M 947 1747 
Q 947 1113 1208 752 
Q 1469 391 1925 391 
Q 2381 391 2643 752 
Q 2906 1113 2906 1747 
Q 2906 2381 2643 2742 
Q 2381 3103 1925 3103 
Q 1469 3103 1208 2742 
Q 947 2381 947 1747 
z
" transform="scale(0.015625)"/>
       <path id="DejaVuSans-4c" d="M 603 3500 
L 1178 3500 
L 1178 0 
L 603 0 
L 603 3500 
z
M 603 4863 
L 1178 4863 
L 1178 4134 
L 603 4134 
L 603 4863 
z
" transform="scale(0.015625)"/>
       <path id="DejaVuSans-57" d="M 1172 4494 
L 1172 3500 
L 2356 3500 
L 2356 3053 
L 1172 3053 
L 1172 1153 
Q 1172 725 1289 603 
Q 1406 481 1766 481 
L 2356 481 
L 2356 0 
L 1766 0 
Q 1100 0 847 248 
Q 594 497 594 1153 
L 594 3053 
L 172 3053 
L 172 3500 
L 594 3500 
L 594 4494 
L 1172 4494 
z
" transform="scale(0.015625)"/>
       <path id="DejaVuSans-48" d="M 3597 1894 
L 3597 1613 
L 953 1613 
Q 991 1019 1311 708 
Q 1631 397 2203 397 
Q 2534 397 2845 478 
Q 3156 559 3463 722 
L 3463 178 
Q 3153 47 2828 -22 
Q 2503 -91 2169 -91 
Q 1331 -91 842 396 
Q 353 884 353 1716 
Q 353 2575 817 3079 
Q 1281 3584 2069 3584 
Q 2775 3584 3186 3129 
Q 3597 2675 3597 1894 
z
M 3022 2063 
Q 3016 2534 2758 2815 
Q 2500 3097 2075 3097 
Q 1594 3097 1305 2825 
Q 1016 2553 972 2059 
L 3022 2063 
z
" transform="scale(0.015625)"/>
       <path id="DejaVuSans-3" transform="scale(0.015625)"/>
       <path id="DejaVuSans-55" d="M 2631 2963 
Q 2534 3019 2420 3045 
Q 2306 3072 2169 3072 
Q 1681 3072 1420 2755 
Q 1159 2438 1159 1844 
L 1159 0 
L 581 0 
L 581 3500 
L 1159 3500 
L 1159 2956 
Q 1341 3275 1631 3429 
Q 1922 3584 2338 3584 
Q 2397 3584 2469 3576 
Q 2541 3569 2628 3553 
L 2631 2963 
z
" transform="scale(0.015625)"/>
       <path id="DejaVuSans-4e" d="M 581 4863 
L 1159 4863 
L 1159 1991 
L 2875 3500 
L 3609 3500 
L 1753 1863 
L 3688 0 
L 2938 0 
L 1159 1709 
L 1159 0 
L 581 0 
L 581 4863 
z
" transform="scale(0.015625)"/>
       <path id="DejaVuSans-b" d="M 1984 4856 
Q 1566 4138 1362 3434 
Q 1159 2731 1159 2009 
Q 1159 1288 1364 580 
Q 1569 -128 1984 -844 
L 1484 -844 
Q 1016 -109 783 600 
Q 550 1309 550 2009 
Q 550 2706 781 3412 
Q 1013 4119 1484 4856 
L 1984 4856 
z
" transform="scale(0.015625)"/>
       <path id="DejaVuSans-52" d="M 1959 3097 
Q 1497 3097 1228 2736 
Q 959 2375 959 1747 
Q 959 1119 1226 758 
Q 1494 397 1959 397 
Q 2419 397 2687 759 
Q 2956 1122 2956 1747 
Q 2956 2369 2687 2733 
Q 2419 3097 1959 3097 
z
M 1959 3584 
Q 2709 3584 3137 3096 
Q 3566 2609 3566 1747 
Q 3566 888 3137 398 
Q 2709 -91 1959 -91 
Q 1206 -91 779 398 
Q 353 888 353 1747 
Q 353 2609 779 3096 
Q 1206 3584 1959 3584 
z
" transform="scale(0.015625)"/>
       <path id="DejaVuSans-49" d="M 2375 4863 
L 2375 4384 
L 1825 4384 
Q 1516 4384 1395 4259 
Q 1275 4134 1275 3809 
L 1275 3500 
L 2222 3500 
L 2222 3053 
L 1275 3053 
L 1275 0 
L 697 0 
L 697 3053 
L 147 3053 
L 147 3500 
L 697 3500 
L 697 3744 
Q 697 4328 969 4595 
Q 1241 4863 1831 4863 
L 2375 4863 
z
" transform="scale(0.015625)"/>
       <path id="DejaVuSans-1c" d="M 703 97 
L 703 672 
Q 941 559 1184 500 
Q 1428 441 1663 441 
Q 2288 441 2617 861 
Q 2947 1281 2994 2138 
Q 2813 1869 2534 1725 
Q 2256 1581 1919 1581 
Q 1219 1581 811 2004 
Q 403 2428 403 3163 
Q 403 3881 828 4315 
Q 1253 4750 1959 4750 
Q 2769 4750 3195 4129 
Q 3622 3509 3622 2328 
Q 3622 1225 3098 567 
Q 2575 -91 1691 -91 
Q 1453 -91 1209 -44 
Q 966 3 703 97 
z
M 1959 2075 
Q 2384 2075 2632 2365 
Q 2881 2656 2881 3163 
Q 2881 3666 2632 3958 
Q 2384 4250 1959 4250 
Q 1534 4250 1286 3958 
Q 1038 3666 1038 3163 
Q 1038 2656 1286 2365 
Q 1534 2075 1959 2075 
z
" transform="scale(0.015625)"/>
       <path id="DejaVuSans-19" d="M 2113 2584 
Q 1688 2584 1439 2293 
Q 1191 2003 1191 1497 
Q 1191 994 1439 701 
Q 1688 409 2113 409 
Q 2538 409 2786 701 
Q 3034 994 3034 1497 
Q 3034 2003 2786 2293 
Q 2538 2584 2113 2584 
z
M 3366 4563 
L 3366 3988 
Q 3128 4100 2886 4159 
Q 2644 4219 2406 4219 
Q 1781 4219 1451 3797 
Q 1122 3375 1075 2522 
Q 1259 2794 1537 2939 
Q 1816 3084 2150 3084 
Q 2853 3084 3261 2657 
Q 3669 2231 3669 1497 
Q 3669 778 3244 343 
Q 2819 -91 2113 -91 
Q 1303 -91 875 529 
Q 447 1150 447 2328 
Q 447 3434 972 4092 
Q 1497 4750 2381 4750 
Q 2619 4750 2861 4703 
Q 3103 4656 3366 4563 
z
" transform="scale(0.015625)"/>
       <path id="DejaVuSans-c" d="M 513 4856 
L 1013 4856 
Q 1481 4119 1714 3412 
Q 1947 2706 1947 2009 
Q 1947 1309 1714 600 
Q 1481 -109 1013 -844 
L 513 -844 
Q 928 -128 1133 580 
Q 1338 1288 1338 2009 
Q 1338 2731 1133 3434 
Q 928 4138 513 4856 
z
" transform="scale(0.015625)"/>
      </defs>
      <use xlink:href="#DejaVuSans-46"/>
      <use xlink:href="#DejaVuSans-44" transform="translate(54.984375 0)"/>
      <use xlink:href="#DejaVuSans-51" transform="translate(116.265625 0)"/>
      <use xlink:href="#DejaVuSans-47" transform="translate(179.640625 0)"/>
      <use xlink:href="#DejaVuSans-4c" transform="translate(243.125 0)"/>
      <use xlink:href="#DejaVuSans-47" transform="translate(270.90625 0)"/>
      <use xlink:href="#DejaVuSans-44" transform="translate(334.390625 0)"/>
      <use xlink:href="#DejaVuSans-57" transform="translate(395.671875 0)"/>
      <use xlink:href="#DejaVuSans-48" transform="translate(434.875 0)"/>
      <use xlink:href="#DejaVuSans-3" transform="translate(496.40625 0)"/>
      <use xlink:href="#DejaVuSans-55" transform="translate(528.1875 0)"/>
      <use xlink:href="#DejaVuSans-44" transform="translate(569.296875 0)"/>
      <use xlink:href="#DejaVuSans-51" transform="translate(630.578125 0)"/>
      <use xlink:href="#DejaVuSans-4e" transform="translate(693.953125 0)"/>
      <use xlink:href="#DejaVuSans-3" transform="translate(751.859375 0)"/>
      <use xlink:href="#DejaVuSans-b" transform="translate(783.640625 0)"/>
      <use xlink:href="#DejaVuSans-52" transform="translate(822.65625 0)"/>
      <use xlink:href="#DejaVuSans-49" transform="translate(883.84375 0)"/>
      <use xlink:href="#DejaVuSans-3" transform="translate(919.046875 0)"/>
      <use xlink:href="#DejaVuSans-17" transform="translate(950.828125 0)"/>
      <use xlink:href="#DejaVuSans-13" transform="translate(1014.453125 0)"/>
      <use xlink:href="#DejaVuSans-1c" transform="translate(1078.078125 0)"/>
      <use xlink:href="#DejaVuSans-19" transform="translate(1141.703125 0)"/>
      <use xlink:href="#DejaVuSans-c" transform="translate(1205.328125 0)"/>
     </g>
    </g>
   </g>
   <g id="matplotlib.axis_2">
    <g id="ytick_1">
     <g id="line2d_11">
      <defs>
       <path id="m337707eb14" d="M 0 0 
L -2 0 
" style="stroke: #7d8593; stroke-width: 0.6"/>
      </defs>
      <g>
       <use xlink:href="#m337707eb14" x="59.180781" y="193.134523" style="fill: #7d8593; stroke: #7d8593; stroke-width: 0.6"/>
      </g>
     </g>
     <g id="text_7">
      <!-- $\mathdefault{4\times10^{0}}$ -->
      <g style="fill: #7d8593" transform="translate(21.200781 197.364523) scale(0.09 -0.09)">
       <defs>
        <path id="DejaVuSans-99" d="M 4488 3438 
L 3059 2003 
L 4488 575 
L 4116 197 
L 2681 1631 
L 1247 197 
L 878 575 
L 2303 2003 
L 878 3438 
L 1247 3816 
L 2681 2381 
L 4116 3816 
L 4488 3438 
z
" transform="scale(0.015625)"/>
       </defs>
       <use xlink:href="#DejaVuSans-17" transform="translate(0 0.746875)"/>
       <use xlink:href="#DejaVuSans-99" transform="translate(83.105469 0.746875)"/>
       <use xlink:href="#DejaVuSans-14" transform="translate(186.376953 0.746875)"/>
       <use xlink:href="#DejaVuSans-13" transform="translate(250 0.746875)"/>
       <use xlink:href="#DejaVuSans-13" transform="translate(314.580078 42.046875) scale(0.7)"/>
      </g>
     </g>
    </g>
    <g id="ytick_2">
     <g id="line2d_12">
      <g>
       <use xlink:href="#m337707eb14" x="59.180781" y="145.761319" style="fill: #7d8593; stroke: #7d8593; stroke-width: 0.6"/>
      </g>
     </g>
     <g id="text_8">
      <!-- $\mathdefault{5\times10^{0}}$ -->
      <g style="fill: #7d8593" transform="translate(21.200781 149.991319) scale(0.09 -0.09)">
       <defs>
        <path id="DejaVuSans-18" d="M 691 4666 
L 3169 4666 
L 3169 4134 
L 1269 4134 
L 1269 2991 
Q 1406 3038 1543 3061 
Q 1681 3084 1819 3084 
Q 2600 3084 3056 2656 
Q 3513 2228 3513 1497 
Q 3513 744 3044 326 
Q 2575 -91 1722 -91 
Q 1428 -91 1123 -41 
Q 819 9 494 109 
L 494 744 
Q 775 591 1075 516 
Q 1375 441 1709 441 
Q 2250 441 2565 725 
Q 2881 1009 2881 1497 
Q 2881 1984 2565 2268 
Q 2250 2553 1709 2553 
Q 1456 2553 1204 2497 
Q 953 2441 691 2322 
L 691 4666 
z
" transform="scale(0.015625)"/>
       </defs>
       <use xlink:href="#DejaVuSans-18" transform="translate(0 0.746875)"/>
       <use xlink:href="#DejaVuSans-99" transform="translate(83.105469 0.746875)"/>
       <use xlink:href="#DejaVuSans-14" transform="translate(186.376953 0.746875)"/>
       <use xlink:href="#DejaVuSans-13" transform="translate(250 0.746875)"/>
       <use xlink:href="#DejaVuSans-13" transform="translate(314.580078 42.046875) scale(0.7)"/>
      </g>
     </g>
    </g>
    <g id="ytick_3">
     <g id="line2d_13">
      <g>
       <use xlink:href="#m337707eb14" x="59.180781" y="107.054593" style="fill: #7d8593; stroke: #7d8593; stroke-width: 0.6"/>
      </g>
     </g>
     <g id="text_9">
      <!-- $\mathdefault{6\times10^{0}}$ -->
      <g style="fill: #7d8593" transform="translate(21.200781 111.284593) scale(0.09 -0.09)">
       <use xlink:href="#DejaVuSans-19" transform="translate(0 0.746875)"/>
       <use xlink:href="#DejaVuSans-99" transform="translate(83.105469 0.746875)"/>
       <use xlink:href="#DejaVuSans-14" transform="translate(186.376953 0.746875)"/>
       <use xlink:href="#DejaVuSans-13" transform="translate(250 0.746875)"/>
       <use xlink:href="#DejaVuSans-13" transform="translate(314.580078 42.046875) scale(0.7)"/>
      </g>
     </g>
    </g>
    <g id="ytick_4">
     <g id="line2d_14">
      <g>
       <use xlink:href="#m337707eb14" x="59.180781" y="74.328523" style="fill: #7d8593; stroke: #7d8593; stroke-width: 0.6"/>
      </g>
     </g>
     <g id="text_10">
      <!-- $\mathdefault{7\times10^{0}}$ -->
      <g style="fill: #7d8593" transform="translate(21.200781 78.558523) scale(0.09 -0.09)">
       <defs>
        <path id="DejaVuSans-1a" d="M 525 4666 
L 3525 4666 
L 3525 4397 
L 1831 0 
L 1172 0 
L 2766 4134 
L 525 4134 
L 525 4666 
z
" transform="scale(0.015625)"/>
       </defs>
       <use xlink:href="#DejaVuSans-1a" transform="translate(0 0.746875)"/>
       <use xlink:href="#DejaVuSans-99" transform="translate(83.105469 0.746875)"/>
       <use xlink:href="#DejaVuSans-14" transform="translate(186.376953 0.746875)"/>
       <use xlink:href="#DejaVuSans-13" transform="translate(250 0.746875)"/>
       <use xlink:href="#DejaVuSans-13" transform="translate(314.580078 42.046875) scale(0.7)"/>
      </g>
     </g>
    </g>
    <g id="ytick_5">
     <g id="line2d_15">
      <g>
       <use xlink:href="#m337707eb14" x="59.180781" y="45.979911" style="fill: #7d8593; stroke: #7d8593; stroke-width: 0.6"/>
      </g>
     </g>
     <g id="text_11">
      <!-- $\mathdefault{8\times10^{0}}$ -->
      <g style="fill: #7d8593" transform="translate(21.200781 50.209911) scale(0.09 -0.09)">
       <defs>
        <path id="DejaVuSans-1b" d="M 2034 2216 
Q 1584 2216 1326 1975 
Q 1069 1734 1069 1313 
Q 1069 891 1326 650 
Q 1584 409 2034 409 
Q 2484 409 2743 651 
Q 3003 894 3003 1313 
Q 3003 1734 2745 1975 
Q 2488 2216 2034 2216 
z
M 1403 2484 
Q 997 2584 770 2862 
Q 544 3141 544 3541 
Q 544 4100 942 4425 
Q 1341 4750 2034 4750 
Q 2731 4750 3128 4425 
Q 3525 4100 3525 3541 
Q 3525 3141 3298 2862 
Q 3072 2584 2669 2484 
Q 3125 2378 3379 2068 
Q 3634 1759 3634 1313 
Q 3634 634 3220 271 
Q 2806 -91 2034 -91 
Q 1263 -91 848 271 
Q 434 634 434 1313 
Q 434 1759 690 2068 
Q 947 2378 1403 2484 
z
M 1172 3481 
Q 1172 3119 1398 2916 
Q 1625 2713 2034 2713 
Q 2441 2713 2670 2916 
Q 2900 3119 2900 3481 
Q 2900 3844 2670 4047 
Q 2441 4250 2034 4250 
Q 1625 4250 1398 4047 
Q 1172 3844 1172 3481 
z
" transform="scale(0.015625)"/>
       </defs>
       <use xlink:href="#DejaVuSans-1b" transform="translate(0 0.746875)"/>
       <use xlink:href="#DejaVuSans-99" transform="translate(83.105469 0.746875)"/>
       <use xlink:href="#DejaVuSans-14" transform="translate(186.376953 0.746875)"/>
       <use xlink:href="#DejaVuSans-13" transform="translate(250 0.746875)"/>
       <use xlink:href="#DejaVuSans-13" transform="translate(314.580078 42.046875) scale(0.7)"/>
      </g>
     </g>
    </g>
    <g id="ytick_6">
     <g id="line2d_16">
      <g>
       <use xlink:href="#m337707eb14" x="59.180781" y="20.974664" style="fill: #7d8593; stroke: #7d8593; stroke-width: 0.6"/>
      </g>
     </g>
     <g id="text_12">
      <!-- $\mathdefault{9\times10^{0}}$ -->
      <g style="fill: #7d8593" transform="translate(21.200781 25.204664) scale(0.09 -0.09)">
       <use xlink:href="#DejaVuSans-1c" transform="translate(0 0.746875)"/>
       <use xlink:href="#DejaVuSans-99" transform="translate(83.105469 0.746875)"/>
       <use xlink:href="#DejaVuSans-14" transform="translate(186.376953 0.746875)"/>
       <use xlink:href="#DejaVuSans-13" transform="translate(250 0.746875)"/>
       <use xlink:href="#DejaVuSans-13" transform="translate(314.580078 42.046875) scale(0.7)"/>
      </g>
     </g>
    </g>
    <g id="text_13">
     <!-- stage-A spectral loss -->
     <g style="fill: #969ba6" transform="translate(14.798438 166.949562) rotate(-90) scale(0.1 -0.1)">
      <defs>
       <path id="DejaVuSans-56" d="M 2834 3397 
L 2834 2853 
Q 2591 2978 2328 3040 
Q 2066 3103 1784 3103 
Q 1356 3103 1142 2972 
Q 928 2841 928 2578 
Q 928 2378 1081 2264 
Q 1234 2150 1697 2047 
L 1894 2003 
Q 2506 1872 2764 1633 
Q 3022 1394 3022 966 
Q 3022 478 2636 193 
Q 2250 -91 1575 -91 
Q 1294 -91 989 -36 
Q 684 19 347 128 
L 347 722 
Q 666 556 975 473 
Q 1284 391 1588 391 
Q 1994 391 2212 530 
Q 2431 669 2431 922 
Q 2431 1156 2273 1281 
Q 2116 1406 1581 1522 
L 1381 1569 
Q 847 1681 609 1914 
Q 372 2147 372 2553 
Q 372 3047 722 3315 
Q 1072 3584 1716 3584 
Q 2034 3584 2315 3537 
Q 2597 3491 2834 3397 
z
" transform="scale(0.015625)"/>
       <path id="DejaVuSans-4a" d="M 2906 1791 
Q 2906 2416 2648 2759 
Q 2391 3103 1925 3103 
Q 1463 3103 1205 2759 
Q 947 2416 947 1791 
Q 947 1169 1205 825 
Q 1463 481 1925 481 
Q 2391 481 2648 825 
Q 2906 1169 2906 1791 
z
M 3481 434 
Q 3481 -459 3084 -895 
Q 2688 -1331 1869 -1331 
Q 1566 -1331 1297 -1286 
Q 1028 -1241 775 -1147 
L 775 -588 
Q 1028 -725 1275 -790 
Q 1522 -856 1778 -856 
Q 2344 -856 2625 -561 
Q 2906 -266 2906 331 
L 2906 616 
Q 2728 306 2450 153 
Q 2172 0 1784 0 
Q 1141 0 747 490 
Q 353 981 353 1791 
Q 353 2603 747 3093 
Q 1141 3584 1784 3584 
Q 2172 3584 2450 3431 
Q 2728 3278 2906 2969 
L 2906 3500 
L 3481 3500 
L 3481 434 
z
" transform="scale(0.015625)"/>
       <path id="DejaVuSans-10" d="M 313 2009 
L 1997 2009 
L 1997 1497 
L 313 1497 
L 313 2009 
z
" transform="scale(0.015625)"/>
       <path id="DejaVuSans-24" d="M 2188 4044 
L 1331 1722 
L 3047 1722 
L 2188 4044 
z
M 1831 4666 
L 2547 4666 
L 4325 0 
L 3669 0 
L 3244 1197 
L 1141 1197 
L 716 0 
L 50 0 
L 1831 4666 
z
" transform="scale(0.015625)"/>
       <path id="DejaVuSans-53" d="M 1159 525 
L 1159 -1331 
L 581 -1331 
L 581 3500 
L 1159 3500 
L 1159 2969 
Q 1341 3281 1617 3432 
Q 1894 3584 2278 3584 
Q 2916 3584 3314 3078 
Q 3713 2572 3713 1747 
Q 3713 922 3314 415 
Q 2916 -91 2278 -91 
Q 1894 -91 1617 61 
Q 1341 213 1159 525 
z
M 3116 1747 
Q 3116 2381 2855 2742 
Q 2594 3103 2138 3103 
Q 1681 3103 1420 2742 
Q 1159 2381 1159 1747 
Q 1159 1113 1420 752 
Q 1681 391 2138 391 
Q 2594 391 2855 752 
Q 3116 1113 3116 1747 
z
" transform="scale(0.015625)"/>
       <path id="DejaVuSans-4f" d="M 603 4863 
L 1178 4863 
L 1178 0 
L 603 0 
L 603 4863 
z
" transform="scale(0.015625)"/>
      </defs>
      <use xlink:href="#DejaVuSans-56"/>
      <use xlink:href="#DejaVuSans-57" transform="translate(52.09375 0)"/>
      <use xlink:href="#DejaVuSans-44" transform="translate(91.296875 0)"/>
      <use xlink:href="#DejaVuSans-4a" transform="translate(152.578125 0)"/>
      <use xlink:href="#DejaVuSans-48" transform="translate(216.0625 0)"/>
      <use xlink:href="#DejaVuSans-10" transform="translate(277.59375 0)"/>
      <use xlink:href="#DejaVuSans-24" transform="translate(311.46875 0)"/>
      <use xlink:href="#DejaVuSans-3" transform="translate(379.875 0)"/>
      <use xlink:href="#DejaVuSans-56" transform="translate(411.65625 0)"/>
      <use xlink:href="#DejaVuSans-53" transform="translate(463.75 0)"/>
      <use xlink:href="#DejaVuSans-48" transform="translate(527.234375 0)"/>
      <use xlink:href="#DejaVuSans-46" transform="translate(588.765625 0)"/>
      <use xlink:href="#DejaVuSans-57" transform="translate(643.75 0)"/>
      <use xlink:href="#DejaVuSans-55" transform="translate(682.953125 0)"/>
      <use xlink:href="#DejaVuSans-44" transform="translate(724.0625 0)"/>
      <use xlink:href="#DejaVuSans-4f" transform="translate(785.34375 0)"/>
      <use xlink:href="#DejaVuSans-3" transform="translate(813.125 0)"/>
      <use xlink:href="#DejaVuSans-4f" transform="translate(844.90625 0)"/>
      <use xlink:href="#DejaVuSans-52" transform="translate(872.6875 0)"/>
      <use xlink:href="#DejaVuSans-56" transform="translate(933.875 0)"/>
      <use xlink:href="#DejaVuSans-56" transform="translate(985.96875 0)"/>
     </g>
    </g>
   </g>
   <g id="line2d_17">
    <path d="M 77.442599 200.726437 
L 77.620981 193.938218 
L 77.799363 191.425334 
L 77.977744 189.665923 
L 78.066935 189.663931 
L 78.245317 186.560768 
L 78.334508 186.55672 
L 78.958843 181.771708 
L 79.137225 181.58875 
L 79.226416 181.530347 
L 79.583179 180.850059 
L 79.76156 179.930801 
L 79.850751 179.885977 
L 80.118324 178.182104 
L 80.385896 177.968962 
L 80.742659 176.284342 
L 80.921041 175.829656 
L 81.099423 175.012733 
L 81.812949 173.70615 
L 81.991331 173.429377 
L 82.437285 172.78358 
L 82.794048 172.465227 
L 83.06162 172.387797 
L 83.329193 171.695437 
L 83.775147 171.040356 
L 83.953529 170.786488 
L 84.13191 170.252323 
L 84.221101 170.223354 
L 84.399483 169.525687 
L 84.667055 169.452309 
L 84.934627 169.164792 
L 85.2022 169.013657 
L 85.469772 168.601249 
L 85.558963 168.545319 
L 85.915726 167.728998 
L 86.094108 167.562166 
L 86.36168 167.414476 
L 86.629253 167.252192 
L 86.807634 167.126838 
L 87.164398 166.771424 
L 87.521161 166.661433 
L 87.788733 166.560789 
L 88.056306 166.365822 
L 88.145497 166.208818 
L 88.323878 165.761458 
L 88.591451 165.623397 
L 88.948214 165.310689 
L 89.037405 165.309734 
L 89.483359 164.891203 
L 90.018504 164.722755 
L 90.286076 164.593044 
L 90.999602 164.29442 
L 91.445556 163.931317 
L 92.069892 163.729737 
L 92.426655 163.626177 
L 92.783419 163.516284 
L 93.229373 163.120121 
L 93.764518 162.83159 
L 93.942899 162.606632 
L 94.210472 162.419795 
L 94.478044 162.274325 
L 95.637525 161.664395 
L 95.905097 161.361404 
L 96.351051 161.198541 
L 98.759203 159.700942 
L 98.937584 159.571994 
L 99.383538 159.451784 
L 99.56192 159.247182 
L 99.829493 159.194332 
L 100.097065 158.95335 
L 100.63221 158.666981 
L 101.434927 158.179057 
L 101.79169 157.937165 
L 101.970072 157.814212 
L 102.237644 157.662334 
L 102.594408 157.568969 
L 102.86198 157.44732 
L 103.129552 157.315841 
L 103.397125 157.137168 
L 106.251231 156.163807 
L 106.518803 156.091036 
L 106.875566 155.978027 
L 107.410711 155.854504 
L 107.678284 155.623708 
L 108.481001 155.166697 
L 108.570192 155.159734 
L 108.837764 154.947746 
L 109.551291 154.833463 
L 110.175626 154.623911 
L 110.710771 154.513642 
L 111.424298 154.300043 
L 112.137824 154.040507 
L 112.316206 153.886297 
L 112.494587 153.813398 
L 113.297305 153.434225 
L 113.654068 153.33779 
L 113.92164 153.191449 
L 115.259503 152.825566 
L 115.527075 152.693132 
L 116.597365 152.334392 
L 117.2217 152.096687 
L 117.935227 151.823226 
L 118.113608 151.700306 
L 118.470372 151.61835 
L 118.648753 151.259467 
L 119.719043 151.009181 
L 120.432569 150.917638 
L 120.700142 150.55391 
L 121.146096 150.412951 
L 121.59205 150.231907 
L 122.840721 150.03232 
L 123.019103 150.024511 
L 123.197485 149.852383 
L 133.097664 147.375554 
L 133.632809 147.231001 
L 138.538304 146.017023 
L 138.895067 145.907893 
L 139.430212 145.736903 
L 139.965357 145.571189 
L 141.035646 145.405624 
L 144.870851 144.299228 
L 144.960042 144.298685 
L 145.138424 144.178014 
L 146.476286 143.941556 
L 146.833049 143.88337 
L 147.189812 143.720881 
L 148.170911 143.570338 
L 149.062819 143.302291 
L 149.687155 143.167944 
L 149.954727 143.046236 
L 151.025017 142.895451 
L 151.738543 142.781724 
L 153.700741 142.212687 
L 154.503459 142.080143 
L 154.771031 142.008501 
L 155.127794 141.891073 
L 155.395367 141.807829 
L 155.930512 141.752351 
L 156.287275 141.633695 
L 157.535946 141.457937 
L 158.160282 141.324415 
L 160.21167 141.059524 
L 160.479243 140.941036 
L 161.192769 140.811261 
L 161.995487 140.666799 
L 162.35225 140.449954 
L 165.384737 139.878972 
L 165.741501 139.781257 
L 168.773988 139.298974 
L 169.844278 139.17485 
L 170.11185 139.032321 
L 174.303818 138.175162 
L 174.660581 138.06577 
L 175.55249 137.954503 
L 177.78226 137.381932 
L 178.406595 137.224866 
L 178.674168 137.135053 
L 181.528274 136.739812 
L 182.063419 136.621383 
L 183.31209 136.375444 
L 183.579662 136.193417 
L 184.649952 136.005068 
L 190.447355 134.757094 
L 190.893309 134.641956 
L 191.160881 134.575872 
L 191.517644 134.458145 
L 192.052789 134.34785 
L 193.033888 134.139431 
L 196.244757 133.410771 
L 196.869093 133.270435 
L 197.315047 133.117964 
L 199.188054 132.822094 
L 200.615107 132.587498 
L 202.131351 132.328396 
L 202.577305 132.249616 
L 203.380022 132.131424 
L 209.534188 130.98835 
L 209.80176 130.914652 
L 211.674767 130.649513 
L 212.299103 130.442958 
L 212.745057 130.307695 
L 213.10182 130.224147 
L 214.618064 129.919032 
L 214.974827 129.747487 
L 216.847834 129.501315 
L 217.204597 129.400182 
L 217.828933 129.284446 
L 219.523558 128.97282 
L 219.969513 128.890133 
L 220.77223 128.77402 
L 221.664138 128.63552 
L 222.377664 128.514918 
L 228.264258 127.580672 
L 228.710212 127.423801 
L 232.545417 126.833265 
L 232.90218 126.718272 
L 235.488713 126.352268 
L 236.826575 126.007794 
L 237.629293 125.766176 
L 238.342819 125.648223 
L 239.056346 125.504256 
L 239.769872 125.337362 
L 240.929353 125.230473 
L 241.464498 125.141807 
L 243.426695 124.629338 
L 244.496985 124.516283 
L 245.567275 124.302377 
L 246.905137 124.026738 
L 247.529473 123.916543 
L 256.002599 122.5678 
L 256.180981 122.444717 
L 259.570232 121.958527 
L 260.908094 121.679804 
L 263.7622 121.424391 
L 265.010871 121.177688 
L 266.437924 120.98234 
L 267.686595 120.855851 
L 268.935267 120.681218 
L 269.916366 120.532345 
L 270.629892 120.422996 
L 272.413708 120.148523 
L 274.554288 119.769478 
L 276.159722 119.621923 
L 276.516486 119.530254 
L 277.408394 119.312158 
L 279.281401 118.864473 
L 280.2625 118.767318 
L 280.797644 118.665538 
L 281.778743 118.520422 
L 288.200482 117.277274 
L 290.341061 117.053203 
L 290.876206 116.964245 
L 291.143778 116.850339 
L 291.857305 116.714757 
L 296.138464 116.14235 
L 296.762799 116.045447 
L 297.565517 115.947603 
L 298.011471 115.849329 
L 301.846675 115.269689 
L 302.738583 115.072569 
L 304.61159 114.846068 
L 304.879163 114.771869 
L 305.503499 114.649743 
L 310.587375 113.753945 
L 311.657664 113.651982 
L 312.817145 113.386624 
L 313.619862 113.261174 
L 315.225297 112.95392 
L 316.117205 112.81021 
L 316.74154 112.685724 
L 317.455067 112.586576 
L 317.990212 112.445503 
L 318.614547 112.317876 
L 319.238883 112.128799 
L 320.665936 111.953771 
L 321.022699 111.80808 
L 322.717325 111.49427 
L 323.074088 111.387273 
L 324.233568 111.249421 
L 325.303858 111.089526 
L 326.195766 110.97634 
L 326.463339 110.867181 
L 327.444438 110.707471 
L 330.120162 110.287623 
L 330.387734 110.224847 
L 332.349932 109.959596 
L 332.795886 109.818275 
L 333.598603 109.703662 
L 334.579702 109.567855 
L 334.758084 109.486774 
L 335.649992 109.35895 
L 339.217624 108.629315 
L 342.250112 108.115046 
L 342.428494 107.916137 
L 348.850232 106.708122 
L 349.831331 106.555902 
L 352.685437 105.950596 
L 355.093588 105.658562 
L 355.807115 105.563378 
L 356.34226 105.460333 
L 357.50174 105.335095 
L 358.482839 105.119462 
L 359.553129 104.779854 
L 363.745097 103.723233 
L 364.10186 103.636434 
L 367.40192 103.016173 
L 368.828973 102.81464 
L 369.185736 102.730592 
L 371.147934 102.409356 
L 371.593888 102.325914 
L 372.129033 102.206056 
L 372.396605 102.096683 
L 373.288514 101.98898 
L 373.912849 101.857754 
L 378.37239 100.589309 
L 379.353489 100.453711 
L 382.83193 99.476596 
L 383.099503 99.390115 
L 383.545457 99.23949 
L 384.794128 98.933119 
L 385.150891 98.757018 
L 385.596845 98.659769 
L 385.775227 98.584418 
L 386.042799 98.438446 
L 387.113089 98.277372 
L 387.559043 98.113347 
L 388.004997 97.967762 
L 389.43205 97.65552 
L 390.234767 97.395078 
L 391.126675 97.118467 
L 393.445636 96.407852 
L 394.337544 96.076921 
L 395.586216 95.818743 
L 395.853788 95.713378 
L 396.567315 95.49603 
L 397.10246 95.369586 
L 397.459223 95.186937 
L 397.637604 95.089587 
L 397.994368 94.968836 
L 398.886276 94.789971 
L 400.313329 94.537965 
L 401.294428 94.112111 
L 401.562 93.970354 
L 405.486396 92.709777 
L 405.753968 92.575383 
L 406.467495 92.471772 
L 407.359403 92.19088 
L 407.537784 92.009325 
L 408.072929 91.788213 
L 408.340502 91.659219 
L 409.054028 91.536262 
L 410.124318 91.175959 
L 410.837844 91.020237 
L 412.086516 90.365798 
L 412.443279 90.201412 
L 412.800042 90.103004 
L 413.156805 89.963556 
L 413.602759 89.849574 
L 413.781141 89.710463 
L 414.405477 89.594861 
L 414.940621 89.240472 
L 415.654148 89.113791 
L 416.100102 88.939542 
L 416.189293 88.923989 
L 416.367674 88.71874 
L 417.259582 88.370059 
L 417.973109 88.253238 
L 419.578543 86.991547 
L 419.846116 86.878597 
L 420.024498 86.742047 
L 420.29207 86.625122 
L 422.165077 85.335387 
L 422.700222 85.133455 
L 423.681321 83.97615 
L 424.127275 83.818859 
L 424.305656 83.328884 
L 424.75161 83.119128 
L 425.108374 83.018042 
L 425.375946 82.930783 
L 425.465137 82.92 
L 425.8219 82.579609 
L 426.981381 81.685043 
L 427.070571 81.659922 
L 427.427335 81.272615 
L 427.784098 80.94464 
L 428.140861 80.583522 
L 428.586815 80.272298 
L 428.943578 80.082879 
L 429.12196 80.041115 
L 429.300342 79.577678 
L 429.567914 79.395542 
L 430.103059 78.869779 
L 430.905776 78.39745 
L 431.084158 78.180403 
L 431.173349 78.177207 
L 431.708494 77.618359 
L 432.243638 76.999416 
L 432.42202 76.718305 
L 432.778783 76.631696 
L 433.135546 76.052225 
L 433.759882 75.736141 
L 434.205836 74.705108 
L 434.562599 74.463928 
L 434.740981 73.66624 
L 435.097744 73.600309 
L 435.632889 72.453361 
L 435.811271 71.804739 
L 435.989652 71.775745 
L 436.168034 71.488475 
L 436.88156 70.617566 
L 437.327515 69.599 
L 437.595087 69.332428 
L 437.95185 68.072925 
L 438.308613 67.788235 
L 438.576186 66.812753 
L 438.665377 66.797623 
L 439.02214 65.531087 
L 439.378903 65.297081 
L 439.735666 64.279291 
L 439.914048 64.120219 
L 440.270811 63.245122 
L 440.360002 63.086713 
L 441.073529 58.418201 
L 441.25191 55.944797 
L 441.341101 55.927981 
L 441.608673 54.22638 
L 441.787055 54.069509 
L 442.054627 51.086606 
L 442.233009 50.998391 
L 442.3222 50.7103 
L 442.411391 49.862283 
L 442.678963 29.366437 
L 442.678963 29.366437 
" clip-path="url(#pae44634839)" style="fill: none; stroke: #d2823e; stroke-width: 1.2; stroke-linecap: square"/>
   </g>
   <g id="line2d_18">
    <path d="M 83.150811 209.294437 
L 83.150811 20.798437 
" clip-path="url(#pae44634839)" style="fill: none; stroke-dasharray: 3.33,1.44; stroke-dashoffset: 0; stroke: #5fa8a0; stroke-width: 0.9"/>
   </g>
   <g id="patch_3">
    <path d="M 59.180781 209.294437 
L 59.180781 20.798437 
" style="fill: none; stroke: #39414f; stroke-width: 0.8; stroke-linejoin: miter; stroke-linecap: square"/>
   </g>
   <g id="patch_4">
    <path d="M 460.940781 209.294437 
L 460.940781 20.798437 
" style="fill: none; stroke: #39414f; stroke-width: 0.8; stroke-linejoin: miter; stroke-linecap: square"/>
   </g>
   <g id="patch_5">
    <path d="M 59.180781 209.294437 
L 460.940781 209.294437 
" style="fill: none; stroke: #39414f; stroke-width: 0.8; stroke-linejoin: miter; stroke-linecap: square"/>
   </g>
   <g id="patch_6">
    <path d="M 59.180781 20.798437 
L 460.940781 20.798437 
" style="fill: none; stroke: #39414f; stroke-width: 0.8; stroke-linejoin: miter; stroke-linecap: square"/>
   </g>
   <g id="patch_7">
    <path d="M 132.385483 91.579212 
Q 108.290274 130.950429 84.195065 170.321647 
" style="fill: none; stroke: #5fa8a0; stroke-width: 0.7; stroke-linecap: round"/>
   </g>
   <g id="text_14">
    <!-- 64 survivors -&gt; stage B -->
    <g style="fill: #5fa8a0" transform="translate(90.000665 85.948004) scale(0.08 -0.08)">
     <defs>
      <path id="DejaVuSans-58" d="M 544 1381 
L 544 3500 
L 1119 3500 
L 1119 1403 
Q 1119 906 1312 657 
Q 1506 409 1894 409 
Q 2359 409 2629 706 
Q 2900 1003 2900 1516 
L 2900 3500 
L 3475 3500 
L 3475 0 
L 2900 0 
L 2900 538 
Q 2691 219 2414 64 
Q 2138 -91 1772 -91 
Q 1169 -91 856 284 
Q 544 659 544 1381 
z
M 1991 3584 
L 1991 3584 
z
" transform="scale(0.015625)"/>
      <path id="DejaVuSans-59" d="M 191 3500 
L 800 3500 
L 1894 563 
L 2988 3500 
L 3597 3500 
L 2284 0 
L 1503 0 
L 191 3500 
z
" transform="scale(0.015625)"/>
      <path id="DejaVuSans-21" d="M 678 3150 
L 678 3719 
L 4684 2266 
L 4684 1747 
L 678 294 
L 678 863 
L 3897 2003 
L 678 3150 
z
" transform="scale(0.015625)"/>
      <path id="DejaVuSans-25" d="M 1259 2228 
L 1259 519 
L 2272 519 
Q 2781 519 3026 730 
Q 3272 941 3272 1375 
Q 3272 1813 3026 2020 
Q 2781 2228 2272 2228 
L 1259 2228 
z
M 1259 4147 
L 1259 2741 
L 2194 2741 
Q 2656 2741 2882 2914 
Q 3109 3088 3109 3444 
Q 3109 3797 2882 3972 
Q 2656 4147 2194 4147 
L 1259 4147 
z
M 628 4666 
L 2241 4666 
Q 2963 4666 3353 4366 
Q 3744 4066 3744 3513 
Q 3744 3084 3544 2831 
Q 3344 2578 2956 2516 
Q 3422 2416 3680 2098 
Q 3938 1781 3938 1306 
Q 3938 681 3513 340 
Q 3088 0 2303 0 
L 628 0 
L 628 4666 
z
" transform="scale(0.015625)"/>
     </defs>
     <use xlink:href="#DejaVuSans-19"/>
     <use xlink:href="#DejaVuSans-17" transform="translate(63.625 0)"/>
     <use xlink:href="#DejaVuSans-3" transform="translate(127.25 0)"/>
     <use xlink:href="#DejaVuSans-56" transform="translate(159.03125 0)"/>
     <use xlink:href="#DejaVuSans-58" transform="translate(211.125 0)"/>
     <use xlink:href="#DejaVuSans-55" transform="translate(274.5 0)"/>
     <use xlink:href="#DejaVuSans-59" transform="translate(315.609375 0)"/>
     <use xlink:href="#DejaVuSans-4c" transform="translate(374.796875 0)"/>
     <use xlink:href="#DejaVuSans-59" transform="translate(402.578125 0)"/>
     <use xlink:href="#DejaVuSans-52" transform="translate(461.765625 0)"/>
     <use xlink:href="#DejaVuSans-55" transform="translate(522.953125 0)"/>
     <use xlink:href="#DejaVuSans-56" transform="translate(564.0625 0)"/>
     <use xlink:href="#DejaVuSans-3" transform="translate(616.15625 0)"/>
     <use xlink:href="#DejaVuSans-10" transform="translate(647.9375 0)"/>
     <use xlink:href="#DejaVuSans-21" transform="translate(684.015625 0)"/>
     <use xlink:href="#DejaVuSans-3" transform="translate(767.8125 0)"/>
     <use xlink:href="#DejaVuSans-56" transform="translate(799.59375 0)"/>
     <use xlink:href="#DejaVuSans-57" transform="translate(851.6875 0)"/>
     <use xlink:href="#DejaVuSans-44" transform="translate(890.890625 0)"/>
     <use xlink:href="#DejaVuSans-4a" transform="translate(952.171875 0)"/>
     <use xlink:href="#DejaVuSans-48" transform="translate(1015.65625 0)"/>
     <use xlink:href="#DejaVuSans-3" transform="translate(1077.1875 0)"/>
     <use xlink:href="#DejaVuSans-25" transform="translate(1108.96875 0)"/>
    </g>
   </g>
   <g id="text_15">
    <!-- the loss landscape, sampled by brute force -->
    <g style="fill: #d6dbe1" transform="translate(152.096719 14.798437) scale(0.1 -0.1)">
     <defs>
      <path id="DejaVuSans-4b" d="M 3513 2113 
L 3513 0 
L 2938 0 
L 2938 2094 
Q 2938 2591 2744 2837 
Q 2550 3084 2163 3084 
Q 1697 3084 1428 2787 
Q 1159 2491 1159 1978 
L 1159 0 
L 581 0 
L 581 4863 
L 1159 4863 
L 1159 2956 
Q 1366 3272 1645 3428 
Q 1925 3584 2291 3584 
Q 2894 3584 3203 3211 
Q 3513 2838 3513 2113 
z
" transform="scale(0.015625)"/>
      <path id="DejaVuSans-f" d="M 750 794 
L 1409 794 
L 1409 256 
L 897 -744 
L 494 -744 
L 750 256 
L 750 794 
z
" transform="scale(0.015625)"/>
      <path id="DejaVuSans-50" d="M 3328 2828 
Q 3544 3216 3844 3400 
Q 4144 3584 4550 3584 
Q 5097 3584 5394 3201 
Q 5691 2819 5691 2113 
L 5691 0 
L 5113 0 
L 5113 2094 
Q 5113 2597 4934 2840 
Q 4756 3084 4391 3084 
Q 3944 3084 3684 2787 
Q 3425 2491 3425 1978 
L 3425 0 
L 2847 0 
L 2847 2094 
Q 2847 2600 2669 2842 
Q 2491 3084 2119 3084 
Q 1678 3084 1418 2786 
Q 1159 2488 1159 1978 
L 1159 0 
L 581 0 
L 581 3500 
L 1159 3500 
L 1159 2956 
Q 1356 3278 1631 3431 
Q 1906 3584 2284 3584 
Q 2666 3584 2933 3390 
Q 3200 3197 3328 2828 
z
" transform="scale(0.015625)"/>
      <path id="DejaVuSans-45" d="M 3116 1747 
Q 3116 2381 2855 2742 
Q 2594 3103 2138 3103 
Q 1681 3103 1420 2742 
Q 1159 2381 1159 1747 
Q 1159 1113 1420 752 
Q 1681 391 2138 391 
Q 2594 391 2855 752 
Q 3116 1113 3116 1747 
z
M 1159 2969 
Q 1341 3281 1617 3432 
Q 1894 3584 2278 3584 
Q 2916 3584 3314 3078 
Q 3713 2572 3713 1747 
Q 3713 922 3314 415 
Q 2916 -91 2278 -91 
Q 1894 -91 1617 61 
Q 1341 213 1159 525 
L 1159 0 
L 581 0 
L 581 4863 
L 1159 4863 
L 1159 2969 
z
" transform="scale(0.015625)"/>
      <path id="DejaVuSans-5c" d="M 2059 -325 
Q 1816 -950 1584 -1140 
Q 1353 -1331 966 -1331 
L 506 -1331 
L 506 -850 
L 844 -850 
Q 1081 -850 1212 -737 
Q 1344 -625 1503 -206 
L 1606 56 
L 191 3500 
L 800 3500 
L 1894 763 
L 2988 3500 
L 3597 3500 
L 2059 -325 
z
" transform="scale(0.015625)"/>
     </defs>
     <use xlink:href="#DejaVuSans-57"/>
     <use xlink:href="#DejaVuSans-4b" transform="translate(39.203125 0)"/>
     <use xlink:href="#DejaVuSans-48" transform="translate(102.578125 0)"/>
     <use xlink:href="#DejaVuSans-3" transform="translate(164.109375 0)"/>
     <use xlink:href="#DejaVuSans-4f" transform="translate(195.890625 0)"/>
     <use xlink:href="#DejaVuSans-52" transform="translate(223.671875 0)"/>
     <use xlink:href="#DejaVuSans-56" transform="translate(284.859375 0)"/>
     <use xlink:href="#DejaVuSans-56" transform="translate(336.953125 0)"/>
     <use xlink:href="#DejaVuSans-3" transform="translate(389.046875 0)"/>
     <use xlink:href="#DejaVuSans-4f" transform="translate(420.828125 0)"/>
     <use xlink:href="#DejaVuSans-44" transform="translate(448.609375 0)"/>
     <use xlink:href="#DejaVuSans-51" transform="translate(509.890625 0)"/>
     <use xlink:href="#DejaVuSans-47" transform="translate(573.265625 0)"/>
     <use xlink:href="#DejaVuSans-56" transform="translate(636.75 0)"/>
     <use xlink:href="#DejaVuSans-46" transform="translate(688.84375 0)"/>
     <use xlink:href="#DejaVuSans-44" transform="translate(743.828125 0)"/>
     <use xlink:href="#DejaVuSans-53" transform="translate(805.109375 0)"/>
     <use xlink:href="#DejaVuSans-48" transform="translate(868.59375 0)"/>
     <use xlink:href="#DejaVuSans-f" transform="translate(930.125 0)"/>
     <use xlink:href="#DejaVuSans-3" transform="translate(961.90625 0)"/>
     <use xlink:href="#DejaVuSans-56" transform="translate(993.6875 0)"/>
     <use xlink:href="#DejaVuSans-44" transform="translate(1045.78125 0)"/>
     <use xlink:href="#DejaVuSans-50" transform="translate(1107.0625 0)"/>
     <use xlink:href="#DejaVuSans-53" transform="translate(1204.46875 0)"/>
     <use xlink:href="#DejaVuSans-4f" transform="translate(1267.953125 0)"/>
     <use xlink:href="#DejaVuSans-48" transform="translate(1295.734375 0)"/>
     <use xlink:href="#DejaVuSans-47" transform="translate(1357.265625 0)"/>
     <use xlink:href="#DejaVuSans-3" transform="translate(1420.75 0)"/>
     <use xlink:href="#DejaVuSans-45" transform="translate(1452.53125 0)"/>
     <use xlink:href="#DejaVuSans-5c" transform="translate(1516.015625 0)"/>
     <use xlink:href="#DejaVuSans-3" transform="translate(1575.203125 0)"/>
     <use xlink:href="#DejaVuSans-45" transform="translate(1606.984375 0)"/>
     <use xlink:href="#DejaVuSans-55" transform="translate(1670.46875 0)"/>
     <use xlink:href="#DejaVuSans-58" transform="translate(1711.578125 0)"/>
     <use xlink:href="#DejaVuSans-57" transform="translate(1774.953125 0)"/>
     <use xlink:href="#DejaVuSans-48" transform="translate(1814.15625 0)"/>
     <use xlink:href="#DejaVuSans-3" transform="translate(1875.6875 0)"/>
     <use xlink:href="#DejaVuSans-49" transform="translate(1907.46875 0)"/>
     <use xlink:href="#DejaVuSans-52" transform="translate(1942.671875 0)"/>
     <use xlink:href="#DejaVuSans-55" transform="translate(2003.859375 0)"/>
     <use xlink:href="#DejaVuSans-46" transform="translate(2042.765625 0)"/>
     <use xlink:href="#DejaVuSans-48" transform="translate(2097.75 0)"/>
    </g>
   </g>
  </g>
 </g>
 <defs>
  <clipPath id="pae44634839">
   <rect x="59.180781" y="20.798437" width="401.76" height="188.496"/>
  </clipPath>
 </defs>
</svg>
