<?xml version="1.0" encoding="utf-8" standalone="no"?>
<!DOCTYPE svg PUBLIC "-//W3C//DTD SVG 1.1//EN"
  "http://www.w3.org/Graphics/SVG/1.1/DTD/svg11.dtd">
<svg xmlns:xlink="http://www.w3.org/1999/xlink" width="453pt" height="281.381328pt" viewBox="0 0 453 281.381328" xmlns="http://www.w3.org/2000/svg" version="1.1">
 <metadata>
  <rdf:RDF xmlns:dc="http://purl.org/dc/elements/1.1/" xmlns:cc="http://creativecommons.org/ns#" xmlns:rdf="http://www.w3.org/1999/02/22-rdf-syntax-ns#">
   <cc:Work>
    <dc:type rdf:resource="http://purl.org/dc/dcmitype/StillImage"/>
    <dc:date>2026-07-03T07:34:09.650090</dc:date>
    <dc:format>image/svg+xml</dc:format>
    <dc:creator>
     <cc:Agent>
      <dc:title>Matplotlib v3.11.0, https://matplotlib.org/</dc:title>
     </cc:Agent>
    </dc:creator>
   </cc:Work>
  </rdf:RDF>
 </metadata>
 <defs>
  <style type="text/css">*{stroke-linejoin: round; stroke-linecap: butt}</style>
 </defs>
 <g id="figure_1">
  <g id="patch_1">
   <path d="M 0 281.381328 
L 453 281.381328 
L 453 0 
L 0 0 
L 0 281.381328 
z
" style="fill: none"/>
  </g>
  <g id="axes_1">
   <g id="patch_2">
    <path d="M 44.04 242.558437 
L 445.8 242.558437 
L 445.8 20.798437 
L 44.04 20.798437 
L 44.04 242.558437 
z
" style="fill: none"/>
   </g>
   <g id="matplotlib.axis_1">
    <g id="xtick_1">
     <g id="line2d_1">
      <path d="M 143.372576 242.558437 
L 143.372576 20.798437 
" clip-path="url(#p3aa2b294fb)" style="fill: none; stroke: #262b35; stroke-width: 0.6; stroke-linecap: square"/>
     </g>
     <g id="line2d_2">
      <defs>
       <path id="md6d00d3ad3" d="M 0 0 
L 0 3.5 
" style="stroke: #7d8593; stroke-width: 0.8"/>
      </defs>
      <g>
       <use xlink:href="#md6d00d3ad3" x="143.372576" y="242.558437" style="fill: #7d8593; stroke: #7d8593; stroke-width: 0.8"/>
      </g>
     </g>
     <g id="text_1">
      <!-- $\mathdefault{10^{3}}$ -->
      <g style="fill: #7d8593" transform="translate(135.452576 258.018438) scale(0.09 -0.09)">
       <defs>
        <path id="DejaVuSans-14" d="M 794 531 
L 1825 531 
L 1825 4091 
L 703 3866 
L 703 4441 
L 1819 4666 
L 2450 4666 
L 2450 531 
L 3481 531 
L 3481 0 
L 794 0 
L 794 531 
z
" transform="scale(0.015625)"/>
        <path id="DejaVuSans-13" d="M 2034 4250 
Q 1547 4250 1301 3770 
Q 1056 3291 1056 2328 
Q 1056 1369 1301 889 
Q 1547 409 2034 409 
Q 2525 409 2770 889 
Q 3016 1369 3016 2328 
Q 3016 3291 2770 3770 
Q 2525 4250 2034 4250 
z
M 2034 4750 
Q 2819 4750 3233 4129 
Q 3647 3509 3647 2328 
Q 3647 1150 3233 529 
Q 2819 -91 2034 -91 
Q 1250 -91 836 529 
Q 422 1150 422 2328 
Q 422 3509 836 4129 
Q 1250 4750 2034 4750 
z
" transform="scale(0.015625)"/>
        <path id="DejaVuSans-16" d="M 2597 2516 
Q 3050 2419 3304 2112 
Q 3559 1806 3559 1356 
Q 3559 666 3084 287 
Q 2609 -91 1734 -91 
Q 1441 -91 1130 -33 
Q 819 25 488 141 
L 488 750 
Q 750 597 1062 519 
Q 1375 441 1716 441 
Q 2309 441 2620 675 
Q 2931 909 2931 1356 
Q 2931 1769 2642 2001 
Q 2353 2234 1838 2234 
L 1294 2234 
L 1294 2753 
L 1863 2753 
Q 2328 2753 2575 2939 
Q 2822 3125 2822 3475 
Q 2822 3834 2567 4026 
Q 2313 4219 1838 4219 
Q 1578 4219 1281 4162 
Q 984 4106 628 3988 
L 628 4550 
Q 988 4650 1302 4700 
Q 1616 4750 1894 4750 
Q 2613 4750 3031 4423 
Q 3450 4097 3450 3541 
Q 3450 3153 3228 2886 
Q 3006 2619 2597 2516 
z
" transform="scale(0.015625)"/>
       </defs>
       <use xlink:href="#DejaVuSans-14" transform="translate(0 0.746875)"/>
       <use xlink:href="#DejaVuSans-13" transform="translate(63.623047 0.746875)"/>
       <use xlink:href="#DejaVuSans-16" transform="translate(128.203125 42.046875) scale(0.7)"/>
      </g>
     </g>
    </g>
    <g id="xtick_2">
     <g id="line2d_3">
      <path d="M 370.479373 242.558437 
L 370.479373 20.798437 
" clip-path="url(#p3aa2b294fb)" style="fill: none; stroke: #262b35; stroke-width: 0.6; stroke-linecap: square"/>
     </g>
     <g id="line2d_4">
      <g>
       <use xlink:href="#md6d00d3ad3" x="370.479373" y="242.558437" style="fill: #7d8593; stroke: #7d8593; stroke-width: 0.8"/>
      </g>
     </g>
     <g id="text_2">
      <!-- $\mathdefault{10^{4}}$ -->
      <g style="fill: #7d8593" transform="translate(362.559373 257.928437) scale(0.09 -0.09)">
       <defs>
        <path id="DejaVuSans-17" d="M 2419 4116 
L 825 1625 
L 2419 1625 
L 2419 4116 
z
M 2253 4666 
L 3047 4666 
L 3047 1625 
L 3713 1625 
L 3713 1100 
L 3047 1100 
L 3047 0 
L 2419 0 
L 2419 1100 
L 313 1100 
L 313 1709 
L 2253 4666 
z
" transform="scale(0.015625)"/>
       </defs>
       <use xlink:href="#DejaVuSans-14" transform="translate(0 0.665625)"/>
       <use xlink:href="#DejaVuSans-13" transform="translate(63.623047 0.665625)"/>
       <use xlink:href="#DejaVuSans-17" transform="translate(128.203125 41.965625) scale(0.7)"/>
      </g>
     </g>
    </g>
    <g id="xtick_3">
     <g id="line2d_5">
      <defs>
       <path id="mbc5d026197" d="M 0 0 
L 0 2 
" style="stroke: #7d8593; stroke-width: 0.6"/>
      </defs>
      <g>
       <use xlink:href="#mbc5d026197" x="52.997695" y="242.558437" style="fill: #7d8593; stroke: #7d8593; stroke-width: 0.6"/>
      </g>
     </g>
    </g>
    <g id="xtick_4">
     <g id="line2d_6">
      <g>
       <use xlink:href="#mbc5d026197" x="75.006617" y="242.558437" style="fill: #7d8593; stroke: #7d8593; stroke-width: 0.6"/>
      </g>
     </g>
    </g>
    <g id="xtick_5">
     <g id="line2d_7">
      <g>
       <use xlink:href="#mbc5d026197" x="92.989217" y="242.558437" style="fill: #7d8593; stroke: #7d8593; stroke-width: 0.6"/>
      </g>
     </g>
    </g>
    <g id="xtick_6">
     <g id="line2d_8">
      <g>
       <use xlink:href="#mbc5d026197" x="108.193288" y="242.558437" style="fill: #7d8593; stroke: #7d8593; stroke-width: 0.6"/>
      </g>
     </g>
    </g>
    <g id="xtick_7">
     <g id="line2d_9">
      <g>
       <use xlink:href="#mbc5d026197" x="121.363653" y="242.558437" style="fill: #7d8593; stroke: #7d8593; stroke-width: 0.6"/>
      </g>
     </g>
    </g>
    <g id="xtick_8">
     <g id="line2d_10">
      <g>
       <use xlink:href="#mbc5d026197" x="132.980739" y="242.558437" style="fill: #7d8593; stroke: #7d8593; stroke-width: 0.6"/>
      </g>
     </g>
    </g>
    <g id="xtick_9">
     <g id="line2d_11">
      <g>
       <use xlink:href="#mbc5d026197" x="211.738534" y="242.558437" style="fill: #7d8593; stroke: #7d8593; stroke-width: 0.6"/>
      </g>
     </g>
    </g>
    <g id="xtick_10">
     <g id="line2d_12">
      <g>
       <use xlink:href="#mbc5d026197" x="251.730056" y="242.558437" style="fill: #7d8593; stroke: #7d8593; stroke-width: 0.6"/>
      </g>
     </g>
    </g>
    <g id="xtick_11">
     <g id="line2d_13">
      <g>
       <use xlink:href="#mbc5d026197" x="280.104492" y="242.558437" style="fill: #7d8593; stroke: #7d8593; stroke-width: 0.6"/>
      </g>
     </g>
    </g>
    <g id="xtick_12">
     <g id="line2d_14">
      <g>
       <use xlink:href="#mbc5d026197" x="302.113415" y="242.558437" style="fill: #7d8593; stroke: #7d8593; stroke-width: 0.6"/>
      </g>
     </g>
    </g>
    <g id="xtick_13">
     <g id="line2d_15">
      <g>
       <use xlink:href="#mbc5d026197" x="320.096014" y="242.558437" style="fill: #7d8593; stroke: #7d8593; stroke-width: 0.6"/>
      </g>
     </g>
    </g>
    <g id="xtick_14">
     <g id="line2d_16">
      <g>
       <use xlink:href="#mbc5d026197" x="335.300085" y="242.558437" style="fill: #7d8593; stroke: #7d8593; stroke-width: 0.6"/>
      </g>
     </g>
    </g>
    <g id="xtick_15">
     <g id="line2d_17">
      <g>
       <use xlink:href="#mbc5d026197" x="348.470451" y="242.558437" style="fill: #7d8593; stroke: #7d8593; stroke-width: 0.6"/>
      </g>
     </g>
    </g>
    <g id="xtick_16">
     <g id="line2d_18">
      <g>
       <use xlink:href="#mbc5d026197" x="360.087536" y="242.558437" style="fill: #7d8593; stroke: #7d8593; stroke-width: 0.6"/>
      </g>
     </g>
    </g>
    <g id="xtick_17">
     <g id="line2d_19">
      <g>
       <use xlink:href="#mbc5d026197" x="438.845332" y="242.558437" style="fill: #7d8593; stroke: #7d8593; stroke-width: 0.6"/>
      </g>
     </g>
    </g>
    <g id="text_3">
     <!-- mode frequency (Hz) -->
     <g style="fill: #969ba6" transform="translate(192.196563 271.778984) scale(0.1 -0.1)">
      <defs>
       <path id="DejaVuSans-50" d="M 3328 2828 
Q 3544 3216 3844 3400 
Q 4144 3584 4550 3584 
Q 5097 3584 5394 3201 
Q 5691 2819 5691 2113 
L 5691 0 
L 5113 0 
L 5113 2094 
Q 5113 2597 4934 2840 
Q 4756 3084 4391 3084 
Q 3944 3084 3684 2787 
Q 3425 2491 3425 1978 
L 3425 0 
L 2847 0 
L 2847 2094 
Q 2847 2600 2669 2842 
Q 2491 3084 2119 3084 
Q 1678 3084 1418 2786 
Q 1159 2488 1159 1978 
L 1159 0 
L 581 0 
L 581 3500 
L 1159 3500 
L 1159 2956 
Q 1356 3278 1631 3431 
Q 1906 3584 2284 3584 
Q 2666 3584 2933 3390 
Q 3200 3197 3328 2828 
z
" transform="scale(0.015625)"/>
       <path id="DejaVuSans-52" d="M 1959 3097 
Q 1497 3097 1228 2736 
Q 959 2375 959 1747 
Q 959 1119 1226 758 
Q 1494 397 1959 397 
Q 2419 397 2687 759 
Q 2956 1122 2956 1747 
Q 2956 2369 2687 2733 
Q 2419 3097 1959 3097 
z
M 1959 3584 
Q 2709 3584 3137 3096 
Q 3566 2609 3566 1747 
Q 3566 888 3137 398 
Q 2709 -91 1959 -91 
Q 1206 -91 779 398 
Q 353 888 353 1747 
Q 353 2609 779 3096 
Q 1206 3584 1959 3584 
z
" transform="scale(0.015625)"/>
       <path id="DejaVuSans-47" d="M 2906 2969 
L 2906 4863 
L 3481 4863 
L 3481 0 
L 2906 0 
L 2906 525 
Q 2725 213 2448 61 
Q 2172 -91 1784 -91 
Q 1150 -91 751 415 
Q 353 922 353 1747 
Q 353 2572 751 3078 
Q 1150 3584 1784 3584 
Q 2172 3584 2448 3432 
Q 2725 3281 2906 2969 
z
M 947 1747 
Q 947 1113 1208 752 
Q 1469 391 1925 391 
Q 2381 391 2643 752 
Q 2906 1113 2906 1747 
Q 2906 2381 2643 2742 
Q 2381 3103 1925 3103 
Q 1469 3103 1208 2742 
Q 947 2381 947 1747 
z
" transform="scale(0.015625)"/>
       <path id="DejaVuSans-48" d="M 3597 1894 
L 3597 1613 
L 953 1613 
Q 991 1019 1311 708 
Q 1631 397 2203 397 
Q 2534 397 2845 478 
Q 3156 559 3463 722 
L 3463 178 
Q 3153 47 2828 -22 
Q 2503 -91 2169 -91 
Q 1331 -91 842 396 
Q 353 884 353 1716 
Q 353 2575 817 3079 
Q 1281 3584 2069 3584 
Q 2775 3584 3186 3129 
Q 3597 2675 3597 1894 
z
M 3022 2063 
Q 3016 2534 2758 2815 
Q 2500 3097 2075 3097 
Q 1594 3097 1305 2825 
Q 1016 2553 972 2059 
L 3022 2063 
z
" transform="scale(0.015625)"/>
       <path id="DejaVuSans-3" transform="scale(0.015625)"/>
       <path id="DejaVuSans-49" d="M 2375 4863 
L 2375 4384 
L 1825 4384 
Q 1516 4384 1395 4259 
Q 1275 4134 1275 3809 
L 1275 3500 
L 2222 3500 
L 2222 3053 
L 1275 3053 
L 1275 0 
L 697 0 
L 697 3053 
L 147 3053 
L 147 3500 
L 697 3500 
L 697 3744 
Q 697 4328 969 4595 
Q 1241 4863 1831 4863 
L 2375 4863 
z
" transform="scale(0.015625)"/>
       <path id="DejaVuSans-55" d="M 2631 2963 
Q 2534 3019 2420 3045 
Q 2306 3072 2169 3072 
Q 1681 3072 1420 2755 
Q 1159 2438 1159 1844 
L 1159 0 
L 581 0 
L 581 3500 
L 1159 3500 
L 1159 2956 
Q 1341 3275 1631 3429 
Q 1922 3584 2338 3584 
Q 2397 3584 2469 3576 
Q 2541 3569 2628 3553 
L 2631 2963 
z
" transform="scale(0.015625)"/>
       <path id="DejaVuSans-54" d="M 947 1747 
Q 947 1113 1208 752 
Q 1469 391 1925 391 
Q 2381 391 2643 752 
Q 2906 1113 2906 1747 
Q 2906 2381 2643 2742 
Q 2381 3103 1925 3103 
Q 1469 3103 1208 2742 
Q 947 2381 947 1747 
z
M 2906 525 
Q 2725 213 2448 61 
Q 2172 -91 1784 -91 
Q 1150 -91 751 415 
Q 353 922 353 1747 
Q 353 2572 751 3078 
Q 1150 3584 1784 3584 
Q 2172 3584 2448 3432 
Q 2725 3281 2906 2969 
L 2906 3500 
L 3481 3500 
L 3481 -1331 
L 2906 -1331 
L 2906 525 
z
" transform="scale(0.015625)"/>
       <path id="DejaVuSans-58" d="M 544 1381 
L 544 3500 
L 1119 3500 
L 1119 1403 
Q 1119 906 1312 657 
Q 1506 409 1894 409 
Q 2359 409 2629 706 
Q 2900 1003 2900 1516 
L 2900 3500 
L 3475 3500 
L 3475 0 
L 2900 0 
L 2900 538 
Q 2691 219 2414 64 
Q 2138 -91 1772 -91 
Q 1169 -91 856 284 
Q 544 659 544 1381 
z
M 1991 3584 
L 1991 3584 
z
" transform="scale(0.015625)"/>
       <path id="DejaVuSans-51" d="M 3513 2113 
L 3513 0 
L 2938 0 
L 2938 2094 
Q 2938 2591 2744 2837 
Q 2550 3084 2163 3084 
Q 1697 3084 1428 2787 
Q 1159 2491 1159 1978 
L 1159 0 
L 581 0 
L 581 3500 
L 1159 3500 
L 1159 2956 
Q 1366 3272 1645 3428 
Q 1925 3584 2291 3584 
Q 2894 3584 3203 3211 
Q 3513 2838 3513 2113 
z
" transform="scale(0.015625)"/>
       <path id="DejaVuSans-46" d="M 3122 3366 
L 3122 2828 
Q 2878 2963 2633 3030 
Q 2388 3097 2138 3097 
Q 1578 3097 1268 2742 
Q 959 2388 959 1747 
Q 959 1106 1268 751 
Q 1578 397 2138 397 
Q 2388 397 2633 464 
Q 2878 531 3122 666 
L 3122 134 
Q 2881 22 2623 -34 
Q 2366 -91 2075 -91 
Q 1284 -91 818 406 
Q 353 903 353 1747 
Q 353 2603 823 3093 
Q 1294 3584 2113 3584 
Q 2378 3584 2631 3529 
Q 2884 3475 3122 3366 
z
" transform="scale(0.015625)"/>
       <path id="DejaVuSans-5c" d="M 2059 -325 
Q 1816 -950 1584 -1140 
Q 1353 -1331 966 -1331 
L 506 -1331 
L 506 -850 
L 844 -850 
Q 1081 -850 1212 -737 
Q 1344 -625 1503 -206 
L 1606 56 
L 191 3500 
L 800 3500 
L 1894 763 
L 2988 3500 
L 3597 3500 
L 2059 -325 
z
" transform="scale(0.015625)"/>
       <path id="DejaVuSans-b" d="M 1984 4856 
Q 1566 4138 1362 3434 
Q 1159 2731 1159 2009 
Q 1159 1288 1364 580 
Q 1569 -128 1984 -844 
L 1484 -844 
Q 1016 -109 783 600 
Q 550 1309 550 2009 
Q 550 2706 781 3412 
Q 1013 4119 1484 4856 
L 1984 4856 
z
" transform="scale(0.015625)"/>
       <path id="DejaVuSans-2b" d="M 628 4666 
L 1259 4666 
L 1259 2753 
L 3553 2753 
L 3553 4666 
L 4184 4666 
L 4184 0 
L 3553 0 
L 3553 2222 
L 1259 2222 
L 1259 0 
L 628 0 
L 628 4666 
z
" transform="scale(0.015625)"/>
       <path id="DejaVuSans-5d" d="M 353 3500 
L 3084 3500 
L 3084 2975 
L 922 459 
L 3084 459 
L 3084 0 
L 275 0 
L 275 525 
L 2438 3041 
L 353 3041 
L 353 3500 
z
" transform="scale(0.015625)"/>
       <path id="DejaVuSans-c" d="M 513 4856 
L 1013 4856 
Q 1481 4119 1714 3412 
Q 1947 2706 1947 2009 
Q 1947 1309 1714 600 
Q 1481 -109 1013 -844 
L 513 -844 
Q 928 -128 1133 580 
Q 1338 1288 1338 2009 
Q 1338 2731 1133 3434 
Q 928 4138 513 4856 
z
" transform="scale(0.015625)"/>
      </defs>
      <use xlink:href="#DejaVuSans-50"/>
      <use xlink:href="#DejaVuSans-52" transform="translate(97.40625 0)"/>
      <use xlink:href="#DejaVuSans-47" transform="translate(158.59375 0)"/>
      <use xlink:href="#DejaVuSans-48" transform="translate(222.078125 0)"/>
      <use xlink:href="#DejaVuSans-3" transform="translate(283.609375 0)"/>
      <use xlink:href="#DejaVuSans-49" transform="translate(315.390625 0)"/>
      <use xlink:href="#DejaVuSans-55" transform="translate(350.59375 0)"/>
      <use xlink:href="#DejaVuSans-48" transform="translate(389.5 0)"/>
      <use xlink:href="#DejaVuSans-54" transform="translate(451.03125 0)"/>
      <use xlink:href="#DejaVuSans-58" transform="translate(514.515625 0)"/>
      <use xlink:href="#DejaVuSans-48" transform="translate(577.890625 0)"/>
      <use xlink:href="#DejaVuSans-51" transform="translate(639.421875 0)"/>
      <use xlink:href="#DejaVuSans-46" transform="translate(702.796875 0)"/>
      <use xlink:href="#DejaVuSans-5c" transform="translate(757.78125 0)"/>
      <use xlink:href="#DejaVuSans-3" transform="translate(816.96875 0)"/>
      <use xlink:href="#DejaVuSans-b" transform="translate(848.75 0)"/>
      <use xlink:href="#DejaVuSans-2b" transform="translate(887.765625 0)"/>
      <use xlink:href="#DejaVuSans-5d" transform="translate(962.96875 0)"/>
      <use xlink:href="#DejaVuSans-c" transform="translate(1015.453125 0)"/>
     </g>
    </g>
   </g>
   <g id="matplotlib.axis_2">
    <g id="ytick_1">
     <g id="line2d_20">
      <path d="M 44.04 150.126039 
L 445.8 150.126039 
" clip-path="url(#p3aa2b294fb)" style="fill: none; stroke: #262b35; stroke-width: 0.6; stroke-linecap: square"/>
     </g>
     <g id="line2d_21">
      <defs>
       <path id="m805602bdcf" d="M 0 0 
L -3.5 0 
" style="stroke: #7d8593; stroke-width: 0.8"/>
      </defs>
      <g>
       <use xlink:href="#m805602bdcf" x="44.04" y="150.126039" style="fill: #7d8593; stroke: #7d8593; stroke-width: 0.8"/>
      </g>
     </g>
     <g id="text_4">
      <!-- $\mathdefault{10^{0}}$ -->
      <g style="fill: #7d8593" transform="translate(21.2 154.356039) scale(0.09 -0.09)">
       <use xlink:href="#DejaVuSans-14" transform="translate(0 0.746875)"/>
       <use xlink:href="#DejaVuSans-13" transform="translate(63.623047 0.746875)"/>
       <use xlink:href="#DejaVuSans-13" transform="translate(128.203125 42.046875) scale(0.7)"/>
      </g>
     </g>
    </g>
    <g id="ytick_2">
     <g id="line2d_22">
      <path d="M 44.04 32.306392 
L 445.8 32.306392 
" clip-path="url(#p3aa2b294fb)" style="fill: none; stroke: #262b35; stroke-width: 0.6; stroke-linecap: square"/>
     </g>
     <g id="line2d_23">
      <g>
       <use xlink:href="#m805602bdcf" x="44.04" y="32.306392" style="fill: #7d8593; stroke: #7d8593; stroke-width: 0.8"/>
      </g>
     </g>
     <g id="text_5">
      <!-- $\mathdefault{10^{1}}$ -->
      <g style="fill: #7d8593" transform="translate(21.2 36.491392) scale(0.09 -0.09)">
       <use xlink:href="#DejaVuSans-14" transform="translate(0 0.665625)"/>
       <use xlink:href="#DejaVuSans-13" transform="translate(63.623047 0.665625)"/>
       <use xlink:href="#DejaVuSans-14" transform="translate(128.203125 41.965625) scale(0.7)"/>
      </g>
     </g>
    </g>
    <g id="ytick_3">
     <g id="line2d_24">
      <defs>
       <path id="m47b185e646" d="M 0 0 
L -2 0 
" style="stroke: #7d8593; stroke-width: 0.6"/>
      </defs>
      <g>
       <use xlink:href="#m47b185e646" x="44.04" y="232.478437" style="fill: #7d8593; stroke: #7d8593; stroke-width: 0.6"/>
      </g>
     </g>
    </g>
    <g id="ytick_4">
     <g id="line2d_25">
      <g>
       <use xlink:href="#m47b185e646" x="44.04" y="211.731428" style="fill: #7d8593; stroke: #7d8593; stroke-width: 0.6"/>
      </g>
     </g>
    </g>
    <g id="ytick_5">
     <g id="line2d_26">
      <g>
       <use xlink:href="#m47b185e646" x="44.04" y="197.01119" style="fill: #7d8593; stroke: #7d8593; stroke-width: 0.6"/>
      </g>
     </g>
    </g>
    <g id="ytick_6">
     <g id="line2d_27">
      <g>
       <use xlink:href="#m47b185e646" x="44.04" y="185.593286" style="fill: #7d8593; stroke: #7d8593; stroke-width: 0.6"/>
      </g>
     </g>
    </g>
    <g id="ytick_7">
     <g id="line2d_28">
      <g>
       <use xlink:href="#m47b185e646" x="44.04" y="176.26418" style="fill: #7d8593; stroke: #7d8593; stroke-width: 0.6"/>
      </g>
     </g>
    </g>
    <g id="ytick_8">
     <g id="line2d_29">
      <g>
       <use xlink:href="#m47b185e646" x="44.04" y="168.376533" style="fill: #7d8593; stroke: #7d8593; stroke-width: 0.6"/>
      </g>
     </g>
    </g>
    <g id="ytick_9">
     <g id="line2d_30">
      <g>
       <use xlink:href="#m47b185e646" x="44.04" y="161.543942" style="fill: #7d8593; stroke: #7d8593; stroke-width: 0.6"/>
      </g>
     </g>
    </g>
    <g id="ytick_10">
     <g id="line2d_31">
      <g>
       <use xlink:href="#m47b185e646" x="44.04" y="155.51717" style="fill: #7d8593; stroke: #7d8593; stroke-width: 0.6"/>
      </g>
     </g>
    </g>
    <g id="ytick_11">
     <g id="line2d_32">
      <g>
       <use xlink:href="#m47b185e646" x="44.04" y="114.658791" style="fill: #7d8593; stroke: #7d8593; stroke-width: 0.6"/>
      </g>
     </g>
    </g>
    <g id="ytick_12">
     <g id="line2d_33">
      <g>
       <use xlink:href="#m47b185e646" x="44.04" y="93.911781" style="fill: #7d8593; stroke: #7d8593; stroke-width: 0.6"/>
      </g>
     </g>
    </g>
    <g id="ytick_13">
     <g id="line2d_34">
      <g>
       <use xlink:href="#m47b185e646" x="44.04" y="79.191543" style="fill: #7d8593; stroke: #7d8593; stroke-width: 0.6"/>
      </g>
     </g>
    </g>
    <g id="ytick_14">
     <g id="line2d_35">
      <g>
       <use xlink:href="#m47b185e646" x="44.04" y="67.77364" style="fill: #7d8593; stroke: #7d8593; stroke-width: 0.6"/>
      </g>
     </g>
    </g>
    <g id="ytick_15">
     <g id="line2d_36">
      <g>
       <use xlink:href="#m47b185e646" x="44.04" y="58.444534" style="fill: #7d8593; stroke: #7d8593; stroke-width: 0.6"/>
      </g>
     </g>
    </g>
    <g id="ytick_16">
     <g id="line2d_37">
      <g>
       <use xlink:href="#m47b185e646" x="44.04" y="50.556886" style="fill: #7d8593; stroke: #7d8593; stroke-width: 0.6"/>
      </g>
     </g>
    </g>
    <g id="ytick_17">
     <g id="line2d_38">
      <g>
       <use xlink:href="#m47b185e646" x="44.04" y="43.724296" style="fill: #7d8593; stroke: #7d8593; stroke-width: 0.6"/>
      </g>
     </g>
    </g>
    <g id="ytick_18">
     <g id="line2d_39">
      <g>
       <use xlink:href="#m47b185e646" x="44.04" y="37.697524" style="fill: #7d8593; stroke: #7d8593; stroke-width: 0.6"/>
      </g>
     </g>
    </g>
    <g id="text_6">
     <!-- T60 (s) -->
     <g style="fill: #969ba6" transform="translate(14.797656 149.190156) rotate(-90) scale(0.1 -0.1)">
      <defs>
       <path id="DejaVuSans-37" d="M -19 4666 
L 3928 4666 
L 3928 4134 
L 2272 4134 
L 2272 0 
L 1638 0 
L 1638 4134 
L -19 4134 
L -19 4666 
z
" transform="scale(0.015625)"/>
       <path id="DejaVuSans-19" d="M 2113 2584 
Q 1688 2584 1439 2293 
Q 1191 2003 1191 1497 
Q 1191 994 1439 701 
Q 1688 409 2113 409 
Q 2538 409 2786 701 
Q 3034 994 3034 1497 
Q 3034 2003 2786 2293 
Q 2538 2584 2113 2584 
z
M 3366 4563 
L 3366 3988 
Q 3128 4100 2886 4159 
Q 2644 4219 2406 4219 
Q 1781 4219 1451 3797 
Q 1122 3375 1075 2522 
Q 1259 2794 1537 2939 
Q 1816 3084 2150 3084 
Q 2853 3084 3261 2657 
Q 3669 2231 3669 1497 
Q 3669 778 3244 343 
Q 2819 -91 2113 -91 
Q 1303 -91 875 529 
Q 447 1150 447 2328 
Q 447 3434 972 4092 
Q 1497 4750 2381 4750 
Q 2619 4750 2861 4703 
Q 3103 4656 3366 4563 
z
" transform="scale(0.015625)"/>
       <path id="DejaVuSans-56" d="M 2834 3397 
L 2834 2853 
Q 2591 2978 2328 3040 
Q 2066 3103 1784 3103 
Q 1356 3103 1142 2972 
Q 928 2841 928 2578 
Q 928 2378 1081 2264 
Q 1234 2150 1697 2047 
L 1894 2003 
Q 2506 1872 2764 1633 
Q 3022 1394 3022 966 
Q 3022 478 2636 193 
Q 2250 -91 1575 -91 
Q 1294 -91 989 -36 
Q 684 19 347 128 
L 347 722 
Q 666 556 975 473 
Q 1284 391 1588 391 
Q 1994 391 2212 530 
Q 2431 669 2431 922 
Q 2431 1156 2273 1281 
Q 2116 1406 1581 1522 
L 1381 1569 
Q 847 1681 609 1914 
Q 372 2147 372 2553 
Q 372 3047 722 3315 
Q 1072 3584 1716 3584 
Q 2034 3584 2315 3537 
Q 2597 3491 2834 3397 
z
" transform="scale(0.015625)"/>
      </defs>
      <use xlink:href="#DejaVuSans-37"/>
      <use xlink:href="#DejaVuSans-19" transform="translate(61.078125 0)"/>
      <use xlink:href="#DejaVuSans-13" transform="translate(124.703125 0)"/>
      <use xlink:href="#DejaVuSans-3" transform="translate(188.328125 0)"/>
      <use xlink:href="#DejaVuSans-b" transform="translate(220.109375 0)"/>
      <use xlink:href="#DejaVuSans-56" transform="translate(259.125 0)"/>
      <use xlink:href="#DejaVuSans-c" transform="translate(311.21875 0)"/>
     </g>
    </g>
   </g>
   <g id="patch_3">
    <path d="M 44.04 242.558437 
L 44.04 20.798438 
" style="fill: none; stroke: #39414f; stroke-width: 0.8; stroke-linejoin: miter; stroke-linecap: square"/>
   </g>
   <g id="patch_4">
    <path d="M 445.8 242.558437 
L 445.8 20.798438 
" style="fill: none; stroke: #39414f; stroke-width: 0.8; stroke-linejoin: miter; stroke-linecap: square"/>
   </g>
   <g id="patch_5">
    <path d="M 44.04 242.558437 
L 445.8 242.558437 
" style="fill: none; stroke: #39414f; stroke-width: 0.8; stroke-linejoin: miter; stroke-linecap: square"/>
   </g>
   <g id="patch_6">
    <path d="M 44.04 20.798437 
L 445.8 20.798437 
" style="fill: none; stroke: #39414f; stroke-width: 0.8; stroke-linejoin: miter; stroke-linecap: square"/>
   </g>
   <g id="PathCollection_1">
    <defs>
     <path id="m47cbb43396" d="M -4.743416 0 
L 4.743416 0 
M 0 4.743416 
L 0 -4.743416 
" style="stroke: #5fa8a0; stroke-width: 1.4"/>
    </defs>
    <g clip-path="url(#p3aa2b294fb)">
     <use xlink:href="#m47cbb43396" x="62.398255" y="32.306392" style="fill: #5fa8a0; stroke: #5fa8a0; stroke-width: 1.4"/>
     <use xlink:href="#m47cbb43396" x="162.406549" y="79.000021" style="fill: #5fa8a0; stroke: #5fa8a0; stroke-width: 1.4"/>
     <use xlink:href="#m47cbb43396" x="228.80123" y="109.991674" style="fill: #5fa8a0; stroke: #5fa8a0; stroke-width: 1.4"/>
     <use xlink:href="#m47cbb43396" x="278.376214" y="133.165769" style="fill: #5fa8a0; stroke: #5fa8a0; stroke-width: 1.4"/>
     <use xlink:href="#m47cbb43396" x="350.914092" y="167.00619" style="fill: #5fa8a0; stroke: #5fa8a0; stroke-width: 1.4"/>
     <use xlink:href="#m47cbb43396" x="404.636226" y="192.134318" style="fill: #5fa8a0; stroke: #5fa8a0; stroke-width: 1.4"/>
    </g>
   </g>
   <g id="PathCollection_2">
    <defs>
     <path id="C0_0_90f76bdfc0" d="M 0 3.391165 
C 0.899347 3.391165 1.761981 3.03385 2.397916 2.397916 
C 3.03385 1.761981 3.391165 0.899347 3.391165 -0 
C 3.391165 -0.899347 3.03385 -1.761981 2.397916 -2.397916 
C 1.761981 -3.03385 0.899347 -3.391165 0 -3.391165 
C -0.899347 -3.391165 -1.761981 -3.03385 -2.397916 -2.397916 
C -3.03385 -1.761981 -3.391165 -0.899347 -3.391165 0 
C -3.391165 0.899347 -3.03385 1.761981 -2.397916 2.397916 
C -1.761981 3.03385 -0.899347 3.391165 0 3.391165 
z
"/>
    </defs>
    <g clip-path="url(#p3aa2b294fb)">
     <use xlink:href="#C0_0_90f76bdfc0" x="62.301818" y="30.878438" style="fill: none; stroke: #d2823e; stroke-width: 1.2"/>
    </g>
    <g clip-path="url(#p3aa2b294fb)">
     <use xlink:href="#C0_0_90f76bdfc0" x="162.240514" y="206.085092" style="fill: none; stroke: #d2823e; stroke-width: 1.2"/>
    </g>
    <g clip-path="url(#p3aa2b294fb)">
     <use xlink:href="#C0_0_90f76bdfc0" x="228.782147" y="109.503577" style="fill: none; stroke: #d2823e; stroke-width: 1.2"/>
    </g>
    <g clip-path="url(#p3aa2b294fb)">
     <use xlink:href="#C0_0_90f76bdfc0" x="278.375461" y="133.239287" style="fill: none; stroke: #d2823e; stroke-width: 1.2"/>
    </g>
    <g clip-path="url(#p3aa2b294fb)">
     <use xlink:href="#C0_0_90f76bdfc0" x="350.91337" y="167.220135" style="fill: none; stroke: #d2823e; stroke-width: 1.2"/>
    </g>
    <g clip-path="url(#p3aa2b294fb)">
     <use xlink:href="#C0_0_90f76bdfc0" x="404.637551" y="192.250743" style="fill: none; stroke: #d2823e; stroke-width: 1.2"/>
    </g>
   </g>
   <g id="text_7">
    <!-- -1.7c -->
    <g style="fill: #969ba6" transform="translate(53.548537 21.878438) scale(0.07 -0.07)">
     <defs>
      <path id="DejaVuSans-10" d="M 313 2009 
L 1997 2009 
L 1997 1497 
L 313 1497 
L 313 2009 
z
" transform="scale(0.015625)"/>
      <path id="DejaVuSans-11" d="M 684 794 
L 1344 794 
L 1344 0 
L 684 0 
L 684 794 
z
" transform="scale(0.015625)"/>
      <path id="DejaVuSans-1a" d="M 525 4666 
L 3525 4666 
L 3525 4397 
L 1831 0 
L 1172 0 
L 2766 4134 
L 525 4134 
L 525 4666 
z
" transform="scale(0.015625)"/>
     </defs>
     <use xlink:href="#DejaVuSans-10"/>
     <use xlink:href="#DejaVuSans-14" transform="translate(36.078125 0)"/>
     <use xlink:href="#DejaVuSans-11" transform="translate(99.703125 0)"/>
     <use xlink:href="#DejaVuSans-1a" transform="translate(131.484375 0)"/>
     <use xlink:href="#DejaVuSans-46" transform="translate(195.109375 0)"/>
    </g>
   </g>
   <g id="text_8">
    <!-- -2.9c -->
    <g style="fill: #969ba6" transform="translate(153.487233 197.085092) scale(0.07 -0.07)">
     <defs>
      <path id="DejaVuSans-15" d="M 1228 531 
L 3431 531 
L 3431 0 
L 469 0 
L 469 531 
Q 828 903 1448 1529 
Q 2069 2156 2228 2338 
Q 2531 2678 2651 2914 
Q 2772 3150 2772 3378 
Q 2772 3750 2511 3984 
Q 2250 4219 1831 4219 
Q 1534 4219 1204 4116 
Q 875 4013 500 3803 
L 500 4441 
Q 881 4594 1212 4672 
Q 1544 4750 1819 4750 
Q 2544 4750 2975 4387 
Q 3406 4025 3406 3419 
Q 3406 3131 3298 2873 
Q 3191 2616 2906 2266 
Q 2828 2175 2409 1742 
Q 1991 1309 1228 531 
z
" transform="scale(0.015625)"/>
      <path id="DejaVuSans-1c" d="M 703 97 
L 703 672 
Q 941 559 1184 500 
Q 1428 441 1663 441 
Q 2288 441 2617 861 
Q 2947 1281 2994 2138 
Q 2813 1869 2534 1725 
Q 2256 1581 1919 1581 
Q 1219 1581 811 2004 
Q 403 2428 403 3163 
Q 403 3881 828 4315 
Q 1253 4750 1959 4750 
Q 2769 4750 3195 4129 
Q 3622 3509 3622 2328 
Q 3622 1225 3098 567 
Q 2575 -91 1691 -91 
Q 1453 -91 1209 -44 
Q 966 3 703 97 
z
M 1959 2075 
Q 2384 2075 2632 2365 
Q 2881 2656 2881 3163 
Q 2881 3666 2632 3958 
Q 2384 4250 1959 4250 
Q 1534 4250 1286 3958 
Q 1038 3666 1038 3163 
Q 1038 2656 1286 2365 
Q 1534 2075 1959 2075 
z
" transform="scale(0.015625)"/>
     </defs>
     <use xlink:href="#DejaVuSans-10"/>
     <use xlink:href="#DejaVuSans-15" transform="translate(36.078125 0)"/>
     <use xlink:href="#DejaVuSans-11" transform="translate(99.703125 0)"/>
     <use xlink:href="#DejaVuSans-1c" transform="translate(131.484375 0)"/>
     <use xlink:href="#DejaVuSans-46" transform="translate(195.109375 0)"/>
    </g>
   </g>
   <g id="text_9">
    <!-- -0.3c -->
    <g style="fill: #969ba6" transform="translate(220.028866 100.503577) scale(0.07 -0.07)">
     <use xlink:href="#DejaVuSans-10"/>
     <use xlink:href="#DejaVuSans-13" transform="translate(36.078125 0)"/>
     <use xlink:href="#DejaVuSans-11" transform="translate(99.703125 0)"/>
     <use xlink:href="#DejaVuSans-16" transform="translate(131.484375 0)"/>
     <use xlink:href="#DejaVuSans-46" transform="translate(195.109375 0)"/>
    </g>
   </g>
   <g id="text_10">
    <!-- -0.0c -->
    <g style="fill: #969ba6" transform="translate(269.62218 124.239287) scale(0.07 -0.07)">
     <use xlink:href="#DejaVuSans-10"/>
     <use xlink:href="#DejaVuSans-13" transform="translate(36.078125 0)"/>
     <use xlink:href="#DejaVuSans-11" transform="translate(99.703125 0)"/>
     <use xlink:href="#DejaVuSans-13" transform="translate(131.484375 0)"/>
     <use xlink:href="#DejaVuSans-46" transform="translate(195.109375 0)"/>
    </g>
   </g>
   <g id="text_11">
    <!-- -0.0c -->
    <g style="fill: #969ba6" transform="translate(342.160089 158.220135) scale(0.07 -0.07)">
     <use xlink:href="#DejaVuSans-10"/>
     <use xlink:href="#DejaVuSans-13" transform="translate(36.078125 0)"/>
     <use xlink:href="#DejaVuSans-11" transform="translate(99.703125 0)"/>
     <use xlink:href="#DejaVuSans-13" transform="translate(131.484375 0)"/>
     <use xlink:href="#DejaVuSans-46" transform="translate(195.109375 0)"/>
    </g>
   </g>
   <g id="text_12">
    <!-- +0.0c -->
    <g style="fill: #969ba6" transform="translate(394.214114 183.250743) scale(0.07 -0.07)">
     <defs>
      <path id="DejaVuSans-e" d="M 2944 4013 
L 2944 2272 
L 4684 2272 
L 4684 1741 
L 2944 1741 
L 2944 0 
L 2419 0 
L 2419 1741 
L 678 1741 
L 678 2272 
L 2419 2272 
L 2419 4013 
L 2944 4013 
z
" transform="scale(0.015625)"/>
     </defs>
     <use xlink:href="#DejaVuSans-e"/>
     <use xlink:href="#DejaVuSans-13" transform="translate(83.796875 0)"/>
     <use xlink:href="#DejaVuSans-11" transform="translate(147.421875 0)"/>
     <use xlink:href="#DejaVuSans-13" transform="translate(179.203125 0)"/>
     <use xlink:href="#DejaVuSans-46" transform="translate(242.828125 0)"/>
    </g>
   </g>
   <g id="PathCollection_3">
    <defs>
     <path id="m0d6a7aeee6" d="M -3.872983 3.872983 
L 3.872983 -3.872983 
M -3.872983 -3.872983 
L 3.872983 3.872983 
" style="stroke: #c25e4c; stroke-width: 1.2"/>
    </defs>
    <g clip-path="url(#p3aa2b294fb)">
     <use xlink:href="#m0d6a7aeee6" x="317.960546" y="232.478437" style="fill: #c25e4c; stroke: #c25e4c; stroke-width: 1.2"/>
    </g>
   </g>
   <g id="text_13">
    <!-- missed -->
    <g style="fill: #c25e4c" transform="translate(305.556874 246.478437) scale(0.07 -0.07)">
     <defs>
      <path id="DejaVuSans-4c" d="M 603 3500 
L 1178 3500 
L 1178 0 
L 603 0 
L 603 3500 
z
M 603 4863 
L 1178 4863 
L 1178 4134 
L 603 4134 
L 603 4863 
z
" transform="scale(0.015625)"/>
     </defs>
     <use xlink:href="#DejaVuSans-50"/>
     <use xlink:href="#DejaVuSans-4c" transform="translate(97.40625 0)"/>
     <use xlink:href="#DejaVuSans-56" transform="translate(125.1875 0)"/>
     <use xlink:href="#DejaVuSans-56" transform="translate(177.28125 0)"/>
     <use xlink:href="#DejaVuSans-48" transform="translate(229.375 0)"/>
     <use xlink:href="#DejaVuSans-47" transform="translate(290.90625 0)"/>
    </g>
   </g>
   <g id="PathCollection_4">
    <g clip-path="url(#p3aa2b294fb)">
     <use xlink:href="#m0d6a7aeee6" x="379.149336" y="232.478437" style="fill: #c25e4c; stroke: #c25e4c; stroke-width: 1.2"/>
    </g>
   </g>
   <g id="text_14">
    <!-- missed -->
    <g style="fill: #c25e4c" transform="translate(366.745664 246.478437) scale(0.07 -0.07)">
     <use xlink:href="#DejaVuSans-50"/>
     <use xlink:href="#DejaVuSans-4c" transform="translate(97.40625 0)"/>
     <use xlink:href="#DejaVuSans-56" transform="translate(125.1875 0)"/>
     <use xlink:href="#DejaVuSans-56" transform="translate(177.28125 0)"/>
     <use xlink:href="#DejaVuSans-48" transform="translate(229.375 0)"/>
     <use xlink:href="#DejaVuSans-47" transform="translate(290.90625 0)"/>
    </g>
   </g>
   <g id="PathCollection_5">
    <g clip-path="url(#p3aa2b294fb)">
     <use xlink:href="#m0d6a7aeee6" x="427.538182" y="232.478437" style="fill: #c25e4c; stroke: #c25e4c; stroke-width: 1.2"/>
    </g>
   </g>
   <g id="text_15">
    <!-- missed -->
    <g style="fill: #c25e4c" transform="translate(415.13451 246.478437) scale(0.07 -0.07)">
     <use xlink:href="#DejaVuSans-50"/>
     <use xlink:href="#DejaVuSans-4c" transform="translate(97.40625 0)"/>
     <use xlink:href="#DejaVuSans-56" transform="translate(125.1875 0)"/>
     <use xlink:href="#DejaVuSans-56" transform="translate(177.28125 0)"/>
     <use xlink:href="#DejaVuSans-48" transform="translate(229.375 0)"/>
     <use xlink:href="#DejaVuSans-47" transform="translate(290.90625 0)"/>
    </g>
   </g>
   <g id="text_16">
    <!-- what gradient descent heard in the bar -->
    <g style="fill: #d6dbe1" transform="translate(146.722344 14.798437) scale(0.1 -0.1)">
     <defs>
      <path id="DejaVuSans-5a" d="M 269 3500 
L 844 3500 
L 1563 769 
L 2278 3500 
L 2956 3500 
L 3675 769 
L 4391 3500 
L 4966 3500 
L 4050 0 
L 3372 0 
L 2619 2869 
L 1863 0 
L 1184 0 
L 269 3500 
z
" transform="scale(0.015625)"/>
      <path id="DejaVuSans-4b" d="M 3513 2113 
L 3513 0 
L 2938 0 
L 2938 2094 
Q 2938 2591 2744 2837 
Q 2550 3084 2163 3084 
Q 1697 3084 1428 2787 
Q 1159 2491 1159 1978 
L 1159 0 
L 581 0 
L 581 4863 
L 1159 4863 
L 1159 2956 
Q 1366 3272 1645 3428 
Q 1925 3584 2291 3584 
Q 2894 3584 3203 3211 
Q 3513 2838 3513 2113 
z
" transform="scale(0.015625)"/>
      <path id="DejaVuSans-44" d="M 2194 1759 
Q 1497 1759 1228 1600 
Q 959 1441 959 1056 
Q 959 750 1161 570 
Q 1363 391 1709 391 
Q 2188 391 2477 730 
Q 2766 1069 2766 1631 
L 2766 1759 
L 2194 1759 
z
M 3341 1997 
L 3341 0 
L 2766 0 
L 2766 531 
Q 2569 213 2275 61 
Q 1981 -91 1556 -91 
Q 1019 -91 701 211 
Q 384 513 384 1019 
Q 384 1609 779 1909 
Q 1175 2209 1959 2209 
L 2766 2209 
L 2766 2266 
Q 2766 2663 2505 2880 
Q 2244 3097 1772 3097 
Q 1472 3097 1187 3025 
Q 903 2953 641 2809 
L 641 3341 
Q 956 3463 1253 3523 
Q 1550 3584 1831 3584 
Q 2591 3584 2966 3190 
Q 3341 2797 3341 1997 
z
" transform="scale(0.015625)"/>
      <path id="DejaVuSans-57" d="M 1172 4494 
L 1172 3500 
L 2356 3500 
L 2356 3053 
L 1172 3053 
L 1172 1153 
Q 1172 725 1289 603 
Q 1406 481 1766 481 
L 2356 481 
L 2356 0 
L 1766 0 
Q 1100 0 847 248 
Q 594 497 594 1153 
L 594 3053 
L 172 3053 
L 172 3500 
L 594 3500 
L 594 4494 
L 1172 4494 
z
" transform="scale(0.015625)"/>
      <path id="DejaVuSans-4a" d="M 2906 1791 
Q 2906 2416 2648 2759 
Q 2391 3103 1925 3103 
Q 1463 3103 1205 2759 
Q 947 2416 947 1791 
Q 947 1169 1205 825 
Q 1463 481 1925 481 
Q 2391 481 2648 825 
Q 2906 1169 2906 1791 
z
M 3481 434 
Q 3481 -459 3084 -895 
Q 2688 -1331 1869 -1331 
Q 1566 -1331 1297 -1286 
Q 1028 -1241 775 -1147 
L 775 -588 
Q 1028 -725 1275 -790 
Q 1522 -856 1778 -856 
Q 2344 -856 2625 -561 
Q 2906 -266 2906 331 
L 2906 616 
Q 2728 306 2450 153 
Q 2172 0 1784 0 
Q 1141 0 747 490 
Q 353 981 353 1791 
Q 353 2603 747 3093 
Q 1141 3584 1784 3584 
Q 2172 3584 2450 3431 
Q 2728 3278 2906 2969 
L 2906 3500 
L 3481 3500 
L 3481 434 
z
" transform="scale(0.015625)"/>
      <path id="DejaVuSans-45" d="M 3116 1747 
Q 3116 2381 2855 2742 
Q 2594 3103 2138 3103 
Q 1681 3103 1420 2742 
Q 1159 2381 1159 1747 
Q 1159 1113 1420 752 
Q 1681 391 2138 391 
Q 2594 391 2855 752 
Q 3116 1113 3116 1747 
z
M 1159 2969 
Q 1341 3281 1617 3432 
Q 1894 3584 2278 3584 
Q 2916 3584 3314 3078 
Q 3713 2572 3713 1747 
Q 3713 922 3314 415 
Q 2916 -91 2278 -91 
Q 1894 -91 1617 61 
Q 1341 213 1159 525 
L 1159 0 
L 581 0 
L 581 4863 
L 1159 4863 
L 1159 2969 
z
" transform="scale(0.015625)"/>
     </defs>
     <use xlink:href="#DejaVuSans-5a"/>
     <use xlink:href="#DejaVuSans-4b" transform="translate(81.78125 0)"/>
     <use xlink:href="#DejaVuSans-44" transform="translate(145.15625 0)"/>
     <use xlink:href="#DejaVuSans-57" transform="translate(206.4375 0)"/>
     <use xlink:href="#DejaVuSans-3" transform="translate(245.640625 0)"/>
     <use xlink:href="#DejaVuSans-4a" transform="translate(277.421875 0)"/>
     <use xlink:href="#DejaVuSans-55" transform="translate(340.90625 0)"/>
     <use xlink:href="#DejaVuSans-44" transform="translate(382.015625 0)"/>
     <use xlink:href="#DejaVuSans-47" transform="translate(443.296875 0)"/>
     <use xlink:href="#DejaVuSans-4c" transform="translate(506.78125 0)"/>
     <use xlink:href="#DejaVuSans-48" transform="translate(534.5625 0)"/>
     <use xlink:href="#DejaVuSans-51" transform="translate(596.09375 0)"/>
     <use xlink:href="#DejaVuSans-57" transform="translate(659.46875 0)"/>
     <use xlink:href="#DejaVuSans-3" transform="translate(698.671875 0)"/>
     <use xlink:href="#DejaVuSans-47" transform="translate(730.453125 0)"/>
     <use xlink:href="#DejaVuSans-48" transform="translate(793.9375 0)"/>
     <use xlink:href="#DejaVuSans-56" transform="translate(855.46875 0)"/>
     <use xlink:href="#DejaVuSans-46" transform="translate(907.5625 0)"/>
     <use xlink:href="#DejaVuSans-48" transform="translate(962.546875 0)"/>
     <use xlink:href="#DejaVuSans-51" transform="translate(1024.078125 0)"/>
     <use xlink:href="#DejaVuSans-57" transform="translate(1087.453125 0)"/>
     <use xlink:href="#DejaVuSans-3" transform="translate(1126.65625 0)"/>
     <use xlink:href="#DejaVuSans-4b" transform="translate(1158.4375 0)"/>
     <use xlink:href="#DejaVuSans-48" transform="translate(1221.8125 0)"/>
     <use xlink:href="#DejaVuSans-44" transform="translate(1283.34375 0)"/>
     <use xlink:href="#DejaVuSans-55" transform="translate(1344.625 0)"/>
     <use xlink:href="#DejaVuSans-47" transform="translate(1383.984375 0)"/>
     <use xlink:href="#DejaVuSans-3" transform="translate(1447.46875 0)"/>
     <use xlink:href="#DejaVuSans-4c" transform="translate(1479.25 0)"/>
     <use xlink:href="#DejaVuSans-51" transform="translate(1507.03125 0)"/>
     <use xlink:href="#DejaVuSans-3" transform="translate(1570.40625 0)"/>
     <use xlink:href="#DejaVuSans-57" transform="translate(1602.1875 0)"/>
     <use xlink:href="#DejaVuSans-4b" transform="translate(1641.390625 0)"/>
     <use xlink:href="#DejaVuSans-48" transform="translate(1704.765625 0)"/>
     <use xlink:href="#DejaVuSans-3" transform="translate(1766.296875 0)"/>
     <use xlink:href="#DejaVuSans-45" transform="translate(1798.078125 0)"/>
     <use xlink:href="#DejaVuSans-44" transform="translate(1861.5625 0)"/>
     <use xlink:href="#DejaVuSans-55" transform="translate(1922.84375 0)"/>
    </g>
   </g>
   <g id="legend_1">
    <g id="PathCollection_6">
     <g>
      <use xlink:href="#m47cbb43396" x="384.1" y="31.977187" style="fill: #5fa8a0; stroke: #5fa8a0; stroke-width: 1.4"/>
     </g>
    </g>
    <g id="text_17">
     <!-- designed -->
     <g style="fill: #d6dbe1" transform="translate(398.5 34.077187) scale(0.08 -0.08)">
      <use xlink:href="#DejaVuSans-47"/>
      <use xlink:href="#DejaVuSans-48" transform="translate(63.484375 0)"/>
      <use xlink:href="#DejaVuSans-56" transform="translate(125.015625 0)"/>
      <use xlink:href="#DejaVuSans-4c" transform="translate(177.109375 0)"/>
      <use xlink:href="#DejaVuSans-4a" transform="translate(204.890625 0)"/>
      <use xlink:href="#DejaVuSans-51" transform="translate(268.375 0)"/>
      <use xlink:href="#DejaVuSans-48" transform="translate(331.75 0)"/>
      <use xlink:href="#DejaVuSans-47" transform="translate(393.28125 0)"/>
     </g>
    </g>
    <g id="PathCollection_7">
     <path d="M 384.1 47.368977 
C 384.999347 47.368977 385.861981 47.011663 386.497916 46.375728 
C 387.13385 45.739794 387.491165 44.87716 387.491165 43.977812 
C 387.491165 43.078465 387.13385 42.215831 386.497916 41.579897 
C 385.861981 40.943962 384.999347 40.586648 384.1 40.586648 
C 383.200653 40.586648 382.338019 40.943962 381.702084 41.579897 
C 381.06615 42.215831 380.708835 43.078465 380.708835 43.977812 
C 380.708835 44.87716 381.06615 45.739794 381.702084 46.375728 
C 382.338019 47.011663 383.200653 47.368977 384.1 47.368977 
L 384.1 47.368977 
z
" style="fill: none; stroke: #d2823e; stroke-width: 1.2"/>
    </g>
    <g id="text_18">
     <!-- recovered -->
     <g style="fill: #d6dbe1" transform="translate(398.5 46.077812) scale(0.08 -0.08)">
      <defs>
       <path id="DejaVuSans-59" d="M 191 3500 
L 800 3500 
L 1894 563 
L 2988 3500 
L 3597 3500 
L 2284 0 
L 1503 0 
L 191 3500 
z
" transform="scale(0.015625)"/>
      </defs>
      <use xlink:href="#DejaVuSans-55"/>
      <use xlink:href="#DejaVuSans-48" transform="translate(38.90625 0)"/>
      <use xlink:href="#DejaVuSans-46" transform="translate(100.4375 0)"/>
      <use xlink:href="#DejaVuSans-52" transform="translate(155.421875 0)"/>
      <use xlink:href="#DejaVuSans-59" transform="translate(216.609375 0)"/>
      <use xlink:href="#DejaVuSans-48" transform="translate(275.796875 0)"/>
      <use xlink:href="#DejaVuSans-55" transform="translate(337.328125 0)"/>
      <use xlink:href="#DejaVuSans-48" transform="translate(376.234375 0)"/>
      <use xlink:href="#DejaVuSans-47" transform="translate(437.765625 0)"/>
     </g>
    </g>
   </g>
  </g>
 </g>
 <defs>
  <clipPath id="p3aa2b294fb">
   <rect x="44.04" y="20.798437" width="401.76" height="221.76"/>
  </clipPath>
 </defs>
</svg>
