<?xml version="1.0" encoding="utf-8" standalone="no"?>
<!DOCTYPE svg PUBLIC "-//W3C//DTD SVG 1.1//EN"
  "http://www.w3.org/Graphics/SVG/1.1/DTD/svg11.dtd">
<svg xmlns:xlink="http://www.w3.org/1999/xlink" width="456.155pt" height="257.583219pt" viewBox="0 0 456.155 257.583219" xmlns="http://www.w3.org/2000/svg" version="1.1">
 <metadata>
  <rdf:RDF xmlns:dc="http://purl.org/dc/elements/1.1/" xmlns:cc="http://creativecommons.org/ns#" xmlns:rdf="http://www.w3.org/1999/02/22-rdf-syntax-ns#">
   <cc:Work>
    <dc:type rdf:resource="http://purl.org/dc/dcmitype/StillImage"/>
    <dc:date>2026-07-03T07:43:45.065680</dc:date>
    <dc:format>image/svg+xml</dc:format>
    <dc:creator>
     <cc:Agent>
      <dc:title>Matplotlib v3.11.0, https://matplotlib.org/</dc:title>
     </cc:Agent>
    </dc:creator>
   </cc:Work>
  </rdf:RDF>
 </metadata>
 <defs>
  <style type="text/css">*{stroke-linejoin: round; stroke-linecap: butt}</style>
 </defs>
 <g id="figure_1">
  <g id="patch_1">
   <path d="M 0 257.583219 
L 456.155 257.583219 
L 456.155 0 
L 0 0 
L 0 257.583219 
z
" style="fill: none"/>
  </g>
  <g id="axes_1">
   <g id="patch_2">
    <path d="M 47.195 220.382437 
L 448.955 220.382437 
L 448.955 20.798438 
L 47.195 20.798438 
L 47.195 220.382437 
z
" style="fill: none"/>
   </g>
   <g id="matplotlib.axis_1">
    <g id="xtick_1">
     <g id="line2d_1">
      <path d="M 95.070577 220.382437 
L 95.070577 20.798438 
" clip-path="url(#p46df89afb9)" style="fill: none; stroke: #262b35; stroke-width: 0.6; stroke-linecap: square"/>
     </g>
     <g id="line2d_2">
      <defs>
       <path id="m97f5466c1b" d="M 0 0 
L 0 3.5 
" style="stroke: #7d8593; stroke-width: 0.8"/>
      </defs>
      <g>
       <use xlink:href="#m97f5466c1b" x="95.070577" y="220.382437" style="fill: #7d8593; stroke: #7d8593; stroke-width: 0.8"/>
      </g>
     </g>
     <g id="text_1">
      <!-- 5 -->
      <g style="fill: #7d8593" transform="translate(92.207452 234.220328) scale(0.09 -0.09)">
       <defs>
        <path id="DejaVuSans-18" d="M 691 4666 
L 3169 4666 
L 3169 4134 
L 1269 4134 
L 1269 2991 
Q 1406 3038 1543 3061 
Q 1681 3084 1819 3084 
Q 2600 3084 3056 2656 
Q 3513 2228 3513 1497 
Q 3513 744 3044 326 
Q 2575 -91 1722 -91 
Q 1428 -91 1123 -41 
Q 819 9 494 109 
L 494 744 
Q 775 591 1075 516 
Q 1375 441 1709 441 
Q 2250 441 2565 725 
Q 2881 1009 2881 1497 
Q 2881 1984 2565 2268 
Q 2250 2553 1709 2553 
Q 1456 2553 1204 2497 
Q 953 2441 691 2322 
L 691 4666 
z
" transform="scale(0.015625)"/>
       </defs>
       <use xlink:href="#DejaVuSans-18"/>
      </g>
     </g>
    </g>
    <g id="xtick_2">
     <g id="line2d_3">
      <path d="M 144.426843 220.382437 
L 144.426843 20.798438 
" clip-path="url(#p46df89afb9)" style="fill: none; stroke: #262b35; stroke-width: 0.6; stroke-linecap: square"/>
     </g>
     <g id="line2d_4">
      <g>
       <use xlink:href="#m97f5466c1b" x="144.426843" y="220.382437" style="fill: #7d8593; stroke: #7d8593; stroke-width: 0.8"/>
      </g>
     </g>
     <g id="text_2">
      <!-- 10 -->
      <g style="fill: #7d8593" transform="translate(138.700593 234.220328) scale(0.09 -0.09)">
       <defs>
        <path id="DejaVuSans-14" d="M 794 531 
L 1825 531 
L 1825 4091 
L 703 3866 
L 703 4441 
L 1819 4666 
L 2450 4666 
L 2450 531 
L 3481 531 
L 3481 0 
L 794 0 
L 794 531 
z
" transform="scale(0.015625)"/>
        <path id="DejaVuSans-13" d="M 2034 4250 
Q 1547 4250 1301 3770 
Q 1056 3291 1056 2328 
Q 1056 1369 1301 889 
Q 1547 409 2034 409 
Q 2525 409 2770 889 
Q 3016 1369 3016 2328 
Q 3016 3291 2770 3770 
Q 2525 4250 2034 4250 
z
M 2034 4750 
Q 2819 4750 3233 4129 
Q 3647 3509 3647 2328 
Q 3647 1150 3233 529 
Q 2819 -91 2034 -91 
Q 1250 -91 836 529 
Q 422 1150 422 2328 
Q 422 3509 836 4129 
Q 1250 4750 2034 4750 
z
" transform="scale(0.015625)"/>
       </defs>
       <use xlink:href="#DejaVuSans-14"/>
       <use xlink:href="#DejaVuSans-13" transform="translate(63.625 0)"/>
      </g>
     </g>
    </g>
    <g id="xtick_3">
     <g id="line2d_5">
      <path d="M 193.783108 220.382437 
L 193.783108 20.798438 
" clip-path="url(#p46df89afb9)" style="fill: none; stroke: #262b35; stroke-width: 0.6; stroke-linecap: square"/>
     </g>
     <g id="line2d_6">
      <g>
       <use xlink:href="#m97f5466c1b" x="193.783108" y="220.382437" style="fill: #7d8593; stroke: #7d8593; stroke-width: 0.8"/>
      </g>
     </g>
     <g id="text_3">
      <!-- 15 -->
      <g style="fill: #7d8593" transform="translate(188.056858 234.220328) scale(0.09 -0.09)">
       <use xlink:href="#DejaVuSans-14"/>
       <use xlink:href="#DejaVuSans-18" transform="translate(63.625 0)"/>
      </g>
     </g>
    </g>
    <g id="xtick_4">
     <g id="line2d_7">
      <path d="M 243.139373 220.382437 
L 243.139373 20.798438 
" clip-path="url(#p46df89afb9)" style="fill: none; stroke: #262b35; stroke-width: 0.6; stroke-linecap: square"/>
     </g>
     <g id="line2d_8">
      <g>
       <use xlink:href="#m97f5466c1b" x="243.139373" y="220.382437" style="fill: #7d8593; stroke: #7d8593; stroke-width: 0.8"/>
      </g>
     </g>
     <g id="text_4">
      <!-- 20 -->
      <g style="fill: #7d8593" transform="translate(237.413123 234.220328) scale(0.09 -0.09)">
       <defs>
        <path id="DejaVuSans-15" d="M 1228 531 
L 3431 531 
L 3431 0 
L 469 0 
L 469 531 
Q 828 903 1448 1529 
Q 2069 2156 2228 2338 
Q 2531 2678 2651 2914 
Q 2772 3150 2772 3378 
Q 2772 3750 2511 3984 
Q 2250 4219 1831 4219 
Q 1534 4219 1204 4116 
Q 875 4013 500 3803 
L 500 4441 
Q 881 4594 1212 4672 
Q 1544 4750 1819 4750 
Q 2544 4750 2975 4387 
Q 3406 4025 3406 3419 
Q 3406 3131 3298 2873 
Q 3191 2616 2906 2266 
Q 2828 2175 2409 1742 
Q 1991 1309 1228 531 
z
" transform="scale(0.015625)"/>
       </defs>
       <use xlink:href="#DejaVuSans-15"/>
       <use xlink:href="#DejaVuSans-13" transform="translate(63.625 0)"/>
      </g>
     </g>
    </g>
    <g id="xtick_5">
     <g id="line2d_9">
      <path d="M 292.495639 220.382437 
L 292.495639 20.798438 
" clip-path="url(#p46df89afb9)" style="fill: none; stroke: #262b35; stroke-width: 0.6; stroke-linecap: square"/>
     </g>
     <g id="line2d_10">
      <g>
       <use xlink:href="#m97f5466c1b" x="292.495639" y="220.382437" style="fill: #7d8593; stroke: #7d8593; stroke-width: 0.8"/>
      </g>
     </g>
     <g id="text_5">
      <!-- 25 -->
      <g style="fill: #7d8593" transform="translate(286.769389 234.220328) scale(0.09 -0.09)">
       <use xlink:href="#DejaVuSans-15"/>
       <use xlink:href="#DejaVuSans-18" transform="translate(63.625 0)"/>
      </g>
     </g>
    </g>
    <g id="xtick_6">
     <g id="line2d_11">
      <path d="M 341.851904 220.382437 
L 341.851904 20.798438 
" clip-path="url(#p46df89afb9)" style="fill: none; stroke: #262b35; stroke-width: 0.6; stroke-linecap: square"/>
     </g>
     <g id="line2d_12">
      <g>
       <use xlink:href="#m97f5466c1b" x="341.851904" y="220.382437" style="fill: #7d8593; stroke: #7d8593; stroke-width: 0.8"/>
      </g>
     </g>
     <g id="text_6">
      <!-- 30 -->
      <g style="fill: #7d8593" transform="translate(336.125654 234.220328) scale(0.09 -0.09)">
       <defs>
        <path id="DejaVuSans-16" d="M 2597 2516 
Q 3050 2419 3304 2112 
Q 3559 1806 3559 1356 
Q 3559 666 3084 287 
Q 2609 -91 1734 -91 
Q 1441 -91 1130 -33 
Q 819 25 488 141 
L 488 750 
Q 750 597 1062 519 
Q 1375 441 1716 441 
Q 2309 441 2620 675 
Q 2931 909 2931 1356 
Q 2931 1769 2642 2001 
Q 2353 2234 1838 2234 
L 1294 2234 
L 1294 2753 
L 1863 2753 
Q 2328 2753 2575 2939 
Q 2822 3125 2822 3475 
Q 2822 3834 2567 4026 
Q 2313 4219 1838 4219 
Q 1578 4219 1281 4162 
Q 984 4106 628 3988 
L 628 4550 
Q 988 4650 1302 4700 
Q 1616 4750 1894 4750 
Q 2613 4750 3031 4423 
Q 3450 4097 3450 3541 
Q 3450 3153 3228 2886 
Q 3006 2619 2597 2516 
z
" transform="scale(0.015625)"/>
       </defs>
       <use xlink:href="#DejaVuSans-16"/>
       <use xlink:href="#DejaVuSans-13" transform="translate(63.625 0)"/>
      </g>
     </g>
    </g>
    <g id="xtick_7">
     <g id="line2d_13">
      <path d="M 391.20817 220.382437 
L 391.20817 20.798438 
" clip-path="url(#p46df89afb9)" style="fill: none; stroke: #262b35; stroke-width: 0.6; stroke-linecap: square"/>
     </g>
     <g id="line2d_14">
      <g>
       <use xlink:href="#m97f5466c1b" x="391.20817" y="220.382437" style="fill: #7d8593; stroke: #7d8593; stroke-width: 0.8"/>
      </g>
     </g>
     <g id="text_7">
      <!-- 35 -->
      <g style="fill: #7d8593" transform="translate(385.48192 234.220328) scale(0.09 -0.09)">
       <use xlink:href="#DejaVuSans-16"/>
       <use xlink:href="#DejaVuSans-18" transform="translate(63.625 0)"/>
      </g>
     </g>
    </g>
    <g id="xtick_8">
     <g id="line2d_15">
      <path d="M 440.564435 220.382437 
L 440.564435 20.798438 
" clip-path="url(#p46df89afb9)" style="fill: none; stroke: #262b35; stroke-width: 0.6; stroke-linecap: square"/>
     </g>
     <g id="line2d_16">
      <g>
       <use xlink:href="#m97f5466c1b" x="440.564435" y="220.382437" style="fill: #7d8593; stroke: #7d8593; stroke-width: 0.8"/>
      </g>
     </g>
     <g id="text_8">
      <!-- 40 -->
      <g style="fill: #7d8593" transform="translate(434.838185 234.220328) scale(0.09 -0.09)">
       <defs>
        <path id="DejaVuSans-17" d="M 2419 4116 
L 825 1625 
L 2419 1625 
L 2419 4116 
z
M 2253 4666 
L 3047 4666 
L 3047 1625 
L 3713 1625 
L 3713 1100 
L 3047 1100 
L 3047 0 
L 2419 0 
L 2419 1100 
L 313 1100 
L 313 1709 
L 2253 4666 
z
" transform="scale(0.015625)"/>
       </defs>
       <use xlink:href="#DejaVuSans-17"/>
       <use xlink:href="#DejaVuSans-13" transform="translate(63.625 0)"/>
      </g>
     </g>
    </g>
    <g id="text_9">
     <!-- partial number k (of f0 = 219.93 Hz) -->
     <g style="fill: #969ba6" transform="translate(156.714062 247.980875) scale(0.1 -0.1)">
      <defs>
       <path id="DejaVuSans-53" d="M 1159 525 
L 1159 -1331 
L 581 -1331 
L 581 3500 
L 1159 3500 
L 1159 2969 
Q 1341 3281 1617 3432 
Q 1894 3584 2278 3584 
Q 2916 3584 3314 3078 
Q 3713 2572 3713 1747 
Q 3713 922 3314 415 
Q 2916 -91 2278 -91 
Q 1894 -91 1617 61 
Q 1341 213 1159 525 
z
M 3116 1747 
Q 3116 2381 2855 2742 
Q 2594 3103 2138 3103 
Q 1681 3103 1420 2742 
Q 1159 2381 1159 1747 
Q 1159 1113 1420 752 
Q 1681 391 2138 391 
Q 2594 391 2855 752 
Q 3116 1113 3116 1747 
z
" transform="scale(0.015625)"/>
       <path id="DejaVuSans-44" d="M 2194 1759 
Q 1497 1759 1228 1600 
Q 959 1441 959 1056 
Q 959 750 1161 570 
Q 1363 391 1709 391 
Q 2188 391 2477 730 
Q 2766 1069 2766 1631 
L 2766 1759 
L 2194 1759 
z
M 3341 1997 
L 3341 0 
L 2766 0 
L 2766 531 
Q 2569 213 2275 61 
Q 1981 -91 1556 -91 
Q 1019 -91 701 211 
Q 384 513 384 1019 
Q 384 1609 779 1909 
Q 1175 2209 1959 2209 
L 2766 2209 
L 2766 2266 
Q 2766 2663 2505 2880 
Q 2244 3097 1772 3097 
Q 1472 3097 1187 3025 
Q 903 2953 641 2809 
L 641 3341 
Q 956 3463 1253 3523 
Q 1550 3584 1831 3584 
Q 2591 3584 2966 3190 
Q 3341 2797 3341 1997 
z
" transform="scale(0.015625)"/>
       <path id="DejaVuSans-55" d="M 2631 2963 
Q 2534 3019 2420 3045 
Q 2306 3072 2169 3072 
Q 1681 3072 1420 2755 
Q 1159 2438 1159 1844 
L 1159 0 
L 581 0 
L 581 3500 
L 1159 3500 
L 1159 2956 
Q 1341 3275 1631 3429 
Q 1922 3584 2338 3584 
Q 2397 3584 2469 3576 
Q 2541 3569 2628 3553 
L 2631 2963 
z
" transform="scale(0.015625)"/>
       <path id="DejaVuSans-57" d="M 1172 4494 
L 1172 3500 
L 2356 3500 
L 2356 3053 
L 1172 3053 
L 1172 1153 
Q 1172 725 1289 603 
Q 1406 481 1766 481 
L 2356 481 
L 2356 0 
L 1766 0 
Q 1100 0 847 248 
Q 594 497 594 1153 
L 594 3053 
L 172 3053 
L 172 3500 
L 594 3500 
L 594 4494 
L 1172 4494 
z
" transform="scale(0.015625)"/>
       <path id="DejaVuSans-4c" d="M 603 3500 
L 1178 3500 
L 1178 0 
L 603 0 
L 603 3500 
z
M 603 4863 
L 1178 4863 
L 1178 4134 
L 603 4134 
L 603 4863 
z
" transform="scale(0.015625)"/>
       <path id="DejaVuSans-4f" d="M 603 4863 
L 1178 4863 
L 1178 0 
L 603 0 
L 603 4863 
z
" transform="scale(0.015625)"/>
       <path id="DejaVuSans-3" transform="scale(0.015625)"/>
       <path id="DejaVuSans-51" d="M 3513 2113 
L 3513 0 
L 2938 0 
L 2938 2094 
Q 2938 2591 2744 2837 
Q 2550 3084 2163 3084 
Q 1697 3084 1428 2787 
Q 1159 2491 1159 1978 
L 1159 0 
L 581 0 
L 581 3500 
L 1159 3500 
L 1159 2956 
Q 1366 3272 1645 3428 
Q 1925 3584 2291 3584 
Q 2894 3584 3203 3211 
Q 3513 2838 3513 2113 
z
" transform="scale(0.015625)"/>
       <path id="DejaVuSans-58" d="M 544 1381 
L 544 3500 
L 1119 3500 
L 1119 1403 
Q 1119 906 1312 657 
Q 1506 409 1894 409 
Q 2359 409 2629 706 
Q 2900 1003 2900 1516 
L 2900 3500 
L 3475 3500 
L 3475 0 
L 2900 0 
L 2900 538 
Q 2691 219 2414 64 
Q 2138 -91 1772 -91 
Q 1169 -91 856 284 
Q 544 659 544 1381 
z
M 1991 3584 
L 1991 3584 
z
" transform="scale(0.015625)"/>
       <path id="DejaVuSans-50" d="M 3328 2828 
Q 3544 3216 3844 3400 
Q 4144 3584 4550 3584 
Q 5097 3584 5394 3201 
Q 5691 2819 5691 2113 
L 5691 0 
L 5113 0 
L 5113 2094 
Q 5113 2597 4934 2840 
Q 4756 3084 4391 3084 
Q 3944 3084 3684 2787 
Q 3425 2491 3425 1978 
L 3425 0 
L 2847 0 
L 2847 2094 
Q 2847 2600 2669 2842 
Q 2491 3084 2119 3084 
Q 1678 3084 1418 2786 
Q 1159 2488 1159 1978 
L 1159 0 
L 581 0 
L 581 3500 
L 1159 3500 
L 1159 2956 
Q 1356 3278 1631 3431 
Q 1906 3584 2284 3584 
Q 2666 3584 2933 3390 
Q 3200 3197 3328 2828 
z
" transform="scale(0.015625)"/>
       <path id="DejaVuSans-45" d="M 3116 1747 
Q 3116 2381 2855 2742 
Q 2594 3103 2138 3103 
Q 1681 3103 1420 2742 
Q 1159 2381 1159 1747 
Q 1159 1113 1420 752 
Q 1681 391 2138 391 
Q 2594 391 2855 752 
Q 3116 1113 3116 1747 
z
M 1159 2969 
Q 1341 3281 1617 3432 
Q 1894 3584 2278 3584 
Q 2916 3584 3314 3078 
Q 3713 2572 3713 1747 
Q 3713 922 3314 415 
Q 2916 -91 2278 -91 
Q 1894 -91 1617 61 
Q 1341 213 1159 525 
L 1159 0 
L 581 0 
L 581 4863 
L 1159 4863 
L 1159 2969 
z
" transform="scale(0.015625)"/>
       <path id="DejaVuSans-48" d="M 3597 1894 
L 3597 1613 
L 953 1613 
Q 991 1019 1311 708 
Q 1631 397 2203 397 
Q 2534 397 2845 478 
Q 3156 559 3463 722 
L 3463 178 
Q 3153 47 2828 -22 
Q 2503 -91 2169 -91 
Q 1331 -91 842 396 
Q 353 884 353 1716 
Q 353 2575 817 3079 
Q 1281 3584 2069 3584 
Q 2775 3584 3186 3129 
Q 3597 2675 3597 1894 
z
M 3022 2063 
Q 3016 2534 2758 2815 
Q 2500 3097 2075 3097 
Q 1594 3097 1305 2825 
Q 1016 2553 972 2059 
L 3022 2063 
z
" transform="scale(0.015625)"/>
       <path id="DejaVuSans-4e" d="M 581 4863 
L 1159 4863 
L 1159 1991 
L 2875 3500 
L 3609 3500 
L 1753 1863 
L 3688 0 
L 2938 0 
L 1159 1709 
L 1159 0 
L 581 0 
L 581 4863 
z
" transform="scale(0.015625)"/>
       <path id="DejaVuSans-b" d="M 1984 4856 
Q 1566 4138 1362 3434 
Q 1159 2731 1159 2009 
Q 1159 1288 1364 580 
Q 1569 -128 1984 -844 
L 1484 -844 
Q 1016 -109 783 600 
Q 550 1309 550 2009 
Q 550 2706 781 3412 
Q 1013 4119 1484 4856 
L 1984 4856 
z
" transform="scale(0.015625)"/>
       <path id="DejaVuSans-52" d="M 1959 3097 
Q 1497 3097 1228 2736 
Q 959 2375 959 1747 
Q 959 1119 1226 758 
Q 1494 397 1959 397 
Q 2419 397 2687 759 
Q 2956 1122 2956 1747 
Q 2956 2369 2687 2733 
Q 2419 3097 1959 3097 
z
M 1959 3584 
Q 2709 3584 3137 3096 
Q 3566 2609 3566 1747 
Q 3566 888 3137 398 
Q 2709 -91 1959 -91 
Q 1206 -91 779 398 
Q 353 888 353 1747 
Q 353 2609 779 3096 
Q 1206 3584 1959 3584 
z
" transform="scale(0.015625)"/>
       <path id="DejaVuSans-49" d="M 2375 4863 
L 2375 4384 
L 1825 4384 
Q 1516 4384 1395 4259 
Q 1275 4134 1275 3809 
L 1275 3500 
L 2222 3500 
L 2222 3053 
L 1275 3053 
L 1275 0 
L 697 0 
L 697 3053 
L 147 3053 
L 147 3500 
L 697 3500 
L 697 3744 
Q 697 4328 969 4595 
Q 1241 4863 1831 4863 
L 2375 4863 
z
" transform="scale(0.015625)"/>
       <path id="DejaVuSans-20" d="M 678 2906 
L 4684 2906 
L 4684 2381 
L 678 2381 
L 678 2906 
z
M 678 1631 
L 4684 1631 
L 4684 1100 
L 678 1100 
L 678 1631 
z
" transform="scale(0.015625)"/>
       <path id="DejaVuSans-1c" d="M 703 97 
L 703 672 
Q 941 559 1184 500 
Q 1428 441 1663 441 
Q 2288 441 2617 861 
Q 2947 1281 2994 2138 
Q 2813 1869 2534 1725 
Q 2256 1581 1919 1581 
Q 1219 1581 811 2004 
Q 403 2428 403 3163 
Q 403 3881 828 4315 
Q 1253 4750 1959 4750 
Q 2769 4750 3195 4129 
Q 3622 3509 3622 2328 
Q 3622 1225 3098 567 
Q 2575 -91 1691 -91 
Q 1453 -91 1209 -44 
Q 966 3 703 97 
z
M 1959 2075 
Q 2384 2075 2632 2365 
Q 2881 2656 2881 3163 
Q 2881 3666 2632 3958 
Q 2384 4250 1959 4250 
Q 1534 4250 1286 3958 
Q 1038 3666 1038 3163 
Q 1038 2656 1286 2365 
Q 1534 2075 1959 2075 
z
" transform="scale(0.015625)"/>
       <path id="DejaVuSans-11" d="M 684 794 
L 1344 794 
L 1344 0 
L 684 0 
L 684 794 
z
" transform="scale(0.015625)"/>
       <path id="DejaVuSans-2b" d="M 628 4666 
L 1259 4666 
L 1259 2753 
L 3553 2753 
L 3553 4666 
L 4184 4666 
L 4184 0 
L 3553 0 
L 3553 2222 
L 1259 2222 
L 1259 0 
L 628 0 
L 628 4666 
z
" transform="scale(0.015625)"/>
       <path id="DejaVuSans-5d" d="M 353 3500 
L 3084 3500 
L 3084 2975 
L 922 459 
L 3084 459 
L 3084 0 
L 275 0 
L 275 525 
L 2438 3041 
L 353 3041 
L 353 3500 
z
" transform="scale(0.015625)"/>
       <path id="DejaVuSans-c" d="M 513 4856 
L 1013 4856 
Q 1481 4119 1714 3412 
Q 1947 2706 1947 2009 
Q 1947 1309 1714 600 
Q 1481 -109 1013 -844 
L 513 -844 
Q 928 -128 1133 580 
Q 1338 1288 1338 2009 
Q 1338 2731 1133 3434 
Q 928 4138 513 4856 
z
" transform="scale(0.015625)"/>
      </defs>
      <use xlink:href="#DejaVuSans-53"/>
      <use xlink:href="#DejaVuSans-44" transform="translate(63.484375 0)"/>
      <use xlink:href="#DejaVuSans-55" transform="translate(124.765625 0)"/>
      <use xlink:href="#DejaVuSans-57" transform="translate(165.875 0)"/>
      <use xlink:href="#DejaVuSans-4c" transform="translate(205.078125 0)"/>
      <use xlink:href="#DejaVuSans-44" transform="translate(232.859375 0)"/>
      <use xlink:href="#DejaVuSans-4f" transform="translate(294.140625 0)"/>
      <use xlink:href="#DejaVuSans-3" transform="translate(321.921875 0)"/>
      <use xlink:href="#DejaVuSans-51" transform="translate(353.703125 0)"/>
      <use xlink:href="#DejaVuSans-58" transform="translate(417.078125 0)"/>
      <use xlink:href="#DejaVuSans-50" transform="translate(480.453125 0)"/>
      <use xlink:href="#DejaVuSans-45" transform="translate(577.859375 0)"/>
      <use xlink:href="#DejaVuSans-48" transform="translate(641.34375 0)"/>
      <use xlink:href="#DejaVuSans-55" transform="translate(702.875 0)"/>
      <use xlink:href="#DejaVuSans-3" transform="translate(743.984375 0)"/>
      <use xlink:href="#DejaVuSans-4e" transform="translate(775.765625 0)"/>
      <use xlink:href="#DejaVuSans-3" transform="translate(833.671875 0)"/>
      <use xlink:href="#DejaVuSans-b" transform="translate(865.453125 0)"/>
      <use xlink:href="#DejaVuSans-52" transform="translate(904.46875 0)"/>
      <use xlink:href="#DejaVuSans-49" transform="translate(965.65625 0)"/>
      <use xlink:href="#DejaVuSans-3" transform="translate(1000.859375 0)"/>
      <use xlink:href="#DejaVuSans-49" transform="translate(1032.640625 0)"/>
      <use xlink:href="#DejaVuSans-13" transform="translate(1067.84375 0)"/>
      <use xlink:href="#DejaVuSans-3" transform="translate(1131.46875 0)"/>
      <use xlink:href="#DejaVuSans-20" transform="translate(1163.25 0)"/>
      <use xlink:href="#DejaVuSans-3" transform="translate(1247.046875 0)"/>
      <use xlink:href="#DejaVuSans-15" transform="translate(1278.828125 0)"/>
      <use xlink:href="#DejaVuSans-14" transform="translate(1342.453125 0)"/>
      <use xlink:href="#DejaVuSans-1c" transform="translate(1406.078125 0)"/>
      <use xlink:href="#DejaVuSans-11" transform="translate(1469.703125 0)"/>
      <use xlink:href="#DejaVuSans-1c" transform="translate(1501.484375 0)"/>
      <use xlink:href="#DejaVuSans-16" transform="translate(1565.109375 0)"/>
      <use xlink:href="#DejaVuSans-3" transform="translate(1628.734375 0)"/>
      <use xlink:href="#DejaVuSans-2b" transform="translate(1660.515625 0)"/>
      <use xlink:href="#DejaVuSans-5d" transform="translate(1735.71875 0)"/>
      <use xlink:href="#DejaVuSans-c" transform="translate(1788.203125 0)"/>
     </g>
    </g>
   </g>
   <g id="matplotlib.axis_2">
    <g id="ytick_1">
     <g id="line2d_17">
      <path d="M 47.195 208.882318 
L 448.955 208.882318 
" clip-path="url(#p46df89afb9)" style="fill: none; stroke: #262b35; stroke-width: 0.6; stroke-linecap: square"/>
     </g>
     <g id="line2d_18">
      <defs>
       <path id="m0e0be00f70" d="M 0 0 
L -3.5 0 
" style="stroke: #7d8593; stroke-width: 0.8"/>
      </defs>
      <g>
       <use xlink:href="#m0e0be00f70" x="47.195" y="208.882318" style="fill: #7d8593; stroke: #7d8593; stroke-width: 0.8"/>
      </g>
     </g>
     <g id="text_10">
      <!-- −20 -->
      <g style="fill: #7d8593" transform="translate(21.200781 212.301263) scale(0.09 -0.09)">
       <defs>
        <path id="DejaVuSans-c9c" d="M 678 2272 
L 4684 2272 
L 4684 1741 
L 678 1741 
L 678 2272 
z
" transform="scale(0.015625)"/>
       </defs>
       <use xlink:href="#DejaVuSans-c9c"/>
       <use xlink:href="#DejaVuSans-15" transform="translate(83.796875 0)"/>
       <use xlink:href="#DejaVuSans-13" transform="translate(147.421875 0)"/>
      </g>
     </g>
    </g>
    <g id="ytick_2">
     <g id="line2d_19">
      <path d="M 47.195 176.922419 
L 448.955 176.922419 
" clip-path="url(#p46df89afb9)" style="fill: none; stroke: #262b35; stroke-width: 0.6; stroke-linecap: square"/>
     </g>
     <g id="line2d_20">
      <g>
       <use xlink:href="#m0e0be00f70" x="47.195" y="176.922419" style="fill: #7d8593; stroke: #7d8593; stroke-width: 0.8"/>
      </g>
     </g>
     <g id="text_11">
      <!-- 0 -->
      <g style="fill: #7d8593" transform="translate(34.46875 180.341364) scale(0.09 -0.09)">
       <use xlink:href="#DejaVuSans-13"/>
      </g>
     </g>
    </g>
    <g id="ytick_3">
     <g id="line2d_21">
      <path d="M 47.195 144.962519 
L 448.955 144.962519 
" clip-path="url(#p46df89afb9)" style="fill: none; stroke: #262b35; stroke-width: 0.6; stroke-linecap: square"/>
     </g>
     <g id="line2d_22">
      <g>
       <use xlink:href="#m0e0be00f70" x="47.195" y="144.962519" style="fill: #7d8593; stroke: #7d8593; stroke-width: 0.8"/>
      </g>
     </g>
     <g id="text_12">
      <!-- 20 -->
      <g style="fill: #7d8593" transform="translate(28.7425 148.381465) scale(0.09 -0.09)">
       <use xlink:href="#DejaVuSans-15"/>
       <use xlink:href="#DejaVuSans-13" transform="translate(63.625 0)"/>
      </g>
     </g>
    </g>
    <g id="ytick_4">
     <g id="line2d_23">
      <path d="M 47.195 113.00262 
L 448.955 113.00262 
" clip-path="url(#p46df89afb9)" style="fill: none; stroke: #262b35; stroke-width: 0.6; stroke-linecap: square"/>
     </g>
     <g id="line2d_24">
      <g>
       <use xlink:href="#m0e0be00f70" x="47.195" y="113.00262" style="fill: #7d8593; stroke: #7d8593; stroke-width: 0.8"/>
      </g>
     </g>
     <g id="text_13">
      <!-- 40 -->
      <g style="fill: #7d8593" transform="translate(28.7425 116.421565) scale(0.09 -0.09)">
       <use xlink:href="#DejaVuSans-17"/>
       <use xlink:href="#DejaVuSans-13" transform="translate(63.625 0)"/>
      </g>
     </g>
    </g>
    <g id="ytick_5">
     <g id="line2d_25">
      <path d="M 47.195 81.04272 
L 448.955 81.04272 
" clip-path="url(#p46df89afb9)" style="fill: none; stroke: #262b35; stroke-width: 0.6; stroke-linecap: square"/>
     </g>
     <g id="line2d_26">
      <g>
       <use xlink:href="#m0e0be00f70" x="47.195" y="81.04272" style="fill: #7d8593; stroke: #7d8593; stroke-width: 0.8"/>
      </g>
     </g>
     <g id="text_14">
      <!-- 60 -->
      <g style="fill: #7d8593" transform="translate(28.7425 84.461666) scale(0.09 -0.09)">
       <defs>
        <path id="DejaVuSans-19" d="M 2113 2584 
Q 1688 2584 1439 2293 
Q 1191 2003 1191 1497 
Q 1191 994 1439 701 
Q 1688 409 2113 409 
Q 2538 409 2786 701 
Q 3034 994 3034 1497 
Q 3034 2003 2786 2293 
Q 2538 2584 2113 2584 
z
M 3366 4563 
L 3366 3988 
Q 3128 4100 2886 4159 
Q 2644 4219 2406 4219 
Q 1781 4219 1451 3797 
Q 1122 3375 1075 2522 
Q 1259 2794 1537 2939 
Q 1816 3084 2150 3084 
Q 2853 3084 3261 2657 
Q 3669 2231 3669 1497 
Q 3669 778 3244 343 
Q 2819 -91 2113 -91 
Q 1303 -91 875 529 
Q 447 1150 447 2328 
Q 447 3434 972 4092 
Q 1497 4750 2381 4750 
Q 2619 4750 2861 4703 
Q 3103 4656 3366 4563 
z
" transform="scale(0.015625)"/>
       </defs>
       <use xlink:href="#DejaVuSans-19"/>
       <use xlink:href="#DejaVuSans-13" transform="translate(63.625 0)"/>
      </g>
     </g>
    </g>
    <g id="ytick_6">
     <g id="line2d_27">
      <path d="M 47.195 49.082821 
L 448.955 49.082821 
" clip-path="url(#p46df89afb9)" style="fill: none; stroke: #262b35; stroke-width: 0.6; stroke-linecap: square"/>
     </g>
     <g id="line2d_28">
      <g>
       <use xlink:href="#m0e0be00f70" x="47.195" y="49.082821" style="fill: #7d8593; stroke: #7d8593; stroke-width: 0.8"/>
      </g>
     </g>
     <g id="text_15">
      <!-- 80 -->
      <g style="fill: #7d8593" transform="translate(28.7425 52.501766) scale(0.09 -0.09)">
       <defs>
        <path id="DejaVuSans-1b" d="M 2034 2216 
Q 1584 2216 1326 1975 
Q 1069 1734 1069 1313 
Q 1069 891 1326 650 
Q 1584 409 2034 409 
Q 2484 409 2743 651 
Q 3003 894 3003 1313 
Q 3003 1734 2745 1975 
Q 2488 2216 2034 2216 
z
M 1403 2484 
Q 997 2584 770 2862 
Q 544 3141 544 3541 
Q 544 4100 942 4425 
Q 1341 4750 2034 4750 
Q 2731 4750 3128 4425 
Q 3525 4100 3525 3541 
Q 3525 3141 3298 2862 
Q 3072 2584 2669 2484 
Q 3125 2378 3379 2068 
Q 3634 1759 3634 1313 
Q 3634 634 3220 271 
Q 2806 -91 2034 -91 
Q 1263 -91 848 271 
Q 434 634 434 1313 
Q 434 1759 690 2068 
Q 947 2378 1403 2484 
z
M 1172 3481 
Q 1172 3119 1398 2916 
Q 1625 2713 2034 2713 
Q 2441 2713 2670 2916 
Q 2900 3119 2900 3481 
Q 2900 3844 2670 4047 
Q 2441 4250 2034 4250 
Q 1625 4250 1398 4047 
Q 1172 3844 1172 3481 
z
" transform="scale(0.015625)"/>
       </defs>
       <use xlink:href="#DejaVuSans-1b"/>
       <use xlink:href="#DejaVuSans-13" transform="translate(63.625 0)"/>
      </g>
     </g>
    </g>
    <g id="text_16">
     <!-- deviation from k*f0 (cents) -->
     <g style="fill: #969ba6" transform="translate(14.798438 188.031063) rotate(-90) scale(0.1 -0.1)">
      <defs>
       <path id="DejaVuSans-47" d="M 2906 2969 
L 2906 4863 
L 3481 4863 
L 3481 0 
L 2906 0 
L 2906 525 
Q 2725 213 2448 61 
Q 2172 -91 1784 -91 
Q 1150 -91 751 415 
Q 353 922 353 1747 
Q 353 2572 751 3078 
Q 1150 3584 1784 3584 
Q 2172 3584 2448 3432 
Q 2725 3281 2906 2969 
z
M 947 1747 
Q 947 1113 1208 752 
Q 1469 391 1925 391 
Q 2381 391 2643 752 
Q 2906 1113 2906 1747 
Q 2906 2381 2643 2742 
Q 2381 3103 1925 3103 
Q 1469 3103 1208 2742 
Q 947 2381 947 1747 
z
" transform="scale(0.015625)"/>
       <path id="DejaVuSans-59" d="M 191 3500 
L 800 3500 
L 1894 563 
L 2988 3500 
L 3597 3500 
L 2284 0 
L 1503 0 
L 191 3500 
z
" transform="scale(0.015625)"/>
       <path id="DejaVuSans-d" d="M 3009 3897 
L 1888 3291 
L 3009 2681 
L 2828 2375 
L 1778 3009 
L 1778 1831 
L 1422 1831 
L 1422 3009 
L 372 2375 
L 191 2681 
L 1313 3291 
L 191 3897 
L 372 4206 
L 1422 3572 
L 1422 4750 
L 1778 4750 
L 1778 3572 
L 2828 4206 
L 3009 3897 
z
" transform="scale(0.015625)"/>
       <path id="DejaVuSans-46" d="M 3122 3366 
L 3122 2828 
Q 2878 2963 2633 3030 
Q 2388 3097 2138 3097 
Q 1578 3097 1268 2742 
Q 959 2388 959 1747 
Q 959 1106 1268 751 
Q 1578 397 2138 397 
Q 2388 397 2633 464 
Q 2878 531 3122 666 
L 3122 134 
Q 2881 22 2623 -34 
Q 2366 -91 2075 -91 
Q 1284 -91 818 406 
Q 353 903 353 1747 
Q 353 2603 823 3093 
Q 1294 3584 2113 3584 
Q 2378 3584 2631 3529 
Q 2884 3475 3122 3366 
z
" transform="scale(0.015625)"/>
       <path id="DejaVuSans-56" d="M 2834 3397 
L 2834 2853 
Q 2591 2978 2328 3040 
Q 2066 3103 1784 3103 
Q 1356 3103 1142 2972 
Q 928 2841 928 2578 
Q 928 2378 1081 2264 
Q 1234 2150 1697 2047 
L 1894 2003 
Q 2506 1872 2764 1633 
Q 3022 1394 3022 966 
Q 3022 478 2636 193 
Q 2250 -91 1575 -91 
Q 1294 -91 989 -36 
Q 684 19 347 128 
L 347 722 
Q 666 556 975 473 
Q 1284 391 1588 391 
Q 1994 391 2212 530 
Q 2431 669 2431 922 
Q 2431 1156 2273 1281 
Q 2116 1406 1581 1522 
L 1381 1569 
Q 847 1681 609 1914 
Q 372 2147 372 2553 
Q 372 3047 722 3315 
Q 1072 3584 1716 3584 
Q 2034 3584 2315 3537 
Q 2597 3491 2834 3397 
z
" transform="scale(0.015625)"/>
      </defs>
      <use xlink:href="#DejaVuSans-47"/>
      <use xlink:href="#DejaVuSans-48" transform="translate(63.484375 0)"/>
      <use xlink:href="#DejaVuSans-59" transform="translate(125.015625 0)"/>
      <use xlink:href="#DejaVuSans-4c" transform="translate(184.203125 0)"/>
      <use xlink:href="#DejaVuSans-44" transform="translate(211.984375 0)"/>
      <use xlink:href="#DejaVuSans-57" transform="translate(273.265625 0)"/>
      <use xlink:href="#DejaVuSans-4c" transform="translate(312.46875 0)"/>
      <use xlink:href="#DejaVuSans-52" transform="translate(340.25 0)"/>
      <use xlink:href="#DejaVuSans-51" transform="translate(401.4375 0)"/>
      <use xlink:href="#DejaVuSans-3" transform="translate(464.8125 0)"/>
      <use xlink:href="#DejaVuSans-49" transform="translate(496.59375 0)"/>
      <use xlink:href="#DejaVuSans-55" transform="translate(531.796875 0)"/>
      <use xlink:href="#DejaVuSans-52" transform="translate(570.703125 0)"/>
      <use xlink:href="#DejaVuSans-50" transform="translate(631.890625 0)"/>
      <use xlink:href="#DejaVuSans-3" transform="translate(729.296875 0)"/>
      <use xlink:href="#DejaVuSans-4e" transform="translate(761.078125 0)"/>
      <use xlink:href="#DejaVuSans-d" transform="translate(818.984375 0)"/>
      <use xlink:href="#DejaVuSans-49" transform="translate(868.984375 0)"/>
      <use xlink:href="#DejaVuSans-13" transform="translate(904.1875 0)"/>
      <use xlink:href="#DejaVuSans-3" transform="translate(967.8125 0)"/>
      <use xlink:href="#DejaVuSans-b" transform="translate(999.59375 0)"/>
      <use xlink:href="#DejaVuSans-46" transform="translate(1038.609375 0)"/>
      <use xlink:href="#DejaVuSans-48" transform="translate(1093.59375 0)"/>
      <use xlink:href="#DejaVuSans-51" transform="translate(1155.125 0)"/>
      <use xlink:href="#DejaVuSans-57" transform="translate(1218.5 0)"/>
      <use xlink:href="#DejaVuSans-56" transform="translate(1257.703125 0)"/>
      <use xlink:href="#DejaVuSans-c" transform="translate(1309.796875 0)"/>
     </g>
    </g>
   </g>
   <g id="PathCollection_1">
    <path d="M 65.456818 179.182078 
C 66.449462 179.182078 67.401583 178.787696 68.103488 178.085791 
C 68.805393 177.383886 69.199775 176.431765 69.199775 175.439121 
C 69.199775 174.446478 68.805393 173.494356 68.103488 172.792451 
C 67.401583 172.090546 66.449462 171.696165 65.456818 171.696165 
C 64.464174 171.696165 63.512053 172.090546 62.810148 172.792451 
C 62.108243 173.494356 61.713862 174.446478 61.713862 175.439121 
C 61.713862 176.431765 62.108243 177.383886 62.810148 178.085791 
C 63.512053 178.787696 64.464174 179.182078 65.456818 179.182078 
L 65.456818 179.182078 
z
" clip-path="url(#p46df89afb9)" style="fill: none; stroke: #d2823e; stroke-width: 1.2"/>
    <path d="M 75.328071 32.135558 
C 75.928788 32.135558 76.504982 31.89689 76.929753 31.472119 
C 77.354524 31.047348 77.593192 30.471154 77.593192 29.870438 
C 77.593192 29.269721 77.354524 28.693527 76.929753 28.268756 
C 76.504982 27.843985 75.928788 27.605317 75.328071 27.605317 
C 74.727354 27.605317 74.15116 27.843985 73.726389 28.268756 
C 73.301618 28.693527 73.062951 29.269721 73.062951 29.870438 
C 73.062951 30.471154 73.301618 31.047348 73.726389 31.472119 
C 74.15116 31.89689 74.727354 32.135558 75.328071 32.135558 
L 75.328071 32.135558 
z
" clip-path="url(#p46df89afb9)" style="fill: none; stroke: #d2823e; stroke-width: 1.2"/>
    <path d="M 85.199324 101.384538 
C 85.799845 101.384538 86.375851 101.145948 86.800483 100.721316 
C 87.225115 100.296684 87.463704 99.720678 87.463704 99.120158 
C 87.463704 98.519637 87.225115 97.943632 86.800483 97.518999 
C 86.375851 97.094367 85.799845 96.855778 85.199324 96.855778 
C 84.598804 96.855778 84.022798 97.094367 83.598166 97.518999 
C 83.173534 97.943632 82.934944 98.519637 82.934944 99.120158 
C 82.934944 99.720678 83.173534 100.296684 83.598166 100.721316 
C 84.022798 101.145948 84.598804 101.384538 85.199324 101.384538 
L 85.199324 101.384538 
z
" clip-path="url(#p46df89afb9)" style="fill: none; stroke: #d2823e; stroke-width: 1.2"/>
    <path d="M 95.070577 213.560706 
C 95.667356 213.560706 96.239772 213.323604 96.661758 212.901618 
C 97.083743 212.479632 97.320846 211.907216 97.320846 211.310437 
C 97.320846 210.713659 97.083743 210.141243 96.661758 209.719257 
C 96.239772 209.297271 95.667356 209.060169 95.070577 209.060169 
C 94.473799 209.060169 93.901383 209.297271 93.479397 209.719257 
C 93.057411 210.141243 92.820309 210.713659 92.820309 211.310437 
C 92.820309 211.907216 93.057411 212.479632 93.479397 212.901618 
C 93.901383 213.323604 94.473799 213.560706 95.070577 213.560706 
L 95.070577 213.560706 
z
" clip-path="url(#p46df89afb9)" style="fill: none; stroke: #d2823e; stroke-width: 1.2"/>
    <path d="M 95.070577 188.393667 
C 95.83444 188.393667 96.567119 188.090181 97.107251 187.550049 
C 97.647383 187.009917 97.950869 186.277238 97.950869 185.513376 
C 97.950869 184.749514 97.647383 184.016835 97.107251 183.476702 
C 96.567119 182.93657 95.83444 182.633085 95.070577 182.633085 
C 94.306715 182.633085 93.574036 182.93657 93.033904 183.476702 
C 92.493772 184.016835 92.190286 184.749514 92.190286 185.513376 
C 92.190286 186.277238 92.493772 187.009917 93.033904 187.550049 
C 93.574036 188.090181 94.306715 188.393667 95.070577 188.393667 
L 95.070577 188.393667 
z
" clip-path="url(#p46df89afb9)" style="fill: none; stroke: #d2823e; stroke-width: 1.2"/>
    <path d="M 124.684337 175.617653 
C 125.288576 175.617653 125.86815 175.377586 126.295412 174.950323 
C 126.722674 174.523061 126.962741 173.943488 126.962741 173.339248 
C 126.962741 172.735009 126.722674 172.155436 126.295412 171.728173 
C 125.86815 171.300911 125.288576 171.060844 124.684337 171.060844 
C 124.080097 171.060844 123.500524 171.300911 123.073262 171.728173 
C 122.645999 172.155436 122.405932 172.735009 122.405932 173.339248 
C 122.405932 173.943488 122.645999 174.523061 123.073262 174.950323 
C 123.500524 175.377586 124.080097 175.617653 124.684337 175.617653 
L 124.684337 175.617653 
z
" clip-path="url(#p46df89afb9)" style="fill: none; stroke: #d2823e; stroke-width: 1.2"/>
    <path d="M 134.55559 202.027669 
C 135.154931 202.027669 135.729806 201.789548 136.153604 201.36575 
C 136.577402 200.941951 136.815523 200.367077 136.815523 199.767735 
C 136.815523 199.168394 136.577402 198.59352 136.153604 198.169721 
C 135.729806 197.745923 135.154931 197.507802 134.55559 197.507802 
C 133.956248 197.507802 133.381374 197.745923 132.957576 198.169721 
C 132.533777 198.59352 132.295656 199.168394 132.295656 199.767735 
C 132.295656 200.367077 132.533777 200.941951 132.957576 201.36575 
C 133.381374 201.789548 133.956248 202.027669 134.55559 202.027669 
L 134.55559 202.027669 
z
" clip-path="url(#p46df89afb9)" style="fill: none; stroke: #d2823e; stroke-width: 1.2"/>
    <path d="M 144.426843 166.859924 
C 145.027756 166.859924 145.604138 166.621178 146.029048 166.196268 
C 146.453958 165.771359 146.692703 165.194976 146.692703 164.594063 
C 146.692703 163.99315 146.453958 163.416768 146.029048 162.991858 
C 145.604138 162.566948 145.027756 162.328203 144.426843 162.328203 
C 143.82593 162.328203 143.249547 162.566948 142.824638 162.991858 
C 142.399728 163.416768 142.160982 163.99315 142.160982 164.594063 
C 142.160982 165.194976 142.399728 165.771359 142.824638 166.196268 
C 143.249547 166.621178 143.82593 166.859924 144.426843 166.859924 
L 144.426843 166.859924 
z
" clip-path="url(#p46df89afb9)" style="fill: none; stroke: #d2823e; stroke-width: 1.2"/>
    <path d="M 154.298096 168.408927 
C 154.913742 168.408927 155.504255 168.164328 155.939583 167.729001 
C 156.37491 167.293674 156.619509 166.70316 156.619509 166.087514 
C 156.619509 165.471868 156.37491 164.881355 155.939583 164.446027 
C 155.504255 164.0107 154.913742 163.766101 154.298096 163.766101 
C 153.68245 163.766101 153.091936 164.0107 152.656609 164.446027 
C 152.221282 164.881355 151.976683 165.471868 151.976683 166.087514 
C 151.976683 166.70316 152.221282 167.293674 152.656609 167.729001 
C 153.091936 168.164328 153.68245 168.408927 154.298096 168.408927 
L 154.298096 168.408927 
z
" clip-path="url(#p46df89afb9)" style="fill: none; stroke: #d2823e; stroke-width: 1.2"/>
    <path d="M 174.040602 207.014264 
C 174.647762 207.014264 175.230136 206.773037 175.659463 206.34371 
C 176.08879 205.914383 176.330017 205.332009 176.330017 204.724849 
C 176.330017 204.117689 176.08879 203.535315 175.659463 203.105988 
C 175.230136 202.676661 174.647762 202.435434 174.040602 202.435434 
C 173.433442 202.435434 172.851068 202.676661 172.421741 203.105988 
C 171.992414 203.535315 171.751187 204.117689 171.751187 204.724849 
C 171.751187 205.332009 171.992414 205.914383 172.421741 206.34371 
C 172.851068 206.773037 173.433442 207.014264 174.040602 207.014264 
L 174.040602 207.014264 
z
" clip-path="url(#p46df89afb9)" style="fill: none; stroke: #d2823e; stroke-width: 1.2"/>
    <path d="M 183.911855 174.304448 
C 184.534168 174.304448 185.131077 174.0572 185.571119 173.617158 
C 186.011161 173.177116 186.258409 172.580208 186.258409 171.957894 
C 186.258409 171.335581 186.011161 170.738672 185.571119 170.29863 
C 185.131077 169.858588 184.534168 169.611341 183.911855 169.611341 
C 183.289542 169.611341 182.692633 169.858588 182.252591 170.29863 
C 181.812549 170.738672 181.565301 171.335581 181.565301 171.957894 
C 181.565301 172.580208 181.812549 173.177116 182.252591 173.617158 
C 182.692633 174.0572 183.289542 174.304448 183.911855 174.304448 
L 183.911855 174.304448 
z
" clip-path="url(#p46df89afb9)" style="fill: none; stroke: #d2823e; stroke-width: 1.2"/>
    <path d="M 193.783108 179.963039 
C 194.404853 179.963039 195.001216 179.716017 195.440856 179.276377 
C 195.880496 178.836737 196.127518 178.240374 196.127518 177.618629 
C 196.127518 176.996884 195.880496 176.400521 195.440856 175.960881 
C 195.001216 175.521241 194.404853 175.27422 193.783108 175.27422 
C 193.161363 175.27422 192.565 175.521241 192.12536 175.960881 
C 191.68572 176.400521 191.438699 176.996884 191.438699 177.618629 
C 191.438699 178.240374 191.68572 178.836737 192.12536 179.276377 
C 192.565 179.716017 193.161363 179.963039 193.783108 179.963039 
L 193.783108 179.963039 
z
" clip-path="url(#p46df89afb9)" style="fill: none; stroke: #d2823e; stroke-width: 1.2"/>
    <path d="M 203.654361 160.178513 
C 204.268089 160.178513 204.856762 159.934677 205.290733 159.500706 
C 205.724704 159.066735 205.968541 158.478061 205.968541 157.864334 
C 205.968541 157.250606 205.724704 156.661933 205.290733 156.227962 
C 204.856762 155.793991 204.268089 155.550154 203.654361 155.550154 
C 203.040634 155.550154 202.45196 155.793991 202.017989 156.227962 
C 201.584018 156.661933 201.340182 157.250606 201.340182 157.864334 
C 201.340182 158.478061 201.584018 159.066735 202.017989 159.500706 
C 202.45196 159.934677 203.040634 160.178513 203.654361 160.178513 
L 203.654361 160.178513 
z
" clip-path="url(#p46df89afb9)" style="fill: none; stroke: #d2823e; stroke-width: 1.2"/>
    <path d="M 213.525614 182.067712 
C 214.153774 182.067712 214.756291 181.818141 215.200467 181.373965 
C 215.644643 180.929789 215.894213 180.327273 215.894213 179.699113 
C 215.894213 179.070953 215.644643 178.468437 215.200467 178.024261 
C 214.756291 177.580085 214.153774 177.330514 213.525614 177.330514 
C 212.897454 177.330514 212.294938 177.580085 211.850762 178.024261 
C 211.406586 178.468437 211.157015 179.070953 211.157015 179.699113 
C 211.157015 180.327273 211.406586 180.929789 211.850762 181.373965 
C 212.294938 181.818141 212.897454 182.067712 213.525614 182.067712 
L 213.525614 182.067712 
z
" clip-path="url(#p46df89afb9)" style="fill: none; stroke: #d2823e; stroke-width: 1.2"/>
    <path d="M 223.396867 179.782914 
C 224.0515 179.782914 224.679409 179.522825 225.142305 179.05993 
C 225.6052 178.597035 225.865289 177.969125 225.865289 177.314492 
C 225.865289 176.65986 225.6052 176.03195 225.142305 175.569055 
C 224.679409 175.10616 224.0515 174.846071 223.396867 174.846071 
C 222.742234 174.846071 222.114325 175.10616 221.65143 175.569055 
C 221.188534 176.03195 220.928446 176.65986 220.928446 177.314492 
C 220.928446 177.969125 221.188534 178.597035 221.65143 179.05993 
C 222.114325 179.522825 222.742234 179.782914 223.396867 179.782914 
L 223.396867 179.782914 
z
" clip-path="url(#p46df89afb9)" style="fill: none; stroke: #d2823e; stroke-width: 1.2"/>
    <path d="M 243.139373 178.954688 
C 243.821355 178.954688 244.475495 178.683734 244.957729 178.201501 
C 245.439962 177.719268 245.710916 177.065127 245.710916 176.383146 
C 245.710916 175.701165 245.439962 175.047024 244.957729 174.564791 
C 244.475495 174.082557 243.821355 173.811603 243.139373 173.811603 
C 242.457392 173.811603 241.803252 174.082557 241.321018 174.564791 
C 240.838785 175.047024 240.567831 175.701165 240.567831 176.383146 
C 240.567831 177.065127 240.838785 177.719268 241.321018 178.201501 
C 241.803252 178.683734 242.457392 178.954688 243.139373 178.954688 
L 243.139373 178.954688 
z
" clip-path="url(#p46df89afb9)" style="fill: none; stroke: #d2823e; stroke-width: 1.2"/>
    <path d="M 272.753133 186.981966 
C 273.614643 186.981966 274.440984 186.639684 275.050163 186.030505 
C 275.659343 185.421325 276.001625 184.594984 276.001625 183.733474 
C 276.001625 182.871964 275.659343 182.045623 275.050163 181.436443 
C 274.440984 180.827264 273.614643 180.484982 272.753133 180.484982 
C 271.891623 180.484982 271.065282 180.827264 270.456102 181.436443 
C 269.846922 182.045623 269.504641 182.871964 269.504641 183.733474 
C 269.504641 184.594984 269.846922 185.421325 270.456102 186.030505 
C 271.065282 186.639684 271.891623 186.981966 272.753133 186.981966 
L 272.753133 186.981966 
z
" clip-path="url(#p46df89afb9)" style="fill: none; stroke: #d2823e; stroke-width: 1.2"/>
    <path d="M 322.109398 191.423859 
C 322.98287 191.423859 323.820684 191.076825 324.438322 190.459187 
C 325.055959 189.841549 325.402993 189.003735 325.402993 188.130263 
C 325.402993 187.256792 325.055959 186.418978 324.438322 185.80134 
C 323.820684 185.183702 322.98287 184.836668 322.109398 184.836668 
C 321.235926 184.836668 320.398112 185.183702 319.780474 185.80134 
C 319.162837 186.418978 318.815803 187.256792 318.815803 188.130263 
C 318.815803 189.003735 319.162837 189.841549 319.780474 190.459187 
C 320.398112 191.076825 321.235926 191.423859 322.109398 191.423859 
L 322.109398 191.423859 
z
" clip-path="url(#p46df89afb9)" style="fill: none; stroke: #d2823e; stroke-width: 1.2"/>
    <path d="M 351.723157 182.161927 
C 352.685646 182.161927 353.608842 181.779526 354.289424 181.098944 
C 354.970006 180.418362 355.352407 179.495165 355.352407 178.532677 
C 355.352407 177.570189 354.970006 176.646992 354.289424 175.96641 
C 353.608842 175.285828 352.685646 174.903427 351.723157 174.903427 
C 350.760669 174.903427 349.837472 175.285828 349.15689 175.96641 
C 348.476308 176.646992 348.093907 177.570189 348.093907 178.532677 
C 348.093907 179.495165 348.476308 180.418362 349.15689 181.098944 
C 349.837472 181.779526 350.760669 182.161927 351.723157 182.161927 
L 351.723157 182.161927 
z
" clip-path="url(#p46df89afb9)" style="fill: none; stroke: #d2823e; stroke-width: 1.2"/>
    <path d="M 391.20817 178.088077 
C 392.043975 178.088077 392.845661 177.756008 393.436664 177.165004 
C 394.027668 176.574001 394.359737 175.772315 394.359737 174.936509 
C 394.359737 174.100704 394.027668 173.299018 393.436664 172.708014 
C 392.845661 172.117011 392.043975 171.784942 391.20817 171.784942 
C 390.372364 171.784942 389.570678 172.117011 388.979675 172.708014 
C 388.388671 173.299018 388.056602 174.100704 388.056602 174.936509 
C 388.056602 175.772315 388.388671 176.574001 388.979675 177.165004 
C 389.570678 177.756008 390.372364 178.088077 391.20817 178.088077 
L 391.20817 178.088077 
z
" clip-path="url(#p46df89afb9)" style="fill: none; stroke: #d2823e; stroke-width: 1.2"/>
    <path d="M 430.693182 207.873693 
C 432.262145 207.873693 433.767058 207.250338 434.876482 206.140914 
C 435.985906 205.031489 436.609262 203.526576 436.609262 201.957613 
C 436.609262 200.388651 435.985906 198.883737 434.876482 197.774313 
C 433.767058 196.664889 432.262145 196.041534 430.693182 196.041534 
C 429.124219 196.041534 427.619306 196.664889 426.509882 197.774313 
C 425.400458 198.883737 424.777102 200.388651 424.777102 201.957613 
C 424.777102 203.526576 425.400458 205.031489 426.509882 206.140914 
C 427.619306 207.250338 429.124219 207.873693 430.693182 207.873693 
L 430.693182 207.873693 
z
" clip-path="url(#p46df89afb9)" style="fill: none; stroke: #d2823e; stroke-width: 1.2"/>
   </g>
   <g id="line2d_29">
    <path d="M 47.195 176.922419 
L 448.955 176.922419 
" clip-path="url(#p46df89afb9)" style="fill: none; stroke: #5a6170; stroke-width: 0.8; stroke-linecap: square"/>
   </g>
   <g id="patch_3">
    <path d="M 47.195 220.382437 
L 47.195 20.798438 
" style="fill: none; stroke: #39414f; stroke-width: 0.8; stroke-linejoin: miter; stroke-linecap: square"/>
   </g>
   <g id="patch_4">
    <path d="M 448.955 220.382437 
L 448.955 20.798438 
" style="fill: none; stroke: #39414f; stroke-width: 0.8; stroke-linejoin: miter; stroke-linecap: square"/>
   </g>
   <g id="patch_5">
    <path d="M 47.195 220.382437 
L 448.955 220.382437 
" style="fill: none; stroke: #39414f; stroke-width: 0.8; stroke-linejoin: miter; stroke-linecap: square"/>
   </g>
   <g id="patch_6">
    <path d="M 47.195 20.798438 
L 448.955 20.798438 
" style="fill: none; stroke: #39414f; stroke-width: 0.8; stroke-linejoin: miter; stroke-linecap: square"/>
   </g>
   <g id="text_17">
    <!-- the dispersion stretch, as measured by the fit -->
    <g style="fill: #d6dbe1" transform="translate(133.898438 14.798438) scale(0.1 -0.1)">
     <defs>
      <path id="DejaVuSans-4b" d="M 3513 2113 
L 3513 0 
L 2938 0 
L 2938 2094 
Q 2938 2591 2744 2837 
Q 2550 3084 2163 3084 
Q 1697 3084 1428 2787 
Q 1159 2491 1159 1978 
L 1159 0 
L 581 0 
L 581 4863 
L 1159 4863 
L 1159 2956 
Q 1366 3272 1645 3428 
Q 1925 3584 2291 3584 
Q 2894 3584 3203 3211 
Q 3513 2838 3513 2113 
z
" transform="scale(0.015625)"/>
      <path id="DejaVuSans-f" d="M 750 794 
L 1409 794 
L 1409 256 
L 897 -744 
L 494 -744 
L 750 256 
L 750 794 
z
" transform="scale(0.015625)"/>
      <path id="DejaVuSans-5c" d="M 2059 -325 
Q 1816 -950 1584 -1140 
Q 1353 -1331 966 -1331 
L 506 -1331 
L 506 -850 
L 844 -850 
Q 1081 -850 1212 -737 
Q 1344 -625 1503 -206 
L 1606 56 
L 191 3500 
L 800 3500 
L 1894 763 
L 2988 3500 
L 3597 3500 
L 2059 -325 
z
" transform="scale(0.015625)"/>
      <path id="DejaVuSans-13af" d="M 3431 3500 
L 3431 0 
L 2853 0 
L 2853 3053 
L 1275 3053 
L 1275 0 
L 697 0 
L 697 3053 
L 147 3053 
L 147 3500 
L 697 3500 
L 697 3744 
Q 697 4316 967 4589 
Q 1238 4863 1797 4863 
L 2375 4863 
L 2375 4384 
L 1825 4384 
Q 1516 4384 1395 4259 
Q 1275 4134 1275 3809 
L 1275 3500 
L 3431 3500 
z
M 2853 4856 
L 3431 4856 
L 3431 4128 
L 2853 4128 
L 2853 4856 
z
" transform="scale(0.015625)"/>
     </defs>
     <use xlink:href="#DejaVuSans-57"/>
     <use xlink:href="#DejaVuSans-4b" transform="translate(39.203125 0)"/>
     <use xlink:href="#DejaVuSans-48" transform="translate(102.578125 0)"/>
     <use xlink:href="#DejaVuSans-3" transform="translate(164.109375 0)"/>
     <use xlink:href="#DejaVuSans-47" transform="translate(195.890625 0)"/>
     <use xlink:href="#DejaVuSans-4c" transform="translate(259.375 0)"/>
     <use xlink:href="#DejaVuSans-56" transform="translate(287.15625 0)"/>
     <use xlink:href="#DejaVuSans-53" transform="translate(339.25 0)"/>
     <use xlink:href="#DejaVuSans-48" transform="translate(402.734375 0)"/>
     <use xlink:href="#DejaVuSans-55" transform="translate(464.265625 0)"/>
     <use xlink:href="#DejaVuSans-56" transform="translate(505.375 0)"/>
     <use xlink:href="#DejaVuSans-4c" transform="translate(557.46875 0)"/>
     <use xlink:href="#DejaVuSans-52" transform="translate(585.25 0)"/>
     <use xlink:href="#DejaVuSans-51" transform="translate(646.4375 0)"/>
     <use xlink:href="#DejaVuSans-3" transform="translate(709.8125 0)"/>
     <use xlink:href="#DejaVuSans-56" transform="translate(741.59375 0)"/>
     <use xlink:href="#DejaVuSans-57" transform="translate(793.6875 0)"/>
     <use xlink:href="#DejaVuSans-55" transform="translate(832.890625 0)"/>
     <use xlink:href="#DejaVuSans-48" transform="translate(871.796875 0)"/>
     <use xlink:href="#DejaVuSans-57" transform="translate(933.328125 0)"/>
     <use xlink:href="#DejaVuSans-46" transform="translate(972.53125 0)"/>
     <use xlink:href="#DejaVuSans-4b" transform="translate(1027.515625 0)"/>
     <use xlink:href="#DejaVuSans-f" transform="translate(1090.890625 0)"/>
     <use xlink:href="#DejaVuSans-3" transform="translate(1122.671875 0)"/>
     <use xlink:href="#DejaVuSans-44" transform="translate(1154.453125 0)"/>
     <use xlink:href="#DejaVuSans-56" transform="translate(1215.734375 0)"/>
     <use xlink:href="#DejaVuSans-3" transform="translate(1267.828125 0)"/>
     <use xlink:href="#DejaVuSans-50" transform="translate(1299.609375 0)"/>
     <use xlink:href="#DejaVuSans-48" transform="translate(1397.015625 0)"/>
     <use xlink:href="#DejaVuSans-44" transform="translate(1458.546875 0)"/>
     <use xlink:href="#DejaVuSans-56" transform="translate(1519.828125 0)"/>
     <use xlink:href="#DejaVuSans-58" transform="translate(1571.921875 0)"/>
     <use xlink:href="#DejaVuSans-55" transform="translate(1635.296875 0)"/>
     <use xlink:href="#DejaVuSans-48" transform="translate(1674.203125 0)"/>
     <use xlink:href="#DejaVuSans-47" transform="translate(1735.734375 0)"/>
     <use xlink:href="#DejaVuSans-3" transform="translate(1799.21875 0)"/>
     <use xlink:href="#DejaVuSans-45" transform="translate(1831 0)"/>
     <use xlink:href="#DejaVuSans-5c" transform="translate(1894.484375 0)"/>
     <use xlink:href="#DejaVuSans-3" transform="translate(1953.671875 0)"/>
     <use xlink:href="#DejaVuSans-57" transform="translate(1985.453125 0)"/>
     <use xlink:href="#DejaVuSans-4b" transform="translate(2024.65625 0)"/>
     <use xlink:href="#DejaVuSans-48" transform="translate(2088.03125 0)"/>
     <use xlink:href="#DejaVuSans-3" transform="translate(2149.5625 0)"/>
     <use xlink:href="#DejaVuSans-13af" transform="translate(2181.34375 0)"/>
     <use xlink:href="#DejaVuSans-57" transform="translate(2244.328125 0)"/>
    </g>
   </g>
  </g>
 </g>
 <defs>
  <clipPath id="p46df89afb9">
   <rect x="47.195" y="20.798438" width="401.76" height="199.584"/>
  </clipPath>
 </defs>
</svg>
